%TF.GenerationSoftware,KiCad,Pcbnew,(5.1.9)-1*%
%TF.CreationDate,2021-02-20T10:07:39+01:00*%
%TF.ProjectId,HB-Uni-SenDose-4,48422d55-6e69-42d5-9365-6e446f73652d,rev?*%
%TF.SameCoordinates,Original*%
%TF.FileFunction,Copper,L2,Bot*%
%TF.FilePolarity,Positive*%
%FSLAX46Y46*%
G04 Gerber Fmt 4.6, Leading zero omitted, Abs format (unit mm)*
G04 Created by KiCad (PCBNEW (5.1.9)-1) date 2021-02-20 10:07:39*
%MOMM*%
%LPD*%
G01*
G04 APERTURE LIST*
%TA.AperFunction,ComponentPad*%
%ADD10O,3.000000X1.500000*%
%TD*%
%TA.AperFunction,ComponentPad*%
%ADD11R,3.000000X1.500000*%
%TD*%
%TA.AperFunction,ComponentPad*%
%ADD12C,2.500000*%
%TD*%
%TA.AperFunction,ComponentPad*%
%ADD13R,2.500000X2.500000*%
%TD*%
%TA.AperFunction,ComponentPad*%
%ADD14O,1.270000X1.270000*%
%TD*%
%TA.AperFunction,ComponentPad*%
%ADD15C,1.270000*%
%TD*%
%TA.AperFunction,WasherPad*%
%ADD16C,3.300000*%
%TD*%
%TA.AperFunction,ComponentPad*%
%ADD17C,1.524000*%
%TD*%
%TA.AperFunction,ComponentPad*%
%ADD18C,2.000000*%
%TD*%
%TA.AperFunction,ComponentPad*%
%ADD19O,1.600000X1.600000*%
%TD*%
%TA.AperFunction,ComponentPad*%
%ADD20C,1.600000*%
%TD*%
%TA.AperFunction,ComponentPad*%
%ADD21R,1.050000X1.500000*%
%TD*%
%TA.AperFunction,ComponentPad*%
%ADD22O,1.050000X1.500000*%
%TD*%
%TA.AperFunction,ComponentPad*%
%ADD23R,2.000000X2.000000*%
%TD*%
%TA.AperFunction,ComponentPad*%
%ADD24C,2.400000*%
%TD*%
%TA.AperFunction,ComponentPad*%
%ADD25O,1.700000X1.700000*%
%TD*%
%TA.AperFunction,ComponentPad*%
%ADD26R,1.700000X1.700000*%
%TD*%
%TA.AperFunction,ComponentPad*%
%ADD27O,2.400000X2.400000*%
%TD*%
%TA.AperFunction,ComponentPad*%
%ADD28R,2.400000X2.400000*%
%TD*%
%TA.AperFunction,ComponentPad*%
%ADD29C,1.800000*%
%TD*%
%TA.AperFunction,ComponentPad*%
%ADD30R,1.800000X1.800000*%
%TD*%
%TA.AperFunction,Conductor*%
%ADD31C,0.250000*%
%TD*%
%TA.AperFunction,Conductor*%
%ADD32C,0.254000*%
%TD*%
%TA.AperFunction,Conductor*%
%ADD33C,0.100000*%
%TD*%
G04 APERTURE END LIST*
D10*
%TO.P,WAGO 236-403,3*%
%TO.N,Net-(PS1-Pad2)*%
X87250000Y-64000000D03*
X92250000Y-64000000D03*
%TO.P,WAGO 236-403,2*%
%TO.N,N/C*%
X87250000Y-59000000D03*
X92250000Y-59000000D03*
D11*
%TO.P,WAGO 236-403,1*%
%TO.N,Net-(PS1-Pad1)*%
X87250000Y-54000000D03*
X92250000Y-54000000D03*
%TD*%
D12*
%TO.P,IRM-30-12,4*%
%TO.N,Net-(PS1-Pad1)*%
X102100000Y-53950000D03*
D13*
%TO.P,IRM-30-12,1*%
%TO.N,+12V*%
X163600000Y-63050000D03*
D12*
%TO.P,IRM-30-12,3*%
%TO.N,Net-(PS1-Pad2)*%
X102100000Y-59350000D03*
%TO.P,IRM-30-12,2*%
%TO.N,GND*%
X163600000Y-54050000D03*
%TD*%
D14*
%TO.P,U2,1*%
%TO.N,/VCC*%
X135000000Y-92750000D03*
%TO.P,U2,2*%
%TO.N,GND*%
X133000000Y-92750000D03*
D15*
%TO.P,U2,3*%
%TO.N,/13*%
X131000000Y-92750000D03*
%TO.P,U2,4*%
%TO.N,/12*%
X129000000Y-92750000D03*
%TO.P,U2,5*%
%TO.N,/11*%
X127000000Y-92750000D03*
%TO.P,U2,6*%
%TO.N,Net-(U2-Pad6)*%
X125000000Y-92750000D03*
%TO.P,U2,7*%
%TO.N,/2*%
X123000000Y-92750000D03*
%TO.P,U2,8*%
%TO.N,/10*%
X121000000Y-92750000D03*
D16*
%TO.P,U2,*%
%TO.N,*%
X126984000Y-110276000D03*
%TD*%
D17*
%TO.P,U1,TXD*%
%TO.N,Net-(U1-PadTXD)*%
X87800000Y-108370000D03*
%TO.P,U1,RXD*%
%TO.N,Net-(U1-PadRXD)*%
X90340000Y-108370000D03*
%TO.P,U1,RST*%
%TO.N,Net-(U1-PadRST)*%
X92880000Y-108370000D03*
%TO.P,U1,GND*%
%TO.N,GND*%
X95420000Y-108370000D03*
%TO.P,U1,2*%
%TO.N,/2*%
X97960000Y-108370000D03*
%TO.P,U1,3*%
%TO.N,Net-(U1-Pad3)*%
X100500000Y-108370000D03*
%TO.P,U1,4*%
%TO.N,/4*%
X103040000Y-108370000D03*
%TO.P,U1,5*%
%TO.N,/5*%
X105580000Y-108370000D03*
%TO.P,U1,6*%
%TO.N,/6*%
X108120000Y-108370000D03*
%TO.P,U1,7*%
%TO.N,/7*%
X110660000Y-108370000D03*
%TO.P,U1,8*%
%TO.N,/8*%
X113200000Y-108370000D03*
%TO.P,U1,9*%
%TO.N,/9*%
X115740000Y-108370000D03*
%TO.P,U1,10*%
%TO.N,/10*%
X115740000Y-93130000D03*
%TO.P,U1,11*%
%TO.N,/11*%
X113200000Y-93130000D03*
%TO.P,U1,12*%
%TO.N,/12*%
X110660000Y-93130000D03*
%TO.P,U1,13*%
%TO.N,/13*%
X108120000Y-93130000D03*
%TO.P,U1,A0*%
%TO.N,/A0*%
X105580000Y-93130000D03*
%TO.P,U1,A1*%
%TO.N,/A1*%
X103040000Y-93130000D03*
%TO.P,U1,A2*%
%TO.N,/A2*%
X100500000Y-93130000D03*
%TO.P,U1,A3*%
%TO.N,/A3*%
X97960000Y-93130000D03*
%TO.P,U1,VCC*%
%TO.N,/VCC*%
X95420000Y-93130000D03*
%TO.P,U1,RST*%
%TO.N,Net-(U1-PadRST)*%
X92880000Y-93130000D03*
%TO.P,U1,GND*%
%TO.N,GND*%
X90340000Y-93130000D03*
%TO.P,U1,RAW*%
%TO.N,+5V*%
X87800000Y-93130000D03*
%TD*%
D18*
%TO.P,SW1,1*%
%TO.N,/8*%
X90750000Y-113500000D03*
%TO.P,SW1,2*%
%TO.N,GND*%
X90750000Y-118000000D03*
%TO.P,SW1,1*%
%TO.N,/8*%
X84250000Y-113500000D03*
%TO.P,SW1,2*%
%TO.N,GND*%
X84250000Y-118000000D03*
%TD*%
D19*
%TO.P,R9,2*%
%TO.N,/4*%
X103000000Y-113210000D03*
D20*
%TO.P,R9,1*%
%TO.N,Net-(D5-Pad2)*%
X103000000Y-115750000D03*
%TD*%
D19*
%TO.P,R8,2*%
%TO.N,Net-(Q4-Pad2)*%
X148540000Y-91000000D03*
D20*
%TO.P,R8,1*%
%TO.N,/A3*%
X146000000Y-91000000D03*
%TD*%
D19*
%TO.P,R7,2*%
%TO.N,+5V*%
X142750000Y-91000000D03*
D20*
%TO.P,R7,1*%
%TO.N,Net-(D4-Pad2)*%
X140210000Y-91000000D03*
%TD*%
D19*
%TO.P,R6,2*%
%TO.N,Net-(Q3-Pad2)*%
X148540000Y-100750000D03*
D20*
%TO.P,R6,1*%
%TO.N,/A2*%
X146000000Y-100750000D03*
%TD*%
D19*
%TO.P,R5,2*%
%TO.N,+5V*%
X142790000Y-100750000D03*
D20*
%TO.P,R5,1*%
%TO.N,Net-(D3-Pad2)*%
X140250000Y-100750000D03*
%TD*%
D19*
%TO.P,R4,2*%
%TO.N,Net-(Q2-Pad2)*%
X148540000Y-110500000D03*
D20*
%TO.P,R4,1*%
%TO.N,/A1*%
X146000000Y-110500000D03*
%TD*%
D19*
%TO.P,R3,2*%
%TO.N,+5V*%
X142790000Y-110500000D03*
D20*
%TO.P,R3,1*%
%TO.N,Net-(D2-Pad2)*%
X140250000Y-110500000D03*
%TD*%
D19*
%TO.P,R2,2*%
%TO.N,Net-(Q1-Pad2)*%
X148500000Y-120250000D03*
D20*
%TO.P,R2,1*%
%TO.N,/A0*%
X145960000Y-120250000D03*
%TD*%
D19*
%TO.P,R1,2*%
%TO.N,+5V*%
X142790000Y-120250000D03*
D20*
%TO.P,R1,1*%
%TO.N,Net-(D1-Pad2)*%
X140250000Y-120250000D03*
%TD*%
D21*
%TO.P,Q4,1*%
%TO.N,Net-(D4-Pad1)*%
X145750000Y-95500000D03*
D22*
%TO.P,Q4,3*%
%TO.N,GND*%
X148290000Y-95500000D03*
%TO.P,Q4,2*%
%TO.N,Net-(Q4-Pad2)*%
X147020000Y-95500000D03*
%TD*%
D21*
%TO.P,Q3,1*%
%TO.N,Net-(D3-Pad1)*%
X145750000Y-105250000D03*
D22*
%TO.P,Q3,3*%
%TO.N,GND*%
X148290000Y-105250000D03*
%TO.P,Q3,2*%
%TO.N,Net-(Q3-Pad2)*%
X147020000Y-105250000D03*
%TD*%
D21*
%TO.P,Q2,1*%
%TO.N,Net-(D2-Pad1)*%
X145750000Y-115000000D03*
D22*
%TO.P,Q2,3*%
%TO.N,GND*%
X148290000Y-115000000D03*
%TO.P,Q2,2*%
%TO.N,Net-(Q2-Pad2)*%
X147020000Y-115000000D03*
%TD*%
D21*
%TO.P,Q1,1*%
%TO.N,Net-(D1-Pad1)*%
X145750000Y-124750000D03*
D22*
%TO.P,Q1,3*%
%TO.N,GND*%
X148290000Y-124750000D03*
%TO.P,Q1,2*%
%TO.N,Net-(Q1-Pad2)*%
X147020000Y-124750000D03*
%TD*%
D18*
%TO.P,K4,A2*%
%TO.N,+5V*%
X151500000Y-91000000D03*
D23*
%TO.P,K4,A1*%
%TO.N,Net-(D4-Pad1)*%
X155250000Y-91000000D03*
D24*
%TO.P,K4,12*%
%TO.N,Net-(K4-Pad12)*%
X166500000Y-91000000D03*
%TO.P,K4,11*%
%TO.N,+12V*%
X171500000Y-91000000D03*
%TO.P,K4,14*%
%TO.N,Net-(J5-Pad1)*%
X176500000Y-91000000D03*
%TD*%
D18*
%TO.P,K3,A2*%
%TO.N,+5V*%
X151500000Y-100750000D03*
D23*
%TO.P,K3,A1*%
%TO.N,Net-(D3-Pad1)*%
X155250000Y-100750000D03*
D24*
%TO.P,K3,12*%
%TO.N,Net-(K3-Pad12)*%
X166500000Y-100750000D03*
%TO.P,K3,11*%
%TO.N,+12V*%
X171500000Y-100750000D03*
%TO.P,K3,14*%
%TO.N,Net-(J4-Pad1)*%
X176500000Y-100750000D03*
%TD*%
D18*
%TO.P,K2,A2*%
%TO.N,+5V*%
X151500000Y-110500000D03*
D23*
%TO.P,K2,A1*%
%TO.N,Net-(D2-Pad1)*%
X155250000Y-110500000D03*
D24*
%TO.P,K2,12*%
%TO.N,Net-(K2-Pad12)*%
X166500000Y-110500000D03*
%TO.P,K2,11*%
%TO.N,+12V*%
X171500000Y-110500000D03*
%TO.P,K2,14*%
%TO.N,Net-(J3-Pad1)*%
X176500000Y-110500000D03*
%TD*%
D18*
%TO.P,K1,A2*%
%TO.N,+5V*%
X151500000Y-120250000D03*
D23*
%TO.P,K1,A1*%
%TO.N,Net-(D1-Pad1)*%
X155250000Y-120250000D03*
D24*
%TO.P,K1,12*%
%TO.N,Net-(K1-Pad12)*%
X166500000Y-120250000D03*
%TO.P,K1,11*%
%TO.N,+12V*%
X171500000Y-120250000D03*
%TO.P,K1,14*%
%TO.N,Net-(J2-Pad1)*%
X176500000Y-120250000D03*
%TD*%
D25*
%TO.P,J6,8*%
%TO.N,GND*%
X115620000Y-116290000D03*
%TO.P,J6,7*%
%TO.N,/9*%
X115620000Y-113750000D03*
%TO.P,J6,6*%
%TO.N,GND*%
X113080000Y-116290000D03*
%TO.P,J6,5*%
%TO.N,/7*%
X113080000Y-113750000D03*
%TO.P,J6,4*%
%TO.N,GND*%
X110540000Y-116290000D03*
%TO.P,J6,3*%
%TO.N,/6*%
X110540000Y-113750000D03*
%TO.P,J6,2*%
%TO.N,GND*%
X108000000Y-116290000D03*
%TO.P,J6,1*%
%TO.N,/5*%
X108000000Y-113750000D03*
%TD*%
%TO.P,Pump4,2*%
%TO.N,GND*%
X180750000Y-93540000D03*
D26*
%TO.P,Pump4,1*%
%TO.N,Net-(J5-Pad1)*%
X180750000Y-91000000D03*
%TD*%
D25*
%TO.P,Pump3,2*%
%TO.N,GND*%
X181000000Y-103290000D03*
D26*
%TO.P,Pump3,1*%
%TO.N,Net-(J4-Pad1)*%
X181000000Y-100750000D03*
%TD*%
D25*
%TO.P,Pump2,2*%
%TO.N,GND*%
X181000000Y-113000000D03*
D26*
%TO.P,Pump2,1*%
%TO.N,Net-(J3-Pad1)*%
X181000000Y-110460000D03*
%TD*%
D25*
%TO.P,Pump1,2*%
%TO.N,GND*%
X180750000Y-122790000D03*
D26*
%TO.P,Pump1,1*%
%TO.N,Net-(J2-Pad1)*%
X180750000Y-120250000D03*
%TD*%
D25*
%TO.P,J1,4*%
%TO.N,Net-(J1-Pad4)*%
X178120000Y-54000000D03*
D26*
%TO.P,J1,3*%
%TO.N,+12V*%
X175580000Y-54000000D03*
D25*
%TO.P,J1,2*%
%TO.N,GND*%
X173040000Y-54000000D03*
D26*
%TO.P,J1,1*%
%TO.N,+5V*%
X170500000Y-54000000D03*
%TD*%
D27*
%TO.P,D9,2*%
%TO.N,Net-(D4-Pad1)*%
X161750000Y-97000000D03*
D28*
%TO.P,D9,1*%
%TO.N,+5V*%
X151590000Y-97000000D03*
%TD*%
D27*
%TO.P,D8,2*%
%TO.N,Net-(D3-Pad1)*%
X161750000Y-106750000D03*
D28*
%TO.P,D8,1*%
%TO.N,+5V*%
X151590000Y-106750000D03*
%TD*%
D27*
%TO.P,D7,2*%
%TO.N,Net-(D2-Pad1)*%
X161750000Y-116500000D03*
D28*
%TO.P,D7,1*%
%TO.N,+5V*%
X151590000Y-116500000D03*
%TD*%
D27*
%TO.P,D6,2*%
%TO.N,Net-(D1-Pad1)*%
X161660000Y-126500000D03*
D28*
%TO.P,D6,1*%
%TO.N,+5V*%
X151500000Y-126500000D03*
%TD*%
D29*
%TO.P,D5,2*%
%TO.N,Net-(D5-Pad2)*%
X97540000Y-115750000D03*
D30*
%TO.P,D5,1*%
%TO.N,GND*%
X95000000Y-115750000D03*
%TD*%
D29*
%TO.P,D4,2*%
%TO.N,Net-(D4-Pad2)*%
X140500000Y-94460000D03*
D30*
%TO.P,D4,1*%
%TO.N,Net-(D4-Pad1)*%
X140500000Y-97000000D03*
%TD*%
D29*
%TO.P,D3,2*%
%TO.N,Net-(D3-Pad2)*%
X140500000Y-104210000D03*
D30*
%TO.P,D3,1*%
%TO.N,Net-(D3-Pad1)*%
X140500000Y-106750000D03*
%TD*%
D29*
%TO.P,D2,2*%
%TO.N,Net-(D2-Pad2)*%
X140500000Y-113960000D03*
D30*
%TO.P,D2,1*%
%TO.N,Net-(D2-Pad1)*%
X140500000Y-116500000D03*
%TD*%
D29*
%TO.P,D1,2*%
%TO.N,Net-(D1-Pad2)*%
X140500000Y-123710000D03*
D30*
%TO.P,D1,1*%
%TO.N,Net-(D1-Pad1)*%
X140500000Y-126250000D03*
%TD*%
D31*
%TO.N,Net-(D1-Pad1)*%
X153924999Y-121575001D02*
X155250000Y-120250000D01*
X147924999Y-121575001D02*
X153924999Y-121575001D01*
X145750000Y-123750000D02*
X147924999Y-121575001D01*
X145750000Y-124750000D02*
X145750000Y-123750000D01*
%TO.N,Net-(D2-Pad1)*%
X153924999Y-111825001D02*
X155250000Y-110500000D01*
X148767904Y-111825001D02*
X153924999Y-111825001D01*
X146169990Y-114422915D02*
X148767904Y-111825001D01*
X146169990Y-114580010D02*
X146169990Y-114422915D01*
X145750000Y-115000000D02*
X146169990Y-114580010D01*
%TO.N,Net-(D3-Pad1)*%
X153924999Y-102075001D02*
X155250000Y-100750000D01*
X147924999Y-102075001D02*
X153924999Y-102075001D01*
X145750000Y-104250000D02*
X147924999Y-102075001D01*
X145750000Y-105250000D02*
X145750000Y-104250000D01*
%TO.N,Net-(D4-Pad1)*%
X153924999Y-92325001D02*
X155250000Y-91000000D01*
X147924999Y-92325001D02*
X153924999Y-92325001D01*
X145750000Y-94500000D02*
X147924999Y-92325001D01*
X145750000Y-95500000D02*
X145750000Y-94500000D01*
%TO.N,/A0*%
X107460000Y-91250000D02*
X105580000Y-93130000D01*
X131000000Y-91250000D02*
X107460000Y-91250000D01*
X132039999Y-92289999D02*
X131000000Y-91250000D01*
X132039999Y-110425001D02*
X132039999Y-92289999D01*
X140739997Y-119124999D02*
X132039999Y-110425001D01*
X144834999Y-119124999D02*
X140739997Y-119124999D01*
X145960000Y-120250000D02*
X144834999Y-119124999D01*
%TO.N,/A1*%
X103040000Y-93130000D02*
X105519980Y-90650020D01*
X140739997Y-109374999D02*
X144874999Y-109374999D01*
X144874999Y-109374999D02*
X146000000Y-110500000D01*
X134039999Y-102675001D02*
X140739997Y-109374999D01*
X134039999Y-92289199D02*
X134039999Y-102675001D01*
X132400820Y-90650020D02*
X134039999Y-92289199D01*
X105519980Y-90650020D02*
X132400820Y-90650020D01*
%TO.N,/A2*%
X100500000Y-93130000D02*
X103429990Y-90200010D01*
X144874999Y-99624999D02*
X146000000Y-100750000D01*
X140739997Y-99624999D02*
X144874999Y-99624999D01*
X139274999Y-98160001D02*
X140739997Y-99624999D01*
X139274999Y-95604197D02*
X139274999Y-98160001D01*
X133870812Y-90200010D02*
X139274999Y-95604197D01*
X103429990Y-90200010D02*
X133870812Y-90200010D01*
%TO.N,/A3*%
X97960000Y-93130000D02*
X101340000Y-89750000D01*
X144750000Y-89750000D02*
X146000000Y-91000000D01*
X101340000Y-89750000D02*
X144750000Y-89750000D01*
%TO.N,Net-(U1-PadRST)*%
X92880000Y-108370000D02*
X92880000Y-93130000D01*
%TO.N,/2*%
X108467001Y-107282999D02*
X123000000Y-92750000D01*
X99047001Y-107282999D02*
X108467001Y-107282999D01*
X97960000Y-108370000D02*
X99047001Y-107282999D01*
%TD*%
D32*
%TO.N,GND*%
X182590000Y-128340000D02*
X81660000Y-128340000D01*
X81660000Y-125350000D01*
X138961928Y-125350000D01*
X138961928Y-127150000D01*
X138974188Y-127274482D01*
X139010498Y-127394180D01*
X139069463Y-127504494D01*
X139148815Y-127601185D01*
X139245506Y-127680537D01*
X139355820Y-127739502D01*
X139475518Y-127775812D01*
X139600000Y-127788072D01*
X141400000Y-127788072D01*
X141524482Y-127775812D01*
X141644180Y-127739502D01*
X141754494Y-127680537D01*
X141851185Y-127601185D01*
X141930537Y-127504494D01*
X141989502Y-127394180D01*
X142025812Y-127274482D01*
X142038072Y-127150000D01*
X142038072Y-125350000D01*
X142025812Y-125225518D01*
X141989502Y-125105820D01*
X141930537Y-124995506D01*
X141851185Y-124898815D01*
X141754494Y-124819463D01*
X141644180Y-124760498D01*
X141625873Y-124754944D01*
X141692312Y-124688505D01*
X141860299Y-124437095D01*
X141976011Y-124157743D01*
X142035000Y-123861184D01*
X142035000Y-123558816D01*
X141976011Y-123262257D01*
X141860299Y-122982905D01*
X141692312Y-122731495D01*
X141478505Y-122517688D01*
X141227095Y-122349701D01*
X140947743Y-122233989D01*
X140651184Y-122175000D01*
X140348816Y-122175000D01*
X140052257Y-122233989D01*
X139772905Y-122349701D01*
X139521495Y-122517688D01*
X139307688Y-122731495D01*
X139139701Y-122982905D01*
X139023989Y-123262257D01*
X138965000Y-123558816D01*
X138965000Y-123861184D01*
X139023989Y-124157743D01*
X139139701Y-124437095D01*
X139307688Y-124688505D01*
X139374127Y-124754944D01*
X139355820Y-124760498D01*
X139245506Y-124819463D01*
X139148815Y-124898815D01*
X139069463Y-124995506D01*
X139010498Y-125105820D01*
X138974188Y-125225518D01*
X138961928Y-125350000D01*
X81660000Y-125350000D01*
X81660000Y-119135413D01*
X83294192Y-119135413D01*
X83389956Y-119399814D01*
X83679571Y-119540704D01*
X83991108Y-119622384D01*
X84312595Y-119641718D01*
X84631675Y-119597961D01*
X84936088Y-119492795D01*
X85110044Y-119399814D01*
X85205808Y-119135413D01*
X89794192Y-119135413D01*
X89889956Y-119399814D01*
X90179571Y-119540704D01*
X90491108Y-119622384D01*
X90812595Y-119641718D01*
X91131675Y-119597961D01*
X91436088Y-119492795D01*
X91610044Y-119399814D01*
X91705808Y-119135413D01*
X90750000Y-118179605D01*
X89794192Y-119135413D01*
X85205808Y-119135413D01*
X84250000Y-118179605D01*
X83294192Y-119135413D01*
X81660000Y-119135413D01*
X81660000Y-118062595D01*
X82608282Y-118062595D01*
X82652039Y-118381675D01*
X82757205Y-118686088D01*
X82850186Y-118860044D01*
X83114587Y-118955808D01*
X84070395Y-118000000D01*
X84429605Y-118000000D01*
X85385413Y-118955808D01*
X85649814Y-118860044D01*
X85790704Y-118570429D01*
X85872384Y-118258892D01*
X85884189Y-118062595D01*
X89108282Y-118062595D01*
X89152039Y-118381675D01*
X89257205Y-118686088D01*
X89350186Y-118860044D01*
X89614587Y-118955808D01*
X90570395Y-118000000D01*
X90929605Y-118000000D01*
X91885413Y-118955808D01*
X92149814Y-118860044D01*
X92290704Y-118570429D01*
X92372384Y-118258892D01*
X92391718Y-117937405D01*
X92347961Y-117618325D01*
X92242795Y-117313912D01*
X92149814Y-117139956D01*
X91885413Y-117044192D01*
X90929605Y-118000000D01*
X90570395Y-118000000D01*
X89614587Y-117044192D01*
X89350186Y-117139956D01*
X89209296Y-117429571D01*
X89127616Y-117741108D01*
X89108282Y-118062595D01*
X85884189Y-118062595D01*
X85891718Y-117937405D01*
X85847961Y-117618325D01*
X85742795Y-117313912D01*
X85649814Y-117139956D01*
X85385413Y-117044192D01*
X84429605Y-118000000D01*
X84070395Y-118000000D01*
X83114587Y-117044192D01*
X82850186Y-117139956D01*
X82709296Y-117429571D01*
X82627616Y-117741108D01*
X82608282Y-118062595D01*
X81660000Y-118062595D01*
X81660000Y-116864587D01*
X83294192Y-116864587D01*
X84250000Y-117820395D01*
X85205808Y-116864587D01*
X89794192Y-116864587D01*
X90750000Y-117820395D01*
X91705808Y-116864587D01*
X91628087Y-116650000D01*
X93461928Y-116650000D01*
X93474188Y-116774482D01*
X93510498Y-116894180D01*
X93569463Y-117004494D01*
X93648815Y-117101185D01*
X93745506Y-117180537D01*
X93855820Y-117239502D01*
X93975518Y-117275812D01*
X94100000Y-117288072D01*
X94714250Y-117285000D01*
X94873000Y-117126250D01*
X94873000Y-115877000D01*
X93623750Y-115877000D01*
X93465000Y-116035750D01*
X93461928Y-116650000D01*
X91628087Y-116650000D01*
X91610044Y-116600186D01*
X91320429Y-116459296D01*
X91008892Y-116377616D01*
X90687405Y-116358282D01*
X90368325Y-116402039D01*
X90063912Y-116507205D01*
X89889956Y-116600186D01*
X89794192Y-116864587D01*
X85205808Y-116864587D01*
X85110044Y-116600186D01*
X84820429Y-116459296D01*
X84508892Y-116377616D01*
X84187405Y-116358282D01*
X83868325Y-116402039D01*
X83563912Y-116507205D01*
X83389956Y-116600186D01*
X83294192Y-116864587D01*
X81660000Y-116864587D01*
X81660000Y-113338967D01*
X82615000Y-113338967D01*
X82615000Y-113661033D01*
X82677832Y-113976912D01*
X82801082Y-114274463D01*
X82980013Y-114542252D01*
X83207748Y-114769987D01*
X83475537Y-114948918D01*
X83773088Y-115072168D01*
X84088967Y-115135000D01*
X84411033Y-115135000D01*
X84726912Y-115072168D01*
X85024463Y-114948918D01*
X85292252Y-114769987D01*
X85519987Y-114542252D01*
X85698918Y-114274463D01*
X85822168Y-113976912D01*
X85885000Y-113661033D01*
X85885000Y-113338967D01*
X89115000Y-113338967D01*
X89115000Y-113661033D01*
X89177832Y-113976912D01*
X89301082Y-114274463D01*
X89480013Y-114542252D01*
X89707748Y-114769987D01*
X89975537Y-114948918D01*
X90273088Y-115072168D01*
X90588967Y-115135000D01*
X90911033Y-115135000D01*
X91226912Y-115072168D01*
X91524463Y-114948918D01*
X91672504Y-114850000D01*
X93461928Y-114850000D01*
X93465000Y-115464250D01*
X93623750Y-115623000D01*
X94873000Y-115623000D01*
X94873000Y-114373750D01*
X95127000Y-114373750D01*
X95127000Y-115623000D01*
X95147000Y-115623000D01*
X95147000Y-115877000D01*
X95127000Y-115877000D01*
X95127000Y-117126250D01*
X95285750Y-117285000D01*
X95900000Y-117288072D01*
X96024482Y-117275812D01*
X96144180Y-117239502D01*
X96254494Y-117180537D01*
X96351185Y-117101185D01*
X96430537Y-117004494D01*
X96489502Y-116894180D01*
X96495056Y-116875873D01*
X96561495Y-116942312D01*
X96812905Y-117110299D01*
X97092257Y-117226011D01*
X97388816Y-117285000D01*
X97691184Y-117285000D01*
X97987743Y-117226011D01*
X98267095Y-117110299D01*
X98518505Y-116942312D01*
X98732312Y-116728505D01*
X98900299Y-116477095D01*
X99016011Y-116197743D01*
X99075000Y-115901184D01*
X99075000Y-115598816D01*
X99016011Y-115302257D01*
X98900299Y-115022905D01*
X98732312Y-114771495D01*
X98518505Y-114557688D01*
X98267095Y-114389701D01*
X97987743Y-114273989D01*
X97691184Y-114215000D01*
X97388816Y-114215000D01*
X97092257Y-114273989D01*
X96812905Y-114389701D01*
X96561495Y-114557688D01*
X96495056Y-114624127D01*
X96489502Y-114605820D01*
X96430537Y-114495506D01*
X96351185Y-114398815D01*
X96254494Y-114319463D01*
X96144180Y-114260498D01*
X96024482Y-114224188D01*
X95900000Y-114211928D01*
X95285750Y-114215000D01*
X95127000Y-114373750D01*
X94873000Y-114373750D01*
X94714250Y-114215000D01*
X94100000Y-114211928D01*
X93975518Y-114224188D01*
X93855820Y-114260498D01*
X93745506Y-114319463D01*
X93648815Y-114398815D01*
X93569463Y-114495506D01*
X93510498Y-114605820D01*
X93474188Y-114725518D01*
X93461928Y-114850000D01*
X91672504Y-114850000D01*
X91792252Y-114769987D01*
X92019987Y-114542252D01*
X92198918Y-114274463D01*
X92322168Y-113976912D01*
X92385000Y-113661033D01*
X92385000Y-113338967D01*
X92331234Y-113068665D01*
X101565000Y-113068665D01*
X101565000Y-113351335D01*
X101620147Y-113628574D01*
X101728320Y-113889727D01*
X101885363Y-114124759D01*
X102085241Y-114324637D01*
X102317759Y-114480000D01*
X102085241Y-114635363D01*
X101885363Y-114835241D01*
X101728320Y-115070273D01*
X101620147Y-115331426D01*
X101565000Y-115608665D01*
X101565000Y-115891335D01*
X101620147Y-116168574D01*
X101728320Y-116429727D01*
X101885363Y-116664759D01*
X102085241Y-116864637D01*
X102320273Y-117021680D01*
X102581426Y-117129853D01*
X102858665Y-117185000D01*
X103141335Y-117185000D01*
X103418574Y-117129853D01*
X103679727Y-117021680D01*
X103914759Y-116864637D01*
X104114637Y-116664759D01*
X104126575Y-116646891D01*
X106558519Y-116646891D01*
X106655843Y-116921252D01*
X106804822Y-117171355D01*
X106999731Y-117387588D01*
X107233080Y-117561641D01*
X107495901Y-117686825D01*
X107643110Y-117731476D01*
X107873000Y-117610155D01*
X107873000Y-116417000D01*
X108127000Y-116417000D01*
X108127000Y-117610155D01*
X108356890Y-117731476D01*
X108504099Y-117686825D01*
X108766920Y-117561641D01*
X109000269Y-117387588D01*
X109195178Y-117171355D01*
X109270000Y-117045745D01*
X109344822Y-117171355D01*
X109539731Y-117387588D01*
X109773080Y-117561641D01*
X110035901Y-117686825D01*
X110183110Y-117731476D01*
X110413000Y-117610155D01*
X110413000Y-116417000D01*
X110667000Y-116417000D01*
X110667000Y-117610155D01*
X110896890Y-117731476D01*
X111044099Y-117686825D01*
X111306920Y-117561641D01*
X111540269Y-117387588D01*
X111735178Y-117171355D01*
X111810000Y-117045745D01*
X111884822Y-117171355D01*
X112079731Y-117387588D01*
X112313080Y-117561641D01*
X112575901Y-117686825D01*
X112723110Y-117731476D01*
X112953000Y-117610155D01*
X112953000Y-116417000D01*
X113207000Y-116417000D01*
X113207000Y-117610155D01*
X113436890Y-117731476D01*
X113584099Y-117686825D01*
X113846920Y-117561641D01*
X114080269Y-117387588D01*
X114275178Y-117171355D01*
X114350000Y-117045745D01*
X114424822Y-117171355D01*
X114619731Y-117387588D01*
X114853080Y-117561641D01*
X115115901Y-117686825D01*
X115263110Y-117731476D01*
X115493000Y-117610155D01*
X115493000Y-116417000D01*
X115747000Y-116417000D01*
X115747000Y-117610155D01*
X115976890Y-117731476D01*
X116124099Y-117686825D01*
X116386920Y-117561641D01*
X116620269Y-117387588D01*
X116815178Y-117171355D01*
X116964157Y-116921252D01*
X117061481Y-116646891D01*
X116940814Y-116417000D01*
X115747000Y-116417000D01*
X115493000Y-116417000D01*
X113207000Y-116417000D01*
X112953000Y-116417000D01*
X110667000Y-116417000D01*
X110413000Y-116417000D01*
X108127000Y-116417000D01*
X107873000Y-116417000D01*
X106679186Y-116417000D01*
X106558519Y-116646891D01*
X104126575Y-116646891D01*
X104271680Y-116429727D01*
X104379853Y-116168574D01*
X104435000Y-115891335D01*
X104435000Y-115608665D01*
X104379853Y-115331426D01*
X104271680Y-115070273D01*
X104114637Y-114835241D01*
X103914759Y-114635363D01*
X103682241Y-114480000D01*
X103914759Y-114324637D01*
X104114637Y-114124759D01*
X104271680Y-113889727D01*
X104379853Y-113628574D01*
X104384792Y-113603740D01*
X106515000Y-113603740D01*
X106515000Y-113896260D01*
X106572068Y-114183158D01*
X106684010Y-114453411D01*
X106846525Y-114696632D01*
X107053368Y-114903475D01*
X107229406Y-115021100D01*
X106999731Y-115192412D01*
X106804822Y-115408645D01*
X106655843Y-115658748D01*
X106558519Y-115933109D01*
X106679186Y-116163000D01*
X107873000Y-116163000D01*
X107873000Y-116143000D01*
X108127000Y-116143000D01*
X108127000Y-116163000D01*
X110413000Y-116163000D01*
X110413000Y-116143000D01*
X110667000Y-116143000D01*
X110667000Y-116163000D01*
X112953000Y-116163000D01*
X112953000Y-116143000D01*
X113207000Y-116143000D01*
X113207000Y-116163000D01*
X115493000Y-116163000D01*
X115493000Y-116143000D01*
X115747000Y-116143000D01*
X115747000Y-116163000D01*
X116940814Y-116163000D01*
X117061481Y-115933109D01*
X116964157Y-115658748D01*
X116815178Y-115408645D01*
X116620269Y-115192412D01*
X116390594Y-115021100D01*
X116566632Y-114903475D01*
X116773475Y-114696632D01*
X116935990Y-114453411D01*
X117047932Y-114183158D01*
X117105000Y-113896260D01*
X117105000Y-113603740D01*
X117047932Y-113316842D01*
X116935990Y-113046589D01*
X116773475Y-112803368D01*
X116566632Y-112596525D01*
X116323411Y-112434010D01*
X116053158Y-112322068D01*
X115766260Y-112265000D01*
X115473740Y-112265000D01*
X115186842Y-112322068D01*
X114916589Y-112434010D01*
X114673368Y-112596525D01*
X114466525Y-112803368D01*
X114350000Y-112977760D01*
X114233475Y-112803368D01*
X114026632Y-112596525D01*
X113783411Y-112434010D01*
X113513158Y-112322068D01*
X113226260Y-112265000D01*
X112933740Y-112265000D01*
X112646842Y-112322068D01*
X112376589Y-112434010D01*
X112133368Y-112596525D01*
X111926525Y-112803368D01*
X111810000Y-112977760D01*
X111693475Y-112803368D01*
X111486632Y-112596525D01*
X111243411Y-112434010D01*
X110973158Y-112322068D01*
X110686260Y-112265000D01*
X110393740Y-112265000D01*
X110106842Y-112322068D01*
X109836589Y-112434010D01*
X109593368Y-112596525D01*
X109386525Y-112803368D01*
X109270000Y-112977760D01*
X109153475Y-112803368D01*
X108946632Y-112596525D01*
X108703411Y-112434010D01*
X108433158Y-112322068D01*
X108146260Y-112265000D01*
X107853740Y-112265000D01*
X107566842Y-112322068D01*
X107296589Y-112434010D01*
X107053368Y-112596525D01*
X106846525Y-112803368D01*
X106684010Y-113046589D01*
X106572068Y-113316842D01*
X106515000Y-113603740D01*
X104384792Y-113603740D01*
X104435000Y-113351335D01*
X104435000Y-113068665D01*
X104379853Y-112791426D01*
X104271680Y-112530273D01*
X104114637Y-112295241D01*
X103914759Y-112095363D01*
X103679727Y-111938320D01*
X103418574Y-111830147D01*
X103141335Y-111775000D01*
X102858665Y-111775000D01*
X102581426Y-111830147D01*
X102320273Y-111938320D01*
X102085241Y-112095363D01*
X101885363Y-112295241D01*
X101728320Y-112530273D01*
X101620147Y-112791426D01*
X101565000Y-113068665D01*
X92331234Y-113068665D01*
X92322168Y-113023088D01*
X92198918Y-112725537D01*
X92019987Y-112457748D01*
X91792252Y-112230013D01*
X91524463Y-112051082D01*
X91226912Y-111927832D01*
X90911033Y-111865000D01*
X90588967Y-111865000D01*
X90273088Y-111927832D01*
X89975537Y-112051082D01*
X89707748Y-112230013D01*
X89480013Y-112457748D01*
X89301082Y-112725537D01*
X89177832Y-113023088D01*
X89115000Y-113338967D01*
X85885000Y-113338967D01*
X85822168Y-113023088D01*
X85698918Y-112725537D01*
X85519987Y-112457748D01*
X85292252Y-112230013D01*
X85024463Y-112051082D01*
X84726912Y-111927832D01*
X84411033Y-111865000D01*
X84088967Y-111865000D01*
X83773088Y-111927832D01*
X83475537Y-112051082D01*
X83207748Y-112230013D01*
X82980013Y-112457748D01*
X82801082Y-112725537D01*
X82677832Y-113023088D01*
X82615000Y-113338967D01*
X81660000Y-113338967D01*
X81660000Y-110050947D01*
X124699000Y-110050947D01*
X124699000Y-110501053D01*
X124786811Y-110942510D01*
X124959059Y-111358353D01*
X125209125Y-111732603D01*
X125527397Y-112050875D01*
X125901647Y-112300941D01*
X126317490Y-112473189D01*
X126758947Y-112561000D01*
X127209053Y-112561000D01*
X127650510Y-112473189D01*
X128066353Y-112300941D01*
X128440603Y-112050875D01*
X128758875Y-111732603D01*
X129008941Y-111358353D01*
X129181189Y-110942510D01*
X129269000Y-110501053D01*
X129269000Y-110050947D01*
X129181189Y-109609490D01*
X129008941Y-109193647D01*
X128758875Y-108819397D01*
X128440603Y-108501125D01*
X128066353Y-108251059D01*
X127650510Y-108078811D01*
X127209053Y-107991000D01*
X126758947Y-107991000D01*
X126317490Y-108078811D01*
X125901647Y-108251059D01*
X125527397Y-108501125D01*
X125209125Y-108819397D01*
X124959059Y-109193647D01*
X124786811Y-109609490D01*
X124699000Y-110050947D01*
X81660000Y-110050947D01*
X81660000Y-92992408D01*
X86403000Y-92992408D01*
X86403000Y-93267592D01*
X86456686Y-93537490D01*
X86561995Y-93791727D01*
X86714880Y-94020535D01*
X86909465Y-94215120D01*
X87138273Y-94368005D01*
X87392510Y-94473314D01*
X87662408Y-94527000D01*
X87937592Y-94527000D01*
X88207490Y-94473314D01*
X88461727Y-94368005D01*
X88690535Y-94215120D01*
X88810090Y-94095565D01*
X89554040Y-94095565D01*
X89621020Y-94335656D01*
X89870048Y-94452756D01*
X90137135Y-94519023D01*
X90412017Y-94531910D01*
X90684133Y-94490922D01*
X90943023Y-94397636D01*
X91058980Y-94335656D01*
X91125960Y-94095565D01*
X90340000Y-93309605D01*
X89554040Y-94095565D01*
X88810090Y-94095565D01*
X88885120Y-94020535D01*
X89038005Y-93791727D01*
X89067692Y-93720057D01*
X89072364Y-93733023D01*
X89134344Y-93848980D01*
X89374435Y-93915960D01*
X90160395Y-93130000D01*
X89374435Y-92344040D01*
X89134344Y-92411020D01*
X89070515Y-92546760D01*
X89038005Y-92468273D01*
X88885120Y-92239465D01*
X88810090Y-92164435D01*
X89554040Y-92164435D01*
X90340000Y-92950395D01*
X91125960Y-92164435D01*
X91058980Y-91924344D01*
X90809952Y-91807244D01*
X90542865Y-91740977D01*
X90267983Y-91728090D01*
X89995867Y-91769078D01*
X89736977Y-91862364D01*
X89621020Y-91924344D01*
X89554040Y-92164435D01*
X88810090Y-92164435D01*
X88690535Y-92044880D01*
X88461727Y-91891995D01*
X88207490Y-91786686D01*
X87937592Y-91733000D01*
X87662408Y-91733000D01*
X87392510Y-91786686D01*
X87138273Y-91891995D01*
X86909465Y-92044880D01*
X86714880Y-92239465D01*
X86561995Y-92468273D01*
X86456686Y-92722510D01*
X86403000Y-92992408D01*
X81660000Y-92992408D01*
X81660000Y-90127000D01*
X99888198Y-90127000D01*
X98251571Y-91763628D01*
X98097592Y-91733000D01*
X97822408Y-91733000D01*
X97552510Y-91786686D01*
X97298273Y-91891995D01*
X97069465Y-92044880D01*
X96874880Y-92239465D01*
X96721995Y-92468273D01*
X96690000Y-92545515D01*
X96658005Y-92468273D01*
X96505120Y-92239465D01*
X96310535Y-92044880D01*
X96081727Y-91891995D01*
X95827490Y-91786686D01*
X95557592Y-91733000D01*
X95282408Y-91733000D01*
X95012510Y-91786686D01*
X94758273Y-91891995D01*
X94529465Y-92044880D01*
X94334880Y-92239465D01*
X94181995Y-92468273D01*
X94150000Y-92545515D01*
X94118005Y-92468273D01*
X93965120Y-92239465D01*
X93770535Y-92044880D01*
X93541727Y-91891995D01*
X93287490Y-91786686D01*
X93017592Y-91733000D01*
X92742408Y-91733000D01*
X92472510Y-91786686D01*
X92218273Y-91891995D01*
X91989465Y-92044880D01*
X91794880Y-92239465D01*
X91641995Y-92468273D01*
X91612308Y-92539943D01*
X91607636Y-92526977D01*
X91545656Y-92411020D01*
X91305565Y-92344040D01*
X90519605Y-93130000D01*
X91305565Y-93915960D01*
X91545656Y-93848980D01*
X91609485Y-93713240D01*
X91641995Y-93791727D01*
X91794880Y-94020535D01*
X91989465Y-94215120D01*
X92120001Y-94302342D01*
X92120000Y-107197659D01*
X91989465Y-107284880D01*
X91794880Y-107479465D01*
X91641995Y-107708273D01*
X91610000Y-107785515D01*
X91578005Y-107708273D01*
X91425120Y-107479465D01*
X91230535Y-107284880D01*
X91001727Y-107131995D01*
X90747490Y-107026686D01*
X90477592Y-106973000D01*
X90202408Y-106973000D01*
X89932510Y-107026686D01*
X89678273Y-107131995D01*
X89449465Y-107284880D01*
X89254880Y-107479465D01*
X89101995Y-107708273D01*
X89070000Y-107785515D01*
X89038005Y-107708273D01*
X88885120Y-107479465D01*
X88690535Y-107284880D01*
X88461727Y-107131995D01*
X88207490Y-107026686D01*
X87937592Y-106973000D01*
X87662408Y-106973000D01*
X87392510Y-107026686D01*
X87138273Y-107131995D01*
X86909465Y-107284880D01*
X86714880Y-107479465D01*
X86561995Y-107708273D01*
X86456686Y-107962510D01*
X86403000Y-108232408D01*
X86403000Y-108507592D01*
X86456686Y-108777490D01*
X86561995Y-109031727D01*
X86714880Y-109260535D01*
X86909465Y-109455120D01*
X87138273Y-109608005D01*
X87392510Y-109713314D01*
X87662408Y-109767000D01*
X87937592Y-109767000D01*
X88207490Y-109713314D01*
X88461727Y-109608005D01*
X88690535Y-109455120D01*
X88885120Y-109260535D01*
X89038005Y-109031727D01*
X89070000Y-108954485D01*
X89101995Y-109031727D01*
X89254880Y-109260535D01*
X89449465Y-109455120D01*
X89678273Y-109608005D01*
X89932510Y-109713314D01*
X90202408Y-109767000D01*
X90477592Y-109767000D01*
X90747490Y-109713314D01*
X91001727Y-109608005D01*
X91230535Y-109455120D01*
X91425120Y-109260535D01*
X91578005Y-109031727D01*
X91610000Y-108954485D01*
X91641995Y-109031727D01*
X91794880Y-109260535D01*
X91989465Y-109455120D01*
X92218273Y-109608005D01*
X92472510Y-109713314D01*
X92742408Y-109767000D01*
X93017592Y-109767000D01*
X93287490Y-109713314D01*
X93541727Y-109608005D01*
X93770535Y-109455120D01*
X93890090Y-109335565D01*
X94634040Y-109335565D01*
X94701020Y-109575656D01*
X94950048Y-109692756D01*
X95217135Y-109759023D01*
X95492017Y-109771910D01*
X95764133Y-109730922D01*
X96023023Y-109637636D01*
X96138980Y-109575656D01*
X96205960Y-109335565D01*
X95420000Y-108549605D01*
X94634040Y-109335565D01*
X93890090Y-109335565D01*
X93965120Y-109260535D01*
X94118005Y-109031727D01*
X94147692Y-108960057D01*
X94152364Y-108973023D01*
X94214344Y-109088980D01*
X94454435Y-109155960D01*
X95240395Y-108370000D01*
X94454435Y-107584040D01*
X94214344Y-107651020D01*
X94150515Y-107786760D01*
X94118005Y-107708273D01*
X93965120Y-107479465D01*
X93890090Y-107404435D01*
X94634040Y-107404435D01*
X95420000Y-108190395D01*
X96205960Y-107404435D01*
X96138980Y-107164344D01*
X95889952Y-107047244D01*
X95622865Y-106980977D01*
X95347983Y-106968090D01*
X95075867Y-107009078D01*
X94816977Y-107102364D01*
X94701020Y-107164344D01*
X94634040Y-107404435D01*
X93890090Y-107404435D01*
X93770535Y-107284880D01*
X93640000Y-107197659D01*
X93640000Y-94302341D01*
X93770535Y-94215120D01*
X93965120Y-94020535D01*
X94118005Y-93791727D01*
X94150000Y-93714485D01*
X94181995Y-93791727D01*
X94334880Y-94020535D01*
X94529465Y-94215120D01*
X94758273Y-94368005D01*
X95012510Y-94473314D01*
X95282408Y-94527000D01*
X95557592Y-94527000D01*
X95827490Y-94473314D01*
X96081727Y-94368005D01*
X96310535Y-94215120D01*
X96505120Y-94020535D01*
X96658005Y-93791727D01*
X96690000Y-93714485D01*
X96721995Y-93791727D01*
X96874880Y-94020535D01*
X97069465Y-94215120D01*
X97298273Y-94368005D01*
X97552510Y-94473314D01*
X97822408Y-94527000D01*
X98097592Y-94527000D01*
X98367490Y-94473314D01*
X98621727Y-94368005D01*
X98850535Y-94215120D01*
X99045120Y-94020535D01*
X99198005Y-93791727D01*
X99230000Y-93714485D01*
X99261995Y-93791727D01*
X99414880Y-94020535D01*
X99609465Y-94215120D01*
X99838273Y-94368005D01*
X100092510Y-94473314D01*
X100362408Y-94527000D01*
X100637592Y-94527000D01*
X100907490Y-94473314D01*
X101161727Y-94368005D01*
X101390535Y-94215120D01*
X101585120Y-94020535D01*
X101738005Y-93791727D01*
X101770000Y-93714485D01*
X101801995Y-93791727D01*
X101954880Y-94020535D01*
X102149465Y-94215120D01*
X102378273Y-94368005D01*
X102632510Y-94473314D01*
X102902408Y-94527000D01*
X103177592Y-94527000D01*
X103447490Y-94473314D01*
X103701727Y-94368005D01*
X103930535Y-94215120D01*
X104125120Y-94020535D01*
X104278005Y-93791727D01*
X104310000Y-93714485D01*
X104341995Y-93791727D01*
X104494880Y-94020535D01*
X104689465Y-94215120D01*
X104918273Y-94368005D01*
X105172510Y-94473314D01*
X105442408Y-94527000D01*
X105717592Y-94527000D01*
X105987490Y-94473314D01*
X106241727Y-94368005D01*
X106470535Y-94215120D01*
X106665120Y-94020535D01*
X106818005Y-93791727D01*
X106850000Y-93714485D01*
X106881995Y-93791727D01*
X107034880Y-94020535D01*
X107229465Y-94215120D01*
X107458273Y-94368005D01*
X107712510Y-94473314D01*
X107982408Y-94527000D01*
X108257592Y-94527000D01*
X108527490Y-94473314D01*
X108781727Y-94368005D01*
X109010535Y-94215120D01*
X109205120Y-94020535D01*
X109358005Y-93791727D01*
X109390000Y-93714485D01*
X109421995Y-93791727D01*
X109574880Y-94020535D01*
X109769465Y-94215120D01*
X109998273Y-94368005D01*
X110252510Y-94473314D01*
X110522408Y-94527000D01*
X110797592Y-94527000D01*
X111067490Y-94473314D01*
X111321727Y-94368005D01*
X111550535Y-94215120D01*
X111745120Y-94020535D01*
X111898005Y-93791727D01*
X111930000Y-93714485D01*
X111961995Y-93791727D01*
X112114880Y-94020535D01*
X112309465Y-94215120D01*
X112538273Y-94368005D01*
X112792510Y-94473314D01*
X113062408Y-94527000D01*
X113337592Y-94527000D01*
X113607490Y-94473314D01*
X113861727Y-94368005D01*
X114090535Y-94215120D01*
X114285120Y-94020535D01*
X114438005Y-93791727D01*
X114470000Y-93714485D01*
X114501995Y-93791727D01*
X114654880Y-94020535D01*
X114849465Y-94215120D01*
X115078273Y-94368005D01*
X115332510Y-94473314D01*
X115602408Y-94527000D01*
X115877592Y-94527000D01*
X116147490Y-94473314D01*
X116401727Y-94368005D01*
X116630535Y-94215120D01*
X116825120Y-94020535D01*
X116978005Y-93791727D01*
X117083314Y-93537490D01*
X117137000Y-93267592D01*
X117137000Y-92992408D01*
X117083314Y-92722510D01*
X116978005Y-92468273D01*
X116825120Y-92239465D01*
X116630535Y-92044880D01*
X116578334Y-92010000D01*
X119967036Y-92010000D01*
X119874541Y-92148429D01*
X119778805Y-92379555D01*
X119730000Y-92624916D01*
X119730000Y-92875084D01*
X119778805Y-93120445D01*
X119874541Y-93351571D01*
X120013527Y-93559578D01*
X120190422Y-93736473D01*
X120398429Y-93875459D01*
X120629555Y-93971195D01*
X120691651Y-93983547D01*
X108152200Y-106522999D01*
X99084334Y-106522999D01*
X99047001Y-106519322D01*
X99009668Y-106522999D01*
X98898015Y-106533996D01*
X98754754Y-106577453D01*
X98622725Y-106648025D01*
X98507000Y-106742998D01*
X98483202Y-106771996D01*
X98251570Y-107003628D01*
X98097592Y-106973000D01*
X97822408Y-106973000D01*
X97552510Y-107026686D01*
X97298273Y-107131995D01*
X97069465Y-107284880D01*
X96874880Y-107479465D01*
X96721995Y-107708273D01*
X96692308Y-107779943D01*
X96687636Y-107766977D01*
X96625656Y-107651020D01*
X96385565Y-107584040D01*
X95599605Y-108370000D01*
X96385565Y-109155960D01*
X96625656Y-109088980D01*
X96689485Y-108953240D01*
X96721995Y-109031727D01*
X96874880Y-109260535D01*
X97069465Y-109455120D01*
X97298273Y-109608005D01*
X97552510Y-109713314D01*
X97822408Y-109767000D01*
X98097592Y-109767000D01*
X98367490Y-109713314D01*
X98621727Y-109608005D01*
X98850535Y-109455120D01*
X99045120Y-109260535D01*
X99198005Y-109031727D01*
X99230000Y-108954485D01*
X99261995Y-109031727D01*
X99414880Y-109260535D01*
X99609465Y-109455120D01*
X99838273Y-109608005D01*
X100092510Y-109713314D01*
X100362408Y-109767000D01*
X100637592Y-109767000D01*
X100907490Y-109713314D01*
X101161727Y-109608005D01*
X101390535Y-109455120D01*
X101585120Y-109260535D01*
X101738005Y-109031727D01*
X101770000Y-108954485D01*
X101801995Y-109031727D01*
X101954880Y-109260535D01*
X102149465Y-109455120D01*
X102378273Y-109608005D01*
X102632510Y-109713314D01*
X102902408Y-109767000D01*
X103177592Y-109767000D01*
X103447490Y-109713314D01*
X103701727Y-109608005D01*
X103930535Y-109455120D01*
X104125120Y-109260535D01*
X104278005Y-109031727D01*
X104310000Y-108954485D01*
X104341995Y-109031727D01*
X104494880Y-109260535D01*
X104689465Y-109455120D01*
X104918273Y-109608005D01*
X105172510Y-109713314D01*
X105442408Y-109767000D01*
X105717592Y-109767000D01*
X105987490Y-109713314D01*
X106241727Y-109608005D01*
X106470535Y-109455120D01*
X106665120Y-109260535D01*
X106818005Y-109031727D01*
X106850000Y-108954485D01*
X106881995Y-109031727D01*
X107034880Y-109260535D01*
X107229465Y-109455120D01*
X107458273Y-109608005D01*
X107712510Y-109713314D01*
X107982408Y-109767000D01*
X108257592Y-109767000D01*
X108527490Y-109713314D01*
X108781727Y-109608005D01*
X109010535Y-109455120D01*
X109205120Y-109260535D01*
X109358005Y-109031727D01*
X109390000Y-108954485D01*
X109421995Y-109031727D01*
X109574880Y-109260535D01*
X109769465Y-109455120D01*
X109998273Y-109608005D01*
X110252510Y-109713314D01*
X110522408Y-109767000D01*
X110797592Y-109767000D01*
X111067490Y-109713314D01*
X111321727Y-109608005D01*
X111550535Y-109455120D01*
X111745120Y-109260535D01*
X111898005Y-109031727D01*
X111930000Y-108954485D01*
X111961995Y-109031727D01*
X112114880Y-109260535D01*
X112309465Y-109455120D01*
X112538273Y-109608005D01*
X112792510Y-109713314D01*
X113062408Y-109767000D01*
X113337592Y-109767000D01*
X113607490Y-109713314D01*
X113861727Y-109608005D01*
X114090535Y-109455120D01*
X114285120Y-109260535D01*
X114438005Y-109031727D01*
X114470000Y-108954485D01*
X114501995Y-109031727D01*
X114654880Y-109260535D01*
X114849465Y-109455120D01*
X115078273Y-109608005D01*
X115332510Y-109713314D01*
X115602408Y-109767000D01*
X115877592Y-109767000D01*
X116147490Y-109713314D01*
X116401727Y-109608005D01*
X116630535Y-109455120D01*
X116825120Y-109260535D01*
X116978005Y-109031727D01*
X117083314Y-108777490D01*
X117137000Y-108507592D01*
X117137000Y-108232408D01*
X117083314Y-107962510D01*
X116978005Y-107708273D01*
X116825120Y-107479465D01*
X116630535Y-107284880D01*
X116401727Y-107131995D01*
X116147490Y-107026686D01*
X115877592Y-106973000D01*
X115602408Y-106973000D01*
X115332510Y-107026686D01*
X115078273Y-107131995D01*
X114849465Y-107284880D01*
X114654880Y-107479465D01*
X114501995Y-107708273D01*
X114470000Y-107785515D01*
X114438005Y-107708273D01*
X114285120Y-107479465D01*
X114090535Y-107284880D01*
X113861727Y-107131995D01*
X113607490Y-107026686D01*
X113337592Y-106973000D01*
X113062408Y-106973000D01*
X112792510Y-107026686D01*
X112538273Y-107131995D01*
X112309465Y-107284880D01*
X112114880Y-107479465D01*
X111961995Y-107708273D01*
X111930000Y-107785515D01*
X111898005Y-107708273D01*
X111745120Y-107479465D01*
X111550535Y-107284880D01*
X111321727Y-107131995D01*
X111067490Y-107026686D01*
X110797592Y-106973000D01*
X110522408Y-106973000D01*
X110252510Y-107026686D01*
X109998273Y-107131995D01*
X109769465Y-107284880D01*
X109574880Y-107479465D01*
X109421995Y-107708273D01*
X109390000Y-107785515D01*
X109358005Y-107708273D01*
X109261283Y-107563518D01*
X122816435Y-94008367D01*
X122874916Y-94020000D01*
X123125084Y-94020000D01*
X123370445Y-93971195D01*
X123601571Y-93875459D01*
X123809578Y-93736473D01*
X123986473Y-93559578D01*
X124000000Y-93539333D01*
X124013527Y-93559578D01*
X124190422Y-93736473D01*
X124398429Y-93875459D01*
X124629555Y-93971195D01*
X124874916Y-94020000D01*
X125125084Y-94020000D01*
X125370445Y-93971195D01*
X125601571Y-93875459D01*
X125809578Y-93736473D01*
X125986473Y-93559578D01*
X126000000Y-93539333D01*
X126013527Y-93559578D01*
X126190422Y-93736473D01*
X126398429Y-93875459D01*
X126629555Y-93971195D01*
X126874916Y-94020000D01*
X127125084Y-94020000D01*
X127370445Y-93971195D01*
X127601571Y-93875459D01*
X127809578Y-93736473D01*
X127986473Y-93559578D01*
X128000000Y-93539333D01*
X128013527Y-93559578D01*
X128190422Y-93736473D01*
X128398429Y-93875459D01*
X128629555Y-93971195D01*
X128874916Y-94020000D01*
X129125084Y-94020000D01*
X129370445Y-93971195D01*
X129601571Y-93875459D01*
X129809578Y-93736473D01*
X129986473Y-93559578D01*
X130000000Y-93539333D01*
X130013527Y-93559578D01*
X130190422Y-93736473D01*
X130398429Y-93875459D01*
X130629555Y-93971195D01*
X130874916Y-94020000D01*
X131125084Y-94020000D01*
X131280000Y-93989186D01*
X131279999Y-110387679D01*
X131276323Y-110425001D01*
X131279999Y-110462323D01*
X131279999Y-110462333D01*
X131290996Y-110573986D01*
X131334453Y-110717247D01*
X131405025Y-110849277D01*
X131444870Y-110897827D01*
X131499998Y-110965002D01*
X131529002Y-110988805D01*
X139539247Y-118999051D01*
X139335241Y-119135363D01*
X139135363Y-119335241D01*
X138978320Y-119570273D01*
X138870147Y-119831426D01*
X138815000Y-120108665D01*
X138815000Y-120391335D01*
X138870147Y-120668574D01*
X138978320Y-120929727D01*
X139135363Y-121164759D01*
X139335241Y-121364637D01*
X139570273Y-121521680D01*
X139831426Y-121629853D01*
X140108665Y-121685000D01*
X140391335Y-121685000D01*
X140668574Y-121629853D01*
X140929727Y-121521680D01*
X141164759Y-121364637D01*
X141364637Y-121164759D01*
X141520000Y-120932241D01*
X141675363Y-121164759D01*
X141875241Y-121364637D01*
X142110273Y-121521680D01*
X142371426Y-121629853D01*
X142648665Y-121685000D01*
X142931335Y-121685000D01*
X143208574Y-121629853D01*
X143469727Y-121521680D01*
X143704759Y-121364637D01*
X143904637Y-121164759D01*
X144061680Y-120929727D01*
X144169853Y-120668574D01*
X144225000Y-120391335D01*
X144225000Y-120108665D01*
X144180509Y-119884999D01*
X144520198Y-119884999D01*
X144561312Y-119926113D01*
X144525000Y-120108665D01*
X144525000Y-120391335D01*
X144580147Y-120668574D01*
X144688320Y-120929727D01*
X144845363Y-121164759D01*
X145045241Y-121364637D01*
X145280273Y-121521680D01*
X145541426Y-121629853D01*
X145818665Y-121685000D01*
X146101335Y-121685000D01*
X146378574Y-121629853D01*
X146639727Y-121521680D01*
X146874759Y-121364637D01*
X147074637Y-121164759D01*
X147230000Y-120932241D01*
X147335326Y-121089872D01*
X145238998Y-123186201D01*
X145210000Y-123209999D01*
X145186202Y-123238997D01*
X145186201Y-123238998D01*
X145115026Y-123325724D01*
X145086916Y-123378314D01*
X144980820Y-123410498D01*
X144870506Y-123469463D01*
X144773815Y-123548815D01*
X144694463Y-123645506D01*
X144635498Y-123755820D01*
X144599188Y-123875518D01*
X144586928Y-124000000D01*
X144586928Y-125500000D01*
X144599188Y-125624482D01*
X144635498Y-125744180D01*
X144694463Y-125854494D01*
X144773815Y-125951185D01*
X144870506Y-126030537D01*
X144980820Y-126089502D01*
X145100518Y-126125812D01*
X145225000Y-126138072D01*
X146275000Y-126138072D01*
X146399482Y-126125812D01*
X146519180Y-126089502D01*
X146583902Y-126054907D01*
X146792601Y-126118215D01*
X147020000Y-126140612D01*
X147247400Y-126118215D01*
X147466060Y-126051885D01*
X147654669Y-125951071D01*
X147713118Y-125992275D01*
X147922663Y-126085272D01*
X147984190Y-126093964D01*
X148163000Y-125968163D01*
X148163000Y-125203108D01*
X148163215Y-125202399D01*
X148180000Y-125031978D01*
X148180000Y-124877000D01*
X148417000Y-124877000D01*
X148417000Y-125968163D01*
X148595810Y-126093964D01*
X148657337Y-126085272D01*
X148866882Y-125992275D01*
X149054258Y-125860184D01*
X149212264Y-125694076D01*
X149334828Y-125500334D01*
X149412001Y-125300000D01*
X149661928Y-125300000D01*
X149661928Y-127700000D01*
X149674188Y-127824482D01*
X149710498Y-127944180D01*
X149769463Y-128054494D01*
X149848815Y-128151185D01*
X149945506Y-128230537D01*
X150055820Y-128289502D01*
X150175518Y-128325812D01*
X150300000Y-128338072D01*
X152700000Y-128338072D01*
X152824482Y-128325812D01*
X152944180Y-128289502D01*
X153054494Y-128230537D01*
X153151185Y-128151185D01*
X153230537Y-128054494D01*
X153289502Y-127944180D01*
X153325812Y-127824482D01*
X153338072Y-127700000D01*
X153338072Y-126319268D01*
X159825000Y-126319268D01*
X159825000Y-126680732D01*
X159895518Y-127035250D01*
X160033844Y-127369199D01*
X160234662Y-127669744D01*
X160490256Y-127925338D01*
X160790801Y-128126156D01*
X161124750Y-128264482D01*
X161479268Y-128335000D01*
X161840732Y-128335000D01*
X162195250Y-128264482D01*
X162529199Y-128126156D01*
X162829744Y-127925338D01*
X163085338Y-127669744D01*
X163286156Y-127369199D01*
X163424482Y-127035250D01*
X163495000Y-126680732D01*
X163495000Y-126319268D01*
X163424482Y-125964750D01*
X163286156Y-125630801D01*
X163085338Y-125330256D01*
X162829744Y-125074662D01*
X162529199Y-124873844D01*
X162195250Y-124735518D01*
X161840732Y-124665000D01*
X161479268Y-124665000D01*
X161124750Y-124735518D01*
X160790801Y-124873844D01*
X160490256Y-125074662D01*
X160234662Y-125330256D01*
X160033844Y-125630801D01*
X159895518Y-125964750D01*
X159825000Y-126319268D01*
X153338072Y-126319268D01*
X153338072Y-125300000D01*
X153325812Y-125175518D01*
X153289502Y-125055820D01*
X153230537Y-124945506D01*
X153151185Y-124848815D01*
X153054494Y-124769463D01*
X152944180Y-124710498D01*
X152824482Y-124674188D01*
X152700000Y-124661928D01*
X150300000Y-124661928D01*
X150175518Y-124674188D01*
X150055820Y-124710498D01*
X149945506Y-124769463D01*
X149848815Y-124848815D01*
X149769463Y-124945506D01*
X149710498Y-125055820D01*
X149674188Y-125175518D01*
X149661928Y-125300000D01*
X149412001Y-125300000D01*
X149417239Y-125286404D01*
X149456331Y-125060507D01*
X149296598Y-124877000D01*
X148417000Y-124877000D01*
X148180000Y-124877000D01*
X148180000Y-124468021D01*
X148163215Y-124297600D01*
X148163000Y-124296891D01*
X148163000Y-123531837D01*
X148417000Y-123531837D01*
X148417000Y-124623000D01*
X149296598Y-124623000D01*
X149456331Y-124439493D01*
X149417239Y-124213596D01*
X149334828Y-123999666D01*
X149212264Y-123805924D01*
X149054258Y-123639816D01*
X148866882Y-123507725D01*
X148657337Y-123414728D01*
X148595810Y-123406036D01*
X148417000Y-123531837D01*
X148163000Y-123531837D01*
X147984190Y-123406036D01*
X147922663Y-123414728D01*
X147713118Y-123507725D01*
X147654669Y-123548929D01*
X147466059Y-123448115D01*
X147247399Y-123381785D01*
X147197892Y-123376909D01*
X147427911Y-123146890D01*
X179308524Y-123146890D01*
X179353175Y-123294099D01*
X179478359Y-123556920D01*
X179652412Y-123790269D01*
X179868645Y-123985178D01*
X180118748Y-124134157D01*
X180393109Y-124231481D01*
X180623000Y-124110814D01*
X180623000Y-122917000D01*
X180877000Y-122917000D01*
X180877000Y-124110814D01*
X181106891Y-124231481D01*
X181381252Y-124134157D01*
X181631355Y-123985178D01*
X181847588Y-123790269D01*
X182021641Y-123556920D01*
X182146825Y-123294099D01*
X182191476Y-123146890D01*
X182070155Y-122917000D01*
X180877000Y-122917000D01*
X180623000Y-122917000D01*
X179429845Y-122917000D01*
X179308524Y-123146890D01*
X147427911Y-123146890D01*
X148239801Y-122335001D01*
X153887677Y-122335001D01*
X153924999Y-122338677D01*
X153962321Y-122335001D01*
X153962332Y-122335001D01*
X154073985Y-122324004D01*
X154217246Y-122280547D01*
X154349275Y-122209975D01*
X154465000Y-122115002D01*
X154488802Y-122085999D01*
X154686729Y-121888072D01*
X156250000Y-121888072D01*
X156374482Y-121875812D01*
X156494180Y-121839502D01*
X156604494Y-121780537D01*
X156701185Y-121701185D01*
X156780537Y-121604494D01*
X156839502Y-121494180D01*
X156875812Y-121374482D01*
X156888072Y-121250000D01*
X156888072Y-120069268D01*
X164665000Y-120069268D01*
X164665000Y-120430732D01*
X164735518Y-120785250D01*
X164873844Y-121119199D01*
X165074662Y-121419744D01*
X165330256Y-121675338D01*
X165630801Y-121876156D01*
X165964750Y-122014482D01*
X166319268Y-122085000D01*
X166680732Y-122085000D01*
X167035250Y-122014482D01*
X167369199Y-121876156D01*
X167669744Y-121675338D01*
X167925338Y-121419744D01*
X168126156Y-121119199D01*
X168264482Y-120785250D01*
X168335000Y-120430732D01*
X168335000Y-120069268D01*
X169665000Y-120069268D01*
X169665000Y-120430732D01*
X169735518Y-120785250D01*
X169873844Y-121119199D01*
X170074662Y-121419744D01*
X170330256Y-121675338D01*
X170630801Y-121876156D01*
X170964750Y-122014482D01*
X171319268Y-122085000D01*
X171680732Y-122085000D01*
X172035250Y-122014482D01*
X172369199Y-121876156D01*
X172669744Y-121675338D01*
X172925338Y-121419744D01*
X173126156Y-121119199D01*
X173264482Y-120785250D01*
X173335000Y-120430732D01*
X173335000Y-120069268D01*
X174665000Y-120069268D01*
X174665000Y-120430732D01*
X174735518Y-120785250D01*
X174873844Y-121119199D01*
X175074662Y-121419744D01*
X175330256Y-121675338D01*
X175630801Y-121876156D01*
X175964750Y-122014482D01*
X176319268Y-122085000D01*
X176680732Y-122085000D01*
X177035250Y-122014482D01*
X177369199Y-121876156D01*
X177669744Y-121675338D01*
X177925338Y-121419744D01*
X178126156Y-121119199D01*
X178264482Y-120785250D01*
X178335000Y-120430732D01*
X178335000Y-120069268D01*
X178264482Y-119714750D01*
X178134109Y-119400000D01*
X179261928Y-119400000D01*
X179261928Y-121100000D01*
X179274188Y-121224482D01*
X179310498Y-121344180D01*
X179369463Y-121454494D01*
X179448815Y-121551185D01*
X179545506Y-121630537D01*
X179655820Y-121689502D01*
X179736466Y-121713966D01*
X179652412Y-121789731D01*
X179478359Y-122023080D01*
X179353175Y-122285901D01*
X179308524Y-122433110D01*
X179429845Y-122663000D01*
X180623000Y-122663000D01*
X180623000Y-122643000D01*
X180877000Y-122643000D01*
X180877000Y-122663000D01*
X182070155Y-122663000D01*
X182191476Y-122433110D01*
X182146825Y-122285901D01*
X182021641Y-122023080D01*
X181847588Y-121789731D01*
X181763534Y-121713966D01*
X181844180Y-121689502D01*
X181954494Y-121630537D01*
X182051185Y-121551185D01*
X182130537Y-121454494D01*
X182189502Y-121344180D01*
X182225812Y-121224482D01*
X182238072Y-121100000D01*
X182238072Y-119400000D01*
X182225812Y-119275518D01*
X182189502Y-119155820D01*
X182130537Y-119045506D01*
X182051185Y-118948815D01*
X181954494Y-118869463D01*
X181844180Y-118810498D01*
X181724482Y-118774188D01*
X181600000Y-118761928D01*
X179900000Y-118761928D01*
X179775518Y-118774188D01*
X179655820Y-118810498D01*
X179545506Y-118869463D01*
X179448815Y-118948815D01*
X179369463Y-119045506D01*
X179310498Y-119155820D01*
X179274188Y-119275518D01*
X179261928Y-119400000D01*
X178134109Y-119400000D01*
X178126156Y-119380801D01*
X177925338Y-119080256D01*
X177669744Y-118824662D01*
X177369199Y-118623844D01*
X177035250Y-118485518D01*
X176680732Y-118415000D01*
X176319268Y-118415000D01*
X175964750Y-118485518D01*
X175630801Y-118623844D01*
X175330256Y-118824662D01*
X175074662Y-119080256D01*
X174873844Y-119380801D01*
X174735518Y-119714750D01*
X174665000Y-120069268D01*
X173335000Y-120069268D01*
X173264482Y-119714750D01*
X173126156Y-119380801D01*
X172925338Y-119080256D01*
X172669744Y-118824662D01*
X172369199Y-118623844D01*
X172035250Y-118485518D01*
X171680732Y-118415000D01*
X171319268Y-118415000D01*
X170964750Y-118485518D01*
X170630801Y-118623844D01*
X170330256Y-118824662D01*
X170074662Y-119080256D01*
X169873844Y-119380801D01*
X169735518Y-119714750D01*
X169665000Y-120069268D01*
X168335000Y-120069268D01*
X168264482Y-119714750D01*
X168126156Y-119380801D01*
X167925338Y-119080256D01*
X167669744Y-118824662D01*
X167369199Y-118623844D01*
X167035250Y-118485518D01*
X166680732Y-118415000D01*
X166319268Y-118415000D01*
X165964750Y-118485518D01*
X165630801Y-118623844D01*
X165330256Y-118824662D01*
X165074662Y-119080256D01*
X164873844Y-119380801D01*
X164735518Y-119714750D01*
X164665000Y-120069268D01*
X156888072Y-120069268D01*
X156888072Y-119250000D01*
X156875812Y-119125518D01*
X156839502Y-119005820D01*
X156780537Y-118895506D01*
X156701185Y-118798815D01*
X156604494Y-118719463D01*
X156494180Y-118660498D01*
X156374482Y-118624188D01*
X156250000Y-118611928D01*
X154250000Y-118611928D01*
X154125518Y-118624188D01*
X154005820Y-118660498D01*
X153895506Y-118719463D01*
X153798815Y-118798815D01*
X153719463Y-118895506D01*
X153660498Y-119005820D01*
X153624188Y-119125518D01*
X153611928Y-119250000D01*
X153611928Y-120813271D01*
X153610198Y-120815001D01*
X153035680Y-120815001D01*
X153072168Y-120726912D01*
X153135000Y-120411033D01*
X153135000Y-120088967D01*
X153072168Y-119773088D01*
X152948918Y-119475537D01*
X152769987Y-119207748D01*
X152542252Y-118980013D01*
X152274463Y-118801082D01*
X151976912Y-118677832D01*
X151661033Y-118615000D01*
X151338967Y-118615000D01*
X151023088Y-118677832D01*
X150725537Y-118801082D01*
X150457748Y-118980013D01*
X150230013Y-119207748D01*
X150051082Y-119475537D01*
X149927832Y-119773088D01*
X149898041Y-119922860D01*
X149879853Y-119831426D01*
X149771680Y-119570273D01*
X149614637Y-119335241D01*
X149414759Y-119135363D01*
X149179727Y-118978320D01*
X148918574Y-118870147D01*
X148641335Y-118815000D01*
X148358665Y-118815000D01*
X148081426Y-118870147D01*
X147820273Y-118978320D01*
X147585241Y-119135363D01*
X147385363Y-119335241D01*
X147230000Y-119567759D01*
X147074637Y-119335241D01*
X146874759Y-119135363D01*
X146639727Y-118978320D01*
X146378574Y-118870147D01*
X146101335Y-118815000D01*
X145818665Y-118815000D01*
X145636113Y-118851312D01*
X145398803Y-118614001D01*
X145375000Y-118584998D01*
X145259275Y-118490025D01*
X145127246Y-118419453D01*
X144983985Y-118375996D01*
X144872332Y-118364999D01*
X144872321Y-118364999D01*
X144834999Y-118361323D01*
X144797677Y-118364999D01*
X141054799Y-118364999D01*
X140727872Y-118038072D01*
X141400000Y-118038072D01*
X141524482Y-118025812D01*
X141644180Y-117989502D01*
X141754494Y-117930537D01*
X141851185Y-117851185D01*
X141930537Y-117754494D01*
X141989502Y-117644180D01*
X142025812Y-117524482D01*
X142038072Y-117400000D01*
X142038072Y-115600000D01*
X142025812Y-115475518D01*
X141989502Y-115355820D01*
X141930537Y-115245506D01*
X141851185Y-115148815D01*
X141754494Y-115069463D01*
X141644180Y-115010498D01*
X141625873Y-115004944D01*
X141692312Y-114938505D01*
X141860299Y-114687095D01*
X141976011Y-114407743D01*
X142035000Y-114111184D01*
X142035000Y-113808816D01*
X141976011Y-113512257D01*
X141860299Y-113232905D01*
X141692312Y-112981495D01*
X141478505Y-112767688D01*
X141227095Y-112599701D01*
X140947743Y-112483989D01*
X140651184Y-112425000D01*
X140348816Y-112425000D01*
X140052257Y-112483989D01*
X139772905Y-112599701D01*
X139521495Y-112767688D01*
X139307688Y-112981495D01*
X139139701Y-113232905D01*
X139023989Y-113512257D01*
X138965000Y-113808816D01*
X138965000Y-114111184D01*
X139023989Y-114407743D01*
X139139701Y-114687095D01*
X139307688Y-114938505D01*
X139374127Y-115004944D01*
X139355820Y-115010498D01*
X139245506Y-115069463D01*
X139148815Y-115148815D01*
X139069463Y-115245506D01*
X139010498Y-115355820D01*
X138974188Y-115475518D01*
X138961928Y-115600000D01*
X138961928Y-116272128D01*
X132799999Y-110110200D01*
X132799999Y-93900796D01*
X132873000Y-93854890D01*
X132873000Y-92877000D01*
X132853000Y-92877000D01*
X132853000Y-92623000D01*
X132873000Y-92623000D01*
X132873000Y-92603000D01*
X133127000Y-92603000D01*
X133127000Y-92623000D01*
X133147000Y-92623000D01*
X133147000Y-92877000D01*
X133127000Y-92877000D01*
X133127000Y-93854890D01*
X133279999Y-93951103D01*
X133280000Y-102637669D01*
X133276323Y-102675001D01*
X133280000Y-102712334D01*
X133286719Y-102780547D01*
X133290997Y-102823986D01*
X133334453Y-102967247D01*
X133405025Y-103099277D01*
X133457322Y-103163000D01*
X133499999Y-103215002D01*
X133528997Y-103238800D01*
X139539247Y-109249051D01*
X139335241Y-109385363D01*
X139135363Y-109585241D01*
X138978320Y-109820273D01*
X138870147Y-110081426D01*
X138815000Y-110358665D01*
X138815000Y-110641335D01*
X138870147Y-110918574D01*
X138978320Y-111179727D01*
X139135363Y-111414759D01*
X139335241Y-111614637D01*
X139570273Y-111771680D01*
X139831426Y-111879853D01*
X140108665Y-111935000D01*
X140391335Y-111935000D01*
X140668574Y-111879853D01*
X140929727Y-111771680D01*
X141164759Y-111614637D01*
X141364637Y-111414759D01*
X141520000Y-111182241D01*
X141675363Y-111414759D01*
X141875241Y-111614637D01*
X142110273Y-111771680D01*
X142371426Y-111879853D01*
X142648665Y-111935000D01*
X142931335Y-111935000D01*
X143208574Y-111879853D01*
X143469727Y-111771680D01*
X143704759Y-111614637D01*
X143904637Y-111414759D01*
X144061680Y-111179727D01*
X144169853Y-110918574D01*
X144225000Y-110641335D01*
X144225000Y-110358665D01*
X144180509Y-110134999D01*
X144560198Y-110134999D01*
X144601312Y-110176113D01*
X144565000Y-110358665D01*
X144565000Y-110641335D01*
X144620147Y-110918574D01*
X144728320Y-111179727D01*
X144885363Y-111414759D01*
X145085241Y-111614637D01*
X145320273Y-111771680D01*
X145581426Y-111879853D01*
X145858665Y-111935000D01*
X146141335Y-111935000D01*
X146418574Y-111879853D01*
X146679727Y-111771680D01*
X146914759Y-111614637D01*
X147114637Y-111414759D01*
X147270000Y-111182241D01*
X147425363Y-111414759D01*
X147625241Y-111614637D01*
X147792025Y-111726078D01*
X145906176Y-113611928D01*
X145225000Y-113611928D01*
X145100518Y-113624188D01*
X144980820Y-113660498D01*
X144870506Y-113719463D01*
X144773815Y-113798815D01*
X144694463Y-113895506D01*
X144635498Y-114005820D01*
X144599188Y-114125518D01*
X144586928Y-114250000D01*
X144586928Y-115750000D01*
X144599188Y-115874482D01*
X144635498Y-115994180D01*
X144694463Y-116104494D01*
X144773815Y-116201185D01*
X144870506Y-116280537D01*
X144980820Y-116339502D01*
X145100518Y-116375812D01*
X145225000Y-116388072D01*
X146275000Y-116388072D01*
X146399482Y-116375812D01*
X146519180Y-116339502D01*
X146583902Y-116304907D01*
X146792601Y-116368215D01*
X147020000Y-116390612D01*
X147247400Y-116368215D01*
X147466060Y-116301885D01*
X147654669Y-116201071D01*
X147713118Y-116242275D01*
X147922663Y-116335272D01*
X147984190Y-116343964D01*
X148163000Y-116218163D01*
X148163000Y-115453108D01*
X148163215Y-115452399D01*
X148180000Y-115281978D01*
X148180000Y-115127000D01*
X148417000Y-115127000D01*
X148417000Y-116218163D01*
X148595810Y-116343964D01*
X148657337Y-116335272D01*
X148866882Y-116242275D01*
X149054258Y-116110184D01*
X149212264Y-115944076D01*
X149334828Y-115750334D01*
X149417239Y-115536404D01*
X149456331Y-115310507D01*
X149447186Y-115300000D01*
X149751928Y-115300000D01*
X149751928Y-117700000D01*
X149764188Y-117824482D01*
X149800498Y-117944180D01*
X149859463Y-118054494D01*
X149938815Y-118151185D01*
X150035506Y-118230537D01*
X150145820Y-118289502D01*
X150265518Y-118325812D01*
X150390000Y-118338072D01*
X152790000Y-118338072D01*
X152914482Y-118325812D01*
X153034180Y-118289502D01*
X153144494Y-118230537D01*
X153241185Y-118151185D01*
X153320537Y-118054494D01*
X153379502Y-117944180D01*
X153415812Y-117824482D01*
X153428072Y-117700000D01*
X153428072Y-116319268D01*
X159915000Y-116319268D01*
X159915000Y-116680732D01*
X159985518Y-117035250D01*
X160123844Y-117369199D01*
X160324662Y-117669744D01*
X160580256Y-117925338D01*
X160880801Y-118126156D01*
X161214750Y-118264482D01*
X161569268Y-118335000D01*
X161930732Y-118335000D01*
X162285250Y-118264482D01*
X162619199Y-118126156D01*
X162919744Y-117925338D01*
X163175338Y-117669744D01*
X163376156Y-117369199D01*
X163514482Y-117035250D01*
X163585000Y-116680732D01*
X163585000Y-116319268D01*
X163514482Y-115964750D01*
X163376156Y-115630801D01*
X163175338Y-115330256D01*
X162919744Y-115074662D01*
X162619199Y-114873844D01*
X162285250Y-114735518D01*
X161930732Y-114665000D01*
X161569268Y-114665000D01*
X161214750Y-114735518D01*
X160880801Y-114873844D01*
X160580256Y-115074662D01*
X160324662Y-115330256D01*
X160123844Y-115630801D01*
X159985518Y-115964750D01*
X159915000Y-116319268D01*
X153428072Y-116319268D01*
X153428072Y-115300000D01*
X153415812Y-115175518D01*
X153379502Y-115055820D01*
X153320537Y-114945506D01*
X153241185Y-114848815D01*
X153144494Y-114769463D01*
X153034180Y-114710498D01*
X152914482Y-114674188D01*
X152790000Y-114661928D01*
X150390000Y-114661928D01*
X150265518Y-114674188D01*
X150145820Y-114710498D01*
X150035506Y-114769463D01*
X149938815Y-114848815D01*
X149859463Y-114945506D01*
X149800498Y-115055820D01*
X149764188Y-115175518D01*
X149751928Y-115300000D01*
X149447186Y-115300000D01*
X149296598Y-115127000D01*
X148417000Y-115127000D01*
X148180000Y-115127000D01*
X148180000Y-114718021D01*
X148163215Y-114547600D01*
X148163000Y-114546891D01*
X148163000Y-113781837D01*
X148417000Y-113781837D01*
X148417000Y-114873000D01*
X149296598Y-114873000D01*
X149456331Y-114689493D01*
X149417239Y-114463596D01*
X149334828Y-114249666D01*
X149212264Y-114055924D01*
X149054258Y-113889816D01*
X148866882Y-113757725D01*
X148657337Y-113664728D01*
X148595810Y-113656036D01*
X148417000Y-113781837D01*
X148163000Y-113781837D01*
X148000321Y-113667385D01*
X148310816Y-113356890D01*
X179558524Y-113356890D01*
X179603175Y-113504099D01*
X179728359Y-113766920D01*
X179902412Y-114000269D01*
X180118645Y-114195178D01*
X180368748Y-114344157D01*
X180643109Y-114441481D01*
X180873000Y-114320814D01*
X180873000Y-113127000D01*
X181127000Y-113127000D01*
X181127000Y-114320814D01*
X181356891Y-114441481D01*
X181631252Y-114344157D01*
X181881355Y-114195178D01*
X182097588Y-114000269D01*
X182271641Y-113766920D01*
X182396825Y-113504099D01*
X182441476Y-113356890D01*
X182320155Y-113127000D01*
X181127000Y-113127000D01*
X180873000Y-113127000D01*
X179679845Y-113127000D01*
X179558524Y-113356890D01*
X148310816Y-113356890D01*
X149082706Y-112585001D01*
X153887677Y-112585001D01*
X153924999Y-112588677D01*
X153962321Y-112585001D01*
X153962332Y-112585001D01*
X154073985Y-112574004D01*
X154217246Y-112530547D01*
X154349275Y-112459975D01*
X154465000Y-112365002D01*
X154488802Y-112335999D01*
X154686729Y-112138072D01*
X156250000Y-112138072D01*
X156374482Y-112125812D01*
X156494180Y-112089502D01*
X156604494Y-112030537D01*
X156701185Y-111951185D01*
X156780537Y-111854494D01*
X156839502Y-111744180D01*
X156875812Y-111624482D01*
X156888072Y-111500000D01*
X156888072Y-110319268D01*
X164665000Y-110319268D01*
X164665000Y-110680732D01*
X164735518Y-111035250D01*
X164873844Y-111369199D01*
X165074662Y-111669744D01*
X165330256Y-111925338D01*
X165630801Y-112126156D01*
X165964750Y-112264482D01*
X166319268Y-112335000D01*
X166680732Y-112335000D01*
X167035250Y-112264482D01*
X167369199Y-112126156D01*
X167669744Y-111925338D01*
X167925338Y-111669744D01*
X168126156Y-111369199D01*
X168264482Y-111035250D01*
X168335000Y-110680732D01*
X168335000Y-110319268D01*
X169665000Y-110319268D01*
X169665000Y-110680732D01*
X169735518Y-111035250D01*
X169873844Y-111369199D01*
X170074662Y-111669744D01*
X170330256Y-111925338D01*
X170630801Y-112126156D01*
X170964750Y-112264482D01*
X171319268Y-112335000D01*
X171680732Y-112335000D01*
X172035250Y-112264482D01*
X172369199Y-112126156D01*
X172669744Y-111925338D01*
X172925338Y-111669744D01*
X173126156Y-111369199D01*
X173264482Y-111035250D01*
X173335000Y-110680732D01*
X173335000Y-110319268D01*
X174665000Y-110319268D01*
X174665000Y-110680732D01*
X174735518Y-111035250D01*
X174873844Y-111369199D01*
X175074662Y-111669744D01*
X175330256Y-111925338D01*
X175630801Y-112126156D01*
X175964750Y-112264482D01*
X176319268Y-112335000D01*
X176680732Y-112335000D01*
X177035250Y-112264482D01*
X177369199Y-112126156D01*
X177669744Y-111925338D01*
X177925338Y-111669744D01*
X178126156Y-111369199D01*
X178264482Y-111035250D01*
X178335000Y-110680732D01*
X178335000Y-110319268D01*
X178264482Y-109964750D01*
X178126156Y-109630801D01*
X178112258Y-109610000D01*
X179511928Y-109610000D01*
X179511928Y-111310000D01*
X179524188Y-111434482D01*
X179560498Y-111554180D01*
X179619463Y-111664494D01*
X179698815Y-111761185D01*
X179795506Y-111840537D01*
X179905820Y-111899502D01*
X179986466Y-111923966D01*
X179902412Y-111999731D01*
X179728359Y-112233080D01*
X179603175Y-112495901D01*
X179558524Y-112643110D01*
X179679845Y-112873000D01*
X180873000Y-112873000D01*
X180873000Y-112853000D01*
X181127000Y-112853000D01*
X181127000Y-112873000D01*
X182320155Y-112873000D01*
X182441476Y-112643110D01*
X182396825Y-112495901D01*
X182271641Y-112233080D01*
X182097588Y-111999731D01*
X182013534Y-111923966D01*
X182094180Y-111899502D01*
X182204494Y-111840537D01*
X182301185Y-111761185D01*
X182380537Y-111664494D01*
X182439502Y-111554180D01*
X182475812Y-111434482D01*
X182488072Y-111310000D01*
X182488072Y-109610000D01*
X182475812Y-109485518D01*
X182439502Y-109365820D01*
X182380537Y-109255506D01*
X182301185Y-109158815D01*
X182204494Y-109079463D01*
X182094180Y-109020498D01*
X181974482Y-108984188D01*
X181850000Y-108971928D01*
X180150000Y-108971928D01*
X180025518Y-108984188D01*
X179905820Y-109020498D01*
X179795506Y-109079463D01*
X179698815Y-109158815D01*
X179619463Y-109255506D01*
X179560498Y-109365820D01*
X179524188Y-109485518D01*
X179511928Y-109610000D01*
X178112258Y-109610000D01*
X177925338Y-109330256D01*
X177669744Y-109074662D01*
X177369199Y-108873844D01*
X177035250Y-108735518D01*
X176680732Y-108665000D01*
X176319268Y-108665000D01*
X175964750Y-108735518D01*
X175630801Y-108873844D01*
X175330256Y-109074662D01*
X175074662Y-109330256D01*
X174873844Y-109630801D01*
X174735518Y-109964750D01*
X174665000Y-110319268D01*
X173335000Y-110319268D01*
X173264482Y-109964750D01*
X173126156Y-109630801D01*
X172925338Y-109330256D01*
X172669744Y-109074662D01*
X172369199Y-108873844D01*
X172035250Y-108735518D01*
X171680732Y-108665000D01*
X171319268Y-108665000D01*
X170964750Y-108735518D01*
X170630801Y-108873844D01*
X170330256Y-109074662D01*
X170074662Y-109330256D01*
X169873844Y-109630801D01*
X169735518Y-109964750D01*
X169665000Y-110319268D01*
X168335000Y-110319268D01*
X168264482Y-109964750D01*
X168126156Y-109630801D01*
X167925338Y-109330256D01*
X167669744Y-109074662D01*
X167369199Y-108873844D01*
X167035250Y-108735518D01*
X166680732Y-108665000D01*
X166319268Y-108665000D01*
X165964750Y-108735518D01*
X165630801Y-108873844D01*
X165330256Y-109074662D01*
X165074662Y-109330256D01*
X164873844Y-109630801D01*
X164735518Y-109964750D01*
X164665000Y-110319268D01*
X156888072Y-110319268D01*
X156888072Y-109500000D01*
X156875812Y-109375518D01*
X156839502Y-109255820D01*
X156780537Y-109145506D01*
X156701185Y-109048815D01*
X156604494Y-108969463D01*
X156494180Y-108910498D01*
X156374482Y-108874188D01*
X156250000Y-108861928D01*
X154250000Y-108861928D01*
X154125518Y-108874188D01*
X154005820Y-108910498D01*
X153895506Y-108969463D01*
X153798815Y-109048815D01*
X153719463Y-109145506D01*
X153660498Y-109255820D01*
X153624188Y-109375518D01*
X153611928Y-109500000D01*
X153611928Y-111063271D01*
X153610198Y-111065001D01*
X153035680Y-111065001D01*
X153072168Y-110976912D01*
X153135000Y-110661033D01*
X153135000Y-110338967D01*
X153072168Y-110023088D01*
X152948918Y-109725537D01*
X152769987Y-109457748D01*
X152542252Y-109230013D01*
X152274463Y-109051082D01*
X151976912Y-108927832D01*
X151661033Y-108865000D01*
X151338967Y-108865000D01*
X151023088Y-108927832D01*
X150725537Y-109051082D01*
X150457748Y-109230013D01*
X150230013Y-109457748D01*
X150051082Y-109725537D01*
X149927832Y-110023088D01*
X149917404Y-110075513D01*
X149811680Y-109820273D01*
X149654637Y-109585241D01*
X149454759Y-109385363D01*
X149219727Y-109228320D01*
X148958574Y-109120147D01*
X148681335Y-109065000D01*
X148398665Y-109065000D01*
X148121426Y-109120147D01*
X147860273Y-109228320D01*
X147625241Y-109385363D01*
X147425363Y-109585241D01*
X147270000Y-109817759D01*
X147114637Y-109585241D01*
X146914759Y-109385363D01*
X146679727Y-109228320D01*
X146418574Y-109120147D01*
X146141335Y-109065000D01*
X145858665Y-109065000D01*
X145676113Y-109101312D01*
X145438803Y-108864001D01*
X145415000Y-108834998D01*
X145299275Y-108740025D01*
X145167246Y-108669453D01*
X145023985Y-108625996D01*
X144912332Y-108614999D01*
X144912321Y-108614999D01*
X144874999Y-108611323D01*
X144837677Y-108614999D01*
X141054799Y-108614999D01*
X140727872Y-108288072D01*
X141400000Y-108288072D01*
X141524482Y-108275812D01*
X141644180Y-108239502D01*
X141754494Y-108180537D01*
X141851185Y-108101185D01*
X141930537Y-108004494D01*
X141989502Y-107894180D01*
X142025812Y-107774482D01*
X142038072Y-107650000D01*
X142038072Y-105850000D01*
X142025812Y-105725518D01*
X141989502Y-105605820D01*
X141930537Y-105495506D01*
X141851185Y-105398815D01*
X141754494Y-105319463D01*
X141644180Y-105260498D01*
X141625873Y-105254944D01*
X141692312Y-105188505D01*
X141860299Y-104937095D01*
X141976011Y-104657743D01*
X142035000Y-104361184D01*
X142035000Y-104058816D01*
X141976011Y-103762257D01*
X141860299Y-103482905D01*
X141692312Y-103231495D01*
X141478505Y-103017688D01*
X141227095Y-102849701D01*
X140947743Y-102733989D01*
X140651184Y-102675000D01*
X140348816Y-102675000D01*
X140052257Y-102733989D01*
X139772905Y-102849701D01*
X139521495Y-103017688D01*
X139307688Y-103231495D01*
X139139701Y-103482905D01*
X139023989Y-103762257D01*
X138965000Y-104058816D01*
X138965000Y-104361184D01*
X139023989Y-104657743D01*
X139139701Y-104937095D01*
X139307688Y-105188505D01*
X139374127Y-105254944D01*
X139355820Y-105260498D01*
X139245506Y-105319463D01*
X139148815Y-105398815D01*
X139069463Y-105495506D01*
X139010498Y-105605820D01*
X138974188Y-105725518D01*
X138961928Y-105850000D01*
X138961928Y-106522128D01*
X134799999Y-102360200D01*
X134799999Y-94005098D01*
X134874916Y-94020000D01*
X135125084Y-94020000D01*
X135370445Y-93971195D01*
X135601571Y-93875459D01*
X135809578Y-93736473D01*
X135986473Y-93559578D01*
X136054207Y-93458207D01*
X138514999Y-95918999D01*
X138515000Y-98122669D01*
X138511323Y-98160001D01*
X138525997Y-98308986D01*
X138569453Y-98452247D01*
X138640025Y-98584277D01*
X138674395Y-98626156D01*
X138734999Y-98700002D01*
X138763997Y-98723800D01*
X139539247Y-99499051D01*
X139335241Y-99635363D01*
X139135363Y-99835241D01*
X138978320Y-100070273D01*
X138870147Y-100331426D01*
X138815000Y-100608665D01*
X138815000Y-100891335D01*
X138870147Y-101168574D01*
X138978320Y-101429727D01*
X139135363Y-101664759D01*
X139335241Y-101864637D01*
X139570273Y-102021680D01*
X139831426Y-102129853D01*
X140108665Y-102185000D01*
X140391335Y-102185000D01*
X140668574Y-102129853D01*
X140929727Y-102021680D01*
X141164759Y-101864637D01*
X141364637Y-101664759D01*
X141520000Y-101432241D01*
X141675363Y-101664759D01*
X141875241Y-101864637D01*
X142110273Y-102021680D01*
X142371426Y-102129853D01*
X142648665Y-102185000D01*
X142931335Y-102185000D01*
X143208574Y-102129853D01*
X143469727Y-102021680D01*
X143704759Y-101864637D01*
X143904637Y-101664759D01*
X144061680Y-101429727D01*
X144169853Y-101168574D01*
X144225000Y-100891335D01*
X144225000Y-100608665D01*
X144180509Y-100384999D01*
X144560198Y-100384999D01*
X144601312Y-100426113D01*
X144565000Y-100608665D01*
X144565000Y-100891335D01*
X144620147Y-101168574D01*
X144728320Y-101429727D01*
X144885363Y-101664759D01*
X145085241Y-101864637D01*
X145320273Y-102021680D01*
X145581426Y-102129853D01*
X145858665Y-102185000D01*
X146141335Y-102185000D01*
X146418574Y-102129853D01*
X146679727Y-102021680D01*
X146914759Y-101864637D01*
X147114637Y-101664759D01*
X147270000Y-101432241D01*
X147359304Y-101565894D01*
X145238998Y-103686201D01*
X145210000Y-103709999D01*
X145186202Y-103738997D01*
X145186201Y-103738998D01*
X145115026Y-103825724D01*
X145086916Y-103878314D01*
X144980820Y-103910498D01*
X144870506Y-103969463D01*
X144773815Y-104048815D01*
X144694463Y-104145506D01*
X144635498Y-104255820D01*
X144599188Y-104375518D01*
X144586928Y-104500000D01*
X144586928Y-106000000D01*
X144599188Y-106124482D01*
X144635498Y-106244180D01*
X144694463Y-106354494D01*
X144773815Y-106451185D01*
X144870506Y-106530537D01*
X144980820Y-106589502D01*
X145100518Y-106625812D01*
X145225000Y-106638072D01*
X146275000Y-106638072D01*
X146399482Y-106625812D01*
X146519180Y-106589502D01*
X146583902Y-106554907D01*
X146792601Y-106618215D01*
X147020000Y-106640612D01*
X147247400Y-106618215D01*
X147466060Y-106551885D01*
X147654669Y-106451071D01*
X147713118Y-106492275D01*
X147922663Y-106585272D01*
X147984190Y-106593964D01*
X148163000Y-106468163D01*
X148163000Y-105703108D01*
X148163215Y-105702399D01*
X148180000Y-105531978D01*
X148180000Y-105377000D01*
X148417000Y-105377000D01*
X148417000Y-106468163D01*
X148595810Y-106593964D01*
X148657337Y-106585272D01*
X148866882Y-106492275D01*
X149054258Y-106360184D01*
X149212264Y-106194076D01*
X149334828Y-106000334D01*
X149417239Y-105786404D01*
X149456331Y-105560507D01*
X149447186Y-105550000D01*
X149751928Y-105550000D01*
X149751928Y-107950000D01*
X149764188Y-108074482D01*
X149800498Y-108194180D01*
X149859463Y-108304494D01*
X149938815Y-108401185D01*
X150035506Y-108480537D01*
X150145820Y-108539502D01*
X150265518Y-108575812D01*
X150390000Y-108588072D01*
X152790000Y-108588072D01*
X152914482Y-108575812D01*
X153034180Y-108539502D01*
X153144494Y-108480537D01*
X153241185Y-108401185D01*
X153320537Y-108304494D01*
X153379502Y-108194180D01*
X153415812Y-108074482D01*
X153428072Y-107950000D01*
X153428072Y-106569268D01*
X159915000Y-106569268D01*
X159915000Y-106930732D01*
X159985518Y-107285250D01*
X160123844Y-107619199D01*
X160324662Y-107919744D01*
X160580256Y-108175338D01*
X160880801Y-108376156D01*
X161214750Y-108514482D01*
X161569268Y-108585000D01*
X161930732Y-108585000D01*
X162285250Y-108514482D01*
X162619199Y-108376156D01*
X162919744Y-108175338D01*
X163175338Y-107919744D01*
X163376156Y-107619199D01*
X163514482Y-107285250D01*
X163585000Y-106930732D01*
X163585000Y-106569268D01*
X163514482Y-106214750D01*
X163376156Y-105880801D01*
X163175338Y-105580256D01*
X162919744Y-105324662D01*
X162619199Y-105123844D01*
X162285250Y-104985518D01*
X161930732Y-104915000D01*
X161569268Y-104915000D01*
X161214750Y-104985518D01*
X160880801Y-105123844D01*
X160580256Y-105324662D01*
X160324662Y-105580256D01*
X160123844Y-105880801D01*
X159985518Y-106214750D01*
X159915000Y-106569268D01*
X153428072Y-106569268D01*
X153428072Y-105550000D01*
X153415812Y-105425518D01*
X153379502Y-105305820D01*
X153320537Y-105195506D01*
X153241185Y-105098815D01*
X153144494Y-105019463D01*
X153034180Y-104960498D01*
X152914482Y-104924188D01*
X152790000Y-104911928D01*
X150390000Y-104911928D01*
X150265518Y-104924188D01*
X150145820Y-104960498D01*
X150035506Y-105019463D01*
X149938815Y-105098815D01*
X149859463Y-105195506D01*
X149800498Y-105305820D01*
X149764188Y-105425518D01*
X149751928Y-105550000D01*
X149447186Y-105550000D01*
X149296598Y-105377000D01*
X148417000Y-105377000D01*
X148180000Y-105377000D01*
X148180000Y-104968021D01*
X148163215Y-104797600D01*
X148163000Y-104796891D01*
X148163000Y-104031837D01*
X148417000Y-104031837D01*
X148417000Y-105123000D01*
X149296598Y-105123000D01*
X149456331Y-104939493D01*
X149417239Y-104713596D01*
X149334828Y-104499666D01*
X149212264Y-104305924D01*
X149054258Y-104139816D01*
X148866882Y-104007725D01*
X148657337Y-103914728D01*
X148595810Y-103906036D01*
X148417000Y-104031837D01*
X148163000Y-104031837D01*
X147984190Y-103906036D01*
X147922663Y-103914728D01*
X147713118Y-104007725D01*
X147654669Y-104048929D01*
X147466059Y-103948115D01*
X147247399Y-103881785D01*
X147197892Y-103876909D01*
X147427911Y-103646890D01*
X179558524Y-103646890D01*
X179603175Y-103794099D01*
X179728359Y-104056920D01*
X179902412Y-104290269D01*
X180118645Y-104485178D01*
X180368748Y-104634157D01*
X180643109Y-104731481D01*
X180873000Y-104610814D01*
X180873000Y-103417000D01*
X181127000Y-103417000D01*
X181127000Y-104610814D01*
X181356891Y-104731481D01*
X181631252Y-104634157D01*
X181881355Y-104485178D01*
X182097588Y-104290269D01*
X182271641Y-104056920D01*
X182396825Y-103794099D01*
X182441476Y-103646890D01*
X182320155Y-103417000D01*
X181127000Y-103417000D01*
X180873000Y-103417000D01*
X179679845Y-103417000D01*
X179558524Y-103646890D01*
X147427911Y-103646890D01*
X148239801Y-102835001D01*
X153887677Y-102835001D01*
X153924999Y-102838677D01*
X153962321Y-102835001D01*
X153962332Y-102835001D01*
X154073985Y-102824004D01*
X154217246Y-102780547D01*
X154349275Y-102709975D01*
X154465000Y-102615002D01*
X154488802Y-102585999D01*
X154686729Y-102388072D01*
X156250000Y-102388072D01*
X156374482Y-102375812D01*
X156494180Y-102339502D01*
X156604494Y-102280537D01*
X156701185Y-102201185D01*
X156780537Y-102104494D01*
X156839502Y-101994180D01*
X156875812Y-101874482D01*
X156888072Y-101750000D01*
X156888072Y-100569268D01*
X164665000Y-100569268D01*
X164665000Y-100930732D01*
X164735518Y-101285250D01*
X164873844Y-101619199D01*
X165074662Y-101919744D01*
X165330256Y-102175338D01*
X165630801Y-102376156D01*
X165964750Y-102514482D01*
X166319268Y-102585000D01*
X166680732Y-102585000D01*
X167035250Y-102514482D01*
X167369199Y-102376156D01*
X167669744Y-102175338D01*
X167925338Y-101919744D01*
X168126156Y-101619199D01*
X168264482Y-101285250D01*
X168335000Y-100930732D01*
X168335000Y-100569268D01*
X169665000Y-100569268D01*
X169665000Y-100930732D01*
X169735518Y-101285250D01*
X169873844Y-101619199D01*
X170074662Y-101919744D01*
X170330256Y-102175338D01*
X170630801Y-102376156D01*
X170964750Y-102514482D01*
X171319268Y-102585000D01*
X171680732Y-102585000D01*
X172035250Y-102514482D01*
X172369199Y-102376156D01*
X172669744Y-102175338D01*
X172925338Y-101919744D01*
X173126156Y-101619199D01*
X173264482Y-101285250D01*
X173335000Y-100930732D01*
X173335000Y-100569268D01*
X174665000Y-100569268D01*
X174665000Y-100930732D01*
X174735518Y-101285250D01*
X174873844Y-101619199D01*
X175074662Y-101919744D01*
X175330256Y-102175338D01*
X175630801Y-102376156D01*
X175964750Y-102514482D01*
X176319268Y-102585000D01*
X176680732Y-102585000D01*
X177035250Y-102514482D01*
X177369199Y-102376156D01*
X177669744Y-102175338D01*
X177925338Y-101919744D01*
X178126156Y-101619199D01*
X178264482Y-101285250D01*
X178335000Y-100930732D01*
X178335000Y-100569268D01*
X178264482Y-100214750D01*
X178134109Y-99900000D01*
X179511928Y-99900000D01*
X179511928Y-101600000D01*
X179524188Y-101724482D01*
X179560498Y-101844180D01*
X179619463Y-101954494D01*
X179698815Y-102051185D01*
X179795506Y-102130537D01*
X179905820Y-102189502D01*
X179986466Y-102213966D01*
X179902412Y-102289731D01*
X179728359Y-102523080D01*
X179603175Y-102785901D01*
X179558524Y-102933110D01*
X179679845Y-103163000D01*
X180873000Y-103163000D01*
X180873000Y-103143000D01*
X181127000Y-103143000D01*
X181127000Y-103163000D01*
X182320155Y-103163000D01*
X182441476Y-102933110D01*
X182396825Y-102785901D01*
X182271641Y-102523080D01*
X182097588Y-102289731D01*
X182013534Y-102213966D01*
X182094180Y-102189502D01*
X182204494Y-102130537D01*
X182301185Y-102051185D01*
X182380537Y-101954494D01*
X182439502Y-101844180D01*
X182475812Y-101724482D01*
X182488072Y-101600000D01*
X182488072Y-99900000D01*
X182475812Y-99775518D01*
X182439502Y-99655820D01*
X182380537Y-99545506D01*
X182301185Y-99448815D01*
X182204494Y-99369463D01*
X182094180Y-99310498D01*
X181974482Y-99274188D01*
X181850000Y-99261928D01*
X180150000Y-99261928D01*
X180025518Y-99274188D01*
X179905820Y-99310498D01*
X179795506Y-99369463D01*
X179698815Y-99448815D01*
X179619463Y-99545506D01*
X179560498Y-99655820D01*
X179524188Y-99775518D01*
X179511928Y-99900000D01*
X178134109Y-99900000D01*
X178126156Y-99880801D01*
X177925338Y-99580256D01*
X177669744Y-99324662D01*
X177369199Y-99123844D01*
X177035250Y-98985518D01*
X176680732Y-98915000D01*
X176319268Y-98915000D01*
X175964750Y-98985518D01*
X175630801Y-99123844D01*
X175330256Y-99324662D01*
X175074662Y-99580256D01*
X174873844Y-99880801D01*
X174735518Y-100214750D01*
X174665000Y-100569268D01*
X173335000Y-100569268D01*
X173264482Y-100214750D01*
X173126156Y-99880801D01*
X172925338Y-99580256D01*
X172669744Y-99324662D01*
X172369199Y-99123844D01*
X172035250Y-98985518D01*
X171680732Y-98915000D01*
X171319268Y-98915000D01*
X170964750Y-98985518D01*
X170630801Y-99123844D01*
X170330256Y-99324662D01*
X170074662Y-99580256D01*
X169873844Y-99880801D01*
X169735518Y-100214750D01*
X169665000Y-100569268D01*
X168335000Y-100569268D01*
X168264482Y-100214750D01*
X168126156Y-99880801D01*
X167925338Y-99580256D01*
X167669744Y-99324662D01*
X167369199Y-99123844D01*
X167035250Y-98985518D01*
X166680732Y-98915000D01*
X166319268Y-98915000D01*
X165964750Y-98985518D01*
X165630801Y-99123844D01*
X165330256Y-99324662D01*
X165074662Y-99580256D01*
X164873844Y-99880801D01*
X164735518Y-100214750D01*
X164665000Y-100569268D01*
X156888072Y-100569268D01*
X156888072Y-99750000D01*
X156875812Y-99625518D01*
X156839502Y-99505820D01*
X156780537Y-99395506D01*
X156701185Y-99298815D01*
X156604494Y-99219463D01*
X156494180Y-99160498D01*
X156374482Y-99124188D01*
X156250000Y-99111928D01*
X154250000Y-99111928D01*
X154125518Y-99124188D01*
X154005820Y-99160498D01*
X153895506Y-99219463D01*
X153798815Y-99298815D01*
X153719463Y-99395506D01*
X153660498Y-99505820D01*
X153624188Y-99625518D01*
X153611928Y-99750000D01*
X153611928Y-101313271D01*
X153610198Y-101315001D01*
X153035680Y-101315001D01*
X153072168Y-101226912D01*
X153135000Y-100911033D01*
X153135000Y-100588967D01*
X153072168Y-100273088D01*
X152948918Y-99975537D01*
X152769987Y-99707748D01*
X152542252Y-99480013D01*
X152274463Y-99301082D01*
X151976912Y-99177832D01*
X151661033Y-99115000D01*
X151338967Y-99115000D01*
X151023088Y-99177832D01*
X150725537Y-99301082D01*
X150457748Y-99480013D01*
X150230013Y-99707748D01*
X150051082Y-99975537D01*
X149927832Y-100273088D01*
X149917404Y-100325513D01*
X149811680Y-100070273D01*
X149654637Y-99835241D01*
X149454759Y-99635363D01*
X149219727Y-99478320D01*
X148958574Y-99370147D01*
X148681335Y-99315000D01*
X148398665Y-99315000D01*
X148121426Y-99370147D01*
X147860273Y-99478320D01*
X147625241Y-99635363D01*
X147425363Y-99835241D01*
X147270000Y-100067759D01*
X147114637Y-99835241D01*
X146914759Y-99635363D01*
X146679727Y-99478320D01*
X146418574Y-99370147D01*
X146141335Y-99315000D01*
X145858665Y-99315000D01*
X145676113Y-99351312D01*
X145438803Y-99114001D01*
X145415000Y-99084998D01*
X145299275Y-98990025D01*
X145167246Y-98919453D01*
X145023985Y-98875996D01*
X144912332Y-98864999D01*
X144912321Y-98864999D01*
X144874999Y-98861323D01*
X144837677Y-98864999D01*
X141054799Y-98864999D01*
X140727872Y-98538072D01*
X141400000Y-98538072D01*
X141524482Y-98525812D01*
X141644180Y-98489502D01*
X141754494Y-98430537D01*
X141851185Y-98351185D01*
X141930537Y-98254494D01*
X141989502Y-98144180D01*
X142025812Y-98024482D01*
X142038072Y-97900000D01*
X142038072Y-96100000D01*
X142025812Y-95975518D01*
X141989502Y-95855820D01*
X141930537Y-95745506D01*
X141851185Y-95648815D01*
X141754494Y-95569463D01*
X141644180Y-95510498D01*
X141625873Y-95504944D01*
X141692312Y-95438505D01*
X141860299Y-95187095D01*
X141976011Y-94907743D01*
X142035000Y-94611184D01*
X142035000Y-94308816D01*
X141976011Y-94012257D01*
X141860299Y-93732905D01*
X141692312Y-93481495D01*
X141478505Y-93267688D01*
X141227095Y-93099701D01*
X140947743Y-92983989D01*
X140651184Y-92925000D01*
X140348816Y-92925000D01*
X140052257Y-92983989D01*
X139772905Y-93099701D01*
X139521495Y-93267688D01*
X139307688Y-93481495D01*
X139139701Y-93732905D01*
X139023989Y-94012257D01*
X138979836Y-94234232D01*
X135255603Y-90510000D01*
X138859733Y-90510000D01*
X138830147Y-90581426D01*
X138775000Y-90858665D01*
X138775000Y-91141335D01*
X138830147Y-91418574D01*
X138938320Y-91679727D01*
X139095363Y-91914759D01*
X139295241Y-92114637D01*
X139530273Y-92271680D01*
X139791426Y-92379853D01*
X140068665Y-92435000D01*
X140351335Y-92435000D01*
X140628574Y-92379853D01*
X140889727Y-92271680D01*
X141124759Y-92114637D01*
X141324637Y-91914759D01*
X141480000Y-91682241D01*
X141635363Y-91914759D01*
X141835241Y-92114637D01*
X142070273Y-92271680D01*
X142331426Y-92379853D01*
X142608665Y-92435000D01*
X142891335Y-92435000D01*
X143168574Y-92379853D01*
X143429727Y-92271680D01*
X143664759Y-92114637D01*
X143864637Y-91914759D01*
X144021680Y-91679727D01*
X144129853Y-91418574D01*
X144185000Y-91141335D01*
X144185000Y-90858665D01*
X144129853Y-90581426D01*
X144100267Y-90510000D01*
X144435199Y-90510000D01*
X144601312Y-90676114D01*
X144565000Y-90858665D01*
X144565000Y-91141335D01*
X144620147Y-91418574D01*
X144728320Y-91679727D01*
X144885363Y-91914759D01*
X145085241Y-92114637D01*
X145320273Y-92271680D01*
X145581426Y-92379853D01*
X145858665Y-92435000D01*
X146141335Y-92435000D01*
X146418574Y-92379853D01*
X146679727Y-92271680D01*
X146914759Y-92114637D01*
X147114637Y-91914759D01*
X147270000Y-91682241D01*
X147359304Y-91815894D01*
X145238998Y-93936201D01*
X145210000Y-93959999D01*
X145186202Y-93988997D01*
X145186201Y-93988998D01*
X145115026Y-94075724D01*
X145086916Y-94128314D01*
X144980820Y-94160498D01*
X144870506Y-94219463D01*
X144773815Y-94298815D01*
X144694463Y-94395506D01*
X144635498Y-94505820D01*
X144599188Y-94625518D01*
X144586928Y-94750000D01*
X144586928Y-96250000D01*
X144599188Y-96374482D01*
X144635498Y-96494180D01*
X144694463Y-96604494D01*
X144773815Y-96701185D01*
X144870506Y-96780537D01*
X144980820Y-96839502D01*
X145100518Y-96875812D01*
X145225000Y-96888072D01*
X146275000Y-96888072D01*
X146399482Y-96875812D01*
X146519180Y-96839502D01*
X146583902Y-96804907D01*
X146792601Y-96868215D01*
X147020000Y-96890612D01*
X147247400Y-96868215D01*
X147466060Y-96801885D01*
X147654669Y-96701071D01*
X147713118Y-96742275D01*
X147922663Y-96835272D01*
X147984190Y-96843964D01*
X148163000Y-96718163D01*
X148163000Y-95953108D01*
X148163215Y-95952399D01*
X148180000Y-95781978D01*
X148180000Y-95627000D01*
X148417000Y-95627000D01*
X148417000Y-96718163D01*
X148595810Y-96843964D01*
X148657337Y-96835272D01*
X148866882Y-96742275D01*
X149054258Y-96610184D01*
X149212264Y-96444076D01*
X149334828Y-96250334D01*
X149417239Y-96036404D01*
X149456331Y-95810507D01*
X149447186Y-95800000D01*
X149751928Y-95800000D01*
X149751928Y-98200000D01*
X149764188Y-98324482D01*
X149800498Y-98444180D01*
X149859463Y-98554494D01*
X149938815Y-98651185D01*
X150035506Y-98730537D01*
X150145820Y-98789502D01*
X150265518Y-98825812D01*
X150390000Y-98838072D01*
X152790000Y-98838072D01*
X152914482Y-98825812D01*
X153034180Y-98789502D01*
X153144494Y-98730537D01*
X153241185Y-98651185D01*
X153320537Y-98554494D01*
X153379502Y-98444180D01*
X153415812Y-98324482D01*
X153428072Y-98200000D01*
X153428072Y-96819268D01*
X159915000Y-96819268D01*
X159915000Y-97180732D01*
X159985518Y-97535250D01*
X160123844Y-97869199D01*
X160324662Y-98169744D01*
X160580256Y-98425338D01*
X160880801Y-98626156D01*
X161214750Y-98764482D01*
X161569268Y-98835000D01*
X161930732Y-98835000D01*
X162285250Y-98764482D01*
X162619199Y-98626156D01*
X162919744Y-98425338D01*
X163175338Y-98169744D01*
X163376156Y-97869199D01*
X163514482Y-97535250D01*
X163585000Y-97180732D01*
X163585000Y-96819268D01*
X163514482Y-96464750D01*
X163376156Y-96130801D01*
X163175338Y-95830256D01*
X162919744Y-95574662D01*
X162619199Y-95373844D01*
X162285250Y-95235518D01*
X161930732Y-95165000D01*
X161569268Y-95165000D01*
X161214750Y-95235518D01*
X160880801Y-95373844D01*
X160580256Y-95574662D01*
X160324662Y-95830256D01*
X160123844Y-96130801D01*
X159985518Y-96464750D01*
X159915000Y-96819268D01*
X153428072Y-96819268D01*
X153428072Y-95800000D01*
X153415812Y-95675518D01*
X153379502Y-95555820D01*
X153320537Y-95445506D01*
X153241185Y-95348815D01*
X153144494Y-95269463D01*
X153034180Y-95210498D01*
X152914482Y-95174188D01*
X152790000Y-95161928D01*
X150390000Y-95161928D01*
X150265518Y-95174188D01*
X150145820Y-95210498D01*
X150035506Y-95269463D01*
X149938815Y-95348815D01*
X149859463Y-95445506D01*
X149800498Y-95555820D01*
X149764188Y-95675518D01*
X149751928Y-95800000D01*
X149447186Y-95800000D01*
X149296598Y-95627000D01*
X148417000Y-95627000D01*
X148180000Y-95627000D01*
X148180000Y-95218021D01*
X148163215Y-95047600D01*
X148163000Y-95046891D01*
X148163000Y-94281837D01*
X148417000Y-94281837D01*
X148417000Y-95373000D01*
X149296598Y-95373000D01*
X149456331Y-95189493D01*
X149417239Y-94963596D01*
X149334828Y-94749666D01*
X149212264Y-94555924D01*
X149054258Y-94389816D01*
X148866882Y-94257725D01*
X148657337Y-94164728D01*
X148595810Y-94156036D01*
X148417000Y-94281837D01*
X148163000Y-94281837D01*
X147984190Y-94156036D01*
X147922663Y-94164728D01*
X147713118Y-94257725D01*
X147654669Y-94298929D01*
X147466059Y-94198115D01*
X147247399Y-94131785D01*
X147197892Y-94126909D01*
X147427911Y-93896890D01*
X179308524Y-93896890D01*
X179353175Y-94044099D01*
X179478359Y-94306920D01*
X179652412Y-94540269D01*
X179868645Y-94735178D01*
X180118748Y-94884157D01*
X180393109Y-94981481D01*
X180623000Y-94860814D01*
X180623000Y-93667000D01*
X180877000Y-93667000D01*
X180877000Y-94860814D01*
X181106891Y-94981481D01*
X181381252Y-94884157D01*
X181631355Y-94735178D01*
X181847588Y-94540269D01*
X182021641Y-94306920D01*
X182146825Y-94044099D01*
X182191476Y-93896890D01*
X182070155Y-93667000D01*
X180877000Y-93667000D01*
X180623000Y-93667000D01*
X179429845Y-93667000D01*
X179308524Y-93896890D01*
X147427911Y-93896890D01*
X148239801Y-93085001D01*
X153887677Y-93085001D01*
X153924999Y-93088677D01*
X153962321Y-93085001D01*
X153962332Y-93085001D01*
X154073985Y-93074004D01*
X154217246Y-93030547D01*
X154349275Y-92959975D01*
X154465000Y-92865002D01*
X154488802Y-92835999D01*
X154686729Y-92638072D01*
X156250000Y-92638072D01*
X156374482Y-92625812D01*
X156494180Y-92589502D01*
X156604494Y-92530537D01*
X156701185Y-92451185D01*
X156780537Y-92354494D01*
X156839502Y-92244180D01*
X156875812Y-92124482D01*
X156888072Y-92000000D01*
X156888072Y-90819268D01*
X164665000Y-90819268D01*
X164665000Y-91180732D01*
X164735518Y-91535250D01*
X164873844Y-91869199D01*
X165074662Y-92169744D01*
X165330256Y-92425338D01*
X165630801Y-92626156D01*
X165964750Y-92764482D01*
X166319268Y-92835000D01*
X166680732Y-92835000D01*
X167035250Y-92764482D01*
X167369199Y-92626156D01*
X167669744Y-92425338D01*
X167925338Y-92169744D01*
X168126156Y-91869199D01*
X168264482Y-91535250D01*
X168335000Y-91180732D01*
X168335000Y-90819268D01*
X169665000Y-90819268D01*
X169665000Y-91180732D01*
X169735518Y-91535250D01*
X169873844Y-91869199D01*
X170074662Y-92169744D01*
X170330256Y-92425338D01*
X170630801Y-92626156D01*
X170964750Y-92764482D01*
X171319268Y-92835000D01*
X171680732Y-92835000D01*
X172035250Y-92764482D01*
X172369199Y-92626156D01*
X172669744Y-92425338D01*
X172925338Y-92169744D01*
X173126156Y-91869199D01*
X173264482Y-91535250D01*
X173335000Y-91180732D01*
X173335000Y-90819268D01*
X174665000Y-90819268D01*
X174665000Y-91180732D01*
X174735518Y-91535250D01*
X174873844Y-91869199D01*
X175074662Y-92169744D01*
X175330256Y-92425338D01*
X175630801Y-92626156D01*
X175964750Y-92764482D01*
X176319268Y-92835000D01*
X176680732Y-92835000D01*
X177035250Y-92764482D01*
X177369199Y-92626156D01*
X177669744Y-92425338D01*
X177925338Y-92169744D01*
X178126156Y-91869199D01*
X178264482Y-91535250D01*
X178335000Y-91180732D01*
X178335000Y-90819268D01*
X178264482Y-90464750D01*
X178134109Y-90150000D01*
X179261928Y-90150000D01*
X179261928Y-91850000D01*
X179274188Y-91974482D01*
X179310498Y-92094180D01*
X179369463Y-92204494D01*
X179448815Y-92301185D01*
X179545506Y-92380537D01*
X179655820Y-92439502D01*
X179736466Y-92463966D01*
X179652412Y-92539731D01*
X179478359Y-92773080D01*
X179353175Y-93035901D01*
X179308524Y-93183110D01*
X179429845Y-93413000D01*
X180623000Y-93413000D01*
X180623000Y-93393000D01*
X180877000Y-93393000D01*
X180877000Y-93413000D01*
X182070155Y-93413000D01*
X182191476Y-93183110D01*
X182146825Y-93035901D01*
X182021641Y-92773080D01*
X181847588Y-92539731D01*
X181763534Y-92463966D01*
X181844180Y-92439502D01*
X181954494Y-92380537D01*
X182051185Y-92301185D01*
X182130537Y-92204494D01*
X182189502Y-92094180D01*
X182225812Y-91974482D01*
X182238072Y-91850000D01*
X182238072Y-90150000D01*
X182225812Y-90025518D01*
X182189502Y-89905820D01*
X182130537Y-89795506D01*
X182051185Y-89698815D01*
X181954494Y-89619463D01*
X181844180Y-89560498D01*
X181724482Y-89524188D01*
X181600000Y-89511928D01*
X179900000Y-89511928D01*
X179775518Y-89524188D01*
X179655820Y-89560498D01*
X179545506Y-89619463D01*
X179448815Y-89698815D01*
X179369463Y-89795506D01*
X179310498Y-89905820D01*
X179274188Y-90025518D01*
X179261928Y-90150000D01*
X178134109Y-90150000D01*
X178126156Y-90130801D01*
X177925338Y-89830256D01*
X177669744Y-89574662D01*
X177369199Y-89373844D01*
X177035250Y-89235518D01*
X176680732Y-89165000D01*
X176319268Y-89165000D01*
X175964750Y-89235518D01*
X175630801Y-89373844D01*
X175330256Y-89574662D01*
X175074662Y-89830256D01*
X174873844Y-90130801D01*
X174735518Y-90464750D01*
X174665000Y-90819268D01*
X173335000Y-90819268D01*
X173264482Y-90464750D01*
X173126156Y-90130801D01*
X172925338Y-89830256D01*
X172669744Y-89574662D01*
X172369199Y-89373844D01*
X172035250Y-89235518D01*
X171680732Y-89165000D01*
X171319268Y-89165000D01*
X170964750Y-89235518D01*
X170630801Y-89373844D01*
X170330256Y-89574662D01*
X170074662Y-89830256D01*
X169873844Y-90130801D01*
X169735518Y-90464750D01*
X169665000Y-90819268D01*
X168335000Y-90819268D01*
X168264482Y-90464750D01*
X168126156Y-90130801D01*
X167925338Y-89830256D01*
X167669744Y-89574662D01*
X167369199Y-89373844D01*
X167035250Y-89235518D01*
X166680732Y-89165000D01*
X166319268Y-89165000D01*
X165964750Y-89235518D01*
X165630801Y-89373844D01*
X165330256Y-89574662D01*
X165074662Y-89830256D01*
X164873844Y-90130801D01*
X164735518Y-90464750D01*
X164665000Y-90819268D01*
X156888072Y-90819268D01*
X156888072Y-90000000D01*
X156875812Y-89875518D01*
X156839502Y-89755820D01*
X156780537Y-89645506D01*
X156701185Y-89548815D01*
X156604494Y-89469463D01*
X156494180Y-89410498D01*
X156374482Y-89374188D01*
X156250000Y-89361928D01*
X154250000Y-89361928D01*
X154125518Y-89374188D01*
X154005820Y-89410498D01*
X153895506Y-89469463D01*
X153798815Y-89548815D01*
X153719463Y-89645506D01*
X153660498Y-89755820D01*
X153624188Y-89875518D01*
X153611928Y-90000000D01*
X153611928Y-91563271D01*
X153610198Y-91565001D01*
X153035680Y-91565001D01*
X153072168Y-91476912D01*
X153135000Y-91161033D01*
X153135000Y-90838967D01*
X153072168Y-90523088D01*
X152948918Y-90225537D01*
X152769987Y-89957748D01*
X152542252Y-89730013D01*
X152274463Y-89551082D01*
X151976912Y-89427832D01*
X151661033Y-89365000D01*
X151338967Y-89365000D01*
X151023088Y-89427832D01*
X150725537Y-89551082D01*
X150457748Y-89730013D01*
X150230013Y-89957748D01*
X150051082Y-90225537D01*
X149927832Y-90523088D01*
X149917404Y-90575513D01*
X149811680Y-90320273D01*
X149654637Y-90085241D01*
X149454759Y-89885363D01*
X149219727Y-89728320D01*
X148958574Y-89620147D01*
X148681335Y-89565000D01*
X148398665Y-89565000D01*
X148121426Y-89620147D01*
X147860273Y-89728320D01*
X147625241Y-89885363D01*
X147425363Y-90085241D01*
X147270000Y-90317759D01*
X147114637Y-90085241D01*
X146914759Y-89885363D01*
X146679727Y-89728320D01*
X146418574Y-89620147D01*
X146141335Y-89565000D01*
X145858665Y-89565000D01*
X145676114Y-89601312D01*
X145313804Y-89239003D01*
X145290001Y-89209999D01*
X145174276Y-89115026D01*
X145042247Y-89044454D01*
X144898986Y-89000997D01*
X144787333Y-88990000D01*
X144787322Y-88990000D01*
X144750000Y-88986324D01*
X144712678Y-88990000D01*
X117877000Y-88990000D01*
X117877000Y-61800000D01*
X161711928Y-61800000D01*
X161711928Y-64300000D01*
X161724188Y-64424482D01*
X161760498Y-64544180D01*
X161819463Y-64654494D01*
X161898815Y-64751185D01*
X161995506Y-64830537D01*
X162105820Y-64889502D01*
X162225518Y-64925812D01*
X162350000Y-64938072D01*
X164850000Y-64938072D01*
X164974482Y-64925812D01*
X165094180Y-64889502D01*
X165204494Y-64830537D01*
X165301185Y-64751185D01*
X165380537Y-64654494D01*
X165439502Y-64544180D01*
X165475812Y-64424482D01*
X165488072Y-64300000D01*
X165488072Y-61800000D01*
X165475812Y-61675518D01*
X165439502Y-61555820D01*
X165380537Y-61445506D01*
X165301185Y-61348815D01*
X165204494Y-61269463D01*
X165094180Y-61210498D01*
X164974482Y-61174188D01*
X164850000Y-61161928D01*
X162350000Y-61161928D01*
X162225518Y-61174188D01*
X162105820Y-61210498D01*
X161995506Y-61269463D01*
X161898815Y-61348815D01*
X161819463Y-61445506D01*
X161760498Y-61555820D01*
X161724188Y-61675518D01*
X161711928Y-61800000D01*
X117877000Y-61800000D01*
X117877000Y-55363605D01*
X162466000Y-55363605D01*
X162591914Y-55653577D01*
X162924126Y-55819433D01*
X163282312Y-55917290D01*
X163652706Y-55943389D01*
X164021075Y-55896725D01*
X164373262Y-55779094D01*
X164608086Y-55653577D01*
X164734000Y-55363605D01*
X163600000Y-54229605D01*
X162466000Y-55363605D01*
X117877000Y-55363605D01*
X117877000Y-54102706D01*
X161706611Y-54102706D01*
X161753275Y-54471075D01*
X161870906Y-54823262D01*
X161996423Y-55058086D01*
X162286395Y-55184000D01*
X163420395Y-54050000D01*
X163779605Y-54050000D01*
X164913605Y-55184000D01*
X165203577Y-55058086D01*
X165369433Y-54725874D01*
X165467290Y-54367688D01*
X165493389Y-53997294D01*
X165446725Y-53628925D01*
X165329094Y-53276738D01*
X165261351Y-53150000D01*
X169011928Y-53150000D01*
X169011928Y-54850000D01*
X169024188Y-54974482D01*
X169060498Y-55094180D01*
X169119463Y-55204494D01*
X169198815Y-55301185D01*
X169295506Y-55380537D01*
X169405820Y-55439502D01*
X169525518Y-55475812D01*
X169650000Y-55488072D01*
X171350000Y-55488072D01*
X171474482Y-55475812D01*
X171594180Y-55439502D01*
X171704494Y-55380537D01*
X171801185Y-55301185D01*
X171880537Y-55204494D01*
X171939502Y-55094180D01*
X171963966Y-55013534D01*
X172039731Y-55097588D01*
X172273080Y-55271641D01*
X172535901Y-55396825D01*
X172683110Y-55441476D01*
X172913000Y-55320155D01*
X172913000Y-54127000D01*
X172893000Y-54127000D01*
X172893000Y-53873000D01*
X172913000Y-53873000D01*
X172913000Y-52679845D01*
X173167000Y-52679845D01*
X173167000Y-53873000D01*
X173187000Y-53873000D01*
X173187000Y-54127000D01*
X173167000Y-54127000D01*
X173167000Y-55320155D01*
X173396890Y-55441476D01*
X173544099Y-55396825D01*
X173806920Y-55271641D01*
X174040269Y-55097588D01*
X174116034Y-55013534D01*
X174140498Y-55094180D01*
X174199463Y-55204494D01*
X174278815Y-55301185D01*
X174375506Y-55380537D01*
X174485820Y-55439502D01*
X174605518Y-55475812D01*
X174730000Y-55488072D01*
X176430000Y-55488072D01*
X176554482Y-55475812D01*
X176674180Y-55439502D01*
X176784494Y-55380537D01*
X176881185Y-55301185D01*
X176960537Y-55204494D01*
X177019502Y-55094180D01*
X177041513Y-55021620D01*
X177173368Y-55153475D01*
X177416589Y-55315990D01*
X177686842Y-55427932D01*
X177973740Y-55485000D01*
X178266260Y-55485000D01*
X178553158Y-55427932D01*
X178823411Y-55315990D01*
X179066632Y-55153475D01*
X179273475Y-54946632D01*
X179435990Y-54703411D01*
X179547932Y-54433158D01*
X179605000Y-54146260D01*
X179605000Y-53853740D01*
X179547932Y-53566842D01*
X179435990Y-53296589D01*
X179273475Y-53053368D01*
X179066632Y-52846525D01*
X178823411Y-52684010D01*
X178553158Y-52572068D01*
X178266260Y-52515000D01*
X177973740Y-52515000D01*
X177686842Y-52572068D01*
X177416589Y-52684010D01*
X177173368Y-52846525D01*
X177041513Y-52978380D01*
X177019502Y-52905820D01*
X176960537Y-52795506D01*
X176881185Y-52698815D01*
X176784494Y-52619463D01*
X176674180Y-52560498D01*
X176554482Y-52524188D01*
X176430000Y-52511928D01*
X174730000Y-52511928D01*
X174605518Y-52524188D01*
X174485820Y-52560498D01*
X174375506Y-52619463D01*
X174278815Y-52698815D01*
X174199463Y-52795506D01*
X174140498Y-52905820D01*
X174116034Y-52986466D01*
X174040269Y-52902412D01*
X173806920Y-52728359D01*
X173544099Y-52603175D01*
X173396890Y-52558524D01*
X173167000Y-52679845D01*
X172913000Y-52679845D01*
X172683110Y-52558524D01*
X172535901Y-52603175D01*
X172273080Y-52728359D01*
X172039731Y-52902412D01*
X171963966Y-52986466D01*
X171939502Y-52905820D01*
X171880537Y-52795506D01*
X171801185Y-52698815D01*
X171704494Y-52619463D01*
X171594180Y-52560498D01*
X171474482Y-52524188D01*
X171350000Y-52511928D01*
X169650000Y-52511928D01*
X169525518Y-52524188D01*
X169405820Y-52560498D01*
X169295506Y-52619463D01*
X169198815Y-52698815D01*
X169119463Y-52795506D01*
X169060498Y-52905820D01*
X169024188Y-53025518D01*
X169011928Y-53150000D01*
X165261351Y-53150000D01*
X165203577Y-53041914D01*
X164913605Y-52916000D01*
X163779605Y-54050000D01*
X163420395Y-54050000D01*
X162286395Y-52916000D01*
X161996423Y-53041914D01*
X161830567Y-53374126D01*
X161732710Y-53732312D01*
X161706611Y-54102706D01*
X117877000Y-54102706D01*
X117877000Y-52736395D01*
X162466000Y-52736395D01*
X163600000Y-53870395D01*
X164734000Y-52736395D01*
X164608086Y-52446423D01*
X164275874Y-52280567D01*
X163917688Y-52182710D01*
X163547294Y-52156611D01*
X163178925Y-52203275D01*
X162826738Y-52320906D01*
X162591914Y-52446423D01*
X162466000Y-52736395D01*
X117877000Y-52736395D01*
X117877000Y-49910000D01*
X182590001Y-49910000D01*
X182590000Y-128340000D01*
%TA.AperFunction,Conductor*%
D33*
G36*
X182590000Y-128340000D02*
G01*
X81660000Y-128340000D01*
X81660000Y-125350000D01*
X138961928Y-125350000D01*
X138961928Y-127150000D01*
X138974188Y-127274482D01*
X139010498Y-127394180D01*
X139069463Y-127504494D01*
X139148815Y-127601185D01*
X139245506Y-127680537D01*
X139355820Y-127739502D01*
X139475518Y-127775812D01*
X139600000Y-127788072D01*
X141400000Y-127788072D01*
X141524482Y-127775812D01*
X141644180Y-127739502D01*
X141754494Y-127680537D01*
X141851185Y-127601185D01*
X141930537Y-127504494D01*
X141989502Y-127394180D01*
X142025812Y-127274482D01*
X142038072Y-127150000D01*
X142038072Y-125350000D01*
X142025812Y-125225518D01*
X141989502Y-125105820D01*
X141930537Y-124995506D01*
X141851185Y-124898815D01*
X141754494Y-124819463D01*
X141644180Y-124760498D01*
X141625873Y-124754944D01*
X141692312Y-124688505D01*
X141860299Y-124437095D01*
X141976011Y-124157743D01*
X142035000Y-123861184D01*
X142035000Y-123558816D01*
X141976011Y-123262257D01*
X141860299Y-122982905D01*
X141692312Y-122731495D01*
X141478505Y-122517688D01*
X141227095Y-122349701D01*
X140947743Y-122233989D01*
X140651184Y-122175000D01*
X140348816Y-122175000D01*
X140052257Y-122233989D01*
X139772905Y-122349701D01*
X139521495Y-122517688D01*
X139307688Y-122731495D01*
X139139701Y-122982905D01*
X139023989Y-123262257D01*
X138965000Y-123558816D01*
X138965000Y-123861184D01*
X139023989Y-124157743D01*
X139139701Y-124437095D01*
X139307688Y-124688505D01*
X139374127Y-124754944D01*
X139355820Y-124760498D01*
X139245506Y-124819463D01*
X139148815Y-124898815D01*
X139069463Y-124995506D01*
X139010498Y-125105820D01*
X138974188Y-125225518D01*
X138961928Y-125350000D01*
X81660000Y-125350000D01*
X81660000Y-119135413D01*
X83294192Y-119135413D01*
X83389956Y-119399814D01*
X83679571Y-119540704D01*
X83991108Y-119622384D01*
X84312595Y-119641718D01*
X84631675Y-119597961D01*
X84936088Y-119492795D01*
X85110044Y-119399814D01*
X85205808Y-119135413D01*
X89794192Y-119135413D01*
X89889956Y-119399814D01*
X90179571Y-119540704D01*
X90491108Y-119622384D01*
X90812595Y-119641718D01*
X91131675Y-119597961D01*
X91436088Y-119492795D01*
X91610044Y-119399814D01*
X91705808Y-119135413D01*
X90750000Y-118179605D01*
X89794192Y-119135413D01*
X85205808Y-119135413D01*
X84250000Y-118179605D01*
X83294192Y-119135413D01*
X81660000Y-119135413D01*
X81660000Y-118062595D01*
X82608282Y-118062595D01*
X82652039Y-118381675D01*
X82757205Y-118686088D01*
X82850186Y-118860044D01*
X83114587Y-118955808D01*
X84070395Y-118000000D01*
X84429605Y-118000000D01*
X85385413Y-118955808D01*
X85649814Y-118860044D01*
X85790704Y-118570429D01*
X85872384Y-118258892D01*
X85884189Y-118062595D01*
X89108282Y-118062595D01*
X89152039Y-118381675D01*
X89257205Y-118686088D01*
X89350186Y-118860044D01*
X89614587Y-118955808D01*
X90570395Y-118000000D01*
X90929605Y-118000000D01*
X91885413Y-118955808D01*
X92149814Y-118860044D01*
X92290704Y-118570429D01*
X92372384Y-118258892D01*
X92391718Y-117937405D01*
X92347961Y-117618325D01*
X92242795Y-117313912D01*
X92149814Y-117139956D01*
X91885413Y-117044192D01*
X90929605Y-118000000D01*
X90570395Y-118000000D01*
X89614587Y-117044192D01*
X89350186Y-117139956D01*
X89209296Y-117429571D01*
X89127616Y-117741108D01*
X89108282Y-118062595D01*
X85884189Y-118062595D01*
X85891718Y-117937405D01*
X85847961Y-117618325D01*
X85742795Y-117313912D01*
X85649814Y-117139956D01*
X85385413Y-117044192D01*
X84429605Y-118000000D01*
X84070395Y-118000000D01*
X83114587Y-117044192D01*
X82850186Y-117139956D01*
X82709296Y-117429571D01*
X82627616Y-117741108D01*
X82608282Y-118062595D01*
X81660000Y-118062595D01*
X81660000Y-116864587D01*
X83294192Y-116864587D01*
X84250000Y-117820395D01*
X85205808Y-116864587D01*
X89794192Y-116864587D01*
X90750000Y-117820395D01*
X91705808Y-116864587D01*
X91628087Y-116650000D01*
X93461928Y-116650000D01*
X93474188Y-116774482D01*
X93510498Y-116894180D01*
X93569463Y-117004494D01*
X93648815Y-117101185D01*
X93745506Y-117180537D01*
X93855820Y-117239502D01*
X93975518Y-117275812D01*
X94100000Y-117288072D01*
X94714250Y-117285000D01*
X94873000Y-117126250D01*
X94873000Y-115877000D01*
X93623750Y-115877000D01*
X93465000Y-116035750D01*
X93461928Y-116650000D01*
X91628087Y-116650000D01*
X91610044Y-116600186D01*
X91320429Y-116459296D01*
X91008892Y-116377616D01*
X90687405Y-116358282D01*
X90368325Y-116402039D01*
X90063912Y-116507205D01*
X89889956Y-116600186D01*
X89794192Y-116864587D01*
X85205808Y-116864587D01*
X85110044Y-116600186D01*
X84820429Y-116459296D01*
X84508892Y-116377616D01*
X84187405Y-116358282D01*
X83868325Y-116402039D01*
X83563912Y-116507205D01*
X83389956Y-116600186D01*
X83294192Y-116864587D01*
X81660000Y-116864587D01*
X81660000Y-113338967D01*
X82615000Y-113338967D01*
X82615000Y-113661033D01*
X82677832Y-113976912D01*
X82801082Y-114274463D01*
X82980013Y-114542252D01*
X83207748Y-114769987D01*
X83475537Y-114948918D01*
X83773088Y-115072168D01*
X84088967Y-115135000D01*
X84411033Y-115135000D01*
X84726912Y-115072168D01*
X85024463Y-114948918D01*
X85292252Y-114769987D01*
X85519987Y-114542252D01*
X85698918Y-114274463D01*
X85822168Y-113976912D01*
X85885000Y-113661033D01*
X85885000Y-113338967D01*
X89115000Y-113338967D01*
X89115000Y-113661033D01*
X89177832Y-113976912D01*
X89301082Y-114274463D01*
X89480013Y-114542252D01*
X89707748Y-114769987D01*
X89975537Y-114948918D01*
X90273088Y-115072168D01*
X90588967Y-115135000D01*
X90911033Y-115135000D01*
X91226912Y-115072168D01*
X91524463Y-114948918D01*
X91672504Y-114850000D01*
X93461928Y-114850000D01*
X93465000Y-115464250D01*
X93623750Y-115623000D01*
X94873000Y-115623000D01*
X94873000Y-114373750D01*
X95127000Y-114373750D01*
X95127000Y-115623000D01*
X95147000Y-115623000D01*
X95147000Y-115877000D01*
X95127000Y-115877000D01*
X95127000Y-117126250D01*
X95285750Y-117285000D01*
X95900000Y-117288072D01*
X96024482Y-117275812D01*
X96144180Y-117239502D01*
X96254494Y-117180537D01*
X96351185Y-117101185D01*
X96430537Y-117004494D01*
X96489502Y-116894180D01*
X96495056Y-116875873D01*
X96561495Y-116942312D01*
X96812905Y-117110299D01*
X97092257Y-117226011D01*
X97388816Y-117285000D01*
X97691184Y-117285000D01*
X97987743Y-117226011D01*
X98267095Y-117110299D01*
X98518505Y-116942312D01*
X98732312Y-116728505D01*
X98900299Y-116477095D01*
X99016011Y-116197743D01*
X99075000Y-115901184D01*
X99075000Y-115598816D01*
X99016011Y-115302257D01*
X98900299Y-115022905D01*
X98732312Y-114771495D01*
X98518505Y-114557688D01*
X98267095Y-114389701D01*
X97987743Y-114273989D01*
X97691184Y-114215000D01*
X97388816Y-114215000D01*
X97092257Y-114273989D01*
X96812905Y-114389701D01*
X96561495Y-114557688D01*
X96495056Y-114624127D01*
X96489502Y-114605820D01*
X96430537Y-114495506D01*
X96351185Y-114398815D01*
X96254494Y-114319463D01*
X96144180Y-114260498D01*
X96024482Y-114224188D01*
X95900000Y-114211928D01*
X95285750Y-114215000D01*
X95127000Y-114373750D01*
X94873000Y-114373750D01*
X94714250Y-114215000D01*
X94100000Y-114211928D01*
X93975518Y-114224188D01*
X93855820Y-114260498D01*
X93745506Y-114319463D01*
X93648815Y-114398815D01*
X93569463Y-114495506D01*
X93510498Y-114605820D01*
X93474188Y-114725518D01*
X93461928Y-114850000D01*
X91672504Y-114850000D01*
X91792252Y-114769987D01*
X92019987Y-114542252D01*
X92198918Y-114274463D01*
X92322168Y-113976912D01*
X92385000Y-113661033D01*
X92385000Y-113338967D01*
X92331234Y-113068665D01*
X101565000Y-113068665D01*
X101565000Y-113351335D01*
X101620147Y-113628574D01*
X101728320Y-113889727D01*
X101885363Y-114124759D01*
X102085241Y-114324637D01*
X102317759Y-114480000D01*
X102085241Y-114635363D01*
X101885363Y-114835241D01*
X101728320Y-115070273D01*
X101620147Y-115331426D01*
X101565000Y-115608665D01*
X101565000Y-115891335D01*
X101620147Y-116168574D01*
X101728320Y-116429727D01*
X101885363Y-116664759D01*
X102085241Y-116864637D01*
X102320273Y-117021680D01*
X102581426Y-117129853D01*
X102858665Y-117185000D01*
X103141335Y-117185000D01*
X103418574Y-117129853D01*
X103679727Y-117021680D01*
X103914759Y-116864637D01*
X104114637Y-116664759D01*
X104126575Y-116646891D01*
X106558519Y-116646891D01*
X106655843Y-116921252D01*
X106804822Y-117171355D01*
X106999731Y-117387588D01*
X107233080Y-117561641D01*
X107495901Y-117686825D01*
X107643110Y-117731476D01*
X107873000Y-117610155D01*
X107873000Y-116417000D01*
X108127000Y-116417000D01*
X108127000Y-117610155D01*
X108356890Y-117731476D01*
X108504099Y-117686825D01*
X108766920Y-117561641D01*
X109000269Y-117387588D01*
X109195178Y-117171355D01*
X109270000Y-117045745D01*
X109344822Y-117171355D01*
X109539731Y-117387588D01*
X109773080Y-117561641D01*
X110035901Y-117686825D01*
X110183110Y-117731476D01*
X110413000Y-117610155D01*
X110413000Y-116417000D01*
X110667000Y-116417000D01*
X110667000Y-117610155D01*
X110896890Y-117731476D01*
X111044099Y-117686825D01*
X111306920Y-117561641D01*
X111540269Y-117387588D01*
X111735178Y-117171355D01*
X111810000Y-117045745D01*
X111884822Y-117171355D01*
X112079731Y-117387588D01*
X112313080Y-117561641D01*
X112575901Y-117686825D01*
X112723110Y-117731476D01*
X112953000Y-117610155D01*
X112953000Y-116417000D01*
X113207000Y-116417000D01*
X113207000Y-117610155D01*
X113436890Y-117731476D01*
X113584099Y-117686825D01*
X113846920Y-117561641D01*
X114080269Y-117387588D01*
X114275178Y-117171355D01*
X114350000Y-117045745D01*
X114424822Y-117171355D01*
X114619731Y-117387588D01*
X114853080Y-117561641D01*
X115115901Y-117686825D01*
X115263110Y-117731476D01*
X115493000Y-117610155D01*
X115493000Y-116417000D01*
X115747000Y-116417000D01*
X115747000Y-117610155D01*
X115976890Y-117731476D01*
X116124099Y-117686825D01*
X116386920Y-117561641D01*
X116620269Y-117387588D01*
X116815178Y-117171355D01*
X116964157Y-116921252D01*
X117061481Y-116646891D01*
X116940814Y-116417000D01*
X115747000Y-116417000D01*
X115493000Y-116417000D01*
X113207000Y-116417000D01*
X112953000Y-116417000D01*
X110667000Y-116417000D01*
X110413000Y-116417000D01*
X108127000Y-116417000D01*
X107873000Y-116417000D01*
X106679186Y-116417000D01*
X106558519Y-116646891D01*
X104126575Y-116646891D01*
X104271680Y-116429727D01*
X104379853Y-116168574D01*
X104435000Y-115891335D01*
X104435000Y-115608665D01*
X104379853Y-115331426D01*
X104271680Y-115070273D01*
X104114637Y-114835241D01*
X103914759Y-114635363D01*
X103682241Y-114480000D01*
X103914759Y-114324637D01*
X104114637Y-114124759D01*
X104271680Y-113889727D01*
X104379853Y-113628574D01*
X104384792Y-113603740D01*
X106515000Y-113603740D01*
X106515000Y-113896260D01*
X106572068Y-114183158D01*
X106684010Y-114453411D01*
X106846525Y-114696632D01*
X107053368Y-114903475D01*
X107229406Y-115021100D01*
X106999731Y-115192412D01*
X106804822Y-115408645D01*
X106655843Y-115658748D01*
X106558519Y-115933109D01*
X106679186Y-116163000D01*
X107873000Y-116163000D01*
X107873000Y-116143000D01*
X108127000Y-116143000D01*
X108127000Y-116163000D01*
X110413000Y-116163000D01*
X110413000Y-116143000D01*
X110667000Y-116143000D01*
X110667000Y-116163000D01*
X112953000Y-116163000D01*
X112953000Y-116143000D01*
X113207000Y-116143000D01*
X113207000Y-116163000D01*
X115493000Y-116163000D01*
X115493000Y-116143000D01*
X115747000Y-116143000D01*
X115747000Y-116163000D01*
X116940814Y-116163000D01*
X117061481Y-115933109D01*
X116964157Y-115658748D01*
X116815178Y-115408645D01*
X116620269Y-115192412D01*
X116390594Y-115021100D01*
X116566632Y-114903475D01*
X116773475Y-114696632D01*
X116935990Y-114453411D01*
X117047932Y-114183158D01*
X117105000Y-113896260D01*
X117105000Y-113603740D01*
X117047932Y-113316842D01*
X116935990Y-113046589D01*
X116773475Y-112803368D01*
X116566632Y-112596525D01*
X116323411Y-112434010D01*
X116053158Y-112322068D01*
X115766260Y-112265000D01*
X115473740Y-112265000D01*
X115186842Y-112322068D01*
X114916589Y-112434010D01*
X114673368Y-112596525D01*
X114466525Y-112803368D01*
X114350000Y-112977760D01*
X114233475Y-112803368D01*
X114026632Y-112596525D01*
X113783411Y-112434010D01*
X113513158Y-112322068D01*
X113226260Y-112265000D01*
X112933740Y-112265000D01*
X112646842Y-112322068D01*
X112376589Y-112434010D01*
X112133368Y-112596525D01*
X111926525Y-112803368D01*
X111810000Y-112977760D01*
X111693475Y-112803368D01*
X111486632Y-112596525D01*
X111243411Y-112434010D01*
X110973158Y-112322068D01*
X110686260Y-112265000D01*
X110393740Y-112265000D01*
X110106842Y-112322068D01*
X109836589Y-112434010D01*
X109593368Y-112596525D01*
X109386525Y-112803368D01*
X109270000Y-112977760D01*
X109153475Y-112803368D01*
X108946632Y-112596525D01*
X108703411Y-112434010D01*
X108433158Y-112322068D01*
X108146260Y-112265000D01*
X107853740Y-112265000D01*
X107566842Y-112322068D01*
X107296589Y-112434010D01*
X107053368Y-112596525D01*
X106846525Y-112803368D01*
X106684010Y-113046589D01*
X106572068Y-113316842D01*
X106515000Y-113603740D01*
X104384792Y-113603740D01*
X104435000Y-113351335D01*
X104435000Y-113068665D01*
X104379853Y-112791426D01*
X104271680Y-112530273D01*
X104114637Y-112295241D01*
X103914759Y-112095363D01*
X103679727Y-111938320D01*
X103418574Y-111830147D01*
X103141335Y-111775000D01*
X102858665Y-111775000D01*
X102581426Y-111830147D01*
X102320273Y-111938320D01*
X102085241Y-112095363D01*
X101885363Y-112295241D01*
X101728320Y-112530273D01*
X101620147Y-112791426D01*
X101565000Y-113068665D01*
X92331234Y-113068665D01*
X92322168Y-113023088D01*
X92198918Y-112725537D01*
X92019987Y-112457748D01*
X91792252Y-112230013D01*
X91524463Y-112051082D01*
X91226912Y-111927832D01*
X90911033Y-111865000D01*
X90588967Y-111865000D01*
X90273088Y-111927832D01*
X89975537Y-112051082D01*
X89707748Y-112230013D01*
X89480013Y-112457748D01*
X89301082Y-112725537D01*
X89177832Y-113023088D01*
X89115000Y-113338967D01*
X85885000Y-113338967D01*
X85822168Y-113023088D01*
X85698918Y-112725537D01*
X85519987Y-112457748D01*
X85292252Y-112230013D01*
X85024463Y-112051082D01*
X84726912Y-111927832D01*
X84411033Y-111865000D01*
X84088967Y-111865000D01*
X83773088Y-111927832D01*
X83475537Y-112051082D01*
X83207748Y-112230013D01*
X82980013Y-112457748D01*
X82801082Y-112725537D01*
X82677832Y-113023088D01*
X82615000Y-113338967D01*
X81660000Y-113338967D01*
X81660000Y-110050947D01*
X124699000Y-110050947D01*
X124699000Y-110501053D01*
X124786811Y-110942510D01*
X124959059Y-111358353D01*
X125209125Y-111732603D01*
X125527397Y-112050875D01*
X125901647Y-112300941D01*
X126317490Y-112473189D01*
X126758947Y-112561000D01*
X127209053Y-112561000D01*
X127650510Y-112473189D01*
X128066353Y-112300941D01*
X128440603Y-112050875D01*
X128758875Y-111732603D01*
X129008941Y-111358353D01*
X129181189Y-110942510D01*
X129269000Y-110501053D01*
X129269000Y-110050947D01*
X129181189Y-109609490D01*
X129008941Y-109193647D01*
X128758875Y-108819397D01*
X128440603Y-108501125D01*
X128066353Y-108251059D01*
X127650510Y-108078811D01*
X127209053Y-107991000D01*
X126758947Y-107991000D01*
X126317490Y-108078811D01*
X125901647Y-108251059D01*
X125527397Y-108501125D01*
X125209125Y-108819397D01*
X124959059Y-109193647D01*
X124786811Y-109609490D01*
X124699000Y-110050947D01*
X81660000Y-110050947D01*
X81660000Y-92992408D01*
X86403000Y-92992408D01*
X86403000Y-93267592D01*
X86456686Y-93537490D01*
X86561995Y-93791727D01*
X86714880Y-94020535D01*
X86909465Y-94215120D01*
X87138273Y-94368005D01*
X87392510Y-94473314D01*
X87662408Y-94527000D01*
X87937592Y-94527000D01*
X88207490Y-94473314D01*
X88461727Y-94368005D01*
X88690535Y-94215120D01*
X88810090Y-94095565D01*
X89554040Y-94095565D01*
X89621020Y-94335656D01*
X89870048Y-94452756D01*
X90137135Y-94519023D01*
X90412017Y-94531910D01*
X90684133Y-94490922D01*
X90943023Y-94397636D01*
X91058980Y-94335656D01*
X91125960Y-94095565D01*
X90340000Y-93309605D01*
X89554040Y-94095565D01*
X88810090Y-94095565D01*
X88885120Y-94020535D01*
X89038005Y-93791727D01*
X89067692Y-93720057D01*
X89072364Y-93733023D01*
X89134344Y-93848980D01*
X89374435Y-93915960D01*
X90160395Y-93130000D01*
X89374435Y-92344040D01*
X89134344Y-92411020D01*
X89070515Y-92546760D01*
X89038005Y-92468273D01*
X88885120Y-92239465D01*
X88810090Y-92164435D01*
X89554040Y-92164435D01*
X90340000Y-92950395D01*
X91125960Y-92164435D01*
X91058980Y-91924344D01*
X90809952Y-91807244D01*
X90542865Y-91740977D01*
X90267983Y-91728090D01*
X89995867Y-91769078D01*
X89736977Y-91862364D01*
X89621020Y-91924344D01*
X89554040Y-92164435D01*
X88810090Y-92164435D01*
X88690535Y-92044880D01*
X88461727Y-91891995D01*
X88207490Y-91786686D01*
X87937592Y-91733000D01*
X87662408Y-91733000D01*
X87392510Y-91786686D01*
X87138273Y-91891995D01*
X86909465Y-92044880D01*
X86714880Y-92239465D01*
X86561995Y-92468273D01*
X86456686Y-92722510D01*
X86403000Y-92992408D01*
X81660000Y-92992408D01*
X81660000Y-90127000D01*
X99888198Y-90127000D01*
X98251571Y-91763628D01*
X98097592Y-91733000D01*
X97822408Y-91733000D01*
X97552510Y-91786686D01*
X97298273Y-91891995D01*
X97069465Y-92044880D01*
X96874880Y-92239465D01*
X96721995Y-92468273D01*
X96690000Y-92545515D01*
X96658005Y-92468273D01*
X96505120Y-92239465D01*
X96310535Y-92044880D01*
X96081727Y-91891995D01*
X95827490Y-91786686D01*
X95557592Y-91733000D01*
X95282408Y-91733000D01*
X95012510Y-91786686D01*
X94758273Y-91891995D01*
X94529465Y-92044880D01*
X94334880Y-92239465D01*
X94181995Y-92468273D01*
X94150000Y-92545515D01*
X94118005Y-92468273D01*
X93965120Y-92239465D01*
X93770535Y-92044880D01*
X93541727Y-91891995D01*
X93287490Y-91786686D01*
X93017592Y-91733000D01*
X92742408Y-91733000D01*
X92472510Y-91786686D01*
X92218273Y-91891995D01*
X91989465Y-92044880D01*
X91794880Y-92239465D01*
X91641995Y-92468273D01*
X91612308Y-92539943D01*
X91607636Y-92526977D01*
X91545656Y-92411020D01*
X91305565Y-92344040D01*
X90519605Y-93130000D01*
X91305565Y-93915960D01*
X91545656Y-93848980D01*
X91609485Y-93713240D01*
X91641995Y-93791727D01*
X91794880Y-94020535D01*
X91989465Y-94215120D01*
X92120001Y-94302342D01*
X92120000Y-107197659D01*
X91989465Y-107284880D01*
X91794880Y-107479465D01*
X91641995Y-107708273D01*
X91610000Y-107785515D01*
X91578005Y-107708273D01*
X91425120Y-107479465D01*
X91230535Y-107284880D01*
X91001727Y-107131995D01*
X90747490Y-107026686D01*
X90477592Y-106973000D01*
X90202408Y-106973000D01*
X89932510Y-107026686D01*
X89678273Y-107131995D01*
X89449465Y-107284880D01*
X89254880Y-107479465D01*
X89101995Y-107708273D01*
X89070000Y-107785515D01*
X89038005Y-107708273D01*
X88885120Y-107479465D01*
X88690535Y-107284880D01*
X88461727Y-107131995D01*
X88207490Y-107026686D01*
X87937592Y-106973000D01*
X87662408Y-106973000D01*
X87392510Y-107026686D01*
X87138273Y-107131995D01*
X86909465Y-107284880D01*
X86714880Y-107479465D01*
X86561995Y-107708273D01*
X86456686Y-107962510D01*
X86403000Y-108232408D01*
X86403000Y-108507592D01*
X86456686Y-108777490D01*
X86561995Y-109031727D01*
X86714880Y-109260535D01*
X86909465Y-109455120D01*
X87138273Y-109608005D01*
X87392510Y-109713314D01*
X87662408Y-109767000D01*
X87937592Y-109767000D01*
X88207490Y-109713314D01*
X88461727Y-109608005D01*
X88690535Y-109455120D01*
X88885120Y-109260535D01*
X89038005Y-109031727D01*
X89070000Y-108954485D01*
X89101995Y-109031727D01*
X89254880Y-109260535D01*
X89449465Y-109455120D01*
X89678273Y-109608005D01*
X89932510Y-109713314D01*
X90202408Y-109767000D01*
X90477592Y-109767000D01*
X90747490Y-109713314D01*
X91001727Y-109608005D01*
X91230535Y-109455120D01*
X91425120Y-109260535D01*
X91578005Y-109031727D01*
X91610000Y-108954485D01*
X91641995Y-109031727D01*
X91794880Y-109260535D01*
X91989465Y-109455120D01*
X92218273Y-109608005D01*
X92472510Y-109713314D01*
X92742408Y-109767000D01*
X93017592Y-109767000D01*
X93287490Y-109713314D01*
X93541727Y-109608005D01*
X93770535Y-109455120D01*
X93890090Y-109335565D01*
X94634040Y-109335565D01*
X94701020Y-109575656D01*
X94950048Y-109692756D01*
X95217135Y-109759023D01*
X95492017Y-109771910D01*
X95764133Y-109730922D01*
X96023023Y-109637636D01*
X96138980Y-109575656D01*
X96205960Y-109335565D01*
X95420000Y-108549605D01*
X94634040Y-109335565D01*
X93890090Y-109335565D01*
X93965120Y-109260535D01*
X94118005Y-109031727D01*
X94147692Y-108960057D01*
X94152364Y-108973023D01*
X94214344Y-109088980D01*
X94454435Y-109155960D01*
X95240395Y-108370000D01*
X94454435Y-107584040D01*
X94214344Y-107651020D01*
X94150515Y-107786760D01*
X94118005Y-107708273D01*
X93965120Y-107479465D01*
X93890090Y-107404435D01*
X94634040Y-107404435D01*
X95420000Y-108190395D01*
X96205960Y-107404435D01*
X96138980Y-107164344D01*
X95889952Y-107047244D01*
X95622865Y-106980977D01*
X95347983Y-106968090D01*
X95075867Y-107009078D01*
X94816977Y-107102364D01*
X94701020Y-107164344D01*
X94634040Y-107404435D01*
X93890090Y-107404435D01*
X93770535Y-107284880D01*
X93640000Y-107197659D01*
X93640000Y-94302341D01*
X93770535Y-94215120D01*
X93965120Y-94020535D01*
X94118005Y-93791727D01*
X94150000Y-93714485D01*
X94181995Y-93791727D01*
X94334880Y-94020535D01*
X94529465Y-94215120D01*
X94758273Y-94368005D01*
X95012510Y-94473314D01*
X95282408Y-94527000D01*
X95557592Y-94527000D01*
X95827490Y-94473314D01*
X96081727Y-94368005D01*
X96310535Y-94215120D01*
X96505120Y-94020535D01*
X96658005Y-93791727D01*
X96690000Y-93714485D01*
X96721995Y-93791727D01*
X96874880Y-94020535D01*
X97069465Y-94215120D01*
X97298273Y-94368005D01*
X97552510Y-94473314D01*
X97822408Y-94527000D01*
X98097592Y-94527000D01*
X98367490Y-94473314D01*
X98621727Y-94368005D01*
X98850535Y-94215120D01*
X99045120Y-94020535D01*
X99198005Y-93791727D01*
X99230000Y-93714485D01*
X99261995Y-93791727D01*
X99414880Y-94020535D01*
X99609465Y-94215120D01*
X99838273Y-94368005D01*
X100092510Y-94473314D01*
X100362408Y-94527000D01*
X100637592Y-94527000D01*
X100907490Y-94473314D01*
X101161727Y-94368005D01*
X101390535Y-94215120D01*
X101585120Y-94020535D01*
X101738005Y-93791727D01*
X101770000Y-93714485D01*
X101801995Y-93791727D01*
X101954880Y-94020535D01*
X102149465Y-94215120D01*
X102378273Y-94368005D01*
X102632510Y-94473314D01*
X102902408Y-94527000D01*
X103177592Y-94527000D01*
X103447490Y-94473314D01*
X103701727Y-94368005D01*
X103930535Y-94215120D01*
X104125120Y-94020535D01*
X104278005Y-93791727D01*
X104310000Y-93714485D01*
X104341995Y-93791727D01*
X104494880Y-94020535D01*
X104689465Y-94215120D01*
X104918273Y-94368005D01*
X105172510Y-94473314D01*
X105442408Y-94527000D01*
X105717592Y-94527000D01*
X105987490Y-94473314D01*
X106241727Y-94368005D01*
X106470535Y-94215120D01*
X106665120Y-94020535D01*
X106818005Y-93791727D01*
X106850000Y-93714485D01*
X106881995Y-93791727D01*
X107034880Y-94020535D01*
X107229465Y-94215120D01*
X107458273Y-94368005D01*
X107712510Y-94473314D01*
X107982408Y-94527000D01*
X108257592Y-94527000D01*
X108527490Y-94473314D01*
X108781727Y-94368005D01*
X109010535Y-94215120D01*
X109205120Y-94020535D01*
X109358005Y-93791727D01*
X109390000Y-93714485D01*
X109421995Y-93791727D01*
X109574880Y-94020535D01*
X109769465Y-94215120D01*
X109998273Y-94368005D01*
X110252510Y-94473314D01*
X110522408Y-94527000D01*
X110797592Y-94527000D01*
X111067490Y-94473314D01*
X111321727Y-94368005D01*
X111550535Y-94215120D01*
X111745120Y-94020535D01*
X111898005Y-93791727D01*
X111930000Y-93714485D01*
X111961995Y-93791727D01*
X112114880Y-94020535D01*
X112309465Y-94215120D01*
X112538273Y-94368005D01*
X112792510Y-94473314D01*
X113062408Y-94527000D01*
X113337592Y-94527000D01*
X113607490Y-94473314D01*
X113861727Y-94368005D01*
X114090535Y-94215120D01*
X114285120Y-94020535D01*
X114438005Y-93791727D01*
X114470000Y-93714485D01*
X114501995Y-93791727D01*
X114654880Y-94020535D01*
X114849465Y-94215120D01*
X115078273Y-94368005D01*
X115332510Y-94473314D01*
X115602408Y-94527000D01*
X115877592Y-94527000D01*
X116147490Y-94473314D01*
X116401727Y-94368005D01*
X116630535Y-94215120D01*
X116825120Y-94020535D01*
X116978005Y-93791727D01*
X117083314Y-93537490D01*
X117137000Y-93267592D01*
X117137000Y-92992408D01*
X117083314Y-92722510D01*
X116978005Y-92468273D01*
X116825120Y-92239465D01*
X116630535Y-92044880D01*
X116578334Y-92010000D01*
X119967036Y-92010000D01*
X119874541Y-92148429D01*
X119778805Y-92379555D01*
X119730000Y-92624916D01*
X119730000Y-92875084D01*
X119778805Y-93120445D01*
X119874541Y-93351571D01*
X120013527Y-93559578D01*
X120190422Y-93736473D01*
X120398429Y-93875459D01*
X120629555Y-93971195D01*
X120691651Y-93983547D01*
X108152200Y-106522999D01*
X99084334Y-106522999D01*
X99047001Y-106519322D01*
X99009668Y-106522999D01*
X98898015Y-106533996D01*
X98754754Y-106577453D01*
X98622725Y-106648025D01*
X98507000Y-106742998D01*
X98483202Y-106771996D01*
X98251570Y-107003628D01*
X98097592Y-106973000D01*
X97822408Y-106973000D01*
X97552510Y-107026686D01*
X97298273Y-107131995D01*
X97069465Y-107284880D01*
X96874880Y-107479465D01*
X96721995Y-107708273D01*
X96692308Y-107779943D01*
X96687636Y-107766977D01*
X96625656Y-107651020D01*
X96385565Y-107584040D01*
X95599605Y-108370000D01*
X96385565Y-109155960D01*
X96625656Y-109088980D01*
X96689485Y-108953240D01*
X96721995Y-109031727D01*
X96874880Y-109260535D01*
X97069465Y-109455120D01*
X97298273Y-109608005D01*
X97552510Y-109713314D01*
X97822408Y-109767000D01*
X98097592Y-109767000D01*
X98367490Y-109713314D01*
X98621727Y-109608005D01*
X98850535Y-109455120D01*
X99045120Y-109260535D01*
X99198005Y-109031727D01*
X99230000Y-108954485D01*
X99261995Y-109031727D01*
X99414880Y-109260535D01*
X99609465Y-109455120D01*
X99838273Y-109608005D01*
X100092510Y-109713314D01*
X100362408Y-109767000D01*
X100637592Y-109767000D01*
X100907490Y-109713314D01*
X101161727Y-109608005D01*
X101390535Y-109455120D01*
X101585120Y-109260535D01*
X101738005Y-109031727D01*
X101770000Y-108954485D01*
X101801995Y-109031727D01*
X101954880Y-109260535D01*
X102149465Y-109455120D01*
X102378273Y-109608005D01*
X102632510Y-109713314D01*
X102902408Y-109767000D01*
X103177592Y-109767000D01*
X103447490Y-109713314D01*
X103701727Y-109608005D01*
X103930535Y-109455120D01*
X104125120Y-109260535D01*
X104278005Y-109031727D01*
X104310000Y-108954485D01*
X104341995Y-109031727D01*
X104494880Y-109260535D01*
X104689465Y-109455120D01*
X104918273Y-109608005D01*
X105172510Y-109713314D01*
X105442408Y-109767000D01*
X105717592Y-109767000D01*
X105987490Y-109713314D01*
X106241727Y-109608005D01*
X106470535Y-109455120D01*
X106665120Y-109260535D01*
X106818005Y-109031727D01*
X106850000Y-108954485D01*
X106881995Y-109031727D01*
X107034880Y-109260535D01*
X107229465Y-109455120D01*
X107458273Y-109608005D01*
X107712510Y-109713314D01*
X107982408Y-109767000D01*
X108257592Y-109767000D01*
X108527490Y-109713314D01*
X108781727Y-109608005D01*
X109010535Y-109455120D01*
X109205120Y-109260535D01*
X109358005Y-109031727D01*
X109390000Y-108954485D01*
X109421995Y-109031727D01*
X109574880Y-109260535D01*
X109769465Y-109455120D01*
X109998273Y-109608005D01*
X110252510Y-109713314D01*
X110522408Y-109767000D01*
X110797592Y-109767000D01*
X111067490Y-109713314D01*
X111321727Y-109608005D01*
X111550535Y-109455120D01*
X111745120Y-109260535D01*
X111898005Y-109031727D01*
X111930000Y-108954485D01*
X111961995Y-109031727D01*
X112114880Y-109260535D01*
X112309465Y-109455120D01*
X112538273Y-109608005D01*
X112792510Y-109713314D01*
X113062408Y-109767000D01*
X113337592Y-109767000D01*
X113607490Y-109713314D01*
X113861727Y-109608005D01*
X114090535Y-109455120D01*
X114285120Y-109260535D01*
X114438005Y-109031727D01*
X114470000Y-108954485D01*
X114501995Y-109031727D01*
X114654880Y-109260535D01*
X114849465Y-109455120D01*
X115078273Y-109608005D01*
X115332510Y-109713314D01*
X115602408Y-109767000D01*
X115877592Y-109767000D01*
X116147490Y-109713314D01*
X116401727Y-109608005D01*
X116630535Y-109455120D01*
X116825120Y-109260535D01*
X116978005Y-109031727D01*
X117083314Y-108777490D01*
X117137000Y-108507592D01*
X117137000Y-108232408D01*
X117083314Y-107962510D01*
X116978005Y-107708273D01*
X116825120Y-107479465D01*
X116630535Y-107284880D01*
X116401727Y-107131995D01*
X116147490Y-107026686D01*
X115877592Y-106973000D01*
X115602408Y-106973000D01*
X115332510Y-107026686D01*
X115078273Y-107131995D01*
X114849465Y-107284880D01*
X114654880Y-107479465D01*
X114501995Y-107708273D01*
X114470000Y-107785515D01*
X114438005Y-107708273D01*
X114285120Y-107479465D01*
X114090535Y-107284880D01*
X113861727Y-107131995D01*
X113607490Y-107026686D01*
X113337592Y-106973000D01*
X113062408Y-106973000D01*
X112792510Y-107026686D01*
X112538273Y-107131995D01*
X112309465Y-107284880D01*
X112114880Y-107479465D01*
X111961995Y-107708273D01*
X111930000Y-107785515D01*
X111898005Y-107708273D01*
X111745120Y-107479465D01*
X111550535Y-107284880D01*
X111321727Y-107131995D01*
X111067490Y-107026686D01*
X110797592Y-106973000D01*
X110522408Y-106973000D01*
X110252510Y-107026686D01*
X109998273Y-107131995D01*
X109769465Y-107284880D01*
X109574880Y-107479465D01*
X109421995Y-107708273D01*
X109390000Y-107785515D01*
X109358005Y-107708273D01*
X109261283Y-107563518D01*
X122816435Y-94008367D01*
X122874916Y-94020000D01*
X123125084Y-94020000D01*
X123370445Y-93971195D01*
X123601571Y-93875459D01*
X123809578Y-93736473D01*
X123986473Y-93559578D01*
X124000000Y-93539333D01*
X124013527Y-93559578D01*
X124190422Y-93736473D01*
X124398429Y-93875459D01*
X124629555Y-93971195D01*
X124874916Y-94020000D01*
X125125084Y-94020000D01*
X125370445Y-93971195D01*
X125601571Y-93875459D01*
X125809578Y-93736473D01*
X125986473Y-93559578D01*
X126000000Y-93539333D01*
X126013527Y-93559578D01*
X126190422Y-93736473D01*
X126398429Y-93875459D01*
X126629555Y-93971195D01*
X126874916Y-94020000D01*
X127125084Y-94020000D01*
X127370445Y-93971195D01*
X127601571Y-93875459D01*
X127809578Y-93736473D01*
X127986473Y-93559578D01*
X128000000Y-93539333D01*
X128013527Y-93559578D01*
X128190422Y-93736473D01*
X128398429Y-93875459D01*
X128629555Y-93971195D01*
X128874916Y-94020000D01*
X129125084Y-94020000D01*
X129370445Y-93971195D01*
X129601571Y-93875459D01*
X129809578Y-93736473D01*
X129986473Y-93559578D01*
X130000000Y-93539333D01*
X130013527Y-93559578D01*
X130190422Y-93736473D01*
X130398429Y-93875459D01*
X130629555Y-93971195D01*
X130874916Y-94020000D01*
X131125084Y-94020000D01*
X131280000Y-93989186D01*
X131279999Y-110387679D01*
X131276323Y-110425001D01*
X131279999Y-110462323D01*
X131279999Y-110462333D01*
X131290996Y-110573986D01*
X131334453Y-110717247D01*
X131405025Y-110849277D01*
X131444870Y-110897827D01*
X131499998Y-110965002D01*
X131529002Y-110988805D01*
X139539247Y-118999051D01*
X139335241Y-119135363D01*
X139135363Y-119335241D01*
X138978320Y-119570273D01*
X138870147Y-119831426D01*
X138815000Y-120108665D01*
X138815000Y-120391335D01*
X138870147Y-120668574D01*
X138978320Y-120929727D01*
X139135363Y-121164759D01*
X139335241Y-121364637D01*
X139570273Y-121521680D01*
X139831426Y-121629853D01*
X140108665Y-121685000D01*
X140391335Y-121685000D01*
X140668574Y-121629853D01*
X140929727Y-121521680D01*
X141164759Y-121364637D01*
X141364637Y-121164759D01*
X141520000Y-120932241D01*
X141675363Y-121164759D01*
X141875241Y-121364637D01*
X142110273Y-121521680D01*
X142371426Y-121629853D01*
X142648665Y-121685000D01*
X142931335Y-121685000D01*
X143208574Y-121629853D01*
X143469727Y-121521680D01*
X143704759Y-121364637D01*
X143904637Y-121164759D01*
X144061680Y-120929727D01*
X144169853Y-120668574D01*
X144225000Y-120391335D01*
X144225000Y-120108665D01*
X144180509Y-119884999D01*
X144520198Y-119884999D01*
X144561312Y-119926113D01*
X144525000Y-120108665D01*
X144525000Y-120391335D01*
X144580147Y-120668574D01*
X144688320Y-120929727D01*
X144845363Y-121164759D01*
X145045241Y-121364637D01*
X145280273Y-121521680D01*
X145541426Y-121629853D01*
X145818665Y-121685000D01*
X146101335Y-121685000D01*
X146378574Y-121629853D01*
X146639727Y-121521680D01*
X146874759Y-121364637D01*
X147074637Y-121164759D01*
X147230000Y-120932241D01*
X147335326Y-121089872D01*
X145238998Y-123186201D01*
X145210000Y-123209999D01*
X145186202Y-123238997D01*
X145186201Y-123238998D01*
X145115026Y-123325724D01*
X145086916Y-123378314D01*
X144980820Y-123410498D01*
X144870506Y-123469463D01*
X144773815Y-123548815D01*
X144694463Y-123645506D01*
X144635498Y-123755820D01*
X144599188Y-123875518D01*
X144586928Y-124000000D01*
X144586928Y-125500000D01*
X144599188Y-125624482D01*
X144635498Y-125744180D01*
X144694463Y-125854494D01*
X144773815Y-125951185D01*
X144870506Y-126030537D01*
X144980820Y-126089502D01*
X145100518Y-126125812D01*
X145225000Y-126138072D01*
X146275000Y-126138072D01*
X146399482Y-126125812D01*
X146519180Y-126089502D01*
X146583902Y-126054907D01*
X146792601Y-126118215D01*
X147020000Y-126140612D01*
X147247400Y-126118215D01*
X147466060Y-126051885D01*
X147654669Y-125951071D01*
X147713118Y-125992275D01*
X147922663Y-126085272D01*
X147984190Y-126093964D01*
X148163000Y-125968163D01*
X148163000Y-125203108D01*
X148163215Y-125202399D01*
X148180000Y-125031978D01*
X148180000Y-124877000D01*
X148417000Y-124877000D01*
X148417000Y-125968163D01*
X148595810Y-126093964D01*
X148657337Y-126085272D01*
X148866882Y-125992275D01*
X149054258Y-125860184D01*
X149212264Y-125694076D01*
X149334828Y-125500334D01*
X149412001Y-125300000D01*
X149661928Y-125300000D01*
X149661928Y-127700000D01*
X149674188Y-127824482D01*
X149710498Y-127944180D01*
X149769463Y-128054494D01*
X149848815Y-128151185D01*
X149945506Y-128230537D01*
X150055820Y-128289502D01*
X150175518Y-128325812D01*
X150300000Y-128338072D01*
X152700000Y-128338072D01*
X152824482Y-128325812D01*
X152944180Y-128289502D01*
X153054494Y-128230537D01*
X153151185Y-128151185D01*
X153230537Y-128054494D01*
X153289502Y-127944180D01*
X153325812Y-127824482D01*
X153338072Y-127700000D01*
X153338072Y-126319268D01*
X159825000Y-126319268D01*
X159825000Y-126680732D01*
X159895518Y-127035250D01*
X160033844Y-127369199D01*
X160234662Y-127669744D01*
X160490256Y-127925338D01*
X160790801Y-128126156D01*
X161124750Y-128264482D01*
X161479268Y-128335000D01*
X161840732Y-128335000D01*
X162195250Y-128264482D01*
X162529199Y-128126156D01*
X162829744Y-127925338D01*
X163085338Y-127669744D01*
X163286156Y-127369199D01*
X163424482Y-127035250D01*
X163495000Y-126680732D01*
X163495000Y-126319268D01*
X163424482Y-125964750D01*
X163286156Y-125630801D01*
X163085338Y-125330256D01*
X162829744Y-125074662D01*
X162529199Y-124873844D01*
X162195250Y-124735518D01*
X161840732Y-124665000D01*
X161479268Y-124665000D01*
X161124750Y-124735518D01*
X160790801Y-124873844D01*
X160490256Y-125074662D01*
X160234662Y-125330256D01*
X160033844Y-125630801D01*
X159895518Y-125964750D01*
X159825000Y-126319268D01*
X153338072Y-126319268D01*
X153338072Y-125300000D01*
X153325812Y-125175518D01*
X153289502Y-125055820D01*
X153230537Y-124945506D01*
X153151185Y-124848815D01*
X153054494Y-124769463D01*
X152944180Y-124710498D01*
X152824482Y-124674188D01*
X152700000Y-124661928D01*
X150300000Y-124661928D01*
X150175518Y-124674188D01*
X150055820Y-124710498D01*
X149945506Y-124769463D01*
X149848815Y-124848815D01*
X149769463Y-124945506D01*
X149710498Y-125055820D01*
X149674188Y-125175518D01*
X149661928Y-125300000D01*
X149412001Y-125300000D01*
X149417239Y-125286404D01*
X149456331Y-125060507D01*
X149296598Y-124877000D01*
X148417000Y-124877000D01*
X148180000Y-124877000D01*
X148180000Y-124468021D01*
X148163215Y-124297600D01*
X148163000Y-124296891D01*
X148163000Y-123531837D01*
X148417000Y-123531837D01*
X148417000Y-124623000D01*
X149296598Y-124623000D01*
X149456331Y-124439493D01*
X149417239Y-124213596D01*
X149334828Y-123999666D01*
X149212264Y-123805924D01*
X149054258Y-123639816D01*
X148866882Y-123507725D01*
X148657337Y-123414728D01*
X148595810Y-123406036D01*
X148417000Y-123531837D01*
X148163000Y-123531837D01*
X147984190Y-123406036D01*
X147922663Y-123414728D01*
X147713118Y-123507725D01*
X147654669Y-123548929D01*
X147466059Y-123448115D01*
X147247399Y-123381785D01*
X147197892Y-123376909D01*
X147427911Y-123146890D01*
X179308524Y-123146890D01*
X179353175Y-123294099D01*
X179478359Y-123556920D01*
X179652412Y-123790269D01*
X179868645Y-123985178D01*
X180118748Y-124134157D01*
X180393109Y-124231481D01*
X180623000Y-124110814D01*
X180623000Y-122917000D01*
X180877000Y-122917000D01*
X180877000Y-124110814D01*
X181106891Y-124231481D01*
X181381252Y-124134157D01*
X181631355Y-123985178D01*
X181847588Y-123790269D01*
X182021641Y-123556920D01*
X182146825Y-123294099D01*
X182191476Y-123146890D01*
X182070155Y-122917000D01*
X180877000Y-122917000D01*
X180623000Y-122917000D01*
X179429845Y-122917000D01*
X179308524Y-123146890D01*
X147427911Y-123146890D01*
X148239801Y-122335001D01*
X153887677Y-122335001D01*
X153924999Y-122338677D01*
X153962321Y-122335001D01*
X153962332Y-122335001D01*
X154073985Y-122324004D01*
X154217246Y-122280547D01*
X154349275Y-122209975D01*
X154465000Y-122115002D01*
X154488802Y-122085999D01*
X154686729Y-121888072D01*
X156250000Y-121888072D01*
X156374482Y-121875812D01*
X156494180Y-121839502D01*
X156604494Y-121780537D01*
X156701185Y-121701185D01*
X156780537Y-121604494D01*
X156839502Y-121494180D01*
X156875812Y-121374482D01*
X156888072Y-121250000D01*
X156888072Y-120069268D01*
X164665000Y-120069268D01*
X164665000Y-120430732D01*
X164735518Y-120785250D01*
X164873844Y-121119199D01*
X165074662Y-121419744D01*
X165330256Y-121675338D01*
X165630801Y-121876156D01*
X165964750Y-122014482D01*
X166319268Y-122085000D01*
X166680732Y-122085000D01*
X167035250Y-122014482D01*
X167369199Y-121876156D01*
X167669744Y-121675338D01*
X167925338Y-121419744D01*
X168126156Y-121119199D01*
X168264482Y-120785250D01*
X168335000Y-120430732D01*
X168335000Y-120069268D01*
X169665000Y-120069268D01*
X169665000Y-120430732D01*
X169735518Y-120785250D01*
X169873844Y-121119199D01*
X170074662Y-121419744D01*
X170330256Y-121675338D01*
X170630801Y-121876156D01*
X170964750Y-122014482D01*
X171319268Y-122085000D01*
X171680732Y-122085000D01*
X172035250Y-122014482D01*
X172369199Y-121876156D01*
X172669744Y-121675338D01*
X172925338Y-121419744D01*
X173126156Y-121119199D01*
X173264482Y-120785250D01*
X173335000Y-120430732D01*
X173335000Y-120069268D01*
X174665000Y-120069268D01*
X174665000Y-120430732D01*
X174735518Y-120785250D01*
X174873844Y-121119199D01*
X175074662Y-121419744D01*
X175330256Y-121675338D01*
X175630801Y-121876156D01*
X175964750Y-122014482D01*
X176319268Y-122085000D01*
X176680732Y-122085000D01*
X177035250Y-122014482D01*
X177369199Y-121876156D01*
X177669744Y-121675338D01*
X177925338Y-121419744D01*
X178126156Y-121119199D01*
X178264482Y-120785250D01*
X178335000Y-120430732D01*
X178335000Y-120069268D01*
X178264482Y-119714750D01*
X178134109Y-119400000D01*
X179261928Y-119400000D01*
X179261928Y-121100000D01*
X179274188Y-121224482D01*
X179310498Y-121344180D01*
X179369463Y-121454494D01*
X179448815Y-121551185D01*
X179545506Y-121630537D01*
X179655820Y-121689502D01*
X179736466Y-121713966D01*
X179652412Y-121789731D01*
X179478359Y-122023080D01*
X179353175Y-122285901D01*
X179308524Y-122433110D01*
X179429845Y-122663000D01*
X180623000Y-122663000D01*
X180623000Y-122643000D01*
X180877000Y-122643000D01*
X180877000Y-122663000D01*
X182070155Y-122663000D01*
X182191476Y-122433110D01*
X182146825Y-122285901D01*
X182021641Y-122023080D01*
X181847588Y-121789731D01*
X181763534Y-121713966D01*
X181844180Y-121689502D01*
X181954494Y-121630537D01*
X182051185Y-121551185D01*
X182130537Y-121454494D01*
X182189502Y-121344180D01*
X182225812Y-121224482D01*
X182238072Y-121100000D01*
X182238072Y-119400000D01*
X182225812Y-119275518D01*
X182189502Y-119155820D01*
X182130537Y-119045506D01*
X182051185Y-118948815D01*
X181954494Y-118869463D01*
X181844180Y-118810498D01*
X181724482Y-118774188D01*
X181600000Y-118761928D01*
X179900000Y-118761928D01*
X179775518Y-118774188D01*
X179655820Y-118810498D01*
X179545506Y-118869463D01*
X179448815Y-118948815D01*
X179369463Y-119045506D01*
X179310498Y-119155820D01*
X179274188Y-119275518D01*
X179261928Y-119400000D01*
X178134109Y-119400000D01*
X178126156Y-119380801D01*
X177925338Y-119080256D01*
X177669744Y-118824662D01*
X177369199Y-118623844D01*
X177035250Y-118485518D01*
X176680732Y-118415000D01*
X176319268Y-118415000D01*
X175964750Y-118485518D01*
X175630801Y-118623844D01*
X175330256Y-118824662D01*
X175074662Y-119080256D01*
X174873844Y-119380801D01*
X174735518Y-119714750D01*
X174665000Y-120069268D01*
X173335000Y-120069268D01*
X173264482Y-119714750D01*
X173126156Y-119380801D01*
X172925338Y-119080256D01*
X172669744Y-118824662D01*
X172369199Y-118623844D01*
X172035250Y-118485518D01*
X171680732Y-118415000D01*
X171319268Y-118415000D01*
X170964750Y-118485518D01*
X170630801Y-118623844D01*
X170330256Y-118824662D01*
X170074662Y-119080256D01*
X169873844Y-119380801D01*
X169735518Y-119714750D01*
X169665000Y-120069268D01*
X168335000Y-120069268D01*
X168264482Y-119714750D01*
X168126156Y-119380801D01*
X167925338Y-119080256D01*
X167669744Y-118824662D01*
X167369199Y-118623844D01*
X167035250Y-118485518D01*
X166680732Y-118415000D01*
X166319268Y-118415000D01*
X165964750Y-118485518D01*
X165630801Y-118623844D01*
X165330256Y-118824662D01*
X165074662Y-119080256D01*
X164873844Y-119380801D01*
X164735518Y-119714750D01*
X164665000Y-120069268D01*
X156888072Y-120069268D01*
X156888072Y-119250000D01*
X156875812Y-119125518D01*
X156839502Y-119005820D01*
X156780537Y-118895506D01*
X156701185Y-118798815D01*
X156604494Y-118719463D01*
X156494180Y-118660498D01*
X156374482Y-118624188D01*
X156250000Y-118611928D01*
X154250000Y-118611928D01*
X154125518Y-118624188D01*
X154005820Y-118660498D01*
X153895506Y-118719463D01*
X153798815Y-118798815D01*
X153719463Y-118895506D01*
X153660498Y-119005820D01*
X153624188Y-119125518D01*
X153611928Y-119250000D01*
X153611928Y-120813271D01*
X153610198Y-120815001D01*
X153035680Y-120815001D01*
X153072168Y-120726912D01*
X153135000Y-120411033D01*
X153135000Y-120088967D01*
X153072168Y-119773088D01*
X152948918Y-119475537D01*
X152769987Y-119207748D01*
X152542252Y-118980013D01*
X152274463Y-118801082D01*
X151976912Y-118677832D01*
X151661033Y-118615000D01*
X151338967Y-118615000D01*
X151023088Y-118677832D01*
X150725537Y-118801082D01*
X150457748Y-118980013D01*
X150230013Y-119207748D01*
X150051082Y-119475537D01*
X149927832Y-119773088D01*
X149898041Y-119922860D01*
X149879853Y-119831426D01*
X149771680Y-119570273D01*
X149614637Y-119335241D01*
X149414759Y-119135363D01*
X149179727Y-118978320D01*
X148918574Y-118870147D01*
X148641335Y-118815000D01*
X148358665Y-118815000D01*
X148081426Y-118870147D01*
X147820273Y-118978320D01*
X147585241Y-119135363D01*
X147385363Y-119335241D01*
X147230000Y-119567759D01*
X147074637Y-119335241D01*
X146874759Y-119135363D01*
X146639727Y-118978320D01*
X146378574Y-118870147D01*
X146101335Y-118815000D01*
X145818665Y-118815000D01*
X145636113Y-118851312D01*
X145398803Y-118614001D01*
X145375000Y-118584998D01*
X145259275Y-118490025D01*
X145127246Y-118419453D01*
X144983985Y-118375996D01*
X144872332Y-118364999D01*
X144872321Y-118364999D01*
X144834999Y-118361323D01*
X144797677Y-118364999D01*
X141054799Y-118364999D01*
X140727872Y-118038072D01*
X141400000Y-118038072D01*
X141524482Y-118025812D01*
X141644180Y-117989502D01*
X141754494Y-117930537D01*
X141851185Y-117851185D01*
X141930537Y-117754494D01*
X141989502Y-117644180D01*
X142025812Y-117524482D01*
X142038072Y-117400000D01*
X142038072Y-115600000D01*
X142025812Y-115475518D01*
X141989502Y-115355820D01*
X141930537Y-115245506D01*
X141851185Y-115148815D01*
X141754494Y-115069463D01*
X141644180Y-115010498D01*
X141625873Y-115004944D01*
X141692312Y-114938505D01*
X141860299Y-114687095D01*
X141976011Y-114407743D01*
X142035000Y-114111184D01*
X142035000Y-113808816D01*
X141976011Y-113512257D01*
X141860299Y-113232905D01*
X141692312Y-112981495D01*
X141478505Y-112767688D01*
X141227095Y-112599701D01*
X140947743Y-112483989D01*
X140651184Y-112425000D01*
X140348816Y-112425000D01*
X140052257Y-112483989D01*
X139772905Y-112599701D01*
X139521495Y-112767688D01*
X139307688Y-112981495D01*
X139139701Y-113232905D01*
X139023989Y-113512257D01*
X138965000Y-113808816D01*
X138965000Y-114111184D01*
X139023989Y-114407743D01*
X139139701Y-114687095D01*
X139307688Y-114938505D01*
X139374127Y-115004944D01*
X139355820Y-115010498D01*
X139245506Y-115069463D01*
X139148815Y-115148815D01*
X139069463Y-115245506D01*
X139010498Y-115355820D01*
X138974188Y-115475518D01*
X138961928Y-115600000D01*
X138961928Y-116272128D01*
X132799999Y-110110200D01*
X132799999Y-93900796D01*
X132873000Y-93854890D01*
X132873000Y-92877000D01*
X132853000Y-92877000D01*
X132853000Y-92623000D01*
X132873000Y-92623000D01*
X132873000Y-92603000D01*
X133127000Y-92603000D01*
X133127000Y-92623000D01*
X133147000Y-92623000D01*
X133147000Y-92877000D01*
X133127000Y-92877000D01*
X133127000Y-93854890D01*
X133279999Y-93951103D01*
X133280000Y-102637669D01*
X133276323Y-102675001D01*
X133280000Y-102712334D01*
X133286719Y-102780547D01*
X133290997Y-102823986D01*
X133334453Y-102967247D01*
X133405025Y-103099277D01*
X133457322Y-103163000D01*
X133499999Y-103215002D01*
X133528997Y-103238800D01*
X139539247Y-109249051D01*
X139335241Y-109385363D01*
X139135363Y-109585241D01*
X138978320Y-109820273D01*
X138870147Y-110081426D01*
X138815000Y-110358665D01*
X138815000Y-110641335D01*
X138870147Y-110918574D01*
X138978320Y-111179727D01*
X139135363Y-111414759D01*
X139335241Y-111614637D01*
X139570273Y-111771680D01*
X139831426Y-111879853D01*
X140108665Y-111935000D01*
X140391335Y-111935000D01*
X140668574Y-111879853D01*
X140929727Y-111771680D01*
X141164759Y-111614637D01*
X141364637Y-111414759D01*
X141520000Y-111182241D01*
X141675363Y-111414759D01*
X141875241Y-111614637D01*
X142110273Y-111771680D01*
X142371426Y-111879853D01*
X142648665Y-111935000D01*
X142931335Y-111935000D01*
X143208574Y-111879853D01*
X143469727Y-111771680D01*
X143704759Y-111614637D01*
X143904637Y-111414759D01*
X144061680Y-111179727D01*
X144169853Y-110918574D01*
X144225000Y-110641335D01*
X144225000Y-110358665D01*
X144180509Y-110134999D01*
X144560198Y-110134999D01*
X144601312Y-110176113D01*
X144565000Y-110358665D01*
X144565000Y-110641335D01*
X144620147Y-110918574D01*
X144728320Y-111179727D01*
X144885363Y-111414759D01*
X145085241Y-111614637D01*
X145320273Y-111771680D01*
X145581426Y-111879853D01*
X145858665Y-111935000D01*
X146141335Y-111935000D01*
X146418574Y-111879853D01*
X146679727Y-111771680D01*
X146914759Y-111614637D01*
X147114637Y-111414759D01*
X147270000Y-111182241D01*
X147425363Y-111414759D01*
X147625241Y-111614637D01*
X147792025Y-111726078D01*
X145906176Y-113611928D01*
X145225000Y-113611928D01*
X145100518Y-113624188D01*
X144980820Y-113660498D01*
X144870506Y-113719463D01*
X144773815Y-113798815D01*
X144694463Y-113895506D01*
X144635498Y-114005820D01*
X144599188Y-114125518D01*
X144586928Y-114250000D01*
X144586928Y-115750000D01*
X144599188Y-115874482D01*
X144635498Y-115994180D01*
X144694463Y-116104494D01*
X144773815Y-116201185D01*
X144870506Y-116280537D01*
X144980820Y-116339502D01*
X145100518Y-116375812D01*
X145225000Y-116388072D01*
X146275000Y-116388072D01*
X146399482Y-116375812D01*
X146519180Y-116339502D01*
X146583902Y-116304907D01*
X146792601Y-116368215D01*
X147020000Y-116390612D01*
X147247400Y-116368215D01*
X147466060Y-116301885D01*
X147654669Y-116201071D01*
X147713118Y-116242275D01*
X147922663Y-116335272D01*
X147984190Y-116343964D01*
X148163000Y-116218163D01*
X148163000Y-115453108D01*
X148163215Y-115452399D01*
X148180000Y-115281978D01*
X148180000Y-115127000D01*
X148417000Y-115127000D01*
X148417000Y-116218163D01*
X148595810Y-116343964D01*
X148657337Y-116335272D01*
X148866882Y-116242275D01*
X149054258Y-116110184D01*
X149212264Y-115944076D01*
X149334828Y-115750334D01*
X149417239Y-115536404D01*
X149456331Y-115310507D01*
X149447186Y-115300000D01*
X149751928Y-115300000D01*
X149751928Y-117700000D01*
X149764188Y-117824482D01*
X149800498Y-117944180D01*
X149859463Y-118054494D01*
X149938815Y-118151185D01*
X150035506Y-118230537D01*
X150145820Y-118289502D01*
X150265518Y-118325812D01*
X150390000Y-118338072D01*
X152790000Y-118338072D01*
X152914482Y-118325812D01*
X153034180Y-118289502D01*
X153144494Y-118230537D01*
X153241185Y-118151185D01*
X153320537Y-118054494D01*
X153379502Y-117944180D01*
X153415812Y-117824482D01*
X153428072Y-117700000D01*
X153428072Y-116319268D01*
X159915000Y-116319268D01*
X159915000Y-116680732D01*
X159985518Y-117035250D01*
X160123844Y-117369199D01*
X160324662Y-117669744D01*
X160580256Y-117925338D01*
X160880801Y-118126156D01*
X161214750Y-118264482D01*
X161569268Y-118335000D01*
X161930732Y-118335000D01*
X162285250Y-118264482D01*
X162619199Y-118126156D01*
X162919744Y-117925338D01*
X163175338Y-117669744D01*
X163376156Y-117369199D01*
X163514482Y-117035250D01*
X163585000Y-116680732D01*
X163585000Y-116319268D01*
X163514482Y-115964750D01*
X163376156Y-115630801D01*
X163175338Y-115330256D01*
X162919744Y-115074662D01*
X162619199Y-114873844D01*
X162285250Y-114735518D01*
X161930732Y-114665000D01*
X161569268Y-114665000D01*
X161214750Y-114735518D01*
X160880801Y-114873844D01*
X160580256Y-115074662D01*
X160324662Y-115330256D01*
X160123844Y-115630801D01*
X159985518Y-115964750D01*
X159915000Y-116319268D01*
X153428072Y-116319268D01*
X153428072Y-115300000D01*
X153415812Y-115175518D01*
X153379502Y-115055820D01*
X153320537Y-114945506D01*
X153241185Y-114848815D01*
X153144494Y-114769463D01*
X153034180Y-114710498D01*
X152914482Y-114674188D01*
X152790000Y-114661928D01*
X150390000Y-114661928D01*
X150265518Y-114674188D01*
X150145820Y-114710498D01*
X150035506Y-114769463D01*
X149938815Y-114848815D01*
X149859463Y-114945506D01*
X149800498Y-115055820D01*
X149764188Y-115175518D01*
X149751928Y-115300000D01*
X149447186Y-115300000D01*
X149296598Y-115127000D01*
X148417000Y-115127000D01*
X148180000Y-115127000D01*
X148180000Y-114718021D01*
X148163215Y-114547600D01*
X148163000Y-114546891D01*
X148163000Y-113781837D01*
X148417000Y-113781837D01*
X148417000Y-114873000D01*
X149296598Y-114873000D01*
X149456331Y-114689493D01*
X149417239Y-114463596D01*
X149334828Y-114249666D01*
X149212264Y-114055924D01*
X149054258Y-113889816D01*
X148866882Y-113757725D01*
X148657337Y-113664728D01*
X148595810Y-113656036D01*
X148417000Y-113781837D01*
X148163000Y-113781837D01*
X148000321Y-113667385D01*
X148310816Y-113356890D01*
X179558524Y-113356890D01*
X179603175Y-113504099D01*
X179728359Y-113766920D01*
X179902412Y-114000269D01*
X180118645Y-114195178D01*
X180368748Y-114344157D01*
X180643109Y-114441481D01*
X180873000Y-114320814D01*
X180873000Y-113127000D01*
X181127000Y-113127000D01*
X181127000Y-114320814D01*
X181356891Y-114441481D01*
X181631252Y-114344157D01*
X181881355Y-114195178D01*
X182097588Y-114000269D01*
X182271641Y-113766920D01*
X182396825Y-113504099D01*
X182441476Y-113356890D01*
X182320155Y-113127000D01*
X181127000Y-113127000D01*
X180873000Y-113127000D01*
X179679845Y-113127000D01*
X179558524Y-113356890D01*
X148310816Y-113356890D01*
X149082706Y-112585001D01*
X153887677Y-112585001D01*
X153924999Y-112588677D01*
X153962321Y-112585001D01*
X153962332Y-112585001D01*
X154073985Y-112574004D01*
X154217246Y-112530547D01*
X154349275Y-112459975D01*
X154465000Y-112365002D01*
X154488802Y-112335999D01*
X154686729Y-112138072D01*
X156250000Y-112138072D01*
X156374482Y-112125812D01*
X156494180Y-112089502D01*
X156604494Y-112030537D01*
X156701185Y-111951185D01*
X156780537Y-111854494D01*
X156839502Y-111744180D01*
X156875812Y-111624482D01*
X156888072Y-111500000D01*
X156888072Y-110319268D01*
X164665000Y-110319268D01*
X164665000Y-110680732D01*
X164735518Y-111035250D01*
X164873844Y-111369199D01*
X165074662Y-111669744D01*
X165330256Y-111925338D01*
X165630801Y-112126156D01*
X165964750Y-112264482D01*
X166319268Y-112335000D01*
X166680732Y-112335000D01*
X167035250Y-112264482D01*
X167369199Y-112126156D01*
X167669744Y-111925338D01*
X167925338Y-111669744D01*
X168126156Y-111369199D01*
X168264482Y-111035250D01*
X168335000Y-110680732D01*
X168335000Y-110319268D01*
X169665000Y-110319268D01*
X169665000Y-110680732D01*
X169735518Y-111035250D01*
X169873844Y-111369199D01*
X170074662Y-111669744D01*
X170330256Y-111925338D01*
X170630801Y-112126156D01*
X170964750Y-112264482D01*
X171319268Y-112335000D01*
X171680732Y-112335000D01*
X172035250Y-112264482D01*
X172369199Y-112126156D01*
X172669744Y-111925338D01*
X172925338Y-111669744D01*
X173126156Y-111369199D01*
X173264482Y-111035250D01*
X173335000Y-110680732D01*
X173335000Y-110319268D01*
X174665000Y-110319268D01*
X174665000Y-110680732D01*
X174735518Y-111035250D01*
X174873844Y-111369199D01*
X175074662Y-111669744D01*
X175330256Y-111925338D01*
X175630801Y-112126156D01*
X175964750Y-112264482D01*
X176319268Y-112335000D01*
X176680732Y-112335000D01*
X177035250Y-112264482D01*
X177369199Y-112126156D01*
X177669744Y-111925338D01*
X177925338Y-111669744D01*
X178126156Y-111369199D01*
X178264482Y-111035250D01*
X178335000Y-110680732D01*
X178335000Y-110319268D01*
X178264482Y-109964750D01*
X178126156Y-109630801D01*
X178112258Y-109610000D01*
X179511928Y-109610000D01*
X179511928Y-111310000D01*
X179524188Y-111434482D01*
X179560498Y-111554180D01*
X179619463Y-111664494D01*
X179698815Y-111761185D01*
X179795506Y-111840537D01*
X179905820Y-111899502D01*
X179986466Y-111923966D01*
X179902412Y-111999731D01*
X179728359Y-112233080D01*
X179603175Y-112495901D01*
X179558524Y-112643110D01*
X179679845Y-112873000D01*
X180873000Y-112873000D01*
X180873000Y-112853000D01*
X181127000Y-112853000D01*
X181127000Y-112873000D01*
X182320155Y-112873000D01*
X182441476Y-112643110D01*
X182396825Y-112495901D01*
X182271641Y-112233080D01*
X182097588Y-111999731D01*
X182013534Y-111923966D01*
X182094180Y-111899502D01*
X182204494Y-111840537D01*
X182301185Y-111761185D01*
X182380537Y-111664494D01*
X182439502Y-111554180D01*
X182475812Y-111434482D01*
X182488072Y-111310000D01*
X182488072Y-109610000D01*
X182475812Y-109485518D01*
X182439502Y-109365820D01*
X182380537Y-109255506D01*
X182301185Y-109158815D01*
X182204494Y-109079463D01*
X182094180Y-109020498D01*
X181974482Y-108984188D01*
X181850000Y-108971928D01*
X180150000Y-108971928D01*
X180025518Y-108984188D01*
X179905820Y-109020498D01*
X179795506Y-109079463D01*
X179698815Y-109158815D01*
X179619463Y-109255506D01*
X179560498Y-109365820D01*
X179524188Y-109485518D01*
X179511928Y-109610000D01*
X178112258Y-109610000D01*
X177925338Y-109330256D01*
X177669744Y-109074662D01*
X177369199Y-108873844D01*
X177035250Y-108735518D01*
X176680732Y-108665000D01*
X176319268Y-108665000D01*
X175964750Y-108735518D01*
X175630801Y-108873844D01*
X175330256Y-109074662D01*
X175074662Y-109330256D01*
X174873844Y-109630801D01*
X174735518Y-109964750D01*
X174665000Y-110319268D01*
X173335000Y-110319268D01*
X173264482Y-109964750D01*
X173126156Y-109630801D01*
X172925338Y-109330256D01*
X172669744Y-109074662D01*
X172369199Y-108873844D01*
X172035250Y-108735518D01*
X171680732Y-108665000D01*
X171319268Y-108665000D01*
X170964750Y-108735518D01*
X170630801Y-108873844D01*
X170330256Y-109074662D01*
X170074662Y-109330256D01*
X169873844Y-109630801D01*
X169735518Y-109964750D01*
X169665000Y-110319268D01*
X168335000Y-110319268D01*
X168264482Y-109964750D01*
X168126156Y-109630801D01*
X167925338Y-109330256D01*
X167669744Y-109074662D01*
X167369199Y-108873844D01*
X167035250Y-108735518D01*
X166680732Y-108665000D01*
X166319268Y-108665000D01*
X165964750Y-108735518D01*
X165630801Y-108873844D01*
X165330256Y-109074662D01*
X165074662Y-109330256D01*
X164873844Y-109630801D01*
X164735518Y-109964750D01*
X164665000Y-110319268D01*
X156888072Y-110319268D01*
X156888072Y-109500000D01*
X156875812Y-109375518D01*
X156839502Y-109255820D01*
X156780537Y-109145506D01*
X156701185Y-109048815D01*
X156604494Y-108969463D01*
X156494180Y-108910498D01*
X156374482Y-108874188D01*
X156250000Y-108861928D01*
X154250000Y-108861928D01*
X154125518Y-108874188D01*
X154005820Y-108910498D01*
X153895506Y-108969463D01*
X153798815Y-109048815D01*
X153719463Y-109145506D01*
X153660498Y-109255820D01*
X153624188Y-109375518D01*
X153611928Y-109500000D01*
X153611928Y-111063271D01*
X153610198Y-111065001D01*
X153035680Y-111065001D01*
X153072168Y-110976912D01*
X153135000Y-110661033D01*
X153135000Y-110338967D01*
X153072168Y-110023088D01*
X152948918Y-109725537D01*
X152769987Y-109457748D01*
X152542252Y-109230013D01*
X152274463Y-109051082D01*
X151976912Y-108927832D01*
X151661033Y-108865000D01*
X151338967Y-108865000D01*
X151023088Y-108927832D01*
X150725537Y-109051082D01*
X150457748Y-109230013D01*
X150230013Y-109457748D01*
X150051082Y-109725537D01*
X149927832Y-110023088D01*
X149917404Y-110075513D01*
X149811680Y-109820273D01*
X149654637Y-109585241D01*
X149454759Y-109385363D01*
X149219727Y-109228320D01*
X148958574Y-109120147D01*
X148681335Y-109065000D01*
X148398665Y-109065000D01*
X148121426Y-109120147D01*
X147860273Y-109228320D01*
X147625241Y-109385363D01*
X147425363Y-109585241D01*
X147270000Y-109817759D01*
X147114637Y-109585241D01*
X146914759Y-109385363D01*
X146679727Y-109228320D01*
X146418574Y-109120147D01*
X146141335Y-109065000D01*
X145858665Y-109065000D01*
X145676113Y-109101312D01*
X145438803Y-108864001D01*
X145415000Y-108834998D01*
X145299275Y-108740025D01*
X145167246Y-108669453D01*
X145023985Y-108625996D01*
X144912332Y-108614999D01*
X144912321Y-108614999D01*
X144874999Y-108611323D01*
X144837677Y-108614999D01*
X141054799Y-108614999D01*
X140727872Y-108288072D01*
X141400000Y-108288072D01*
X141524482Y-108275812D01*
X141644180Y-108239502D01*
X141754494Y-108180537D01*
X141851185Y-108101185D01*
X141930537Y-108004494D01*
X141989502Y-107894180D01*
X142025812Y-107774482D01*
X142038072Y-107650000D01*
X142038072Y-105850000D01*
X142025812Y-105725518D01*
X141989502Y-105605820D01*
X141930537Y-105495506D01*
X141851185Y-105398815D01*
X141754494Y-105319463D01*
X141644180Y-105260498D01*
X141625873Y-105254944D01*
X141692312Y-105188505D01*
X141860299Y-104937095D01*
X141976011Y-104657743D01*
X142035000Y-104361184D01*
X142035000Y-104058816D01*
X141976011Y-103762257D01*
X141860299Y-103482905D01*
X141692312Y-103231495D01*
X141478505Y-103017688D01*
X141227095Y-102849701D01*
X140947743Y-102733989D01*
X140651184Y-102675000D01*
X140348816Y-102675000D01*
X140052257Y-102733989D01*
X139772905Y-102849701D01*
X139521495Y-103017688D01*
X139307688Y-103231495D01*
X139139701Y-103482905D01*
X139023989Y-103762257D01*
X138965000Y-104058816D01*
X138965000Y-104361184D01*
X139023989Y-104657743D01*
X139139701Y-104937095D01*
X139307688Y-105188505D01*
X139374127Y-105254944D01*
X139355820Y-105260498D01*
X139245506Y-105319463D01*
X139148815Y-105398815D01*
X139069463Y-105495506D01*
X139010498Y-105605820D01*
X138974188Y-105725518D01*
X138961928Y-105850000D01*
X138961928Y-106522128D01*
X134799999Y-102360200D01*
X134799999Y-94005098D01*
X134874916Y-94020000D01*
X135125084Y-94020000D01*
X135370445Y-93971195D01*
X135601571Y-93875459D01*
X135809578Y-93736473D01*
X135986473Y-93559578D01*
X136054207Y-93458207D01*
X138514999Y-95918999D01*
X138515000Y-98122669D01*
X138511323Y-98160001D01*
X138525997Y-98308986D01*
X138569453Y-98452247D01*
X138640025Y-98584277D01*
X138674395Y-98626156D01*
X138734999Y-98700002D01*
X138763997Y-98723800D01*
X139539247Y-99499051D01*
X139335241Y-99635363D01*
X139135363Y-99835241D01*
X138978320Y-100070273D01*
X138870147Y-100331426D01*
X138815000Y-100608665D01*
X138815000Y-100891335D01*
X138870147Y-101168574D01*
X138978320Y-101429727D01*
X139135363Y-101664759D01*
X139335241Y-101864637D01*
X139570273Y-102021680D01*
X139831426Y-102129853D01*
X140108665Y-102185000D01*
X140391335Y-102185000D01*
X140668574Y-102129853D01*
X140929727Y-102021680D01*
X141164759Y-101864637D01*
X141364637Y-101664759D01*
X141520000Y-101432241D01*
X141675363Y-101664759D01*
X141875241Y-101864637D01*
X142110273Y-102021680D01*
X142371426Y-102129853D01*
X142648665Y-102185000D01*
X142931335Y-102185000D01*
X143208574Y-102129853D01*
X143469727Y-102021680D01*
X143704759Y-101864637D01*
X143904637Y-101664759D01*
X144061680Y-101429727D01*
X144169853Y-101168574D01*
X144225000Y-100891335D01*
X144225000Y-100608665D01*
X144180509Y-100384999D01*
X144560198Y-100384999D01*
X144601312Y-100426113D01*
X144565000Y-100608665D01*
X144565000Y-100891335D01*
X144620147Y-101168574D01*
X144728320Y-101429727D01*
X144885363Y-101664759D01*
X145085241Y-101864637D01*
X145320273Y-102021680D01*
X145581426Y-102129853D01*
X145858665Y-102185000D01*
X146141335Y-102185000D01*
X146418574Y-102129853D01*
X146679727Y-102021680D01*
X146914759Y-101864637D01*
X147114637Y-101664759D01*
X147270000Y-101432241D01*
X147359304Y-101565894D01*
X145238998Y-103686201D01*
X145210000Y-103709999D01*
X145186202Y-103738997D01*
X145186201Y-103738998D01*
X145115026Y-103825724D01*
X145086916Y-103878314D01*
X144980820Y-103910498D01*
X144870506Y-103969463D01*
X144773815Y-104048815D01*
X144694463Y-104145506D01*
X144635498Y-104255820D01*
X144599188Y-104375518D01*
X144586928Y-104500000D01*
X144586928Y-106000000D01*
X144599188Y-106124482D01*
X144635498Y-106244180D01*
X144694463Y-106354494D01*
X144773815Y-106451185D01*
X144870506Y-106530537D01*
X144980820Y-106589502D01*
X145100518Y-106625812D01*
X145225000Y-106638072D01*
X146275000Y-106638072D01*
X146399482Y-106625812D01*
X146519180Y-106589502D01*
X146583902Y-106554907D01*
X146792601Y-106618215D01*
X147020000Y-106640612D01*
X147247400Y-106618215D01*
X147466060Y-106551885D01*
X147654669Y-106451071D01*
X147713118Y-106492275D01*
X147922663Y-106585272D01*
X147984190Y-106593964D01*
X148163000Y-106468163D01*
X148163000Y-105703108D01*
X148163215Y-105702399D01*
X148180000Y-105531978D01*
X148180000Y-105377000D01*
X148417000Y-105377000D01*
X148417000Y-106468163D01*
X148595810Y-106593964D01*
X148657337Y-106585272D01*
X148866882Y-106492275D01*
X149054258Y-106360184D01*
X149212264Y-106194076D01*
X149334828Y-106000334D01*
X149417239Y-105786404D01*
X149456331Y-105560507D01*
X149447186Y-105550000D01*
X149751928Y-105550000D01*
X149751928Y-107950000D01*
X149764188Y-108074482D01*
X149800498Y-108194180D01*
X149859463Y-108304494D01*
X149938815Y-108401185D01*
X150035506Y-108480537D01*
X150145820Y-108539502D01*
X150265518Y-108575812D01*
X150390000Y-108588072D01*
X152790000Y-108588072D01*
X152914482Y-108575812D01*
X153034180Y-108539502D01*
X153144494Y-108480537D01*
X153241185Y-108401185D01*
X153320537Y-108304494D01*
X153379502Y-108194180D01*
X153415812Y-108074482D01*
X153428072Y-107950000D01*
X153428072Y-106569268D01*
X159915000Y-106569268D01*
X159915000Y-106930732D01*
X159985518Y-107285250D01*
X160123844Y-107619199D01*
X160324662Y-107919744D01*
X160580256Y-108175338D01*
X160880801Y-108376156D01*
X161214750Y-108514482D01*
X161569268Y-108585000D01*
X161930732Y-108585000D01*
X162285250Y-108514482D01*
X162619199Y-108376156D01*
X162919744Y-108175338D01*
X163175338Y-107919744D01*
X163376156Y-107619199D01*
X163514482Y-107285250D01*
X163585000Y-106930732D01*
X163585000Y-106569268D01*
X163514482Y-106214750D01*
X163376156Y-105880801D01*
X163175338Y-105580256D01*
X162919744Y-105324662D01*
X162619199Y-105123844D01*
X162285250Y-104985518D01*
X161930732Y-104915000D01*
X161569268Y-104915000D01*
X161214750Y-104985518D01*
X160880801Y-105123844D01*
X160580256Y-105324662D01*
X160324662Y-105580256D01*
X160123844Y-105880801D01*
X159985518Y-106214750D01*
X159915000Y-106569268D01*
X153428072Y-106569268D01*
X153428072Y-105550000D01*
X153415812Y-105425518D01*
X153379502Y-105305820D01*
X153320537Y-105195506D01*
X153241185Y-105098815D01*
X153144494Y-105019463D01*
X153034180Y-104960498D01*
X152914482Y-104924188D01*
X152790000Y-104911928D01*
X150390000Y-104911928D01*
X150265518Y-104924188D01*
X150145820Y-104960498D01*
X150035506Y-105019463D01*
X149938815Y-105098815D01*
X149859463Y-105195506D01*
X149800498Y-105305820D01*
X149764188Y-105425518D01*
X149751928Y-105550000D01*
X149447186Y-105550000D01*
X149296598Y-105377000D01*
X148417000Y-105377000D01*
X148180000Y-105377000D01*
X148180000Y-104968021D01*
X148163215Y-104797600D01*
X148163000Y-104796891D01*
X148163000Y-104031837D01*
X148417000Y-104031837D01*
X148417000Y-105123000D01*
X149296598Y-105123000D01*
X149456331Y-104939493D01*
X149417239Y-104713596D01*
X149334828Y-104499666D01*
X149212264Y-104305924D01*
X149054258Y-104139816D01*
X148866882Y-104007725D01*
X148657337Y-103914728D01*
X148595810Y-103906036D01*
X148417000Y-104031837D01*
X148163000Y-104031837D01*
X147984190Y-103906036D01*
X147922663Y-103914728D01*
X147713118Y-104007725D01*
X147654669Y-104048929D01*
X147466059Y-103948115D01*
X147247399Y-103881785D01*
X147197892Y-103876909D01*
X147427911Y-103646890D01*
X179558524Y-103646890D01*
X179603175Y-103794099D01*
X179728359Y-104056920D01*
X179902412Y-104290269D01*
X180118645Y-104485178D01*
X180368748Y-104634157D01*
X180643109Y-104731481D01*
X180873000Y-104610814D01*
X180873000Y-103417000D01*
X181127000Y-103417000D01*
X181127000Y-104610814D01*
X181356891Y-104731481D01*
X181631252Y-104634157D01*
X181881355Y-104485178D01*
X182097588Y-104290269D01*
X182271641Y-104056920D01*
X182396825Y-103794099D01*
X182441476Y-103646890D01*
X182320155Y-103417000D01*
X181127000Y-103417000D01*
X180873000Y-103417000D01*
X179679845Y-103417000D01*
X179558524Y-103646890D01*
X147427911Y-103646890D01*
X148239801Y-102835001D01*
X153887677Y-102835001D01*
X153924999Y-102838677D01*
X153962321Y-102835001D01*
X153962332Y-102835001D01*
X154073985Y-102824004D01*
X154217246Y-102780547D01*
X154349275Y-102709975D01*
X154465000Y-102615002D01*
X154488802Y-102585999D01*
X154686729Y-102388072D01*
X156250000Y-102388072D01*
X156374482Y-102375812D01*
X156494180Y-102339502D01*
X156604494Y-102280537D01*
X156701185Y-102201185D01*
X156780537Y-102104494D01*
X156839502Y-101994180D01*
X156875812Y-101874482D01*
X156888072Y-101750000D01*
X156888072Y-100569268D01*
X164665000Y-100569268D01*
X164665000Y-100930732D01*
X164735518Y-101285250D01*
X164873844Y-101619199D01*
X165074662Y-101919744D01*
X165330256Y-102175338D01*
X165630801Y-102376156D01*
X165964750Y-102514482D01*
X166319268Y-102585000D01*
X166680732Y-102585000D01*
X167035250Y-102514482D01*
X167369199Y-102376156D01*
X167669744Y-102175338D01*
X167925338Y-101919744D01*
X168126156Y-101619199D01*
X168264482Y-101285250D01*
X168335000Y-100930732D01*
X168335000Y-100569268D01*
X169665000Y-100569268D01*
X169665000Y-100930732D01*
X169735518Y-101285250D01*
X169873844Y-101619199D01*
X170074662Y-101919744D01*
X170330256Y-102175338D01*
X170630801Y-102376156D01*
X170964750Y-102514482D01*
X171319268Y-102585000D01*
X171680732Y-102585000D01*
X172035250Y-102514482D01*
X172369199Y-102376156D01*
X172669744Y-102175338D01*
X172925338Y-101919744D01*
X173126156Y-101619199D01*
X173264482Y-101285250D01*
X173335000Y-100930732D01*
X173335000Y-100569268D01*
X174665000Y-100569268D01*
X174665000Y-100930732D01*
X174735518Y-101285250D01*
X174873844Y-101619199D01*
X175074662Y-101919744D01*
X175330256Y-102175338D01*
X175630801Y-102376156D01*
X175964750Y-102514482D01*
X176319268Y-102585000D01*
X176680732Y-102585000D01*
X177035250Y-102514482D01*
X177369199Y-102376156D01*
X177669744Y-102175338D01*
X177925338Y-101919744D01*
X178126156Y-101619199D01*
X178264482Y-101285250D01*
X178335000Y-100930732D01*
X178335000Y-100569268D01*
X178264482Y-100214750D01*
X178134109Y-99900000D01*
X179511928Y-99900000D01*
X179511928Y-101600000D01*
X179524188Y-101724482D01*
X179560498Y-101844180D01*
X179619463Y-101954494D01*
X179698815Y-102051185D01*
X179795506Y-102130537D01*
X179905820Y-102189502D01*
X179986466Y-102213966D01*
X179902412Y-102289731D01*
X179728359Y-102523080D01*
X179603175Y-102785901D01*
X179558524Y-102933110D01*
X179679845Y-103163000D01*
X180873000Y-103163000D01*
X180873000Y-103143000D01*
X181127000Y-103143000D01*
X181127000Y-103163000D01*
X182320155Y-103163000D01*
X182441476Y-102933110D01*
X182396825Y-102785901D01*
X182271641Y-102523080D01*
X182097588Y-102289731D01*
X182013534Y-102213966D01*
X182094180Y-102189502D01*
X182204494Y-102130537D01*
X182301185Y-102051185D01*
X182380537Y-101954494D01*
X182439502Y-101844180D01*
X182475812Y-101724482D01*
X182488072Y-101600000D01*
X182488072Y-99900000D01*
X182475812Y-99775518D01*
X182439502Y-99655820D01*
X182380537Y-99545506D01*
X182301185Y-99448815D01*
X182204494Y-99369463D01*
X182094180Y-99310498D01*
X181974482Y-99274188D01*
X181850000Y-99261928D01*
X180150000Y-99261928D01*
X180025518Y-99274188D01*
X179905820Y-99310498D01*
X179795506Y-99369463D01*
X179698815Y-99448815D01*
X179619463Y-99545506D01*
X179560498Y-99655820D01*
X179524188Y-99775518D01*
X179511928Y-99900000D01*
X178134109Y-99900000D01*
X178126156Y-99880801D01*
X177925338Y-99580256D01*
X177669744Y-99324662D01*
X177369199Y-99123844D01*
X177035250Y-98985518D01*
X176680732Y-98915000D01*
X176319268Y-98915000D01*
X175964750Y-98985518D01*
X175630801Y-99123844D01*
X175330256Y-99324662D01*
X175074662Y-99580256D01*
X174873844Y-99880801D01*
X174735518Y-100214750D01*
X174665000Y-100569268D01*
X173335000Y-100569268D01*
X173264482Y-100214750D01*
X173126156Y-99880801D01*
X172925338Y-99580256D01*
X172669744Y-99324662D01*
X172369199Y-99123844D01*
X172035250Y-98985518D01*
X171680732Y-98915000D01*
X171319268Y-98915000D01*
X170964750Y-98985518D01*
X170630801Y-99123844D01*
X170330256Y-99324662D01*
X170074662Y-99580256D01*
X169873844Y-99880801D01*
X169735518Y-100214750D01*
X169665000Y-100569268D01*
X168335000Y-100569268D01*
X168264482Y-100214750D01*
X168126156Y-99880801D01*
X167925338Y-99580256D01*
X167669744Y-99324662D01*
X167369199Y-99123844D01*
X167035250Y-98985518D01*
X166680732Y-98915000D01*
X166319268Y-98915000D01*
X165964750Y-98985518D01*
X165630801Y-99123844D01*
X165330256Y-99324662D01*
X165074662Y-99580256D01*
X164873844Y-99880801D01*
X164735518Y-100214750D01*
X164665000Y-100569268D01*
X156888072Y-100569268D01*
X156888072Y-99750000D01*
X156875812Y-99625518D01*
X156839502Y-99505820D01*
X156780537Y-99395506D01*
X156701185Y-99298815D01*
X156604494Y-99219463D01*
X156494180Y-99160498D01*
X156374482Y-99124188D01*
X156250000Y-99111928D01*
X154250000Y-99111928D01*
X154125518Y-99124188D01*
X154005820Y-99160498D01*
X153895506Y-99219463D01*
X153798815Y-99298815D01*
X153719463Y-99395506D01*
X153660498Y-99505820D01*
X153624188Y-99625518D01*
X153611928Y-99750000D01*
X153611928Y-101313271D01*
X153610198Y-101315001D01*
X153035680Y-101315001D01*
X153072168Y-101226912D01*
X153135000Y-100911033D01*
X153135000Y-100588967D01*
X153072168Y-100273088D01*
X152948918Y-99975537D01*
X152769987Y-99707748D01*
X152542252Y-99480013D01*
X152274463Y-99301082D01*
X151976912Y-99177832D01*
X151661033Y-99115000D01*
X151338967Y-99115000D01*
X151023088Y-99177832D01*
X150725537Y-99301082D01*
X150457748Y-99480013D01*
X150230013Y-99707748D01*
X150051082Y-99975537D01*
X149927832Y-100273088D01*
X149917404Y-100325513D01*
X149811680Y-100070273D01*
X149654637Y-99835241D01*
X149454759Y-99635363D01*
X149219727Y-99478320D01*
X148958574Y-99370147D01*
X148681335Y-99315000D01*
X148398665Y-99315000D01*
X148121426Y-99370147D01*
X147860273Y-99478320D01*
X147625241Y-99635363D01*
X147425363Y-99835241D01*
X147270000Y-100067759D01*
X147114637Y-99835241D01*
X146914759Y-99635363D01*
X146679727Y-99478320D01*
X146418574Y-99370147D01*
X146141335Y-99315000D01*
X145858665Y-99315000D01*
X145676113Y-99351312D01*
X145438803Y-99114001D01*
X145415000Y-99084998D01*
X145299275Y-98990025D01*
X145167246Y-98919453D01*
X145023985Y-98875996D01*
X144912332Y-98864999D01*
X144912321Y-98864999D01*
X144874999Y-98861323D01*
X144837677Y-98864999D01*
X141054799Y-98864999D01*
X140727872Y-98538072D01*
X141400000Y-98538072D01*
X141524482Y-98525812D01*
X141644180Y-98489502D01*
X141754494Y-98430537D01*
X141851185Y-98351185D01*
X141930537Y-98254494D01*
X141989502Y-98144180D01*
X142025812Y-98024482D01*
X142038072Y-97900000D01*
X142038072Y-96100000D01*
X142025812Y-95975518D01*
X141989502Y-95855820D01*
X141930537Y-95745506D01*
X141851185Y-95648815D01*
X141754494Y-95569463D01*
X141644180Y-95510498D01*
X141625873Y-95504944D01*
X141692312Y-95438505D01*
X141860299Y-95187095D01*
X141976011Y-94907743D01*
X142035000Y-94611184D01*
X142035000Y-94308816D01*
X141976011Y-94012257D01*
X141860299Y-93732905D01*
X141692312Y-93481495D01*
X141478505Y-93267688D01*
X141227095Y-93099701D01*
X140947743Y-92983989D01*
X140651184Y-92925000D01*
X140348816Y-92925000D01*
X140052257Y-92983989D01*
X139772905Y-93099701D01*
X139521495Y-93267688D01*
X139307688Y-93481495D01*
X139139701Y-93732905D01*
X139023989Y-94012257D01*
X138979836Y-94234232D01*
X135255603Y-90510000D01*
X138859733Y-90510000D01*
X138830147Y-90581426D01*
X138775000Y-90858665D01*
X138775000Y-91141335D01*
X138830147Y-91418574D01*
X138938320Y-91679727D01*
X139095363Y-91914759D01*
X139295241Y-92114637D01*
X139530273Y-92271680D01*
X139791426Y-92379853D01*
X140068665Y-92435000D01*
X140351335Y-92435000D01*
X140628574Y-92379853D01*
X140889727Y-92271680D01*
X141124759Y-92114637D01*
X141324637Y-91914759D01*
X141480000Y-91682241D01*
X141635363Y-91914759D01*
X141835241Y-92114637D01*
X142070273Y-92271680D01*
X142331426Y-92379853D01*
X142608665Y-92435000D01*
X142891335Y-92435000D01*
X143168574Y-92379853D01*
X143429727Y-92271680D01*
X143664759Y-92114637D01*
X143864637Y-91914759D01*
X144021680Y-91679727D01*
X144129853Y-91418574D01*
X144185000Y-91141335D01*
X144185000Y-90858665D01*
X144129853Y-90581426D01*
X144100267Y-90510000D01*
X144435199Y-90510000D01*
X144601312Y-90676114D01*
X144565000Y-90858665D01*
X144565000Y-91141335D01*
X144620147Y-91418574D01*
X144728320Y-91679727D01*
X144885363Y-91914759D01*
X145085241Y-92114637D01*
X145320273Y-92271680D01*
X145581426Y-92379853D01*
X145858665Y-92435000D01*
X146141335Y-92435000D01*
X146418574Y-92379853D01*
X146679727Y-92271680D01*
X146914759Y-92114637D01*
X147114637Y-91914759D01*
X147270000Y-91682241D01*
X147359304Y-91815894D01*
X145238998Y-93936201D01*
X145210000Y-93959999D01*
X145186202Y-93988997D01*
X145186201Y-93988998D01*
X145115026Y-94075724D01*
X145086916Y-94128314D01*
X144980820Y-94160498D01*
X144870506Y-94219463D01*
X144773815Y-94298815D01*
X144694463Y-94395506D01*
X144635498Y-94505820D01*
X144599188Y-94625518D01*
X144586928Y-94750000D01*
X144586928Y-96250000D01*
X144599188Y-96374482D01*
X144635498Y-96494180D01*
X144694463Y-96604494D01*
X144773815Y-96701185D01*
X144870506Y-96780537D01*
X144980820Y-96839502D01*
X145100518Y-96875812D01*
X145225000Y-96888072D01*
X146275000Y-96888072D01*
X146399482Y-96875812D01*
X146519180Y-96839502D01*
X146583902Y-96804907D01*
X146792601Y-96868215D01*
X147020000Y-96890612D01*
X147247400Y-96868215D01*
X147466060Y-96801885D01*
X147654669Y-96701071D01*
X147713118Y-96742275D01*
X147922663Y-96835272D01*
X147984190Y-96843964D01*
X148163000Y-96718163D01*
X148163000Y-95953108D01*
X148163215Y-95952399D01*
X148180000Y-95781978D01*
X148180000Y-95627000D01*
X148417000Y-95627000D01*
X148417000Y-96718163D01*
X148595810Y-96843964D01*
X148657337Y-96835272D01*
X148866882Y-96742275D01*
X149054258Y-96610184D01*
X149212264Y-96444076D01*
X149334828Y-96250334D01*
X149417239Y-96036404D01*
X149456331Y-95810507D01*
X149447186Y-95800000D01*
X149751928Y-95800000D01*
X149751928Y-98200000D01*
X149764188Y-98324482D01*
X149800498Y-98444180D01*
X149859463Y-98554494D01*
X149938815Y-98651185D01*
X150035506Y-98730537D01*
X150145820Y-98789502D01*
X150265518Y-98825812D01*
X150390000Y-98838072D01*
X152790000Y-98838072D01*
X152914482Y-98825812D01*
X153034180Y-98789502D01*
X153144494Y-98730537D01*
X153241185Y-98651185D01*
X153320537Y-98554494D01*
X153379502Y-98444180D01*
X153415812Y-98324482D01*
X153428072Y-98200000D01*
X153428072Y-96819268D01*
X159915000Y-96819268D01*
X159915000Y-97180732D01*
X159985518Y-97535250D01*
X160123844Y-97869199D01*
X160324662Y-98169744D01*
X160580256Y-98425338D01*
X160880801Y-98626156D01*
X161214750Y-98764482D01*
X161569268Y-98835000D01*
X161930732Y-98835000D01*
X162285250Y-98764482D01*
X162619199Y-98626156D01*
X162919744Y-98425338D01*
X163175338Y-98169744D01*
X163376156Y-97869199D01*
X163514482Y-97535250D01*
X163585000Y-97180732D01*
X163585000Y-96819268D01*
X163514482Y-96464750D01*
X163376156Y-96130801D01*
X163175338Y-95830256D01*
X162919744Y-95574662D01*
X162619199Y-95373844D01*
X162285250Y-95235518D01*
X161930732Y-95165000D01*
X161569268Y-95165000D01*
X161214750Y-95235518D01*
X160880801Y-95373844D01*
X160580256Y-95574662D01*
X160324662Y-95830256D01*
X160123844Y-96130801D01*
X159985518Y-96464750D01*
X159915000Y-96819268D01*
X153428072Y-96819268D01*
X153428072Y-95800000D01*
X153415812Y-95675518D01*
X153379502Y-95555820D01*
X153320537Y-95445506D01*
X153241185Y-95348815D01*
X153144494Y-95269463D01*
X153034180Y-95210498D01*
X152914482Y-95174188D01*
X152790000Y-95161928D01*
X150390000Y-95161928D01*
X150265518Y-95174188D01*
X150145820Y-95210498D01*
X150035506Y-95269463D01*
X149938815Y-95348815D01*
X149859463Y-95445506D01*
X149800498Y-95555820D01*
X149764188Y-95675518D01*
X149751928Y-95800000D01*
X149447186Y-95800000D01*
X149296598Y-95627000D01*
X148417000Y-95627000D01*
X148180000Y-95627000D01*
X148180000Y-95218021D01*
X148163215Y-95047600D01*
X148163000Y-95046891D01*
X148163000Y-94281837D01*
X148417000Y-94281837D01*
X148417000Y-95373000D01*
X149296598Y-95373000D01*
X149456331Y-95189493D01*
X149417239Y-94963596D01*
X149334828Y-94749666D01*
X149212264Y-94555924D01*
X149054258Y-94389816D01*
X148866882Y-94257725D01*
X148657337Y-94164728D01*
X148595810Y-94156036D01*
X148417000Y-94281837D01*
X148163000Y-94281837D01*
X147984190Y-94156036D01*
X147922663Y-94164728D01*
X147713118Y-94257725D01*
X147654669Y-94298929D01*
X147466059Y-94198115D01*
X147247399Y-94131785D01*
X147197892Y-94126909D01*
X147427911Y-93896890D01*
X179308524Y-93896890D01*
X179353175Y-94044099D01*
X179478359Y-94306920D01*
X179652412Y-94540269D01*
X179868645Y-94735178D01*
X180118748Y-94884157D01*
X180393109Y-94981481D01*
X180623000Y-94860814D01*
X180623000Y-93667000D01*
X180877000Y-93667000D01*
X180877000Y-94860814D01*
X181106891Y-94981481D01*
X181381252Y-94884157D01*
X181631355Y-94735178D01*
X181847588Y-94540269D01*
X182021641Y-94306920D01*
X182146825Y-94044099D01*
X182191476Y-93896890D01*
X182070155Y-93667000D01*
X180877000Y-93667000D01*
X180623000Y-93667000D01*
X179429845Y-93667000D01*
X179308524Y-93896890D01*
X147427911Y-93896890D01*
X148239801Y-93085001D01*
X153887677Y-93085001D01*
X153924999Y-93088677D01*
X153962321Y-93085001D01*
X153962332Y-93085001D01*
X154073985Y-93074004D01*
X154217246Y-93030547D01*
X154349275Y-92959975D01*
X154465000Y-92865002D01*
X154488802Y-92835999D01*
X154686729Y-92638072D01*
X156250000Y-92638072D01*
X156374482Y-92625812D01*
X156494180Y-92589502D01*
X156604494Y-92530537D01*
X156701185Y-92451185D01*
X156780537Y-92354494D01*
X156839502Y-92244180D01*
X156875812Y-92124482D01*
X156888072Y-92000000D01*
X156888072Y-90819268D01*
X164665000Y-90819268D01*
X164665000Y-91180732D01*
X164735518Y-91535250D01*
X164873844Y-91869199D01*
X165074662Y-92169744D01*
X165330256Y-92425338D01*
X165630801Y-92626156D01*
X165964750Y-92764482D01*
X166319268Y-92835000D01*
X166680732Y-92835000D01*
X167035250Y-92764482D01*
X167369199Y-92626156D01*
X167669744Y-92425338D01*
X167925338Y-92169744D01*
X168126156Y-91869199D01*
X168264482Y-91535250D01*
X168335000Y-91180732D01*
X168335000Y-90819268D01*
X169665000Y-90819268D01*
X169665000Y-91180732D01*
X169735518Y-91535250D01*
X169873844Y-91869199D01*
X170074662Y-92169744D01*
X170330256Y-92425338D01*
X170630801Y-92626156D01*
X170964750Y-92764482D01*
X171319268Y-92835000D01*
X171680732Y-92835000D01*
X172035250Y-92764482D01*
X172369199Y-92626156D01*
X172669744Y-92425338D01*
X172925338Y-92169744D01*
X173126156Y-91869199D01*
X173264482Y-91535250D01*
X173335000Y-91180732D01*
X173335000Y-90819268D01*
X174665000Y-90819268D01*
X174665000Y-91180732D01*
X174735518Y-91535250D01*
X174873844Y-91869199D01*
X175074662Y-92169744D01*
X175330256Y-92425338D01*
X175630801Y-92626156D01*
X175964750Y-92764482D01*
X176319268Y-92835000D01*
X176680732Y-92835000D01*
X177035250Y-92764482D01*
X177369199Y-92626156D01*
X177669744Y-92425338D01*
X177925338Y-92169744D01*
X178126156Y-91869199D01*
X178264482Y-91535250D01*
X178335000Y-91180732D01*
X178335000Y-90819268D01*
X178264482Y-90464750D01*
X178134109Y-90150000D01*
X179261928Y-90150000D01*
X179261928Y-91850000D01*
X179274188Y-91974482D01*
X179310498Y-92094180D01*
X179369463Y-92204494D01*
X179448815Y-92301185D01*
X179545506Y-92380537D01*
X179655820Y-92439502D01*
X179736466Y-92463966D01*
X179652412Y-92539731D01*
X179478359Y-92773080D01*
X179353175Y-93035901D01*
X179308524Y-93183110D01*
X179429845Y-93413000D01*
X180623000Y-93413000D01*
X180623000Y-93393000D01*
X180877000Y-93393000D01*
X180877000Y-93413000D01*
X182070155Y-93413000D01*
X182191476Y-93183110D01*
X182146825Y-93035901D01*
X182021641Y-92773080D01*
X181847588Y-92539731D01*
X181763534Y-92463966D01*
X181844180Y-92439502D01*
X181954494Y-92380537D01*
X182051185Y-92301185D01*
X182130537Y-92204494D01*
X182189502Y-92094180D01*
X182225812Y-91974482D01*
X182238072Y-91850000D01*
X182238072Y-90150000D01*
X182225812Y-90025518D01*
X182189502Y-89905820D01*
X182130537Y-89795506D01*
X182051185Y-89698815D01*
X181954494Y-89619463D01*
X181844180Y-89560498D01*
X181724482Y-89524188D01*
X181600000Y-89511928D01*
X179900000Y-89511928D01*
X179775518Y-89524188D01*
X179655820Y-89560498D01*
X179545506Y-89619463D01*
X179448815Y-89698815D01*
X179369463Y-89795506D01*
X179310498Y-89905820D01*
X179274188Y-90025518D01*
X179261928Y-90150000D01*
X178134109Y-90150000D01*
X178126156Y-90130801D01*
X177925338Y-89830256D01*
X177669744Y-89574662D01*
X177369199Y-89373844D01*
X177035250Y-89235518D01*
X176680732Y-89165000D01*
X176319268Y-89165000D01*
X175964750Y-89235518D01*
X175630801Y-89373844D01*
X175330256Y-89574662D01*
X175074662Y-89830256D01*
X174873844Y-90130801D01*
X174735518Y-90464750D01*
X174665000Y-90819268D01*
X173335000Y-90819268D01*
X173264482Y-90464750D01*
X173126156Y-90130801D01*
X172925338Y-89830256D01*
X172669744Y-89574662D01*
X172369199Y-89373844D01*
X172035250Y-89235518D01*
X171680732Y-89165000D01*
X171319268Y-89165000D01*
X170964750Y-89235518D01*
X170630801Y-89373844D01*
X170330256Y-89574662D01*
X170074662Y-89830256D01*
X169873844Y-90130801D01*
X169735518Y-90464750D01*
X169665000Y-90819268D01*
X168335000Y-90819268D01*
X168264482Y-90464750D01*
X168126156Y-90130801D01*
X167925338Y-89830256D01*
X167669744Y-89574662D01*
X167369199Y-89373844D01*
X167035250Y-89235518D01*
X166680732Y-89165000D01*
X166319268Y-89165000D01*
X165964750Y-89235518D01*
X165630801Y-89373844D01*
X165330256Y-89574662D01*
X165074662Y-89830256D01*
X164873844Y-90130801D01*
X164735518Y-90464750D01*
X164665000Y-90819268D01*
X156888072Y-90819268D01*
X156888072Y-90000000D01*
X156875812Y-89875518D01*
X156839502Y-89755820D01*
X156780537Y-89645506D01*
X156701185Y-89548815D01*
X156604494Y-89469463D01*
X156494180Y-89410498D01*
X156374482Y-89374188D01*
X156250000Y-89361928D01*
X154250000Y-89361928D01*
X154125518Y-89374188D01*
X154005820Y-89410498D01*
X153895506Y-89469463D01*
X153798815Y-89548815D01*
X153719463Y-89645506D01*
X153660498Y-89755820D01*
X153624188Y-89875518D01*
X153611928Y-90000000D01*
X153611928Y-91563271D01*
X153610198Y-91565001D01*
X153035680Y-91565001D01*
X153072168Y-91476912D01*
X153135000Y-91161033D01*
X153135000Y-90838967D01*
X153072168Y-90523088D01*
X152948918Y-90225537D01*
X152769987Y-89957748D01*
X152542252Y-89730013D01*
X152274463Y-89551082D01*
X151976912Y-89427832D01*
X151661033Y-89365000D01*
X151338967Y-89365000D01*
X151023088Y-89427832D01*
X150725537Y-89551082D01*
X150457748Y-89730013D01*
X150230013Y-89957748D01*
X150051082Y-90225537D01*
X149927832Y-90523088D01*
X149917404Y-90575513D01*
X149811680Y-90320273D01*
X149654637Y-90085241D01*
X149454759Y-89885363D01*
X149219727Y-89728320D01*
X148958574Y-89620147D01*
X148681335Y-89565000D01*
X148398665Y-89565000D01*
X148121426Y-89620147D01*
X147860273Y-89728320D01*
X147625241Y-89885363D01*
X147425363Y-90085241D01*
X147270000Y-90317759D01*
X147114637Y-90085241D01*
X146914759Y-89885363D01*
X146679727Y-89728320D01*
X146418574Y-89620147D01*
X146141335Y-89565000D01*
X145858665Y-89565000D01*
X145676114Y-89601312D01*
X145313804Y-89239003D01*
X145290001Y-89209999D01*
X145174276Y-89115026D01*
X145042247Y-89044454D01*
X144898986Y-89000997D01*
X144787333Y-88990000D01*
X144787322Y-88990000D01*
X144750000Y-88986324D01*
X144712678Y-88990000D01*
X117877000Y-88990000D01*
X117877000Y-61800000D01*
X161711928Y-61800000D01*
X161711928Y-64300000D01*
X161724188Y-64424482D01*
X161760498Y-64544180D01*
X161819463Y-64654494D01*
X161898815Y-64751185D01*
X161995506Y-64830537D01*
X162105820Y-64889502D01*
X162225518Y-64925812D01*
X162350000Y-64938072D01*
X164850000Y-64938072D01*
X164974482Y-64925812D01*
X165094180Y-64889502D01*
X165204494Y-64830537D01*
X165301185Y-64751185D01*
X165380537Y-64654494D01*
X165439502Y-64544180D01*
X165475812Y-64424482D01*
X165488072Y-64300000D01*
X165488072Y-61800000D01*
X165475812Y-61675518D01*
X165439502Y-61555820D01*
X165380537Y-61445506D01*
X165301185Y-61348815D01*
X165204494Y-61269463D01*
X165094180Y-61210498D01*
X164974482Y-61174188D01*
X164850000Y-61161928D01*
X162350000Y-61161928D01*
X162225518Y-61174188D01*
X162105820Y-61210498D01*
X161995506Y-61269463D01*
X161898815Y-61348815D01*
X161819463Y-61445506D01*
X161760498Y-61555820D01*
X161724188Y-61675518D01*
X161711928Y-61800000D01*
X117877000Y-61800000D01*
X117877000Y-55363605D01*
X162466000Y-55363605D01*
X162591914Y-55653577D01*
X162924126Y-55819433D01*
X163282312Y-55917290D01*
X163652706Y-55943389D01*
X164021075Y-55896725D01*
X164373262Y-55779094D01*
X164608086Y-55653577D01*
X164734000Y-55363605D01*
X163600000Y-54229605D01*
X162466000Y-55363605D01*
X117877000Y-55363605D01*
X117877000Y-54102706D01*
X161706611Y-54102706D01*
X161753275Y-54471075D01*
X161870906Y-54823262D01*
X161996423Y-55058086D01*
X162286395Y-55184000D01*
X163420395Y-54050000D01*
X163779605Y-54050000D01*
X164913605Y-55184000D01*
X165203577Y-55058086D01*
X165369433Y-54725874D01*
X165467290Y-54367688D01*
X165493389Y-53997294D01*
X165446725Y-53628925D01*
X165329094Y-53276738D01*
X165261351Y-53150000D01*
X169011928Y-53150000D01*
X169011928Y-54850000D01*
X169024188Y-54974482D01*
X169060498Y-55094180D01*
X169119463Y-55204494D01*
X169198815Y-55301185D01*
X169295506Y-55380537D01*
X169405820Y-55439502D01*
X169525518Y-55475812D01*
X169650000Y-55488072D01*
X171350000Y-55488072D01*
X171474482Y-55475812D01*
X171594180Y-55439502D01*
X171704494Y-55380537D01*
X171801185Y-55301185D01*
X171880537Y-55204494D01*
X171939502Y-55094180D01*
X171963966Y-55013534D01*
X172039731Y-55097588D01*
X172273080Y-55271641D01*
X172535901Y-55396825D01*
X172683110Y-55441476D01*
X172913000Y-55320155D01*
X172913000Y-54127000D01*
X172893000Y-54127000D01*
X172893000Y-53873000D01*
X172913000Y-53873000D01*
X172913000Y-52679845D01*
X173167000Y-52679845D01*
X173167000Y-53873000D01*
X173187000Y-53873000D01*
X173187000Y-54127000D01*
X173167000Y-54127000D01*
X173167000Y-55320155D01*
X173396890Y-55441476D01*
X173544099Y-55396825D01*
X173806920Y-55271641D01*
X174040269Y-55097588D01*
X174116034Y-55013534D01*
X174140498Y-55094180D01*
X174199463Y-55204494D01*
X174278815Y-55301185D01*
X174375506Y-55380537D01*
X174485820Y-55439502D01*
X174605518Y-55475812D01*
X174730000Y-55488072D01*
X176430000Y-55488072D01*
X176554482Y-55475812D01*
X176674180Y-55439502D01*
X176784494Y-55380537D01*
X176881185Y-55301185D01*
X176960537Y-55204494D01*
X177019502Y-55094180D01*
X177041513Y-55021620D01*
X177173368Y-55153475D01*
X177416589Y-55315990D01*
X177686842Y-55427932D01*
X177973740Y-55485000D01*
X178266260Y-55485000D01*
X178553158Y-55427932D01*
X178823411Y-55315990D01*
X179066632Y-55153475D01*
X179273475Y-54946632D01*
X179435990Y-54703411D01*
X179547932Y-54433158D01*
X179605000Y-54146260D01*
X179605000Y-53853740D01*
X179547932Y-53566842D01*
X179435990Y-53296589D01*
X179273475Y-53053368D01*
X179066632Y-52846525D01*
X178823411Y-52684010D01*
X178553158Y-52572068D01*
X178266260Y-52515000D01*
X177973740Y-52515000D01*
X177686842Y-52572068D01*
X177416589Y-52684010D01*
X177173368Y-52846525D01*
X177041513Y-52978380D01*
X177019502Y-52905820D01*
X176960537Y-52795506D01*
X176881185Y-52698815D01*
X176784494Y-52619463D01*
X176674180Y-52560498D01*
X176554482Y-52524188D01*
X176430000Y-52511928D01*
X174730000Y-52511928D01*
X174605518Y-52524188D01*
X174485820Y-52560498D01*
X174375506Y-52619463D01*
X174278815Y-52698815D01*
X174199463Y-52795506D01*
X174140498Y-52905820D01*
X174116034Y-52986466D01*
X174040269Y-52902412D01*
X173806920Y-52728359D01*
X173544099Y-52603175D01*
X173396890Y-52558524D01*
X173167000Y-52679845D01*
X172913000Y-52679845D01*
X172683110Y-52558524D01*
X172535901Y-52603175D01*
X172273080Y-52728359D01*
X172039731Y-52902412D01*
X171963966Y-52986466D01*
X171939502Y-52905820D01*
X171880537Y-52795506D01*
X171801185Y-52698815D01*
X171704494Y-52619463D01*
X171594180Y-52560498D01*
X171474482Y-52524188D01*
X171350000Y-52511928D01*
X169650000Y-52511928D01*
X169525518Y-52524188D01*
X169405820Y-52560498D01*
X169295506Y-52619463D01*
X169198815Y-52698815D01*
X169119463Y-52795506D01*
X169060498Y-52905820D01*
X169024188Y-53025518D01*
X169011928Y-53150000D01*
X165261351Y-53150000D01*
X165203577Y-53041914D01*
X164913605Y-52916000D01*
X163779605Y-54050000D01*
X163420395Y-54050000D01*
X162286395Y-52916000D01*
X161996423Y-53041914D01*
X161830567Y-53374126D01*
X161732710Y-53732312D01*
X161706611Y-54102706D01*
X117877000Y-54102706D01*
X117877000Y-52736395D01*
X162466000Y-52736395D01*
X163600000Y-53870395D01*
X164734000Y-52736395D01*
X164608086Y-52446423D01*
X164275874Y-52280567D01*
X163917688Y-52182710D01*
X163547294Y-52156611D01*
X163178925Y-52203275D01*
X162826738Y-52320906D01*
X162591914Y-52446423D01*
X162466000Y-52736395D01*
X117877000Y-52736395D01*
X117877000Y-49910000D01*
X182590001Y-49910000D01*
X182590000Y-128340000D01*
G37*
%TD.AperFunction*%
%TD*%
M02*
