%TF.GenerationSoftware,KiCad,Pcbnew,(5.1.9)-1*%
%TF.CreationDate,2021-02-20T10:07:39+01:00*%
%TF.ProjectId,HB-Uni-SenDose-4,48422d55-6e69-42d5-9365-6e446f73652d,rev?*%
%TF.SameCoordinates,Original*%
%TF.FileFunction,Legend,Bot*%
%TF.FilePolarity,Positive*%
%FSLAX46Y46*%
G04 Gerber Fmt 4.6, Leading zero omitted, Abs format (unit mm)*
G04 Created by KiCad (PCBNEW (5.1.9)-1) date 2021-02-20 10:07:39*
%MOMM*%
%LPD*%
G01*
G04 APERTURE LIST*
%ADD10C,0.120000*%
%ADD11C,0.150000*%
G04 APERTURE END LIST*
D10*
%TO.C,J6*%
X116950000Y-112420000D02*
X116950000Y-117620000D01*
X109270000Y-112420000D02*
X116950000Y-112420000D01*
X106670000Y-117620000D02*
X116950000Y-117620000D01*
X109270000Y-112420000D02*
X109270000Y-115020000D01*
X109270000Y-115020000D02*
X106670000Y-115020000D01*
X106670000Y-115020000D02*
X106670000Y-117620000D01*
X108000000Y-112420000D02*
X106670000Y-112420000D01*
X106670000Y-112420000D02*
X106670000Y-113750000D01*
D11*
X105122380Y-114686666D02*
X105836666Y-114686666D01*
X105979523Y-114639047D01*
X106074761Y-114543809D01*
X106122380Y-114400952D01*
X106122380Y-114305714D01*
X105122380Y-115591428D02*
X105122380Y-115400952D01*
X105170000Y-115305714D01*
X105217619Y-115258095D01*
X105360476Y-115162857D01*
X105550952Y-115115238D01*
X105931904Y-115115238D01*
X106027142Y-115162857D01*
X106074761Y-115210476D01*
X106122380Y-115305714D01*
X106122380Y-115496190D01*
X106074761Y-115591428D01*
X106027142Y-115639047D01*
X105931904Y-115686666D01*
X105693809Y-115686666D01*
X105598571Y-115639047D01*
X105550952Y-115591428D01*
X105503333Y-115496190D01*
X105503333Y-115305714D01*
X105550952Y-115210476D01*
X105598571Y-115162857D01*
X105693809Y-115115238D01*
%TD*%
M02*
