M48
; DRILL file {KiCad (5.1.9)-1} date 02/20/21 10:07:44
; FORMAT={-:-/ absolute / inch / decimal}
; #@! TF.CreationDate,2021-02-20T10:07:44+01:00
; #@! TF.GenerationSoftware,Kicad,Pcbnew,(5.1.9)-1
; #@! TF.FileFunction,Plated,1,2,PTH
FMAT,2
INCH
T1C0.0295
T2C0.0300
T3C0.0315
T4C0.0354
T5C0.0394
T6C0.0433
T7C0.0453
T8C0.0472
T9C0.0512
%
G90
G05
T1
X5.7382Y-3.7598
X5.7382Y-4.1437
X5.7382Y-4.5276
X5.7382Y-4.9114
X5.7882Y-3.7598
X5.7882Y-4.1437
X5.7882Y-4.5276
X5.7882Y-4.9114
X5.8382Y-3.7598
X5.8382Y-4.1437
X5.8382Y-4.5276
X5.8382Y-4.9114
T2
X3.4567Y-3.6665
X3.4567Y-4.2665
X3.5567Y-3.6665
X3.5567Y-4.2665
X3.6567Y-3.6665
X3.6567Y-4.2665
X3.7567Y-3.6665
X3.7567Y-4.2665
X3.8567Y-3.6665
X3.8567Y-4.2665
X3.9567Y-3.6665
X3.9567Y-4.2665
X4.0567Y-3.6665
X4.0567Y-4.2665
X4.1567Y-3.6665
X4.1567Y-4.2665
X4.2567Y-3.6665
X4.2567Y-4.2665
X4.3567Y-3.6665
X4.3567Y-4.2665
X4.4567Y-3.6665
X4.4567Y-4.2665
X4.5567Y-3.6665
X4.5567Y-4.2665
X4.7638Y-3.6516
X4.8425Y-3.6516
X4.9213Y-3.6516
X5.0Y-3.6516
X5.0787Y-3.6516
X5.1575Y-3.6516
X5.2362Y-3.6516
X5.315Y-3.6516
T3
X4.0551Y-4.4571
X4.0551Y-4.5571
X5.5201Y-3.5827
X5.5217Y-3.9665
X5.5217Y-4.3504
X5.5217Y-4.7343
X5.6201Y-3.5827
X5.6217Y-3.9665
X5.6217Y-4.3504
X5.6217Y-4.7343
X5.7465Y-4.7343
X5.748Y-3.5827
X5.748Y-3.9665
X5.748Y-4.3504
X5.8465Y-4.7343
X5.848Y-3.5827
X5.848Y-3.9665
X5.848Y-4.3504
T4
X3.7402Y-4.5571
X3.8402Y-4.5571
X5.5315Y-3.7189
X5.5315Y-3.8189
X5.5315Y-4.1028
X5.5315Y-4.2028
X5.5315Y-4.4866
X5.5315Y-4.5866
X5.5315Y-4.8705
X5.5315Y-4.9705
T5
X4.252Y-4.4783
X4.252Y-4.5783
X4.352Y-4.4783
X4.352Y-4.5783
X4.452Y-4.4783
X4.452Y-4.5783
X4.552Y-4.4783
X4.552Y-4.5783
X5.9646Y-3.5827
X5.9646Y-3.9665
X5.9646Y-4.3504
X5.9646Y-4.7343
X6.1122Y-3.5827
X6.1122Y-3.9665
X6.1122Y-4.3504
X6.1122Y-4.7343
X6.7126Y-2.126
X6.8126Y-2.126
X6.9126Y-2.126
X7.0126Y-2.126
X7.1161Y-3.5827
X7.1161Y-3.6827
X7.1161Y-4.7343
X7.1161Y-4.8343
X7.126Y-3.9665
X7.126Y-4.0665
X7.126Y-4.3488
X7.126Y-4.4488
T6
X3.3169Y-4.4685
X3.3169Y-4.6457
X3.5728Y-4.4685
X3.5728Y-4.6457
T7
X3.435Y-2.126
X3.435Y-2.3228
X3.435Y-2.5197
X3.6319Y-2.126
X3.6319Y-2.3228
X3.6319Y-2.5197
T8
X4.0197Y-2.124
X4.0197Y-2.3366
X5.9646Y-4.9803
X5.9681Y-3.8189
X5.9681Y-4.2028
X5.9681Y-4.5866
X6.3646Y-4.9803
X6.3681Y-3.8189
X6.3681Y-4.2028
X6.3681Y-4.5866
X6.4409Y-2.128
X6.4409Y-2.4823
T9
X6.5551Y-3.5827
X6.5551Y-3.9665
X6.5551Y-4.3504
X6.5551Y-4.7343
X6.752Y-3.5827
X6.752Y-3.9665
X6.752Y-4.3504
X6.752Y-4.7343
X6.9488Y-3.5827
X6.9488Y-3.9665
X6.9488Y-4.3504
X6.9488Y-4.7343
T0
M30
