%TF.GenerationSoftware,KiCad,Pcbnew,(5.1.9)-1*%
%TF.CreationDate,2021-02-20T10:07:39+01:00*%
%TF.ProjectId,HB-Uni-SenDose-4,48422d55-6e69-42d5-9365-6e446f73652d,rev?*%
%TF.SameCoordinates,Original*%
%TF.FileFunction,Legend,Top*%
%TF.FilePolarity,Positive*%
%FSLAX46Y46*%
G04 Gerber Fmt 4.6, Leading zero omitted, Abs format (unit mm)*
G04 Created by KiCad (PCBNEW (5.1.9)-1) date 2021-02-20 10:07:39*
%MOMM*%
%LPD*%
G01*
G04 APERTURE LIST*
%ADD10C,0.300000*%
%ADD11C,0.150000*%
%ADD12C,0.120000*%
G04 APERTURE END LIST*
D10*
X81321428Y-58428571D02*
X82821428Y-58428571D01*
X82821428Y-59000000D01*
X82750000Y-59142857D01*
X82678571Y-59214285D01*
X82535714Y-59285714D01*
X82321428Y-59285714D01*
X82178571Y-59214285D01*
X82107142Y-59142857D01*
X82035714Y-59000000D01*
X82035714Y-58428571D01*
X82107142Y-59928571D02*
X82107142Y-60428571D01*
X81321428Y-60642857D02*
X81321428Y-59928571D01*
X82821428Y-59928571D01*
X82821428Y-60642857D01*
X81321428Y-54464285D02*
X81321428Y-53750000D01*
X82821428Y-53750000D01*
X82678571Y-64928571D02*
X81178571Y-64928571D01*
X82678571Y-64071428D01*
X81178571Y-64071428D01*
X180178571Y-117607142D02*
X181321428Y-117607142D01*
X180750000Y-118178571D02*
X180750000Y-117035714D01*
X180178571Y-107857142D02*
X181321428Y-107857142D01*
X180750000Y-108428571D02*
X180750000Y-107285714D01*
X180178571Y-97857142D02*
X181321428Y-97857142D01*
X180750000Y-98428571D02*
X180750000Y-97285714D01*
X180178571Y-88357142D02*
X181321428Y-88357142D01*
X180750000Y-88928571D02*
X180750000Y-87785714D01*
D11*
X84154761Y-127202380D02*
X84154761Y-126535714D01*
X84154761Y-126630952D02*
X84202380Y-126583333D01*
X84297619Y-126535714D01*
X84440476Y-126535714D01*
X84535714Y-126583333D01*
X84583333Y-126678571D01*
X84583333Y-127202380D01*
X84583333Y-126678571D02*
X84630952Y-126583333D01*
X84726190Y-126535714D01*
X84869047Y-126535714D01*
X84964285Y-126583333D01*
X85011904Y-126678571D01*
X85011904Y-127202380D01*
X85916666Y-127202380D02*
X85916666Y-126678571D01*
X85869047Y-126583333D01*
X85773809Y-126535714D01*
X85583333Y-126535714D01*
X85488095Y-126583333D01*
X85916666Y-127154761D02*
X85821428Y-127202380D01*
X85583333Y-127202380D01*
X85488095Y-127154761D01*
X85440476Y-127059523D01*
X85440476Y-126964285D01*
X85488095Y-126869047D01*
X85583333Y-126821428D01*
X85821428Y-126821428D01*
X85916666Y-126773809D01*
X86297619Y-127202380D02*
X86821428Y-126535714D01*
X86297619Y-126535714D02*
X86821428Y-127202380D01*
X87107142Y-127202380D02*
X87630952Y-126535714D01*
X87107142Y-126535714D02*
X87630952Y-127202380D01*
X87916666Y-126202380D02*
X88535714Y-126202380D01*
X88202380Y-126583333D01*
X88345238Y-126583333D01*
X88440476Y-126630952D01*
X88488095Y-126678571D01*
X88535714Y-126773809D01*
X88535714Y-127011904D01*
X88488095Y-127107142D01*
X88440476Y-127154761D01*
X88345238Y-127202380D01*
X88059523Y-127202380D01*
X87964285Y-127154761D01*
X87916666Y-127107142D01*
X89488095Y-127202380D02*
X88916666Y-127202380D01*
X89202380Y-127202380D02*
X89202380Y-126202380D01*
X89107142Y-126345238D01*
X89011904Y-126440476D01*
X88916666Y-126488095D01*
X90107142Y-126202380D02*
X90202380Y-126202380D01*
X90297619Y-126250000D01*
X90345238Y-126297619D01*
X90392857Y-126392857D01*
X90440476Y-126583333D01*
X90440476Y-126821428D01*
X90392857Y-127011904D01*
X90345238Y-127107142D01*
X90297619Y-127154761D01*
X90202380Y-127202380D01*
X90107142Y-127202380D01*
X90011904Y-127154761D01*
X89964285Y-127107142D01*
X89916666Y-127011904D01*
X89869047Y-126821428D01*
X89869047Y-126583333D01*
X89916666Y-126392857D01*
X89964285Y-126297619D01*
X90011904Y-126250000D01*
X90107142Y-126202380D01*
X91345238Y-126202380D02*
X90869047Y-126202380D01*
X90821428Y-126678571D01*
X90869047Y-126630952D01*
X90964285Y-126583333D01*
X91202380Y-126583333D01*
X91297619Y-126630952D01*
X91345238Y-126678571D01*
X91392857Y-126773809D01*
X91392857Y-127011904D01*
X91345238Y-127107142D01*
X91297619Y-127154761D01*
X91202380Y-127202380D01*
X90964285Y-127202380D01*
X90869047Y-127154761D01*
X90821428Y-127107142D01*
X84023809Y-124154761D02*
X84023809Y-122154761D01*
X84023809Y-123107142D02*
X84595238Y-123107142D01*
X84595238Y-124154761D02*
X84595238Y-122154761D01*
X85404761Y-123107142D02*
X85547619Y-123202380D01*
X85595238Y-123297619D01*
X85642857Y-123488095D01*
X85642857Y-123773809D01*
X85595238Y-123964285D01*
X85547619Y-124059523D01*
X85452380Y-124154761D01*
X85071428Y-124154761D01*
X85071428Y-122154761D01*
X85404761Y-122154761D01*
X85500000Y-122250000D01*
X85547619Y-122345238D01*
X85595238Y-122535714D01*
X85595238Y-122726190D01*
X85547619Y-122916666D01*
X85500000Y-123011904D01*
X85404761Y-123107142D01*
X85071428Y-123107142D01*
X86071428Y-123392857D02*
X86833333Y-123392857D01*
X87309523Y-122154761D02*
X87309523Y-123773809D01*
X87357142Y-123964285D01*
X87404761Y-124059523D01*
X87500000Y-124154761D01*
X87690476Y-124154761D01*
X87785714Y-124059523D01*
X87833333Y-123964285D01*
X87880952Y-123773809D01*
X87880952Y-122154761D01*
X88357142Y-122821428D02*
X88357142Y-124154761D01*
X88357142Y-123011904D02*
X88404761Y-122916666D01*
X88500000Y-122821428D01*
X88642857Y-122821428D01*
X88738095Y-122916666D01*
X88785714Y-123107142D01*
X88785714Y-124154761D01*
X89261904Y-124154761D02*
X89261904Y-122821428D01*
X89261904Y-122154761D02*
X89214285Y-122250000D01*
X89261904Y-122345238D01*
X89309523Y-122250000D01*
X89261904Y-122154761D01*
X89261904Y-122345238D01*
X89738095Y-123392857D02*
X90500000Y-123392857D01*
X90928571Y-124059523D02*
X91071428Y-124154761D01*
X91309523Y-124154761D01*
X91404761Y-124059523D01*
X91452380Y-123964285D01*
X91500000Y-123773809D01*
X91500000Y-123583333D01*
X91452380Y-123392857D01*
X91404761Y-123297619D01*
X91309523Y-123202380D01*
X91119047Y-123107142D01*
X91023809Y-123011904D01*
X90976190Y-122916666D01*
X90928571Y-122726190D01*
X90928571Y-122535714D01*
X90976190Y-122345238D01*
X91023809Y-122250000D01*
X91119047Y-122154761D01*
X91357142Y-122154761D01*
X91500000Y-122250000D01*
X92309523Y-124059523D02*
X92214285Y-124154761D01*
X92023809Y-124154761D01*
X91928571Y-124059523D01*
X91880952Y-123869047D01*
X91880952Y-123107142D01*
X91928571Y-122916666D01*
X92023809Y-122821428D01*
X92214285Y-122821428D01*
X92309523Y-122916666D01*
X92357142Y-123107142D01*
X92357142Y-123297619D01*
X91880952Y-123488095D01*
X92785714Y-122821428D02*
X92785714Y-124154761D01*
X92785714Y-123011904D02*
X92833333Y-122916666D01*
X92928571Y-122821428D01*
X93071428Y-122821428D01*
X93166666Y-122916666D01*
X93214285Y-123107142D01*
X93214285Y-124154761D01*
X93690476Y-124154761D02*
X93690476Y-122154761D01*
X93928571Y-122154761D01*
X94071428Y-122250000D01*
X94166666Y-122440476D01*
X94214285Y-122630952D01*
X94261904Y-123011904D01*
X94261904Y-123297619D01*
X94214285Y-123678571D01*
X94166666Y-123869047D01*
X94071428Y-124059523D01*
X93928571Y-124154761D01*
X93690476Y-124154761D01*
X94833333Y-124154761D02*
X94738095Y-124059523D01*
X94690476Y-123964285D01*
X94642857Y-123773809D01*
X94642857Y-123202380D01*
X94690476Y-123011904D01*
X94738095Y-122916666D01*
X94833333Y-122821428D01*
X94976190Y-122821428D01*
X95071428Y-122916666D01*
X95119047Y-123011904D01*
X95166666Y-123202380D01*
X95166666Y-123773809D01*
X95119047Y-123964285D01*
X95071428Y-124059523D01*
X94976190Y-124154761D01*
X94833333Y-124154761D01*
X95547619Y-124059523D02*
X95642857Y-124154761D01*
X95833333Y-124154761D01*
X95928571Y-124059523D01*
X95976190Y-123869047D01*
X95976190Y-123773809D01*
X95928571Y-123583333D01*
X95833333Y-123488095D01*
X95690476Y-123488095D01*
X95595238Y-123392857D01*
X95547619Y-123202380D01*
X95547619Y-123107142D01*
X95595238Y-122916666D01*
X95690476Y-122821428D01*
X95833333Y-122821428D01*
X95928571Y-122916666D01*
X96785714Y-124059523D02*
X96690476Y-124154761D01*
X96500000Y-124154761D01*
X96404761Y-124059523D01*
X96357142Y-123869047D01*
X96357142Y-123107142D01*
X96404761Y-122916666D01*
X96500000Y-122821428D01*
X96690476Y-122821428D01*
X96785714Y-122916666D01*
X96833333Y-123107142D01*
X96833333Y-123297619D01*
X96357142Y-123488095D01*
X97261904Y-123392857D02*
X98023809Y-123392857D01*
X98928571Y-122821428D02*
X98928571Y-124154761D01*
X98690476Y-122059523D02*
X98452380Y-123488095D01*
X99071428Y-123488095D01*
D12*
%TO.C,WAGO 236-403*%
X84250000Y-50380000D02*
X84250000Y-67920000D01*
X89950000Y-50380000D02*
X89950000Y-67920000D01*
X92750000Y-50380000D02*
X92750000Y-52770000D01*
X92750000Y-55230000D02*
X92750000Y-57770000D01*
X92750000Y-60230000D02*
X92750000Y-62770000D01*
X92750000Y-65230000D02*
X92750000Y-67920000D01*
X97370000Y-50380000D02*
X97370000Y-67920000D01*
X83130000Y-50380000D02*
X83130000Y-67920000D01*
X97370000Y-50380000D02*
X83130000Y-50380000D01*
X97370000Y-67920000D02*
X83130000Y-67920000D01*
X87850000Y-52500000D02*
X87850000Y-52770000D01*
X87850000Y-55230000D02*
X87850000Y-56500000D01*
X84550000Y-52500000D02*
X84550000Y-56500000D01*
X87850000Y-52500000D02*
X84550000Y-52500000D01*
X87850000Y-56500000D02*
X84550000Y-56500000D01*
X97250000Y-52000000D02*
X97250000Y-57000000D01*
X83250000Y-52000000D02*
X83250000Y-57000000D01*
X97250000Y-52000000D02*
X83250000Y-52000000D01*
X97250000Y-57000000D02*
X83250000Y-57000000D01*
X89550000Y-52500000D02*
X89550000Y-56500000D01*
X88550000Y-52500000D02*
X88550000Y-52770000D01*
X88550000Y-55230000D02*
X88550000Y-56500000D01*
X89550000Y-52500000D02*
X88550000Y-52500000D01*
X89550000Y-56500000D02*
X88550000Y-56500000D01*
X96900000Y-54000000D02*
X96900000Y-55000000D01*
X94401000Y-54000000D02*
X94401000Y-55000000D01*
X96900000Y-54000000D02*
X94401000Y-54000000D01*
X96900000Y-55000000D02*
X94401000Y-55000000D01*
X87850000Y-57500000D02*
X87850000Y-57770000D01*
X87850000Y-60230000D02*
X87850000Y-61500000D01*
X84550000Y-57500000D02*
X84550000Y-61500000D01*
X87850000Y-57500000D02*
X84550000Y-57500000D01*
X87850000Y-61500000D02*
X84550000Y-61500000D01*
X97250000Y-57000000D02*
X97250000Y-62000000D01*
X83250000Y-57000000D02*
X83250000Y-62000000D01*
X97250000Y-57000000D02*
X83250000Y-57000000D01*
X97250000Y-62000000D02*
X83250000Y-62000000D01*
X89550000Y-57500000D02*
X89550000Y-61500000D01*
X88550000Y-57500000D02*
X88550000Y-57770000D01*
X88550000Y-60230000D02*
X88550000Y-61500000D01*
X89550000Y-57500000D02*
X88550000Y-57500000D01*
X89550000Y-61500000D02*
X88550000Y-61500000D01*
X96900000Y-59000000D02*
X96900000Y-60000000D01*
X94401000Y-59000000D02*
X94401000Y-60000000D01*
X96900000Y-59000000D02*
X94401000Y-59000000D01*
X96900000Y-60000000D02*
X94401000Y-60000000D01*
X87850000Y-62500000D02*
X87850000Y-62770000D01*
X87850000Y-65230000D02*
X87850000Y-66500000D01*
X84550000Y-62500000D02*
X84550000Y-66500000D01*
X87850000Y-62500000D02*
X84550000Y-62500000D01*
X87850000Y-66500000D02*
X84550000Y-66500000D01*
X97250000Y-62000000D02*
X97250000Y-67000000D01*
X83250000Y-62000000D02*
X83250000Y-67000000D01*
X97250000Y-62000000D02*
X83250000Y-62000000D01*
X97250000Y-67000000D02*
X83250000Y-67000000D01*
X89550000Y-62500000D02*
X89550000Y-66500000D01*
X88550000Y-62500000D02*
X88550000Y-62770000D01*
X88550000Y-65230000D02*
X88550000Y-66500000D01*
X89550000Y-62500000D02*
X88550000Y-62500000D01*
X89550000Y-66500000D02*
X88550000Y-66500000D01*
X96900000Y-64000000D02*
X96900000Y-65000000D01*
X94401000Y-64000000D02*
X94401000Y-65000000D01*
X96900000Y-64000000D02*
X94401000Y-64000000D01*
X96900000Y-65000000D02*
X94401000Y-65000000D01*
X84130000Y-50140000D02*
X82890000Y-50140000D01*
X82890000Y-50140000D02*
X82890000Y-51140000D01*
%TO.C,IRM-30-12*%
X98100000Y-49550000D02*
X167600000Y-49550000D01*
X167600000Y-88750000D02*
X98100000Y-88750000D01*
X98100000Y-88750000D02*
X98100000Y-49550000D01*
X167600000Y-49550000D02*
X167600000Y-88750000D01*
D11*
%TO.C,U2*%
X137000000Y-92750000D02*
X137000000Y-110750000D01*
X137000000Y-110750000D02*
X119000000Y-110750000D01*
X119000000Y-110750000D02*
X119000000Y-91750000D01*
X119000000Y-91750000D02*
X137000000Y-91750000D01*
X137000000Y-91750000D02*
X137000000Y-92750000D01*
%TO.C,U1*%
X82720000Y-110910000D02*
X118280000Y-110910000D01*
X82720000Y-90590000D02*
X82720000Y-110910000D01*
X118280000Y-90590000D02*
X82720000Y-90590000D01*
X118280000Y-110910000D02*
X118280000Y-90590000D01*
D12*
%TO.C,SW1*%
X85250000Y-119000000D02*
X89750000Y-119000000D01*
X84000000Y-115000000D02*
X84000000Y-116500000D01*
X89750000Y-112500000D02*
X85250000Y-112500000D01*
X91000000Y-116500000D02*
X91000000Y-115000000D01*
%TO.C,R9*%
X104370000Y-115750000D02*
G75*
G03*
X104370000Y-115750000I-1370000J0D01*
G01*
X103000000Y-114380000D02*
X103000000Y-114310000D01*
%TO.C,R8*%
X147370000Y-91000000D02*
G75*
G03*
X147370000Y-91000000I-1370000J0D01*
G01*
X147370000Y-91000000D02*
X147440000Y-91000000D01*
%TO.C,R7*%
X141580000Y-91000000D02*
G75*
G03*
X141580000Y-91000000I-1370000J0D01*
G01*
X141580000Y-91000000D02*
X141650000Y-91000000D01*
%TO.C,R6*%
X147370000Y-100750000D02*
G75*
G03*
X147370000Y-100750000I-1370000J0D01*
G01*
X147370000Y-100750000D02*
X147440000Y-100750000D01*
%TO.C,R5*%
X141620000Y-100750000D02*
G75*
G03*
X141620000Y-100750000I-1370000J0D01*
G01*
X141620000Y-100750000D02*
X141690000Y-100750000D01*
%TO.C,R4*%
X147370000Y-110500000D02*
G75*
G03*
X147370000Y-110500000I-1370000J0D01*
G01*
X147370000Y-110500000D02*
X147440000Y-110500000D01*
%TO.C,R3*%
X141620000Y-110500000D02*
G75*
G03*
X141620000Y-110500000I-1370000J0D01*
G01*
X141620000Y-110500000D02*
X141690000Y-110500000D01*
%TO.C,R2*%
X147330000Y-120250000D02*
G75*
G03*
X147330000Y-120250000I-1370000J0D01*
G01*
X147330000Y-120250000D02*
X147400000Y-120250000D01*
%TO.C,R1*%
X141620000Y-120250000D02*
G75*
G03*
X141620000Y-120250000I-1370000J0D01*
G01*
X141620000Y-120250000D02*
X141690000Y-120250000D01*
%TO.C,Q4*%
X145220000Y-97350000D02*
X148820000Y-97350000D01*
X148858478Y-97338478D02*
G75*
G03*
X147020000Y-92900000I-1838478J1838478D01*
G01*
X145181522Y-97338478D02*
G75*
G02*
X147020000Y-92900000I1838478J1838478D01*
G01*
%TO.C,Q3*%
X145220000Y-107100000D02*
X148820000Y-107100000D01*
X148858478Y-107088478D02*
G75*
G03*
X147020000Y-102650000I-1838478J1838478D01*
G01*
X145181522Y-107088478D02*
G75*
G02*
X147020000Y-102650000I1838478J1838478D01*
G01*
%TO.C,Q2*%
X145220000Y-116850000D02*
X148820000Y-116850000D01*
X148858478Y-116838478D02*
G75*
G03*
X147020000Y-112400000I-1838478J1838478D01*
G01*
X145181522Y-116838478D02*
G75*
G02*
X147020000Y-112400000I1838478J1838478D01*
G01*
%TO.C,Q1*%
X145220000Y-126600000D02*
X148820000Y-126600000D01*
X148858478Y-126588478D02*
G75*
G03*
X147020000Y-122150000I-1838478J1838478D01*
G01*
X145181522Y-126588478D02*
G75*
G02*
X147020000Y-122150000I1838478J1838478D01*
G01*
%TO.C,K4*%
X150100000Y-95000000D02*
X150100000Y-93700000D01*
X151400000Y-95000000D02*
X150100000Y-95000000D01*
X150300000Y-94800000D02*
X150300000Y-89600000D01*
X178500000Y-94800000D02*
X150300000Y-94800000D01*
X178500000Y-89600000D02*
X178500000Y-94800000D01*
X150300000Y-89600000D02*
X178500000Y-89600000D01*
%TO.C,K3*%
X150100000Y-104750000D02*
X150100000Y-103450000D01*
X151400000Y-104750000D02*
X150100000Y-104750000D01*
X150300000Y-104550000D02*
X150300000Y-99350000D01*
X178500000Y-104550000D02*
X150300000Y-104550000D01*
X178500000Y-99350000D02*
X178500000Y-104550000D01*
X150300000Y-99350000D02*
X178500000Y-99350000D01*
%TO.C,K2*%
X150100000Y-114500000D02*
X150100000Y-113200000D01*
X151400000Y-114500000D02*
X150100000Y-114500000D01*
X150300000Y-114300000D02*
X150300000Y-109100000D01*
X178500000Y-114300000D02*
X150300000Y-114300000D01*
X178500000Y-109100000D02*
X178500000Y-114300000D01*
X150300000Y-109100000D02*
X178500000Y-109100000D01*
%TO.C,K1*%
X150100000Y-124250000D02*
X150100000Y-122950000D01*
X151400000Y-124250000D02*
X150100000Y-124250000D01*
X150300000Y-124050000D02*
X150300000Y-118850000D01*
X178500000Y-124050000D02*
X150300000Y-124050000D01*
X178500000Y-118850000D02*
X178500000Y-124050000D01*
X150300000Y-118850000D02*
X178500000Y-118850000D01*
%TO.C,Pump4*%
X179420000Y-94870000D02*
X182080000Y-94870000D01*
X179420000Y-92270000D02*
X179420000Y-94870000D01*
X182080000Y-92270000D02*
X182080000Y-94870000D01*
X179420000Y-92270000D02*
X182080000Y-92270000D01*
X179420000Y-91000000D02*
X179420000Y-89670000D01*
X179420000Y-89670000D02*
X180750000Y-89670000D01*
%TO.C,Pump3*%
X179670000Y-104620000D02*
X182330000Y-104620000D01*
X179670000Y-102020000D02*
X179670000Y-104620000D01*
X182330000Y-102020000D02*
X182330000Y-104620000D01*
X179670000Y-102020000D02*
X182330000Y-102020000D01*
X179670000Y-100750000D02*
X179670000Y-99420000D01*
X179670000Y-99420000D02*
X181000000Y-99420000D01*
%TO.C,Pump2*%
X179670000Y-114330000D02*
X182330000Y-114330000D01*
X179670000Y-111730000D02*
X179670000Y-114330000D01*
X182330000Y-111730000D02*
X182330000Y-114330000D01*
X179670000Y-111730000D02*
X182330000Y-111730000D01*
X179670000Y-110460000D02*
X179670000Y-109130000D01*
X179670000Y-109130000D02*
X181000000Y-109130000D01*
%TO.C,Pump1*%
X179420000Y-124120000D02*
X182080000Y-124120000D01*
X179420000Y-121520000D02*
X179420000Y-124120000D01*
X182080000Y-121520000D02*
X182080000Y-124120000D01*
X179420000Y-121520000D02*
X182080000Y-121520000D01*
X179420000Y-120250000D02*
X179420000Y-118920000D01*
X179420000Y-118920000D02*
X180750000Y-118920000D01*
%TO.C,J1*%
X179450000Y-55330000D02*
X179450000Y-52670000D01*
X171770000Y-55330000D02*
X179450000Y-55330000D01*
X171770000Y-52670000D02*
X179450000Y-52670000D01*
X171770000Y-55330000D02*
X171770000Y-52670000D01*
X170500000Y-55330000D02*
X169170000Y-55330000D01*
X169170000Y-55330000D02*
X169170000Y-54000000D01*
%TO.C,D9*%
X152750000Y-95560000D02*
X152750000Y-95080000D01*
X152750000Y-95080000D02*
X160590000Y-95080000D01*
X160590000Y-95080000D02*
X160590000Y-95560000D01*
X152750000Y-98440000D02*
X152750000Y-98920000D01*
X152750000Y-98920000D02*
X160590000Y-98920000D01*
X160590000Y-98920000D02*
X160590000Y-98440000D01*
X154010000Y-95080000D02*
X154010000Y-98920000D01*
X154130000Y-95080000D02*
X154130000Y-98920000D01*
X153890000Y-95080000D02*
X153890000Y-98920000D01*
%TO.C,D8*%
X152750000Y-105310000D02*
X152750000Y-104830000D01*
X152750000Y-104830000D02*
X160590000Y-104830000D01*
X160590000Y-104830000D02*
X160590000Y-105310000D01*
X152750000Y-108190000D02*
X152750000Y-108670000D01*
X152750000Y-108670000D02*
X160590000Y-108670000D01*
X160590000Y-108670000D02*
X160590000Y-108190000D01*
X154010000Y-104830000D02*
X154010000Y-108670000D01*
X154130000Y-104830000D02*
X154130000Y-108670000D01*
X153890000Y-104830000D02*
X153890000Y-108670000D01*
%TO.C,D7*%
X152750000Y-115060000D02*
X152750000Y-114580000D01*
X152750000Y-114580000D02*
X160590000Y-114580000D01*
X160590000Y-114580000D02*
X160590000Y-115060000D01*
X152750000Y-117940000D02*
X152750000Y-118420000D01*
X152750000Y-118420000D02*
X160590000Y-118420000D01*
X160590000Y-118420000D02*
X160590000Y-117940000D01*
X154010000Y-114580000D02*
X154010000Y-118420000D01*
X154130000Y-114580000D02*
X154130000Y-118420000D01*
X153890000Y-114580000D02*
X153890000Y-118420000D01*
%TO.C,D6*%
X152660000Y-125060000D02*
X152660000Y-124580000D01*
X152660000Y-124580000D02*
X160500000Y-124580000D01*
X160500000Y-124580000D02*
X160500000Y-125060000D01*
X152660000Y-127940000D02*
X152660000Y-128420000D01*
X152660000Y-128420000D02*
X160500000Y-128420000D01*
X160500000Y-128420000D02*
X160500000Y-127940000D01*
X153920000Y-124580000D02*
X153920000Y-128420000D01*
X154040000Y-124580000D02*
X154040000Y-128420000D01*
X153800000Y-124580000D02*
X153800000Y-128420000D01*
%TO.C,D5*%
X98770000Y-115750000D02*
G75*
G03*
X98770000Y-115750000I-2500000J0D01*
G01*
X93710000Y-114205000D02*
X93710000Y-117295000D01*
X99260000Y-115749538D02*
G75*
G02*
X93710000Y-117294830I-2990000J-462D01*
G01*
X99260000Y-115750462D02*
G75*
G03*
X93710000Y-114205170I-2990000J462D01*
G01*
%TO.C,D4*%
X143000000Y-95730000D02*
G75*
G03*
X143000000Y-95730000I-2500000J0D01*
G01*
X138955000Y-98290000D02*
X142045000Y-98290000D01*
X140499538Y-92740000D02*
G75*
G02*
X142044830Y-98290000I462J-2990000D01*
G01*
X140500462Y-92740000D02*
G75*
G03*
X138955170Y-98290000I-462J-2990000D01*
G01*
%TO.C,D3*%
X143000000Y-105480000D02*
G75*
G03*
X143000000Y-105480000I-2500000J0D01*
G01*
X138955000Y-108040000D02*
X142045000Y-108040000D01*
X140499538Y-102490000D02*
G75*
G02*
X142044830Y-108040000I462J-2990000D01*
G01*
X140500462Y-102490000D02*
G75*
G03*
X138955170Y-108040000I-462J-2990000D01*
G01*
%TO.C,D2*%
X143000000Y-115230000D02*
G75*
G03*
X143000000Y-115230000I-2500000J0D01*
G01*
X138955000Y-117790000D02*
X142045000Y-117790000D01*
X140499538Y-112240000D02*
G75*
G02*
X142044830Y-117790000I462J-2990000D01*
G01*
X140500462Y-112240000D02*
G75*
G03*
X138955170Y-117790000I-462J-2990000D01*
G01*
%TO.C,D1*%
X143000000Y-124980000D02*
G75*
G03*
X143000000Y-124980000I-2500000J0D01*
G01*
X138955000Y-127540000D02*
X142045000Y-127540000D01*
X140499538Y-121990000D02*
G75*
G02*
X142044830Y-127540000I462J-2990000D01*
G01*
X140500462Y-121990000D02*
G75*
G03*
X138955170Y-127540000I-462J-2990000D01*
G01*
%TO.C,WAGO 236-403*%
D11*
X94952380Y-64738095D02*
X95952380Y-64500000D01*
X95238095Y-64309523D01*
X95952380Y-64119047D01*
X94952380Y-63880952D01*
X95666666Y-63547619D02*
X95666666Y-63071428D01*
X95952380Y-63642857D02*
X94952380Y-63309523D01*
X95952380Y-62976190D01*
X95000000Y-62119047D02*
X94952380Y-62214285D01*
X94952380Y-62357142D01*
X95000000Y-62500000D01*
X95095238Y-62595238D01*
X95190476Y-62642857D01*
X95380952Y-62690476D01*
X95523809Y-62690476D01*
X95714285Y-62642857D01*
X95809523Y-62595238D01*
X95904761Y-62500000D01*
X95952380Y-62357142D01*
X95952380Y-62261904D01*
X95904761Y-62119047D01*
X95857142Y-62071428D01*
X95523809Y-62071428D01*
X95523809Y-62261904D01*
X94952380Y-61452380D02*
X94952380Y-61261904D01*
X95000000Y-61166666D01*
X95095238Y-61071428D01*
X95285714Y-61023809D01*
X95619047Y-61023809D01*
X95809523Y-61071428D01*
X95904761Y-61166666D01*
X95952380Y-61261904D01*
X95952380Y-61452380D01*
X95904761Y-61547619D01*
X95809523Y-61642857D01*
X95619047Y-61690476D01*
X95285714Y-61690476D01*
X95095238Y-61642857D01*
X95000000Y-61547619D01*
X94952380Y-61452380D01*
X95047619Y-59880952D02*
X95000000Y-59833333D01*
X94952380Y-59738095D01*
X94952380Y-59500000D01*
X95000000Y-59404761D01*
X95047619Y-59357142D01*
X95142857Y-59309523D01*
X95238095Y-59309523D01*
X95380952Y-59357142D01*
X95952380Y-59928571D01*
X95952380Y-59309523D01*
X94952380Y-58976190D02*
X94952380Y-58357142D01*
X95333333Y-58690476D01*
X95333333Y-58547619D01*
X95380952Y-58452380D01*
X95428571Y-58404761D01*
X95523809Y-58357142D01*
X95761904Y-58357142D01*
X95857142Y-58404761D01*
X95904761Y-58452380D01*
X95952380Y-58547619D01*
X95952380Y-58833333D01*
X95904761Y-58928571D01*
X95857142Y-58976190D01*
X94952380Y-57500000D02*
X94952380Y-57690476D01*
X95000000Y-57785714D01*
X95047619Y-57833333D01*
X95190476Y-57928571D01*
X95380952Y-57976190D01*
X95761904Y-57976190D01*
X95857142Y-57928571D01*
X95904761Y-57880952D01*
X95952380Y-57785714D01*
X95952380Y-57595238D01*
X95904761Y-57500000D01*
X95857142Y-57452380D01*
X95761904Y-57404761D01*
X95523809Y-57404761D01*
X95428571Y-57452380D01*
X95380952Y-57500000D01*
X95333333Y-57595238D01*
X95333333Y-57785714D01*
X95380952Y-57880952D01*
X95428571Y-57928571D01*
X95523809Y-57976190D01*
X95571428Y-56976190D02*
X95571428Y-56214285D01*
X95285714Y-55309523D02*
X95952380Y-55309523D01*
X94904761Y-55547619D02*
X95619047Y-55785714D01*
X95619047Y-55166666D01*
X94952380Y-54595238D02*
X94952380Y-54500000D01*
X95000000Y-54404761D01*
X95047619Y-54357142D01*
X95142857Y-54309523D01*
X95333333Y-54261904D01*
X95571428Y-54261904D01*
X95761904Y-54309523D01*
X95857142Y-54357142D01*
X95904761Y-54404761D01*
X95952380Y-54500000D01*
X95952380Y-54595238D01*
X95904761Y-54690476D01*
X95857142Y-54738095D01*
X95761904Y-54785714D01*
X95571428Y-54833333D01*
X95333333Y-54833333D01*
X95142857Y-54785714D01*
X95047619Y-54738095D01*
X95000000Y-54690476D01*
X94952380Y-54595238D01*
X94952380Y-53928571D02*
X94952380Y-53309523D01*
X95333333Y-53642857D01*
X95333333Y-53500000D01*
X95380952Y-53404761D01*
X95428571Y-53357142D01*
X95523809Y-53309523D01*
X95761904Y-53309523D01*
X95857142Y-53357142D01*
X95904761Y-53404761D01*
X95952380Y-53500000D01*
X95952380Y-53785714D01*
X95904761Y-53880952D01*
X95857142Y-53928571D01*
%TO.C,IRM-30-12*%
X128035714Y-70452380D02*
X128035714Y-69452380D01*
X129083333Y-70452380D02*
X128750000Y-69976190D01*
X128511904Y-70452380D02*
X128511904Y-69452380D01*
X128892857Y-69452380D01*
X128988095Y-69500000D01*
X129035714Y-69547619D01*
X129083333Y-69642857D01*
X129083333Y-69785714D01*
X129035714Y-69880952D01*
X128988095Y-69928571D01*
X128892857Y-69976190D01*
X128511904Y-69976190D01*
X129511904Y-70452380D02*
X129511904Y-69452380D01*
X129845238Y-70166666D01*
X130178571Y-69452380D01*
X130178571Y-70452380D01*
X130654761Y-70071428D02*
X131416666Y-70071428D01*
X131797619Y-69452380D02*
X132416666Y-69452380D01*
X132083333Y-69833333D01*
X132226190Y-69833333D01*
X132321428Y-69880952D01*
X132369047Y-69928571D01*
X132416666Y-70023809D01*
X132416666Y-70261904D01*
X132369047Y-70357142D01*
X132321428Y-70404761D01*
X132226190Y-70452380D01*
X131940476Y-70452380D01*
X131845238Y-70404761D01*
X131797619Y-70357142D01*
X133035714Y-69452380D02*
X133130952Y-69452380D01*
X133226190Y-69500000D01*
X133273809Y-69547619D01*
X133321428Y-69642857D01*
X133369047Y-69833333D01*
X133369047Y-70071428D01*
X133321428Y-70261904D01*
X133273809Y-70357142D01*
X133226190Y-70404761D01*
X133130952Y-70452380D01*
X133035714Y-70452380D01*
X132940476Y-70404761D01*
X132892857Y-70357142D01*
X132845238Y-70261904D01*
X132797619Y-70071428D01*
X132797619Y-69833333D01*
X132845238Y-69642857D01*
X132892857Y-69547619D01*
X132940476Y-69500000D01*
X133035714Y-69452380D01*
X133797619Y-70071428D02*
X134559523Y-70071428D01*
X135559523Y-70452380D02*
X134988095Y-70452380D01*
X135273809Y-70452380D02*
X135273809Y-69452380D01*
X135178571Y-69595238D01*
X135083333Y-69690476D01*
X134988095Y-69738095D01*
X135940476Y-69547619D02*
X135988095Y-69500000D01*
X136083333Y-69452380D01*
X136321428Y-69452380D01*
X136416666Y-69500000D01*
X136464285Y-69547619D01*
X136511904Y-69642857D01*
X136511904Y-69738095D01*
X136464285Y-69880952D01*
X135892857Y-70452380D01*
X136511904Y-70452380D01*
%TO.C,U2*%
X130904761Y-95139142D02*
X130857142Y-95186761D01*
X130714285Y-95234380D01*
X130619047Y-95234380D01*
X130476190Y-95186761D01*
X130380952Y-95091523D01*
X130333333Y-94996285D01*
X130285714Y-94805809D01*
X130285714Y-94662952D01*
X130333333Y-94472476D01*
X130380952Y-94377238D01*
X130476190Y-94282000D01*
X130619047Y-94234380D01*
X130714285Y-94234380D01*
X130857142Y-94282000D01*
X130904761Y-94329619D01*
X131904761Y-95139142D02*
X131857142Y-95186761D01*
X131714285Y-95234380D01*
X131619047Y-95234380D01*
X131476190Y-95186761D01*
X131380952Y-95091523D01*
X131333333Y-94996285D01*
X131285714Y-94805809D01*
X131285714Y-94662952D01*
X131333333Y-94472476D01*
X131380952Y-94377238D01*
X131476190Y-94282000D01*
X131619047Y-94234380D01*
X131714285Y-94234380D01*
X131857142Y-94282000D01*
X131904761Y-94329619D01*
X132857142Y-95234380D02*
X132285714Y-95234380D01*
X132571428Y-95234380D02*
X132571428Y-94234380D01*
X132476190Y-94377238D01*
X132380952Y-94472476D01*
X132285714Y-94520095D01*
X133809523Y-95234380D02*
X133238095Y-95234380D01*
X133523809Y-95234380D02*
X133523809Y-94234380D01*
X133428571Y-94377238D01*
X133333333Y-94472476D01*
X133238095Y-94520095D01*
X134428571Y-94234380D02*
X134523809Y-94234380D01*
X134619047Y-94282000D01*
X134666666Y-94329619D01*
X134714285Y-94424857D01*
X134761904Y-94615333D01*
X134761904Y-94853428D01*
X134714285Y-95043904D01*
X134666666Y-95139142D01*
X134619047Y-95186761D01*
X134523809Y-95234380D01*
X134428571Y-95234380D01*
X134333333Y-95186761D01*
X134285714Y-95139142D01*
X134238095Y-95043904D01*
X134190476Y-94853428D01*
X134190476Y-94615333D01*
X134238095Y-94424857D01*
X134285714Y-94329619D01*
X134333333Y-94282000D01*
X134428571Y-94234380D01*
X135714285Y-95234380D02*
X135142857Y-95234380D01*
X135428571Y-95234380D02*
X135428571Y-94234380D01*
X135333333Y-94377238D01*
X135238095Y-94472476D01*
X135142857Y-94520095D01*
%TO.C,U1*%
X115192380Y-105321904D02*
X116001904Y-105321904D01*
X116097142Y-105274285D01*
X116144761Y-105226666D01*
X116192380Y-105131428D01*
X116192380Y-104940952D01*
X116144761Y-104845714D01*
X116097142Y-104798095D01*
X116001904Y-104750476D01*
X115192380Y-104750476D01*
X116192380Y-103750476D02*
X116192380Y-104321904D01*
X116192380Y-104036190D02*
X115192380Y-104036190D01*
X115335238Y-104131428D01*
X115430476Y-104226666D01*
X115478095Y-104321904D01*
%TO.C,SW1*%
X86166666Y-111904761D02*
X86309523Y-111952380D01*
X86547619Y-111952380D01*
X86642857Y-111904761D01*
X86690476Y-111857142D01*
X86738095Y-111761904D01*
X86738095Y-111666666D01*
X86690476Y-111571428D01*
X86642857Y-111523809D01*
X86547619Y-111476190D01*
X86357142Y-111428571D01*
X86261904Y-111380952D01*
X86214285Y-111333333D01*
X86166666Y-111238095D01*
X86166666Y-111142857D01*
X86214285Y-111047619D01*
X86261904Y-111000000D01*
X86357142Y-110952380D01*
X86595238Y-110952380D01*
X86738095Y-111000000D01*
X87071428Y-110952380D02*
X87309523Y-111952380D01*
X87500000Y-111238095D01*
X87690476Y-111952380D01*
X87928571Y-110952380D01*
X88833333Y-111952380D02*
X88261904Y-111952380D01*
X88547619Y-111952380D02*
X88547619Y-110952380D01*
X88452380Y-111095238D01*
X88357142Y-111190476D01*
X88261904Y-111238095D01*
%TO.C,R9*%
X101082380Y-114646666D02*
X100606190Y-114980000D01*
X101082380Y-115218095D02*
X100082380Y-115218095D01*
X100082380Y-114837142D01*
X100130000Y-114741904D01*
X100177619Y-114694285D01*
X100272857Y-114646666D01*
X100415714Y-114646666D01*
X100510952Y-114694285D01*
X100558571Y-114741904D01*
X100606190Y-114837142D01*
X100606190Y-115218095D01*
X101082380Y-114170476D02*
X101082380Y-113980000D01*
X101034761Y-113884761D01*
X100987142Y-113837142D01*
X100844285Y-113741904D01*
X100653809Y-113694285D01*
X100272857Y-113694285D01*
X100177619Y-113741904D01*
X100130000Y-113789523D01*
X100082380Y-113884761D01*
X100082380Y-114075238D01*
X100130000Y-114170476D01*
X100177619Y-114218095D01*
X100272857Y-114265714D01*
X100510952Y-114265714D01*
X100606190Y-114218095D01*
X100653809Y-114170476D01*
X100701428Y-114075238D01*
X100701428Y-113884761D01*
X100653809Y-113789523D01*
X100606190Y-113741904D01*
X100510952Y-113694285D01*
%TO.C,R8*%
X147103333Y-89082380D02*
X146770000Y-88606190D01*
X146531904Y-89082380D02*
X146531904Y-88082380D01*
X146912857Y-88082380D01*
X147008095Y-88130000D01*
X147055714Y-88177619D01*
X147103333Y-88272857D01*
X147103333Y-88415714D01*
X147055714Y-88510952D01*
X147008095Y-88558571D01*
X146912857Y-88606190D01*
X146531904Y-88606190D01*
X147674761Y-88510952D02*
X147579523Y-88463333D01*
X147531904Y-88415714D01*
X147484285Y-88320476D01*
X147484285Y-88272857D01*
X147531904Y-88177619D01*
X147579523Y-88130000D01*
X147674761Y-88082380D01*
X147865238Y-88082380D01*
X147960476Y-88130000D01*
X148008095Y-88177619D01*
X148055714Y-88272857D01*
X148055714Y-88320476D01*
X148008095Y-88415714D01*
X147960476Y-88463333D01*
X147865238Y-88510952D01*
X147674761Y-88510952D01*
X147579523Y-88558571D01*
X147531904Y-88606190D01*
X147484285Y-88701428D01*
X147484285Y-88891904D01*
X147531904Y-88987142D01*
X147579523Y-89034761D01*
X147674761Y-89082380D01*
X147865238Y-89082380D01*
X147960476Y-89034761D01*
X148008095Y-88987142D01*
X148055714Y-88891904D01*
X148055714Y-88701428D01*
X148008095Y-88606190D01*
X147960476Y-88558571D01*
X147865238Y-88510952D01*
%TO.C,R7*%
X141313333Y-89082380D02*
X140980000Y-88606190D01*
X140741904Y-89082380D02*
X140741904Y-88082380D01*
X141122857Y-88082380D01*
X141218095Y-88130000D01*
X141265714Y-88177619D01*
X141313333Y-88272857D01*
X141313333Y-88415714D01*
X141265714Y-88510952D01*
X141218095Y-88558571D01*
X141122857Y-88606190D01*
X140741904Y-88606190D01*
X141646666Y-88082380D02*
X142313333Y-88082380D01*
X141884761Y-89082380D01*
%TO.C,R6*%
X147103333Y-98832380D02*
X146770000Y-98356190D01*
X146531904Y-98832380D02*
X146531904Y-97832380D01*
X146912857Y-97832380D01*
X147008095Y-97880000D01*
X147055714Y-97927619D01*
X147103333Y-98022857D01*
X147103333Y-98165714D01*
X147055714Y-98260952D01*
X147008095Y-98308571D01*
X146912857Y-98356190D01*
X146531904Y-98356190D01*
X147960476Y-97832380D02*
X147770000Y-97832380D01*
X147674761Y-97880000D01*
X147627142Y-97927619D01*
X147531904Y-98070476D01*
X147484285Y-98260952D01*
X147484285Y-98641904D01*
X147531904Y-98737142D01*
X147579523Y-98784761D01*
X147674761Y-98832380D01*
X147865238Y-98832380D01*
X147960476Y-98784761D01*
X148008095Y-98737142D01*
X148055714Y-98641904D01*
X148055714Y-98403809D01*
X148008095Y-98308571D01*
X147960476Y-98260952D01*
X147865238Y-98213333D01*
X147674761Y-98213333D01*
X147579523Y-98260952D01*
X147531904Y-98308571D01*
X147484285Y-98403809D01*
%TO.C,R5*%
X141353333Y-98832380D02*
X141020000Y-98356190D01*
X140781904Y-98832380D02*
X140781904Y-97832380D01*
X141162857Y-97832380D01*
X141258095Y-97880000D01*
X141305714Y-97927619D01*
X141353333Y-98022857D01*
X141353333Y-98165714D01*
X141305714Y-98260952D01*
X141258095Y-98308571D01*
X141162857Y-98356190D01*
X140781904Y-98356190D01*
X142258095Y-97832380D02*
X141781904Y-97832380D01*
X141734285Y-98308571D01*
X141781904Y-98260952D01*
X141877142Y-98213333D01*
X142115238Y-98213333D01*
X142210476Y-98260952D01*
X142258095Y-98308571D01*
X142305714Y-98403809D01*
X142305714Y-98641904D01*
X142258095Y-98737142D01*
X142210476Y-98784761D01*
X142115238Y-98832380D01*
X141877142Y-98832380D01*
X141781904Y-98784761D01*
X141734285Y-98737142D01*
%TO.C,R4*%
X147103333Y-108582380D02*
X146770000Y-108106190D01*
X146531904Y-108582380D02*
X146531904Y-107582380D01*
X146912857Y-107582380D01*
X147008095Y-107630000D01*
X147055714Y-107677619D01*
X147103333Y-107772857D01*
X147103333Y-107915714D01*
X147055714Y-108010952D01*
X147008095Y-108058571D01*
X146912857Y-108106190D01*
X146531904Y-108106190D01*
X147960476Y-107915714D02*
X147960476Y-108582380D01*
X147722380Y-107534761D02*
X147484285Y-108249047D01*
X148103333Y-108249047D01*
%TO.C,R3*%
X141353333Y-108582380D02*
X141020000Y-108106190D01*
X140781904Y-108582380D02*
X140781904Y-107582380D01*
X141162857Y-107582380D01*
X141258095Y-107630000D01*
X141305714Y-107677619D01*
X141353333Y-107772857D01*
X141353333Y-107915714D01*
X141305714Y-108010952D01*
X141258095Y-108058571D01*
X141162857Y-108106190D01*
X140781904Y-108106190D01*
X141686666Y-107582380D02*
X142305714Y-107582380D01*
X141972380Y-107963333D01*
X142115238Y-107963333D01*
X142210476Y-108010952D01*
X142258095Y-108058571D01*
X142305714Y-108153809D01*
X142305714Y-108391904D01*
X142258095Y-108487142D01*
X142210476Y-108534761D01*
X142115238Y-108582380D01*
X141829523Y-108582380D01*
X141734285Y-108534761D01*
X141686666Y-108487142D01*
%TO.C,R2*%
X147063333Y-118332380D02*
X146730000Y-117856190D01*
X146491904Y-118332380D02*
X146491904Y-117332380D01*
X146872857Y-117332380D01*
X146968095Y-117380000D01*
X147015714Y-117427619D01*
X147063333Y-117522857D01*
X147063333Y-117665714D01*
X147015714Y-117760952D01*
X146968095Y-117808571D01*
X146872857Y-117856190D01*
X146491904Y-117856190D01*
X147444285Y-117427619D02*
X147491904Y-117380000D01*
X147587142Y-117332380D01*
X147825238Y-117332380D01*
X147920476Y-117380000D01*
X147968095Y-117427619D01*
X148015714Y-117522857D01*
X148015714Y-117618095D01*
X147968095Y-117760952D01*
X147396666Y-118332380D01*
X148015714Y-118332380D01*
%TO.C,R1*%
X141353333Y-118332380D02*
X141020000Y-117856190D01*
X140781904Y-118332380D02*
X140781904Y-117332380D01*
X141162857Y-117332380D01*
X141258095Y-117380000D01*
X141305714Y-117427619D01*
X141353333Y-117522857D01*
X141353333Y-117665714D01*
X141305714Y-117760952D01*
X141258095Y-117808571D01*
X141162857Y-117856190D01*
X140781904Y-117856190D01*
X142305714Y-118332380D02*
X141734285Y-118332380D01*
X142020000Y-118332380D02*
X142020000Y-117332380D01*
X141924761Y-117475238D01*
X141829523Y-117570476D01*
X141734285Y-117618095D01*
%TO.C,Q4*%
X146924761Y-92487619D02*
X146829523Y-92440000D01*
X146734285Y-92344761D01*
X146591428Y-92201904D01*
X146496190Y-92154285D01*
X146400952Y-92154285D01*
X146448571Y-92392380D02*
X146353333Y-92344761D01*
X146258095Y-92249523D01*
X146210476Y-92059047D01*
X146210476Y-91725714D01*
X146258095Y-91535238D01*
X146353333Y-91440000D01*
X146448571Y-91392380D01*
X146639047Y-91392380D01*
X146734285Y-91440000D01*
X146829523Y-91535238D01*
X146877142Y-91725714D01*
X146877142Y-92059047D01*
X146829523Y-92249523D01*
X146734285Y-92344761D01*
X146639047Y-92392380D01*
X146448571Y-92392380D01*
X147734285Y-91725714D02*
X147734285Y-92392380D01*
X147496190Y-91344761D02*
X147258095Y-92059047D01*
X147877142Y-92059047D01*
%TO.C,Q3*%
X146924761Y-102237619D02*
X146829523Y-102190000D01*
X146734285Y-102094761D01*
X146591428Y-101951904D01*
X146496190Y-101904285D01*
X146400952Y-101904285D01*
X146448571Y-102142380D02*
X146353333Y-102094761D01*
X146258095Y-101999523D01*
X146210476Y-101809047D01*
X146210476Y-101475714D01*
X146258095Y-101285238D01*
X146353333Y-101190000D01*
X146448571Y-101142380D01*
X146639047Y-101142380D01*
X146734285Y-101190000D01*
X146829523Y-101285238D01*
X146877142Y-101475714D01*
X146877142Y-101809047D01*
X146829523Y-101999523D01*
X146734285Y-102094761D01*
X146639047Y-102142380D01*
X146448571Y-102142380D01*
X147210476Y-101142380D02*
X147829523Y-101142380D01*
X147496190Y-101523333D01*
X147639047Y-101523333D01*
X147734285Y-101570952D01*
X147781904Y-101618571D01*
X147829523Y-101713809D01*
X147829523Y-101951904D01*
X147781904Y-102047142D01*
X147734285Y-102094761D01*
X147639047Y-102142380D01*
X147353333Y-102142380D01*
X147258095Y-102094761D01*
X147210476Y-102047142D01*
%TO.C,Q2*%
X146924761Y-111987619D02*
X146829523Y-111940000D01*
X146734285Y-111844761D01*
X146591428Y-111701904D01*
X146496190Y-111654285D01*
X146400952Y-111654285D01*
X146448571Y-111892380D02*
X146353333Y-111844761D01*
X146258095Y-111749523D01*
X146210476Y-111559047D01*
X146210476Y-111225714D01*
X146258095Y-111035238D01*
X146353333Y-110940000D01*
X146448571Y-110892380D01*
X146639047Y-110892380D01*
X146734285Y-110940000D01*
X146829523Y-111035238D01*
X146877142Y-111225714D01*
X146877142Y-111559047D01*
X146829523Y-111749523D01*
X146734285Y-111844761D01*
X146639047Y-111892380D01*
X146448571Y-111892380D01*
X147258095Y-110987619D02*
X147305714Y-110940000D01*
X147400952Y-110892380D01*
X147639047Y-110892380D01*
X147734285Y-110940000D01*
X147781904Y-110987619D01*
X147829523Y-111082857D01*
X147829523Y-111178095D01*
X147781904Y-111320952D01*
X147210476Y-111892380D01*
X147829523Y-111892380D01*
%TO.C,Q1*%
X146924761Y-121737619D02*
X146829523Y-121690000D01*
X146734285Y-121594761D01*
X146591428Y-121451904D01*
X146496190Y-121404285D01*
X146400952Y-121404285D01*
X146448571Y-121642380D02*
X146353333Y-121594761D01*
X146258095Y-121499523D01*
X146210476Y-121309047D01*
X146210476Y-120975714D01*
X146258095Y-120785238D01*
X146353333Y-120690000D01*
X146448571Y-120642380D01*
X146639047Y-120642380D01*
X146734285Y-120690000D01*
X146829523Y-120785238D01*
X146877142Y-120975714D01*
X146877142Y-121309047D01*
X146829523Y-121499523D01*
X146734285Y-121594761D01*
X146639047Y-121642380D01*
X146448571Y-121642380D01*
X147829523Y-121642380D02*
X147258095Y-121642380D01*
X147543809Y-121642380D02*
X147543809Y-120642380D01*
X147448571Y-120785238D01*
X147353333Y-120880476D01*
X147258095Y-120928095D01*
%TO.C,K4*%
X164761904Y-89252380D02*
X164761904Y-88252380D01*
X165333333Y-89252380D02*
X164904761Y-88680952D01*
X165333333Y-88252380D02*
X164761904Y-88823809D01*
X166190476Y-88585714D02*
X166190476Y-89252380D01*
X165952380Y-88204761D02*
X165714285Y-88919047D01*
X166333333Y-88919047D01*
%TO.C,K3*%
X164761904Y-99002380D02*
X164761904Y-98002380D01*
X165333333Y-99002380D02*
X164904761Y-98430952D01*
X165333333Y-98002380D02*
X164761904Y-98573809D01*
X165666666Y-98002380D02*
X166285714Y-98002380D01*
X165952380Y-98383333D01*
X166095238Y-98383333D01*
X166190476Y-98430952D01*
X166238095Y-98478571D01*
X166285714Y-98573809D01*
X166285714Y-98811904D01*
X166238095Y-98907142D01*
X166190476Y-98954761D01*
X166095238Y-99002380D01*
X165809523Y-99002380D01*
X165714285Y-98954761D01*
X165666666Y-98907142D01*
%TO.C,K2*%
X164761904Y-108752380D02*
X164761904Y-107752380D01*
X165333333Y-108752380D02*
X164904761Y-108180952D01*
X165333333Y-107752380D02*
X164761904Y-108323809D01*
X165714285Y-107847619D02*
X165761904Y-107800000D01*
X165857142Y-107752380D01*
X166095238Y-107752380D01*
X166190476Y-107800000D01*
X166238095Y-107847619D01*
X166285714Y-107942857D01*
X166285714Y-108038095D01*
X166238095Y-108180952D01*
X165666666Y-108752380D01*
X166285714Y-108752380D01*
%TO.C,K1*%
X164761904Y-118502380D02*
X164761904Y-117502380D01*
X165333333Y-118502380D02*
X164904761Y-117930952D01*
X165333333Y-117502380D02*
X164761904Y-118073809D01*
X166285714Y-118502380D02*
X165714285Y-118502380D01*
X166000000Y-118502380D02*
X166000000Y-117502380D01*
X165904761Y-117645238D01*
X165809523Y-117740476D01*
X165714285Y-117788095D01*
%TO.C,Pump4*%
X173940476Y-88952380D02*
X173940476Y-87952380D01*
X174321428Y-87952380D01*
X174416666Y-88000000D01*
X174464285Y-88047619D01*
X174511904Y-88142857D01*
X174511904Y-88285714D01*
X174464285Y-88380952D01*
X174416666Y-88428571D01*
X174321428Y-88476190D01*
X173940476Y-88476190D01*
X175369047Y-88285714D02*
X175369047Y-88952380D01*
X174940476Y-88285714D02*
X174940476Y-88809523D01*
X174988095Y-88904761D01*
X175083333Y-88952380D01*
X175226190Y-88952380D01*
X175321428Y-88904761D01*
X175369047Y-88857142D01*
X175845238Y-88952380D02*
X175845238Y-88285714D01*
X175845238Y-88380952D02*
X175892857Y-88333333D01*
X175988095Y-88285714D01*
X176130952Y-88285714D01*
X176226190Y-88333333D01*
X176273809Y-88428571D01*
X176273809Y-88952380D01*
X176273809Y-88428571D02*
X176321428Y-88333333D01*
X176416666Y-88285714D01*
X176559523Y-88285714D01*
X176654761Y-88333333D01*
X176702380Y-88428571D01*
X176702380Y-88952380D01*
X177178571Y-88285714D02*
X177178571Y-89285714D01*
X177178571Y-88333333D02*
X177273809Y-88285714D01*
X177464285Y-88285714D01*
X177559523Y-88333333D01*
X177607142Y-88380952D01*
X177654761Y-88476190D01*
X177654761Y-88761904D01*
X177607142Y-88857142D01*
X177559523Y-88904761D01*
X177464285Y-88952380D01*
X177273809Y-88952380D01*
X177178571Y-88904761D01*
X178511904Y-88285714D02*
X178511904Y-88952380D01*
X178273809Y-87904761D02*
X178035714Y-88619047D01*
X178654761Y-88619047D01*
%TO.C,Pump3*%
X173940476Y-98702380D02*
X173940476Y-97702380D01*
X174321428Y-97702380D01*
X174416666Y-97750000D01*
X174464285Y-97797619D01*
X174511904Y-97892857D01*
X174511904Y-98035714D01*
X174464285Y-98130952D01*
X174416666Y-98178571D01*
X174321428Y-98226190D01*
X173940476Y-98226190D01*
X175369047Y-98035714D02*
X175369047Y-98702380D01*
X174940476Y-98035714D02*
X174940476Y-98559523D01*
X174988095Y-98654761D01*
X175083333Y-98702380D01*
X175226190Y-98702380D01*
X175321428Y-98654761D01*
X175369047Y-98607142D01*
X175845238Y-98702380D02*
X175845238Y-98035714D01*
X175845238Y-98130952D02*
X175892857Y-98083333D01*
X175988095Y-98035714D01*
X176130952Y-98035714D01*
X176226190Y-98083333D01*
X176273809Y-98178571D01*
X176273809Y-98702380D01*
X176273809Y-98178571D02*
X176321428Y-98083333D01*
X176416666Y-98035714D01*
X176559523Y-98035714D01*
X176654761Y-98083333D01*
X176702380Y-98178571D01*
X176702380Y-98702380D01*
X177178571Y-98035714D02*
X177178571Y-99035714D01*
X177178571Y-98083333D02*
X177273809Y-98035714D01*
X177464285Y-98035714D01*
X177559523Y-98083333D01*
X177607142Y-98130952D01*
X177654761Y-98226190D01*
X177654761Y-98511904D01*
X177607142Y-98607142D01*
X177559523Y-98654761D01*
X177464285Y-98702380D01*
X177273809Y-98702380D01*
X177178571Y-98654761D01*
X177988095Y-97702380D02*
X178607142Y-97702380D01*
X178273809Y-98083333D01*
X178416666Y-98083333D01*
X178511904Y-98130952D01*
X178559523Y-98178571D01*
X178607142Y-98273809D01*
X178607142Y-98511904D01*
X178559523Y-98607142D01*
X178511904Y-98654761D01*
X178416666Y-98702380D01*
X178130952Y-98702380D01*
X178035714Y-98654761D01*
X177988095Y-98607142D01*
%TO.C,Pump2*%
X173940476Y-108452380D02*
X173940476Y-107452380D01*
X174321428Y-107452380D01*
X174416666Y-107500000D01*
X174464285Y-107547619D01*
X174511904Y-107642857D01*
X174511904Y-107785714D01*
X174464285Y-107880952D01*
X174416666Y-107928571D01*
X174321428Y-107976190D01*
X173940476Y-107976190D01*
X175369047Y-107785714D02*
X175369047Y-108452380D01*
X174940476Y-107785714D02*
X174940476Y-108309523D01*
X174988095Y-108404761D01*
X175083333Y-108452380D01*
X175226190Y-108452380D01*
X175321428Y-108404761D01*
X175369047Y-108357142D01*
X175845238Y-108452380D02*
X175845238Y-107785714D01*
X175845238Y-107880952D02*
X175892857Y-107833333D01*
X175988095Y-107785714D01*
X176130952Y-107785714D01*
X176226190Y-107833333D01*
X176273809Y-107928571D01*
X176273809Y-108452380D01*
X176273809Y-107928571D02*
X176321428Y-107833333D01*
X176416666Y-107785714D01*
X176559523Y-107785714D01*
X176654761Y-107833333D01*
X176702380Y-107928571D01*
X176702380Y-108452380D01*
X177178571Y-107785714D02*
X177178571Y-108785714D01*
X177178571Y-107833333D02*
X177273809Y-107785714D01*
X177464285Y-107785714D01*
X177559523Y-107833333D01*
X177607142Y-107880952D01*
X177654761Y-107976190D01*
X177654761Y-108261904D01*
X177607142Y-108357142D01*
X177559523Y-108404761D01*
X177464285Y-108452380D01*
X177273809Y-108452380D01*
X177178571Y-108404761D01*
X178035714Y-107547619D02*
X178083333Y-107500000D01*
X178178571Y-107452380D01*
X178416666Y-107452380D01*
X178511904Y-107500000D01*
X178559523Y-107547619D01*
X178607142Y-107642857D01*
X178607142Y-107738095D01*
X178559523Y-107880952D01*
X177988095Y-108452380D01*
X178607142Y-108452380D01*
%TO.C,Pump1*%
X173940476Y-118202380D02*
X173940476Y-117202380D01*
X174321428Y-117202380D01*
X174416666Y-117250000D01*
X174464285Y-117297619D01*
X174511904Y-117392857D01*
X174511904Y-117535714D01*
X174464285Y-117630952D01*
X174416666Y-117678571D01*
X174321428Y-117726190D01*
X173940476Y-117726190D01*
X175369047Y-117535714D02*
X175369047Y-118202380D01*
X174940476Y-117535714D02*
X174940476Y-118059523D01*
X174988095Y-118154761D01*
X175083333Y-118202380D01*
X175226190Y-118202380D01*
X175321428Y-118154761D01*
X175369047Y-118107142D01*
X175845238Y-118202380D02*
X175845238Y-117535714D01*
X175845238Y-117630952D02*
X175892857Y-117583333D01*
X175988095Y-117535714D01*
X176130952Y-117535714D01*
X176226190Y-117583333D01*
X176273809Y-117678571D01*
X176273809Y-118202380D01*
X176273809Y-117678571D02*
X176321428Y-117583333D01*
X176416666Y-117535714D01*
X176559523Y-117535714D01*
X176654761Y-117583333D01*
X176702380Y-117678571D01*
X176702380Y-118202380D01*
X177178571Y-117535714D02*
X177178571Y-118535714D01*
X177178571Y-117583333D02*
X177273809Y-117535714D01*
X177464285Y-117535714D01*
X177559523Y-117583333D01*
X177607142Y-117630952D01*
X177654761Y-117726190D01*
X177654761Y-118011904D01*
X177607142Y-118107142D01*
X177559523Y-118154761D01*
X177464285Y-118202380D01*
X177273809Y-118202380D01*
X177178571Y-118154761D01*
X178607142Y-118202380D02*
X178035714Y-118202380D01*
X178321428Y-118202380D02*
X178321428Y-117202380D01*
X178226190Y-117345238D01*
X178130952Y-117440476D01*
X178035714Y-117488095D01*
%TO.C,J1*%
X167622380Y-54333333D02*
X168336666Y-54333333D01*
X168479523Y-54380952D01*
X168574761Y-54476190D01*
X168622380Y-54619047D01*
X168622380Y-54714285D01*
X168622380Y-53333333D02*
X168622380Y-53904761D01*
X168622380Y-53619047D02*
X167622380Y-53619047D01*
X167765238Y-53714285D01*
X167860476Y-53809523D01*
X167908095Y-53904761D01*
%TO.C,D9*%
X155931904Y-94532380D02*
X155931904Y-93532380D01*
X156170000Y-93532380D01*
X156312857Y-93580000D01*
X156408095Y-93675238D01*
X156455714Y-93770476D01*
X156503333Y-93960952D01*
X156503333Y-94103809D01*
X156455714Y-94294285D01*
X156408095Y-94389523D01*
X156312857Y-94484761D01*
X156170000Y-94532380D01*
X155931904Y-94532380D01*
X156979523Y-94532380D02*
X157170000Y-94532380D01*
X157265238Y-94484761D01*
X157312857Y-94437142D01*
X157408095Y-94294285D01*
X157455714Y-94103809D01*
X157455714Y-93722857D01*
X157408095Y-93627619D01*
X157360476Y-93580000D01*
X157265238Y-93532380D01*
X157074761Y-93532380D01*
X156979523Y-93580000D01*
X156931904Y-93627619D01*
X156884285Y-93722857D01*
X156884285Y-93960952D01*
X156931904Y-94056190D01*
X156979523Y-94103809D01*
X157074761Y-94151428D01*
X157265238Y-94151428D01*
X157360476Y-94103809D01*
X157408095Y-94056190D01*
X157455714Y-93960952D01*
X151328095Y-95252380D02*
X151328095Y-94252380D01*
X151899523Y-95252380D02*
X151470952Y-94680952D01*
X151899523Y-94252380D02*
X151328095Y-94823809D01*
%TO.C,D8*%
X155931904Y-104282380D02*
X155931904Y-103282380D01*
X156170000Y-103282380D01*
X156312857Y-103330000D01*
X156408095Y-103425238D01*
X156455714Y-103520476D01*
X156503333Y-103710952D01*
X156503333Y-103853809D01*
X156455714Y-104044285D01*
X156408095Y-104139523D01*
X156312857Y-104234761D01*
X156170000Y-104282380D01*
X155931904Y-104282380D01*
X157074761Y-103710952D02*
X156979523Y-103663333D01*
X156931904Y-103615714D01*
X156884285Y-103520476D01*
X156884285Y-103472857D01*
X156931904Y-103377619D01*
X156979523Y-103330000D01*
X157074761Y-103282380D01*
X157265238Y-103282380D01*
X157360476Y-103330000D01*
X157408095Y-103377619D01*
X157455714Y-103472857D01*
X157455714Y-103520476D01*
X157408095Y-103615714D01*
X157360476Y-103663333D01*
X157265238Y-103710952D01*
X157074761Y-103710952D01*
X156979523Y-103758571D01*
X156931904Y-103806190D01*
X156884285Y-103901428D01*
X156884285Y-104091904D01*
X156931904Y-104187142D01*
X156979523Y-104234761D01*
X157074761Y-104282380D01*
X157265238Y-104282380D01*
X157360476Y-104234761D01*
X157408095Y-104187142D01*
X157455714Y-104091904D01*
X157455714Y-103901428D01*
X157408095Y-103806190D01*
X157360476Y-103758571D01*
X157265238Y-103710952D01*
X151328095Y-105002380D02*
X151328095Y-104002380D01*
X151899523Y-105002380D02*
X151470952Y-104430952D01*
X151899523Y-104002380D02*
X151328095Y-104573809D01*
%TO.C,D7*%
X155931904Y-114032380D02*
X155931904Y-113032380D01*
X156170000Y-113032380D01*
X156312857Y-113080000D01*
X156408095Y-113175238D01*
X156455714Y-113270476D01*
X156503333Y-113460952D01*
X156503333Y-113603809D01*
X156455714Y-113794285D01*
X156408095Y-113889523D01*
X156312857Y-113984761D01*
X156170000Y-114032380D01*
X155931904Y-114032380D01*
X156836666Y-113032380D02*
X157503333Y-113032380D01*
X157074761Y-114032380D01*
X151328095Y-114752380D02*
X151328095Y-113752380D01*
X151899523Y-114752380D02*
X151470952Y-114180952D01*
X151899523Y-113752380D02*
X151328095Y-114323809D01*
%TO.C,D6*%
X155841904Y-124032380D02*
X155841904Y-123032380D01*
X156080000Y-123032380D01*
X156222857Y-123080000D01*
X156318095Y-123175238D01*
X156365714Y-123270476D01*
X156413333Y-123460952D01*
X156413333Y-123603809D01*
X156365714Y-123794285D01*
X156318095Y-123889523D01*
X156222857Y-123984761D01*
X156080000Y-124032380D01*
X155841904Y-124032380D01*
X157270476Y-123032380D02*
X157080000Y-123032380D01*
X156984761Y-123080000D01*
X156937142Y-123127619D01*
X156841904Y-123270476D01*
X156794285Y-123460952D01*
X156794285Y-123841904D01*
X156841904Y-123937142D01*
X156889523Y-123984761D01*
X156984761Y-124032380D01*
X157175238Y-124032380D01*
X157270476Y-123984761D01*
X157318095Y-123937142D01*
X157365714Y-123841904D01*
X157365714Y-123603809D01*
X157318095Y-123508571D01*
X157270476Y-123460952D01*
X157175238Y-123413333D01*
X156984761Y-123413333D01*
X156889523Y-123460952D01*
X156841904Y-123508571D01*
X156794285Y-123603809D01*
X151238095Y-124752380D02*
X151238095Y-123752380D01*
X151809523Y-124752380D02*
X151380952Y-124180952D01*
X151809523Y-123752380D02*
X151238095Y-124323809D01*
%TO.C,D5*%
X95531904Y-112242380D02*
X95531904Y-111242380D01*
X95770000Y-111242380D01*
X95912857Y-111290000D01*
X96008095Y-111385238D01*
X96055714Y-111480476D01*
X96103333Y-111670952D01*
X96103333Y-111813809D01*
X96055714Y-112004285D01*
X96008095Y-112099523D01*
X95912857Y-112194761D01*
X95770000Y-112242380D01*
X95531904Y-112242380D01*
X97008095Y-111242380D02*
X96531904Y-111242380D01*
X96484285Y-111718571D01*
X96531904Y-111670952D01*
X96627142Y-111623333D01*
X96865238Y-111623333D01*
X96960476Y-111670952D01*
X97008095Y-111718571D01*
X97055714Y-111813809D01*
X97055714Y-112051904D01*
X97008095Y-112147142D01*
X96960476Y-112194761D01*
X96865238Y-112242380D01*
X96627142Y-112242380D01*
X96531904Y-112194761D01*
X96484285Y-112147142D01*
%TO.C,D4*%
X136992380Y-96468095D02*
X135992380Y-96468095D01*
X135992380Y-96230000D01*
X136040000Y-96087142D01*
X136135238Y-95991904D01*
X136230476Y-95944285D01*
X136420952Y-95896666D01*
X136563809Y-95896666D01*
X136754285Y-95944285D01*
X136849523Y-95991904D01*
X136944761Y-96087142D01*
X136992380Y-96230000D01*
X136992380Y-96468095D01*
X136325714Y-95039523D02*
X136992380Y-95039523D01*
X135944761Y-95277619D02*
X136659047Y-95515714D01*
X136659047Y-94896666D01*
%TO.C,D3*%
X136992380Y-106218095D02*
X135992380Y-106218095D01*
X135992380Y-105980000D01*
X136040000Y-105837142D01*
X136135238Y-105741904D01*
X136230476Y-105694285D01*
X136420952Y-105646666D01*
X136563809Y-105646666D01*
X136754285Y-105694285D01*
X136849523Y-105741904D01*
X136944761Y-105837142D01*
X136992380Y-105980000D01*
X136992380Y-106218095D01*
X135992380Y-105313333D02*
X135992380Y-104694285D01*
X136373333Y-105027619D01*
X136373333Y-104884761D01*
X136420952Y-104789523D01*
X136468571Y-104741904D01*
X136563809Y-104694285D01*
X136801904Y-104694285D01*
X136897142Y-104741904D01*
X136944761Y-104789523D01*
X136992380Y-104884761D01*
X136992380Y-105170476D01*
X136944761Y-105265714D01*
X136897142Y-105313333D01*
%TO.C,D2*%
X136992380Y-115968095D02*
X135992380Y-115968095D01*
X135992380Y-115730000D01*
X136040000Y-115587142D01*
X136135238Y-115491904D01*
X136230476Y-115444285D01*
X136420952Y-115396666D01*
X136563809Y-115396666D01*
X136754285Y-115444285D01*
X136849523Y-115491904D01*
X136944761Y-115587142D01*
X136992380Y-115730000D01*
X136992380Y-115968095D01*
X136087619Y-115015714D02*
X136040000Y-114968095D01*
X135992380Y-114872857D01*
X135992380Y-114634761D01*
X136040000Y-114539523D01*
X136087619Y-114491904D01*
X136182857Y-114444285D01*
X136278095Y-114444285D01*
X136420952Y-114491904D01*
X136992380Y-115063333D01*
X136992380Y-114444285D01*
%TO.C,D1*%
X136992380Y-125718095D02*
X135992380Y-125718095D01*
X135992380Y-125480000D01*
X136040000Y-125337142D01*
X136135238Y-125241904D01*
X136230476Y-125194285D01*
X136420952Y-125146666D01*
X136563809Y-125146666D01*
X136754285Y-125194285D01*
X136849523Y-125241904D01*
X136944761Y-125337142D01*
X136992380Y-125480000D01*
X136992380Y-125718095D01*
X136992380Y-124194285D02*
X136992380Y-124765714D01*
X136992380Y-124480000D02*
X135992380Y-124480000D01*
X136135238Y-124575238D01*
X136230476Y-124670476D01*
X136278095Y-124765714D01*
%TD*%
M02*
