%TF.GenerationSoftware,KiCad,Pcbnew,(5.1.9)-1*%
%TF.CreationDate,2021-02-20T10:07:39+01:00*%
%TF.ProjectId,HB-Uni-SenDose-4,48422d55-6e69-42d5-9365-6e446f73652d,rev?*%
%TF.SameCoordinates,Original*%
%TF.FileFunction,Copper,L1,Top*%
%TF.FilePolarity,Positive*%
%FSLAX46Y46*%
G04 Gerber Fmt 4.6, Leading zero omitted, Abs format (unit mm)*
G04 Created by KiCad (PCBNEW (5.1.9)-1) date 2021-02-20 10:07:39*
%MOMM*%
%LPD*%
G01*
G04 APERTURE LIST*
%TA.AperFunction,ComponentPad*%
%ADD10O,3.000000X1.500000*%
%TD*%
%TA.AperFunction,ComponentPad*%
%ADD11R,3.000000X1.500000*%
%TD*%
%TA.AperFunction,ComponentPad*%
%ADD12C,2.500000*%
%TD*%
%TA.AperFunction,ComponentPad*%
%ADD13R,2.500000X2.500000*%
%TD*%
%TA.AperFunction,ComponentPad*%
%ADD14O,1.270000X1.270000*%
%TD*%
%TA.AperFunction,ComponentPad*%
%ADD15C,1.270000*%
%TD*%
%TA.AperFunction,WasherPad*%
%ADD16C,3.300000*%
%TD*%
%TA.AperFunction,SMDPad,CuDef*%
%ADD17R,1.200000X2.000000*%
%TD*%
%TA.AperFunction,ComponentPad*%
%ADD18C,1.524000*%
%TD*%
%TA.AperFunction,ComponentPad*%
%ADD19C,2.000000*%
%TD*%
%TA.AperFunction,ComponentPad*%
%ADD20O,1.600000X1.600000*%
%TD*%
%TA.AperFunction,ComponentPad*%
%ADD21C,1.600000*%
%TD*%
%TA.AperFunction,ComponentPad*%
%ADD22R,1.050000X1.500000*%
%TD*%
%TA.AperFunction,ComponentPad*%
%ADD23O,1.050000X1.500000*%
%TD*%
%TA.AperFunction,ComponentPad*%
%ADD24R,2.000000X2.000000*%
%TD*%
%TA.AperFunction,ComponentPad*%
%ADD25C,2.400000*%
%TD*%
%TA.AperFunction,ComponentPad*%
%ADD26O,1.700000X1.700000*%
%TD*%
%TA.AperFunction,ComponentPad*%
%ADD27R,1.700000X1.700000*%
%TD*%
%TA.AperFunction,ComponentPad*%
%ADD28O,2.400000X2.400000*%
%TD*%
%TA.AperFunction,ComponentPad*%
%ADD29R,2.400000X2.400000*%
%TD*%
%TA.AperFunction,ComponentPad*%
%ADD30C,1.800000*%
%TD*%
%TA.AperFunction,ComponentPad*%
%ADD31R,1.800000X1.800000*%
%TD*%
%TA.AperFunction,Conductor*%
%ADD32C,2.000000*%
%TD*%
%TA.AperFunction,Conductor*%
%ADD33C,0.250000*%
%TD*%
%TA.AperFunction,Conductor*%
%ADD34C,0.500000*%
%TD*%
%TA.AperFunction,Conductor*%
%ADD35C,0.254000*%
%TD*%
%TA.AperFunction,Conductor*%
%ADD36C,0.100000*%
%TD*%
G04 APERTURE END LIST*
D10*
%TO.P,WAGO 236-403,3*%
%TO.N,Net-(PS1-Pad2)*%
X87250000Y-64000000D03*
X92250000Y-64000000D03*
%TO.P,WAGO 236-403,2*%
%TO.N,N/C*%
X87250000Y-59000000D03*
X92250000Y-59000000D03*
D11*
%TO.P,WAGO 236-403,1*%
%TO.N,Net-(PS1-Pad1)*%
X87250000Y-54000000D03*
X92250000Y-54000000D03*
%TD*%
D12*
%TO.P,IRM-30-12,4*%
%TO.N,Net-(PS1-Pad1)*%
X102100000Y-53950000D03*
D13*
%TO.P,IRM-30-12,1*%
%TO.N,+12V*%
X163600000Y-63050000D03*
D12*
%TO.P,IRM-30-12,3*%
%TO.N,Net-(PS1-Pad2)*%
X102100000Y-59350000D03*
%TO.P,IRM-30-12,2*%
%TO.N,GND*%
X163600000Y-54050000D03*
%TD*%
D14*
%TO.P,U2,1*%
%TO.N,/VCC*%
X135000000Y-92750000D03*
%TO.P,U2,2*%
%TO.N,GND*%
X133000000Y-92750000D03*
D15*
%TO.P,U2,3*%
%TO.N,/13*%
X131000000Y-92750000D03*
%TO.P,U2,4*%
%TO.N,/12*%
X129000000Y-92750000D03*
%TO.P,U2,5*%
%TO.N,/11*%
X127000000Y-92750000D03*
%TO.P,U2,6*%
%TO.N,Net-(U2-Pad6)*%
X125000000Y-92750000D03*
%TO.P,U2,7*%
%TO.N,/2*%
X123000000Y-92750000D03*
%TO.P,U2,8*%
%TO.N,/10*%
X121000000Y-92750000D03*
D16*
%TO.P,U2,*%
%TO.N,*%
X126984000Y-110276000D03*
D17*
%TO.P,U2,1*%
%TO.N,/VCC*%
X135000000Y-91750000D03*
%TO.P,U2,2*%
%TO.N,GND*%
X133000000Y-91750000D03*
%TO.P,U2,3*%
%TO.N,/13*%
X131000000Y-91750000D03*
%TO.P,U2,4*%
%TO.N,/12*%
X129000000Y-91750000D03*
%TO.P,U2,5*%
%TO.N,/11*%
X127000000Y-91750000D03*
%TO.P,U2,6*%
%TO.N,Net-(U2-Pad6)*%
X125000000Y-91750000D03*
%TO.P,U2,7*%
%TO.N,/2*%
X123000000Y-91750000D03*
%TO.P,U2,8*%
%TO.N,/10*%
X121000000Y-91750000D03*
%TD*%
D18*
%TO.P,U1,TXD*%
%TO.N,Net-(U1-PadTXD)*%
X87800000Y-108370000D03*
%TO.P,U1,RXD*%
%TO.N,Net-(U1-PadRXD)*%
X90340000Y-108370000D03*
%TO.P,U1,RST*%
%TO.N,Net-(U1-PadRST)*%
X92880000Y-108370000D03*
%TO.P,U1,GND*%
%TO.N,GND*%
X95420000Y-108370000D03*
%TO.P,U1,2*%
%TO.N,/2*%
X97960000Y-108370000D03*
%TO.P,U1,3*%
%TO.N,Net-(U1-Pad3)*%
X100500000Y-108370000D03*
%TO.P,U1,4*%
%TO.N,/4*%
X103040000Y-108370000D03*
%TO.P,U1,5*%
%TO.N,/5*%
X105580000Y-108370000D03*
%TO.P,U1,6*%
%TO.N,/6*%
X108120000Y-108370000D03*
%TO.P,U1,7*%
%TO.N,/7*%
X110660000Y-108370000D03*
%TO.P,U1,8*%
%TO.N,/8*%
X113200000Y-108370000D03*
%TO.P,U1,9*%
%TO.N,/9*%
X115740000Y-108370000D03*
%TO.P,U1,10*%
%TO.N,/10*%
X115740000Y-93130000D03*
%TO.P,U1,11*%
%TO.N,/11*%
X113200000Y-93130000D03*
%TO.P,U1,12*%
%TO.N,/12*%
X110660000Y-93130000D03*
%TO.P,U1,13*%
%TO.N,/13*%
X108120000Y-93130000D03*
%TO.P,U1,A0*%
%TO.N,/A0*%
X105580000Y-93130000D03*
%TO.P,U1,A1*%
%TO.N,/A1*%
X103040000Y-93130000D03*
%TO.P,U1,A2*%
%TO.N,/A2*%
X100500000Y-93130000D03*
%TO.P,U1,A3*%
%TO.N,/A3*%
X97960000Y-93130000D03*
%TO.P,U1,VCC*%
%TO.N,/VCC*%
X95420000Y-93130000D03*
%TO.P,U1,RST*%
%TO.N,Net-(U1-PadRST)*%
X92880000Y-93130000D03*
%TO.P,U1,GND*%
%TO.N,GND*%
X90340000Y-93130000D03*
%TO.P,U1,RAW*%
%TO.N,+5V*%
X87800000Y-93130000D03*
%TD*%
D19*
%TO.P,SW1,1*%
%TO.N,/8*%
X90750000Y-113500000D03*
%TO.P,SW1,2*%
%TO.N,GND*%
X90750000Y-118000000D03*
%TO.P,SW1,1*%
%TO.N,/8*%
X84250000Y-113500000D03*
%TO.P,SW1,2*%
%TO.N,GND*%
X84250000Y-118000000D03*
%TD*%
D20*
%TO.P,R9,2*%
%TO.N,/4*%
X103000000Y-113210000D03*
D21*
%TO.P,R9,1*%
%TO.N,Net-(D5-Pad2)*%
X103000000Y-115750000D03*
%TD*%
D20*
%TO.P,R8,2*%
%TO.N,Net-(Q4-Pad2)*%
X148540000Y-91000000D03*
D21*
%TO.P,R8,1*%
%TO.N,/A3*%
X146000000Y-91000000D03*
%TD*%
D20*
%TO.P,R7,2*%
%TO.N,+5V*%
X142750000Y-91000000D03*
D21*
%TO.P,R7,1*%
%TO.N,Net-(D4-Pad2)*%
X140210000Y-91000000D03*
%TD*%
D20*
%TO.P,R6,2*%
%TO.N,Net-(Q3-Pad2)*%
X148540000Y-100750000D03*
D21*
%TO.P,R6,1*%
%TO.N,/A2*%
X146000000Y-100750000D03*
%TD*%
D20*
%TO.P,R5,2*%
%TO.N,+5V*%
X142790000Y-100750000D03*
D21*
%TO.P,R5,1*%
%TO.N,Net-(D3-Pad2)*%
X140250000Y-100750000D03*
%TD*%
D20*
%TO.P,R4,2*%
%TO.N,Net-(Q2-Pad2)*%
X148540000Y-110500000D03*
D21*
%TO.P,R4,1*%
%TO.N,/A1*%
X146000000Y-110500000D03*
%TD*%
D20*
%TO.P,R3,2*%
%TO.N,+5V*%
X142790000Y-110500000D03*
D21*
%TO.P,R3,1*%
%TO.N,Net-(D2-Pad2)*%
X140250000Y-110500000D03*
%TD*%
D20*
%TO.P,R2,2*%
%TO.N,Net-(Q1-Pad2)*%
X148500000Y-120250000D03*
D21*
%TO.P,R2,1*%
%TO.N,/A0*%
X145960000Y-120250000D03*
%TD*%
D20*
%TO.P,R1,2*%
%TO.N,+5V*%
X142790000Y-120250000D03*
D21*
%TO.P,R1,1*%
%TO.N,Net-(D1-Pad2)*%
X140250000Y-120250000D03*
%TD*%
D22*
%TO.P,Q4,1*%
%TO.N,Net-(D4-Pad1)*%
X145750000Y-95500000D03*
D23*
%TO.P,Q4,3*%
%TO.N,GND*%
X148290000Y-95500000D03*
%TO.P,Q4,2*%
%TO.N,Net-(Q4-Pad2)*%
X147020000Y-95500000D03*
%TD*%
D22*
%TO.P,Q3,1*%
%TO.N,Net-(D3-Pad1)*%
X145750000Y-105250000D03*
D23*
%TO.P,Q3,3*%
%TO.N,GND*%
X148290000Y-105250000D03*
%TO.P,Q3,2*%
%TO.N,Net-(Q3-Pad2)*%
X147020000Y-105250000D03*
%TD*%
D22*
%TO.P,Q2,1*%
%TO.N,Net-(D2-Pad1)*%
X145750000Y-115000000D03*
D23*
%TO.P,Q2,3*%
%TO.N,GND*%
X148290000Y-115000000D03*
%TO.P,Q2,2*%
%TO.N,Net-(Q2-Pad2)*%
X147020000Y-115000000D03*
%TD*%
D22*
%TO.P,Q1,1*%
%TO.N,Net-(D1-Pad1)*%
X145750000Y-124750000D03*
D23*
%TO.P,Q1,3*%
%TO.N,GND*%
X148290000Y-124750000D03*
%TO.P,Q1,2*%
%TO.N,Net-(Q1-Pad2)*%
X147020000Y-124750000D03*
%TD*%
D19*
%TO.P,K4,A2*%
%TO.N,+5V*%
X151500000Y-91000000D03*
D24*
%TO.P,K4,A1*%
%TO.N,Net-(D4-Pad1)*%
X155250000Y-91000000D03*
D25*
%TO.P,K4,12*%
%TO.N,Net-(K4-Pad12)*%
X166500000Y-91000000D03*
%TO.P,K4,11*%
%TO.N,+12V*%
X171500000Y-91000000D03*
%TO.P,K4,14*%
%TO.N,Net-(J5-Pad1)*%
X176500000Y-91000000D03*
%TD*%
D19*
%TO.P,K3,A2*%
%TO.N,+5V*%
X151500000Y-100750000D03*
D24*
%TO.P,K3,A1*%
%TO.N,Net-(D3-Pad1)*%
X155250000Y-100750000D03*
D25*
%TO.P,K3,12*%
%TO.N,Net-(K3-Pad12)*%
X166500000Y-100750000D03*
%TO.P,K3,11*%
%TO.N,+12V*%
X171500000Y-100750000D03*
%TO.P,K3,14*%
%TO.N,Net-(J4-Pad1)*%
X176500000Y-100750000D03*
%TD*%
D19*
%TO.P,K2,A2*%
%TO.N,+5V*%
X151500000Y-110500000D03*
D24*
%TO.P,K2,A1*%
%TO.N,Net-(D2-Pad1)*%
X155250000Y-110500000D03*
D25*
%TO.P,K2,12*%
%TO.N,Net-(K2-Pad12)*%
X166500000Y-110500000D03*
%TO.P,K2,11*%
%TO.N,+12V*%
X171500000Y-110500000D03*
%TO.P,K2,14*%
%TO.N,Net-(J3-Pad1)*%
X176500000Y-110500000D03*
%TD*%
D19*
%TO.P,K1,A2*%
%TO.N,+5V*%
X151500000Y-120250000D03*
D24*
%TO.P,K1,A1*%
%TO.N,Net-(D1-Pad1)*%
X155250000Y-120250000D03*
D25*
%TO.P,K1,12*%
%TO.N,Net-(K1-Pad12)*%
X166500000Y-120250000D03*
%TO.P,K1,11*%
%TO.N,+12V*%
X171500000Y-120250000D03*
%TO.P,K1,14*%
%TO.N,Net-(J2-Pad1)*%
X176500000Y-120250000D03*
%TD*%
D26*
%TO.P,J6,8*%
%TO.N,GND*%
X115620000Y-116290000D03*
%TO.P,J6,7*%
%TO.N,/9*%
X115620000Y-113750000D03*
%TO.P,J6,6*%
%TO.N,GND*%
X113080000Y-116290000D03*
%TO.P,J6,5*%
%TO.N,/7*%
X113080000Y-113750000D03*
%TO.P,J6,4*%
%TO.N,GND*%
X110540000Y-116290000D03*
%TO.P,J6,3*%
%TO.N,/6*%
X110540000Y-113750000D03*
%TO.P,J6,2*%
%TO.N,GND*%
X108000000Y-116290000D03*
%TO.P,J6,1*%
%TO.N,/5*%
X108000000Y-113750000D03*
%TD*%
%TO.P,Pump4,2*%
%TO.N,GND*%
X180750000Y-93540000D03*
D27*
%TO.P,Pump4,1*%
%TO.N,Net-(J5-Pad1)*%
X180750000Y-91000000D03*
%TD*%
D26*
%TO.P,Pump3,2*%
%TO.N,GND*%
X181000000Y-103290000D03*
D27*
%TO.P,Pump3,1*%
%TO.N,Net-(J4-Pad1)*%
X181000000Y-100750000D03*
%TD*%
D26*
%TO.P,Pump2,2*%
%TO.N,GND*%
X181000000Y-113000000D03*
D27*
%TO.P,Pump2,1*%
%TO.N,Net-(J3-Pad1)*%
X181000000Y-110460000D03*
%TD*%
D26*
%TO.P,Pump1,2*%
%TO.N,GND*%
X180750000Y-122790000D03*
D27*
%TO.P,Pump1,1*%
%TO.N,Net-(J2-Pad1)*%
X180750000Y-120250000D03*
%TD*%
D26*
%TO.P,J1,4*%
%TO.N,Net-(J1-Pad4)*%
X178120000Y-54000000D03*
D27*
%TO.P,J1,3*%
%TO.N,+12V*%
X175580000Y-54000000D03*
D26*
%TO.P,J1,2*%
%TO.N,GND*%
X173040000Y-54000000D03*
D27*
%TO.P,J1,1*%
%TO.N,+5V*%
X170500000Y-54000000D03*
%TD*%
D28*
%TO.P,D9,2*%
%TO.N,Net-(D4-Pad1)*%
X161750000Y-97000000D03*
D29*
%TO.P,D9,1*%
%TO.N,+5V*%
X151590000Y-97000000D03*
%TD*%
D28*
%TO.P,D8,2*%
%TO.N,Net-(D3-Pad1)*%
X161750000Y-106750000D03*
D29*
%TO.P,D8,1*%
%TO.N,+5V*%
X151590000Y-106750000D03*
%TD*%
D28*
%TO.P,D7,2*%
%TO.N,Net-(D2-Pad1)*%
X161750000Y-116500000D03*
D29*
%TO.P,D7,1*%
%TO.N,+5V*%
X151590000Y-116500000D03*
%TD*%
D28*
%TO.P,D6,2*%
%TO.N,Net-(D1-Pad1)*%
X161660000Y-126500000D03*
D29*
%TO.P,D6,1*%
%TO.N,+5V*%
X151500000Y-126500000D03*
%TD*%
D30*
%TO.P,D5,2*%
%TO.N,Net-(D5-Pad2)*%
X97540000Y-115750000D03*
D31*
%TO.P,D5,1*%
%TO.N,GND*%
X95000000Y-115750000D03*
%TD*%
D30*
%TO.P,D4,2*%
%TO.N,Net-(D4-Pad2)*%
X140500000Y-94460000D03*
D31*
%TO.P,D4,1*%
%TO.N,Net-(D4-Pad1)*%
X140500000Y-97000000D03*
%TD*%
D30*
%TO.P,D3,2*%
%TO.N,Net-(D3-Pad2)*%
X140500000Y-104210000D03*
D31*
%TO.P,D3,1*%
%TO.N,Net-(D3-Pad1)*%
X140500000Y-106750000D03*
%TD*%
D30*
%TO.P,D2,2*%
%TO.N,Net-(D2-Pad2)*%
X140500000Y-113960000D03*
D31*
%TO.P,D2,1*%
%TO.N,Net-(D2-Pad1)*%
X140500000Y-116500000D03*
%TD*%
D30*
%TO.P,D1,2*%
%TO.N,Net-(D1-Pad2)*%
X140500000Y-123710000D03*
D31*
%TO.P,D1,1*%
%TO.N,Net-(D1-Pad1)*%
X140500000Y-126250000D03*
%TD*%
D32*
%TO.N,*%
X88000000Y-59000000D02*
X93000000Y-59000000D01*
D33*
%TO.N,Net-(D1-Pad2)*%
X140250000Y-123460000D02*
X140500000Y-123710000D01*
X140250000Y-120250000D02*
X140250000Y-123460000D01*
%TO.N,Net-(D1-Pad1)*%
X144250000Y-126250000D02*
X145750000Y-124750000D01*
X140500000Y-126250000D02*
X144250000Y-126250000D01*
X155410000Y-120250000D02*
X161660000Y-126500000D01*
X155250000Y-120250000D02*
X155410000Y-120250000D01*
%TO.N,Net-(D2-Pad2)*%
X140250000Y-113710000D02*
X140500000Y-113960000D01*
X140250000Y-110500000D02*
X140250000Y-113710000D01*
%TO.N,Net-(D2-Pad1)*%
X144250000Y-116500000D02*
X145750000Y-115000000D01*
X140500000Y-116500000D02*
X144250000Y-116500000D01*
X155750000Y-110500000D02*
X161750000Y-116500000D01*
X155250000Y-110500000D02*
X155750000Y-110500000D01*
%TO.N,Net-(D3-Pad2)*%
X140250000Y-103960000D02*
X140500000Y-104210000D01*
X140250000Y-100750000D02*
X140250000Y-103960000D01*
%TO.N,Net-(D3-Pad1)*%
X144250000Y-106750000D02*
X145750000Y-105250000D01*
X140500000Y-106750000D02*
X144250000Y-106750000D01*
X155750000Y-100750000D02*
X161750000Y-106750000D01*
X155250000Y-100750000D02*
X155750000Y-100750000D01*
%TO.N,Net-(D4-Pad2)*%
X140210000Y-94170000D02*
X140500000Y-94460000D01*
X140210000Y-91000000D02*
X140210000Y-94170000D01*
%TO.N,Net-(D4-Pad1)*%
X144250000Y-97000000D02*
X145750000Y-95500000D01*
X140500000Y-97000000D02*
X144250000Y-97000000D01*
X155750000Y-91000000D02*
X161750000Y-97000000D01*
X155250000Y-91000000D02*
X155750000Y-91000000D01*
%TO.N,Net-(D5-Pad2)*%
X97540000Y-115750000D02*
X103000000Y-115750000D01*
%TO.N,GND*%
X95420000Y-115330000D02*
X95000000Y-115750000D01*
X95420000Y-108370000D02*
X95420000Y-115330000D01*
X93000000Y-115750000D02*
X90750000Y-118000000D01*
X95000000Y-115750000D02*
X93000000Y-115750000D01*
X90750000Y-118000000D02*
X84250000Y-118000000D01*
%TO.N,+5V*%
X150374999Y-89874999D02*
X151500000Y-91000000D01*
X143875001Y-89874999D02*
X150374999Y-89874999D01*
X142750000Y-91000000D02*
X143875001Y-89874999D01*
X150374999Y-99624999D02*
X151500000Y-100750000D01*
X143915001Y-99624999D02*
X150374999Y-99624999D01*
X142790000Y-100750000D02*
X143915001Y-99624999D01*
X150374999Y-109374999D02*
X151500000Y-110500000D01*
X143915001Y-109374999D02*
X150374999Y-109374999D01*
X142790000Y-110500000D02*
X143915001Y-109374999D01*
X150374999Y-119124999D02*
X151500000Y-120250000D01*
X143915001Y-119124999D02*
X150374999Y-119124999D01*
X142790000Y-120250000D02*
X143915001Y-119124999D01*
X151500000Y-96910000D02*
X151590000Y-97000000D01*
D34*
X151500000Y-91000000D02*
X151500000Y-96910000D01*
D33*
X151590000Y-100660000D02*
X151500000Y-100750000D01*
D34*
X151590000Y-97000000D02*
X151590000Y-100660000D01*
D33*
X151500000Y-106660000D02*
X151590000Y-106750000D01*
D34*
X151500000Y-100750000D02*
X151500000Y-106660000D01*
D33*
X151590000Y-110410000D02*
X151500000Y-110500000D01*
D34*
X151590000Y-106750000D02*
X151590000Y-110410000D01*
D33*
X151500000Y-116410000D02*
X151590000Y-116500000D01*
D34*
X151500000Y-110500000D02*
X151500000Y-116410000D01*
D33*
X151590000Y-120160000D02*
X151500000Y-120250000D01*
D34*
X151590000Y-116500000D02*
X151590000Y-120160000D01*
D33*
X151500000Y-120250000D02*
X151500000Y-126500000D01*
D34*
X151500000Y-91000000D02*
X151500000Y-72064998D01*
D33*
X128930000Y-52000000D02*
X87800000Y-93130000D01*
X130430000Y-50500000D02*
X128930000Y-52000000D01*
X167000000Y-50500000D02*
X130430000Y-50500000D01*
X170500000Y-54000000D02*
X167000000Y-50500000D01*
D34*
X170500000Y-54000000D02*
X168250000Y-54000000D01*
X168250000Y-54000000D02*
X151500000Y-70750000D01*
X151500000Y-70750000D02*
X151500000Y-72064998D01*
%TO.N,Net-(J2-Pad1)*%
X176500000Y-120250000D02*
X180750000Y-120250000D01*
D33*
%TO.N,Net-(J3-Pad1)*%
X180960000Y-110500000D02*
X181000000Y-110460000D01*
D34*
X176500000Y-110500000D02*
X180960000Y-110500000D01*
%TO.N,Net-(J4-Pad1)*%
X176500000Y-100750000D02*
X181000000Y-100750000D01*
%TO.N,Net-(J5-Pad1)*%
X176500000Y-91000000D02*
X180750000Y-91000000D01*
D33*
%TO.N,/9*%
X115740000Y-113630000D02*
X115620000Y-113750000D01*
X115740000Y-108370000D02*
X115740000Y-113630000D01*
%TO.N,/7*%
X110660000Y-111330000D02*
X113080000Y-113750000D01*
X110660000Y-108370000D02*
X110660000Y-111330000D01*
%TO.N,/6*%
X108120000Y-111330000D02*
X110540000Y-113750000D01*
X108120000Y-108370000D02*
X108120000Y-111330000D01*
%TO.N,/5*%
X105580000Y-111330000D02*
X108000000Y-113750000D01*
X105580000Y-108370000D02*
X105580000Y-111330000D01*
D34*
%TO.N,+12V*%
X163600000Y-63050000D02*
X163600000Y-83100000D01*
X171500000Y-91000000D02*
X171500000Y-100750000D01*
X171500000Y-100750000D02*
X171500000Y-110500000D01*
X171500000Y-110500000D02*
X171500000Y-120250000D01*
X166530000Y-63050000D02*
X175580000Y-54000000D01*
X163600000Y-63050000D02*
X166530000Y-63050000D01*
X163600000Y-83100000D02*
X171500000Y-91000000D01*
D32*
%TO.N,Net-(PS1-Pad1)*%
X88000000Y-54000000D02*
X93000000Y-54000000D01*
D33*
X102050000Y-54000000D02*
X102100000Y-53950000D01*
D32*
X93000000Y-54000000D02*
X102050000Y-54000000D01*
%TO.N,Net-(PS1-Pad2)*%
X88000000Y-64000000D02*
X93000000Y-64000000D01*
X97450000Y-64000000D02*
X102100000Y-59350000D01*
X93000000Y-64000000D02*
X97450000Y-64000000D01*
D33*
%TO.N,Net-(Q1-Pad2)*%
X147020000Y-121730000D02*
X148500000Y-120250000D01*
X147020000Y-124750000D02*
X147020000Y-121730000D01*
%TO.N,Net-(Q2-Pad2)*%
X147020000Y-112020000D02*
X148540000Y-110500000D01*
X147020000Y-115000000D02*
X147020000Y-112020000D01*
%TO.N,Net-(Q3-Pad2)*%
X147020000Y-102270000D02*
X148540000Y-100750000D01*
X147020000Y-105250000D02*
X147020000Y-102270000D01*
%TO.N,Net-(Q4-Pad2)*%
X147020000Y-92520000D02*
X148540000Y-91000000D01*
X147020000Y-95500000D02*
X147020000Y-92520000D01*
%TO.N,/4*%
X103000000Y-108410000D02*
X103040000Y-108370000D01*
X103000000Y-113210000D02*
X103000000Y-108410000D01*
%TO.N,/8*%
X84250000Y-113500000D02*
X90750000Y-113500000D01*
X84250000Y-110311238D02*
X84250000Y-113500000D01*
X87278239Y-107282999D02*
X84250000Y-110311238D01*
X112112999Y-107282999D02*
X87278239Y-107282999D01*
X113200000Y-108370000D02*
X112112999Y-107282999D01*
%TO.N,/10*%
X120620000Y-93130000D02*
X121000000Y-92750000D01*
X115740000Y-93130000D02*
X120620000Y-93130000D01*
%TO.N,/11*%
X114287001Y-94217001D02*
X125532999Y-94217001D01*
X125532999Y-94217001D02*
X127000000Y-92750000D01*
X113200000Y-93130000D02*
X114287001Y-94217001D01*
%TO.N,/12*%
X127082990Y-94667010D02*
X129000000Y-92750000D01*
X112197010Y-94667010D02*
X127082990Y-94667010D01*
X110660000Y-93130000D02*
X112197010Y-94667010D01*
%TO.N,/13*%
X128632981Y-95117019D02*
X131000000Y-92750000D01*
X110107019Y-95117019D02*
X128632981Y-95117019D01*
X108120000Y-93130000D02*
X110107019Y-95117019D01*
%TO.N,/VCC*%
X98125001Y-90424999D02*
X95420000Y-93130000D01*
X135000000Y-90500000D02*
X134924999Y-90424999D01*
X134924999Y-90424999D02*
X98125001Y-90424999D01*
X135000000Y-91750000D02*
X135000000Y-90500000D01*
%TD*%
D35*
%TO.N,GND*%
X182590000Y-128340000D02*
X81660000Y-128340000D01*
X81660000Y-119135413D01*
X83294192Y-119135413D01*
X83389956Y-119399814D01*
X83679571Y-119540704D01*
X83991108Y-119622384D01*
X84312595Y-119641718D01*
X84631675Y-119597961D01*
X84936088Y-119492795D01*
X85110044Y-119399814D01*
X85205808Y-119135413D01*
X89794192Y-119135413D01*
X89889956Y-119399814D01*
X90179571Y-119540704D01*
X90491108Y-119622384D01*
X90812595Y-119641718D01*
X91131675Y-119597961D01*
X91436088Y-119492795D01*
X91610044Y-119399814D01*
X91705808Y-119135413D01*
X90750000Y-118179605D01*
X89794192Y-119135413D01*
X85205808Y-119135413D01*
X84250000Y-118179605D01*
X83294192Y-119135413D01*
X81660000Y-119135413D01*
X81660000Y-118062595D01*
X82608282Y-118062595D01*
X82652039Y-118381675D01*
X82757205Y-118686088D01*
X82850186Y-118860044D01*
X83114587Y-118955808D01*
X84070395Y-118000000D01*
X84429605Y-118000000D01*
X85385413Y-118955808D01*
X85649814Y-118860044D01*
X85790704Y-118570429D01*
X85872384Y-118258892D01*
X85884189Y-118062595D01*
X89108282Y-118062595D01*
X89152039Y-118381675D01*
X89257205Y-118686088D01*
X89350186Y-118860044D01*
X89614587Y-118955808D01*
X90570395Y-118000000D01*
X90929605Y-118000000D01*
X91885413Y-118955808D01*
X92149814Y-118860044D01*
X92290704Y-118570429D01*
X92372384Y-118258892D01*
X92391718Y-117937405D01*
X92347961Y-117618325D01*
X92242795Y-117313912D01*
X92149814Y-117139956D01*
X91885413Y-117044192D01*
X90929605Y-118000000D01*
X90570395Y-118000000D01*
X89614587Y-117044192D01*
X89350186Y-117139956D01*
X89209296Y-117429571D01*
X89127616Y-117741108D01*
X89108282Y-118062595D01*
X85884189Y-118062595D01*
X85891718Y-117937405D01*
X85847961Y-117618325D01*
X85742795Y-117313912D01*
X85649814Y-117139956D01*
X85385413Y-117044192D01*
X84429605Y-118000000D01*
X84070395Y-118000000D01*
X83114587Y-117044192D01*
X82850186Y-117139956D01*
X82709296Y-117429571D01*
X82627616Y-117741108D01*
X82608282Y-118062595D01*
X81660000Y-118062595D01*
X81660000Y-116864587D01*
X83294192Y-116864587D01*
X84250000Y-117820395D01*
X85205808Y-116864587D01*
X89794192Y-116864587D01*
X90750000Y-117820395D01*
X91705808Y-116864587D01*
X91628087Y-116650000D01*
X93461928Y-116650000D01*
X93474188Y-116774482D01*
X93510498Y-116894180D01*
X93569463Y-117004494D01*
X93648815Y-117101185D01*
X93745506Y-117180537D01*
X93855820Y-117239502D01*
X93975518Y-117275812D01*
X94100000Y-117288072D01*
X94714250Y-117285000D01*
X94873000Y-117126250D01*
X94873000Y-115877000D01*
X93623750Y-115877000D01*
X93465000Y-116035750D01*
X93461928Y-116650000D01*
X91628087Y-116650000D01*
X91610044Y-116600186D01*
X91320429Y-116459296D01*
X91008892Y-116377616D01*
X90687405Y-116358282D01*
X90368325Y-116402039D01*
X90063912Y-116507205D01*
X89889956Y-116600186D01*
X89794192Y-116864587D01*
X85205808Y-116864587D01*
X85110044Y-116600186D01*
X84820429Y-116459296D01*
X84508892Y-116377616D01*
X84187405Y-116358282D01*
X83868325Y-116402039D01*
X83563912Y-116507205D01*
X83389956Y-116600186D01*
X83294192Y-116864587D01*
X81660000Y-116864587D01*
X81660000Y-113338967D01*
X82615000Y-113338967D01*
X82615000Y-113661033D01*
X82677832Y-113976912D01*
X82801082Y-114274463D01*
X82980013Y-114542252D01*
X83207748Y-114769987D01*
X83475537Y-114948918D01*
X83773088Y-115072168D01*
X84088967Y-115135000D01*
X84411033Y-115135000D01*
X84726912Y-115072168D01*
X85024463Y-114948918D01*
X85292252Y-114769987D01*
X85519987Y-114542252D01*
X85698918Y-114274463D01*
X85704909Y-114260000D01*
X89295091Y-114260000D01*
X89301082Y-114274463D01*
X89480013Y-114542252D01*
X89707748Y-114769987D01*
X89975537Y-114948918D01*
X90273088Y-115072168D01*
X90588967Y-115135000D01*
X90911033Y-115135000D01*
X91226912Y-115072168D01*
X91524463Y-114948918D01*
X91672504Y-114850000D01*
X93461928Y-114850000D01*
X93465000Y-115464250D01*
X93623750Y-115623000D01*
X94873000Y-115623000D01*
X94873000Y-114373750D01*
X94714250Y-114215000D01*
X94100000Y-114211928D01*
X93975518Y-114224188D01*
X93855820Y-114260498D01*
X93745506Y-114319463D01*
X93648815Y-114398815D01*
X93569463Y-114495506D01*
X93510498Y-114605820D01*
X93474188Y-114725518D01*
X93461928Y-114850000D01*
X91672504Y-114850000D01*
X91792252Y-114769987D01*
X92019987Y-114542252D01*
X92198918Y-114274463D01*
X92322168Y-113976912D01*
X92385000Y-113661033D01*
X92385000Y-113338967D01*
X92322168Y-113023088D01*
X92198918Y-112725537D01*
X92019987Y-112457748D01*
X91792252Y-112230013D01*
X91524463Y-112051082D01*
X91226912Y-111927832D01*
X90911033Y-111865000D01*
X90588967Y-111865000D01*
X90273088Y-111927832D01*
X89975537Y-112051082D01*
X89707748Y-112230013D01*
X89480013Y-112457748D01*
X89301082Y-112725537D01*
X89295091Y-112740000D01*
X85704909Y-112740000D01*
X85698918Y-112725537D01*
X85519987Y-112457748D01*
X85292252Y-112230013D01*
X85024463Y-112051082D01*
X85010000Y-112045091D01*
X85010000Y-110626039D01*
X86578945Y-109057095D01*
X86714880Y-109260535D01*
X86909465Y-109455120D01*
X87138273Y-109608005D01*
X87392510Y-109713314D01*
X87662408Y-109767000D01*
X87937592Y-109767000D01*
X88207490Y-109713314D01*
X88461727Y-109608005D01*
X88690535Y-109455120D01*
X88885120Y-109260535D01*
X89038005Y-109031727D01*
X89070000Y-108954485D01*
X89101995Y-109031727D01*
X89254880Y-109260535D01*
X89449465Y-109455120D01*
X89678273Y-109608005D01*
X89932510Y-109713314D01*
X90202408Y-109767000D01*
X90477592Y-109767000D01*
X90747490Y-109713314D01*
X91001727Y-109608005D01*
X91230535Y-109455120D01*
X91425120Y-109260535D01*
X91578005Y-109031727D01*
X91610000Y-108954485D01*
X91641995Y-109031727D01*
X91794880Y-109260535D01*
X91989465Y-109455120D01*
X92218273Y-109608005D01*
X92472510Y-109713314D01*
X92742408Y-109767000D01*
X93017592Y-109767000D01*
X93287490Y-109713314D01*
X93541727Y-109608005D01*
X93770535Y-109455120D01*
X93890090Y-109335565D01*
X94634040Y-109335565D01*
X94701020Y-109575656D01*
X94950048Y-109692756D01*
X95217135Y-109759023D01*
X95492017Y-109771910D01*
X95764133Y-109730922D01*
X96023023Y-109637636D01*
X96138980Y-109575656D01*
X96205960Y-109335565D01*
X95420000Y-108549605D01*
X94634040Y-109335565D01*
X93890090Y-109335565D01*
X93965120Y-109260535D01*
X94118005Y-109031727D01*
X94147692Y-108960057D01*
X94152364Y-108973023D01*
X94214344Y-109088980D01*
X94454435Y-109155960D01*
X95240395Y-108370000D01*
X95226253Y-108355858D01*
X95405858Y-108176253D01*
X95420000Y-108190395D01*
X95434143Y-108176253D01*
X95613748Y-108355858D01*
X95599605Y-108370000D01*
X96385565Y-109155960D01*
X96625656Y-109088980D01*
X96689485Y-108953240D01*
X96721995Y-109031727D01*
X96874880Y-109260535D01*
X97069465Y-109455120D01*
X97298273Y-109608005D01*
X97552510Y-109713314D01*
X97822408Y-109767000D01*
X98097592Y-109767000D01*
X98367490Y-109713314D01*
X98621727Y-109608005D01*
X98850535Y-109455120D01*
X99045120Y-109260535D01*
X99198005Y-109031727D01*
X99230000Y-108954485D01*
X99261995Y-109031727D01*
X99414880Y-109260535D01*
X99609465Y-109455120D01*
X99838273Y-109608005D01*
X100092510Y-109713314D01*
X100362408Y-109767000D01*
X100637592Y-109767000D01*
X100907490Y-109713314D01*
X101161727Y-109608005D01*
X101390535Y-109455120D01*
X101585120Y-109260535D01*
X101738005Y-109031727D01*
X101770000Y-108954485D01*
X101801995Y-109031727D01*
X101954880Y-109260535D01*
X102149465Y-109455120D01*
X102240001Y-109515614D01*
X102240000Y-111991956D01*
X102085241Y-112095363D01*
X101885363Y-112295241D01*
X101728320Y-112530273D01*
X101620147Y-112791426D01*
X101565000Y-113068665D01*
X101565000Y-113351335D01*
X101620147Y-113628574D01*
X101728320Y-113889727D01*
X101885363Y-114124759D01*
X102085241Y-114324637D01*
X102317759Y-114480000D01*
X102085241Y-114635363D01*
X101885363Y-114835241D01*
X101781957Y-114990000D01*
X98878313Y-114990000D01*
X98732312Y-114771495D01*
X98518505Y-114557688D01*
X98267095Y-114389701D01*
X97987743Y-114273989D01*
X97691184Y-114215000D01*
X97388816Y-114215000D01*
X97092257Y-114273989D01*
X96812905Y-114389701D01*
X96561495Y-114557688D01*
X96495056Y-114624127D01*
X96489502Y-114605820D01*
X96430537Y-114495506D01*
X96351185Y-114398815D01*
X96254494Y-114319463D01*
X96144180Y-114260498D01*
X96024482Y-114224188D01*
X95900000Y-114211928D01*
X95285750Y-114215000D01*
X95127000Y-114373750D01*
X95127000Y-115623000D01*
X95147000Y-115623000D01*
X95147000Y-115877000D01*
X95127000Y-115877000D01*
X95127000Y-117126250D01*
X95285750Y-117285000D01*
X95900000Y-117288072D01*
X96024482Y-117275812D01*
X96144180Y-117239502D01*
X96254494Y-117180537D01*
X96351185Y-117101185D01*
X96430537Y-117004494D01*
X96489502Y-116894180D01*
X96495056Y-116875873D01*
X96561495Y-116942312D01*
X96812905Y-117110299D01*
X97092257Y-117226011D01*
X97388816Y-117285000D01*
X97691184Y-117285000D01*
X97987743Y-117226011D01*
X98267095Y-117110299D01*
X98518505Y-116942312D01*
X98732312Y-116728505D01*
X98878313Y-116510000D01*
X101781957Y-116510000D01*
X101885363Y-116664759D01*
X102085241Y-116864637D01*
X102320273Y-117021680D01*
X102581426Y-117129853D01*
X102858665Y-117185000D01*
X103141335Y-117185000D01*
X103418574Y-117129853D01*
X103679727Y-117021680D01*
X103914759Y-116864637D01*
X104114637Y-116664759D01*
X104126575Y-116646891D01*
X106558519Y-116646891D01*
X106655843Y-116921252D01*
X106804822Y-117171355D01*
X106999731Y-117387588D01*
X107233080Y-117561641D01*
X107495901Y-117686825D01*
X107643110Y-117731476D01*
X107873000Y-117610155D01*
X107873000Y-116417000D01*
X108127000Y-116417000D01*
X108127000Y-117610155D01*
X108356890Y-117731476D01*
X108504099Y-117686825D01*
X108766920Y-117561641D01*
X109000269Y-117387588D01*
X109195178Y-117171355D01*
X109270000Y-117045745D01*
X109344822Y-117171355D01*
X109539731Y-117387588D01*
X109773080Y-117561641D01*
X110035901Y-117686825D01*
X110183110Y-117731476D01*
X110413000Y-117610155D01*
X110413000Y-116417000D01*
X110667000Y-116417000D01*
X110667000Y-117610155D01*
X110896890Y-117731476D01*
X111044099Y-117686825D01*
X111306920Y-117561641D01*
X111540269Y-117387588D01*
X111735178Y-117171355D01*
X111810000Y-117045745D01*
X111884822Y-117171355D01*
X112079731Y-117387588D01*
X112313080Y-117561641D01*
X112575901Y-117686825D01*
X112723110Y-117731476D01*
X112953000Y-117610155D01*
X112953000Y-116417000D01*
X113207000Y-116417000D01*
X113207000Y-117610155D01*
X113436890Y-117731476D01*
X113584099Y-117686825D01*
X113846920Y-117561641D01*
X114080269Y-117387588D01*
X114275178Y-117171355D01*
X114350000Y-117045745D01*
X114424822Y-117171355D01*
X114619731Y-117387588D01*
X114853080Y-117561641D01*
X115115901Y-117686825D01*
X115263110Y-117731476D01*
X115493000Y-117610155D01*
X115493000Y-116417000D01*
X115747000Y-116417000D01*
X115747000Y-117610155D01*
X115976890Y-117731476D01*
X116124099Y-117686825D01*
X116386920Y-117561641D01*
X116620269Y-117387588D01*
X116815178Y-117171355D01*
X116964157Y-116921252D01*
X117061481Y-116646891D01*
X116940814Y-116417000D01*
X115747000Y-116417000D01*
X115493000Y-116417000D01*
X113207000Y-116417000D01*
X112953000Y-116417000D01*
X110667000Y-116417000D01*
X110413000Y-116417000D01*
X108127000Y-116417000D01*
X107873000Y-116417000D01*
X106679186Y-116417000D01*
X106558519Y-116646891D01*
X104126575Y-116646891D01*
X104271680Y-116429727D01*
X104379853Y-116168574D01*
X104435000Y-115891335D01*
X104435000Y-115608665D01*
X104379853Y-115331426D01*
X104271680Y-115070273D01*
X104114637Y-114835241D01*
X103914759Y-114635363D01*
X103682241Y-114480000D01*
X103914759Y-114324637D01*
X104114637Y-114124759D01*
X104271680Y-113889727D01*
X104379853Y-113628574D01*
X104435000Y-113351335D01*
X104435000Y-113068665D01*
X104379853Y-112791426D01*
X104271680Y-112530273D01*
X104114637Y-112295241D01*
X103914759Y-112095363D01*
X103760000Y-111991957D01*
X103760000Y-109569068D01*
X103930535Y-109455120D01*
X104125120Y-109260535D01*
X104278005Y-109031727D01*
X104310000Y-108954485D01*
X104341995Y-109031727D01*
X104494880Y-109260535D01*
X104689465Y-109455120D01*
X104820000Y-109542341D01*
X104820001Y-111292668D01*
X104816324Y-111330000D01*
X104820001Y-111367333D01*
X104830998Y-111478986D01*
X104840102Y-111508998D01*
X104874454Y-111622246D01*
X104945026Y-111754276D01*
X105016201Y-111841002D01*
X105040000Y-111870001D01*
X105068998Y-111893799D01*
X106558790Y-113383592D01*
X106515000Y-113603740D01*
X106515000Y-113896260D01*
X106572068Y-114183158D01*
X106684010Y-114453411D01*
X106846525Y-114696632D01*
X107053368Y-114903475D01*
X107229406Y-115021100D01*
X106999731Y-115192412D01*
X106804822Y-115408645D01*
X106655843Y-115658748D01*
X106558519Y-115933109D01*
X106679186Y-116163000D01*
X107873000Y-116163000D01*
X107873000Y-116143000D01*
X108127000Y-116143000D01*
X108127000Y-116163000D01*
X110413000Y-116163000D01*
X110413000Y-116143000D01*
X110667000Y-116143000D01*
X110667000Y-116163000D01*
X112953000Y-116163000D01*
X112953000Y-116143000D01*
X113207000Y-116143000D01*
X113207000Y-116163000D01*
X115493000Y-116163000D01*
X115493000Y-116143000D01*
X115747000Y-116143000D01*
X115747000Y-116163000D01*
X116940814Y-116163000D01*
X117061481Y-115933109D01*
X116964157Y-115658748D01*
X116815178Y-115408645D01*
X116620269Y-115192412D01*
X116390594Y-115021100D01*
X116566632Y-114903475D01*
X116773475Y-114696632D01*
X116935990Y-114453411D01*
X117047932Y-114183158D01*
X117105000Y-113896260D01*
X117105000Y-113603740D01*
X117047932Y-113316842D01*
X116935990Y-113046589D01*
X116773475Y-112803368D01*
X116566632Y-112596525D01*
X116500000Y-112552003D01*
X116500000Y-110050947D01*
X124699000Y-110050947D01*
X124699000Y-110501053D01*
X124786811Y-110942510D01*
X124959059Y-111358353D01*
X125209125Y-111732603D01*
X125527397Y-112050875D01*
X125901647Y-112300941D01*
X126317490Y-112473189D01*
X126758947Y-112561000D01*
X127209053Y-112561000D01*
X127650510Y-112473189D01*
X128066353Y-112300941D01*
X128440603Y-112050875D01*
X128758875Y-111732603D01*
X129008941Y-111358353D01*
X129181189Y-110942510D01*
X129269000Y-110501053D01*
X129269000Y-110050947D01*
X129181189Y-109609490D01*
X129008941Y-109193647D01*
X128758875Y-108819397D01*
X128440603Y-108501125D01*
X128066353Y-108251059D01*
X127650510Y-108078811D01*
X127209053Y-107991000D01*
X126758947Y-107991000D01*
X126317490Y-108078811D01*
X125901647Y-108251059D01*
X125527397Y-108501125D01*
X125209125Y-108819397D01*
X124959059Y-109193647D01*
X124786811Y-109609490D01*
X124699000Y-110050947D01*
X116500000Y-110050947D01*
X116500000Y-109542341D01*
X116630535Y-109455120D01*
X116825120Y-109260535D01*
X116978005Y-109031727D01*
X117083314Y-108777490D01*
X117137000Y-108507592D01*
X117137000Y-108232408D01*
X117083314Y-107962510D01*
X116978005Y-107708273D01*
X116825120Y-107479465D01*
X116630535Y-107284880D01*
X116401727Y-107131995D01*
X116147490Y-107026686D01*
X115877592Y-106973000D01*
X115602408Y-106973000D01*
X115332510Y-107026686D01*
X115078273Y-107131995D01*
X114849465Y-107284880D01*
X114654880Y-107479465D01*
X114501995Y-107708273D01*
X114470000Y-107785515D01*
X114438005Y-107708273D01*
X114285120Y-107479465D01*
X114090535Y-107284880D01*
X113861727Y-107131995D01*
X113607490Y-107026686D01*
X113337592Y-106973000D01*
X113062408Y-106973000D01*
X112908429Y-107003628D01*
X112676803Y-106772001D01*
X112653000Y-106742998D01*
X112537275Y-106648025D01*
X112405246Y-106577453D01*
X112261985Y-106533996D01*
X112150332Y-106522999D01*
X112150321Y-106522999D01*
X112112999Y-106519323D01*
X112075677Y-106522999D01*
X87315564Y-106522999D01*
X87278239Y-106519323D01*
X87240914Y-106522999D01*
X87240906Y-106522999D01*
X87129253Y-106533996D01*
X86985992Y-106577453D01*
X86853963Y-106648025D01*
X86738238Y-106742998D01*
X86714440Y-106771996D01*
X83739003Y-109747434D01*
X83709999Y-109771237D01*
X83669757Y-109820273D01*
X83615026Y-109886962D01*
X83588707Y-109936201D01*
X83544454Y-110018992D01*
X83500997Y-110162253D01*
X83490000Y-110273906D01*
X83490000Y-110273916D01*
X83486324Y-110311238D01*
X83490000Y-110348561D01*
X83490001Y-112045091D01*
X83475537Y-112051082D01*
X83207748Y-112230013D01*
X82980013Y-112457748D01*
X82801082Y-112725537D01*
X82677832Y-113023088D01*
X82615000Y-113338967D01*
X81660000Y-113338967D01*
X81660000Y-90127000D01*
X89728199Y-90127000D01*
X88091571Y-91763628D01*
X87937592Y-91733000D01*
X87662408Y-91733000D01*
X87392510Y-91786686D01*
X87138273Y-91891995D01*
X86909465Y-92044880D01*
X86714880Y-92239465D01*
X86561995Y-92468273D01*
X86456686Y-92722510D01*
X86403000Y-92992408D01*
X86403000Y-93267592D01*
X86456686Y-93537490D01*
X86561995Y-93791727D01*
X86714880Y-94020535D01*
X86909465Y-94215120D01*
X87138273Y-94368005D01*
X87392510Y-94473314D01*
X87662408Y-94527000D01*
X87937592Y-94527000D01*
X88207490Y-94473314D01*
X88461727Y-94368005D01*
X88690535Y-94215120D01*
X88810090Y-94095565D01*
X89554040Y-94095565D01*
X89621020Y-94335656D01*
X89870048Y-94452756D01*
X90137135Y-94519023D01*
X90412017Y-94531910D01*
X90684133Y-94490922D01*
X90943023Y-94397636D01*
X91058980Y-94335656D01*
X91125960Y-94095565D01*
X90340000Y-93309605D01*
X89554040Y-94095565D01*
X88810090Y-94095565D01*
X88885120Y-94020535D01*
X89038005Y-93791727D01*
X89067692Y-93720057D01*
X89072364Y-93733023D01*
X89134344Y-93848980D01*
X89374435Y-93915960D01*
X90160395Y-93130000D01*
X90146253Y-93115858D01*
X90325858Y-92936253D01*
X90340000Y-92950395D01*
X91125960Y-92164435D01*
X91058980Y-91924344D01*
X90809952Y-91807244D01*
X90542865Y-91740977D01*
X90276320Y-91728481D01*
X91877801Y-90127000D01*
X97348198Y-90127000D01*
X95711570Y-91763628D01*
X95557592Y-91733000D01*
X95282408Y-91733000D01*
X95012510Y-91786686D01*
X94758273Y-91891995D01*
X94529465Y-92044880D01*
X94334880Y-92239465D01*
X94181995Y-92468273D01*
X94150000Y-92545515D01*
X94118005Y-92468273D01*
X93965120Y-92239465D01*
X93770535Y-92044880D01*
X93541727Y-91891995D01*
X93287490Y-91786686D01*
X93017592Y-91733000D01*
X92742408Y-91733000D01*
X92472510Y-91786686D01*
X92218273Y-91891995D01*
X91989465Y-92044880D01*
X91794880Y-92239465D01*
X91641995Y-92468273D01*
X91612308Y-92539943D01*
X91607636Y-92526977D01*
X91545656Y-92411020D01*
X91305565Y-92344040D01*
X90519605Y-93130000D01*
X91305565Y-93915960D01*
X91545656Y-93848980D01*
X91609485Y-93713240D01*
X91641995Y-93791727D01*
X91794880Y-94020535D01*
X91989465Y-94215120D01*
X92218273Y-94368005D01*
X92472510Y-94473314D01*
X92742408Y-94527000D01*
X93017592Y-94527000D01*
X93287490Y-94473314D01*
X93541727Y-94368005D01*
X93770535Y-94215120D01*
X93965120Y-94020535D01*
X94118005Y-93791727D01*
X94150000Y-93714485D01*
X94181995Y-93791727D01*
X94334880Y-94020535D01*
X94529465Y-94215120D01*
X94758273Y-94368005D01*
X95012510Y-94473314D01*
X95282408Y-94527000D01*
X95557592Y-94527000D01*
X95827490Y-94473314D01*
X96081727Y-94368005D01*
X96310535Y-94215120D01*
X96505120Y-94020535D01*
X96658005Y-93791727D01*
X96690000Y-93714485D01*
X96721995Y-93791727D01*
X96874880Y-94020535D01*
X97069465Y-94215120D01*
X97298273Y-94368005D01*
X97552510Y-94473314D01*
X97822408Y-94527000D01*
X98097592Y-94527000D01*
X98367490Y-94473314D01*
X98621727Y-94368005D01*
X98850535Y-94215120D01*
X99045120Y-94020535D01*
X99198005Y-93791727D01*
X99230000Y-93714485D01*
X99261995Y-93791727D01*
X99414880Y-94020535D01*
X99609465Y-94215120D01*
X99838273Y-94368005D01*
X100092510Y-94473314D01*
X100362408Y-94527000D01*
X100637592Y-94527000D01*
X100907490Y-94473314D01*
X101161727Y-94368005D01*
X101390535Y-94215120D01*
X101585120Y-94020535D01*
X101738005Y-93791727D01*
X101770000Y-93714485D01*
X101801995Y-93791727D01*
X101954880Y-94020535D01*
X102149465Y-94215120D01*
X102378273Y-94368005D01*
X102632510Y-94473314D01*
X102902408Y-94527000D01*
X103177592Y-94527000D01*
X103447490Y-94473314D01*
X103701727Y-94368005D01*
X103930535Y-94215120D01*
X104125120Y-94020535D01*
X104278005Y-93791727D01*
X104310000Y-93714485D01*
X104341995Y-93791727D01*
X104494880Y-94020535D01*
X104689465Y-94215120D01*
X104918273Y-94368005D01*
X105172510Y-94473314D01*
X105442408Y-94527000D01*
X105717592Y-94527000D01*
X105987490Y-94473314D01*
X106241727Y-94368005D01*
X106470535Y-94215120D01*
X106665120Y-94020535D01*
X106818005Y-93791727D01*
X106850000Y-93714485D01*
X106881995Y-93791727D01*
X107034880Y-94020535D01*
X107229465Y-94215120D01*
X107458273Y-94368005D01*
X107712510Y-94473314D01*
X107982408Y-94527000D01*
X108257592Y-94527000D01*
X108411570Y-94496372D01*
X109543220Y-95628022D01*
X109567018Y-95657020D01*
X109682743Y-95751993D01*
X109814772Y-95822565D01*
X109958033Y-95866022D01*
X110069686Y-95877019D01*
X110069695Y-95877019D01*
X110107018Y-95880695D01*
X110144341Y-95877019D01*
X128595659Y-95877019D01*
X128632981Y-95880695D01*
X128670303Y-95877019D01*
X128670314Y-95877019D01*
X128781967Y-95866022D01*
X128925228Y-95822565D01*
X129057257Y-95751993D01*
X129172982Y-95657020D01*
X129196785Y-95628016D01*
X130816434Y-94008367D01*
X130874916Y-94020000D01*
X131125084Y-94020000D01*
X131370445Y-93971195D01*
X131601571Y-93875459D01*
X131809578Y-93736473D01*
X131986473Y-93559578D01*
X132005323Y-93531368D01*
X132048982Y-93591712D01*
X132231465Y-93761073D01*
X132443483Y-93891579D01*
X132676887Y-93978215D01*
X132873000Y-93854890D01*
X132873000Y-91645110D01*
X132853000Y-91632533D01*
X132853000Y-91623000D01*
X132873000Y-91623000D01*
X132873000Y-91603000D01*
X133127000Y-91603000D01*
X133127000Y-91623000D01*
X133147000Y-91623000D01*
X133147000Y-91632533D01*
X133127000Y-91645110D01*
X133127000Y-93854890D01*
X133323113Y-93978215D01*
X133556517Y-93891579D01*
X133768535Y-93761073D01*
X133951018Y-93591712D01*
X133994677Y-93531368D01*
X134013527Y-93559578D01*
X134190422Y-93736473D01*
X134398429Y-93875459D01*
X134629555Y-93971195D01*
X134874916Y-94020000D01*
X135125084Y-94020000D01*
X135370445Y-93971195D01*
X135601571Y-93875459D01*
X135809578Y-93736473D01*
X135986473Y-93559578D01*
X136125459Y-93351571D01*
X136221195Y-93120445D01*
X136270000Y-92875084D01*
X136270000Y-92624916D01*
X136238072Y-92464402D01*
X136238072Y-90750000D01*
X136225812Y-90625518D01*
X136189502Y-90505820D01*
X136130537Y-90395506D01*
X136051185Y-90298815D01*
X135954494Y-90219463D01*
X135844180Y-90160498D01*
X135724482Y-90124188D01*
X135657345Y-90117576D01*
X135634974Y-90075724D01*
X135540001Y-89959999D01*
X135511001Y-89936199D01*
X135488801Y-89913999D01*
X135465000Y-89884998D01*
X135349275Y-89790025D01*
X135217246Y-89719453D01*
X135073985Y-89675996D01*
X134962332Y-89664999D01*
X134962321Y-89664999D01*
X134924999Y-89661323D01*
X134887677Y-89664999D01*
X117877000Y-89664999D01*
X117877000Y-64127802D01*
X126641197Y-55363605D01*
X162466000Y-55363605D01*
X162591914Y-55653577D01*
X162924126Y-55819433D01*
X163282312Y-55917290D01*
X163652706Y-55943389D01*
X164021075Y-55896725D01*
X164373262Y-55779094D01*
X164608086Y-55653577D01*
X164734000Y-55363605D01*
X163600000Y-54229605D01*
X162466000Y-55363605D01*
X126641197Y-55363605D01*
X127902096Y-54102706D01*
X161706611Y-54102706D01*
X161753275Y-54471075D01*
X161870906Y-54823262D01*
X161996423Y-55058086D01*
X162286395Y-55184000D01*
X163420395Y-54050000D01*
X163779605Y-54050000D01*
X164913605Y-55184000D01*
X165203577Y-55058086D01*
X165369433Y-54725874D01*
X165467290Y-54367688D01*
X165493389Y-53997294D01*
X165446725Y-53628925D01*
X165329094Y-53276738D01*
X165203577Y-53041914D01*
X164913605Y-52916000D01*
X163779605Y-54050000D01*
X163420395Y-54050000D01*
X162286395Y-52916000D01*
X161996423Y-53041914D01*
X161830567Y-53374126D01*
X161732710Y-53732312D01*
X161706611Y-54102706D01*
X127902096Y-54102706D01*
X129268407Y-52736395D01*
X162466000Y-52736395D01*
X163600000Y-53870395D01*
X164734000Y-52736395D01*
X164608086Y-52446423D01*
X164275874Y-52280567D01*
X163917688Y-52182710D01*
X163547294Y-52156611D01*
X163178925Y-52203275D01*
X162826738Y-52320906D01*
X162591914Y-52446423D01*
X162466000Y-52736395D01*
X129268407Y-52736395D01*
X129493799Y-52511003D01*
X129493803Y-52510998D01*
X130744802Y-51260000D01*
X166685199Y-51260000D01*
X168540198Y-53115000D01*
X168293465Y-53115000D01*
X168249999Y-53110719D01*
X168206533Y-53115000D01*
X168206523Y-53115000D01*
X168076510Y-53127805D01*
X167909687Y-53178411D01*
X167755941Y-53260589D01*
X167755939Y-53260590D01*
X167755940Y-53260590D01*
X167654953Y-53343468D01*
X167654951Y-53343470D01*
X167621183Y-53371183D01*
X167593470Y-53404951D01*
X150904956Y-70093466D01*
X150871183Y-70121183D01*
X150760589Y-70255942D01*
X150678411Y-70409688D01*
X150627805Y-70576511D01*
X150615000Y-70706524D01*
X150615000Y-70706531D01*
X150610719Y-70750000D01*
X150615000Y-70793470D01*
X150615001Y-72021521D01*
X150615000Y-89153605D01*
X150523985Y-89125996D01*
X150412332Y-89114999D01*
X150412321Y-89114999D01*
X150374999Y-89111323D01*
X150337677Y-89114999D01*
X143912326Y-89114999D01*
X143875001Y-89111323D01*
X143837676Y-89114999D01*
X143837668Y-89114999D01*
X143726015Y-89125996D01*
X143582754Y-89169453D01*
X143450725Y-89240025D01*
X143335000Y-89334998D01*
X143311202Y-89363996D01*
X143073886Y-89601312D01*
X142891335Y-89565000D01*
X142608665Y-89565000D01*
X142331426Y-89620147D01*
X142070273Y-89728320D01*
X141835241Y-89885363D01*
X141635363Y-90085241D01*
X141480000Y-90317759D01*
X141324637Y-90085241D01*
X141124759Y-89885363D01*
X140889727Y-89728320D01*
X140628574Y-89620147D01*
X140351335Y-89565000D01*
X140068665Y-89565000D01*
X139791426Y-89620147D01*
X139530273Y-89728320D01*
X139295241Y-89885363D01*
X139095363Y-90085241D01*
X138938320Y-90320273D01*
X138830147Y-90581426D01*
X138775000Y-90858665D01*
X138775000Y-91141335D01*
X138830147Y-91418574D01*
X138938320Y-91679727D01*
X139095363Y-91914759D01*
X139295241Y-92114637D01*
X139450000Y-92218044D01*
X139450001Y-93339182D01*
X139307688Y-93481495D01*
X139139701Y-93732905D01*
X139023989Y-94012257D01*
X138965000Y-94308816D01*
X138965000Y-94611184D01*
X139023989Y-94907743D01*
X139139701Y-95187095D01*
X139307688Y-95438505D01*
X139374127Y-95504944D01*
X139355820Y-95510498D01*
X139245506Y-95569463D01*
X139148815Y-95648815D01*
X139069463Y-95745506D01*
X139010498Y-95855820D01*
X138974188Y-95975518D01*
X138961928Y-96100000D01*
X138961928Y-97900000D01*
X138974188Y-98024482D01*
X139010498Y-98144180D01*
X139069463Y-98254494D01*
X139148815Y-98351185D01*
X139245506Y-98430537D01*
X139355820Y-98489502D01*
X139475518Y-98525812D01*
X139600000Y-98538072D01*
X141400000Y-98538072D01*
X141524482Y-98525812D01*
X141644180Y-98489502D01*
X141754494Y-98430537D01*
X141851185Y-98351185D01*
X141930537Y-98254494D01*
X141989502Y-98144180D01*
X142025812Y-98024482D01*
X142038072Y-97900000D01*
X142038072Y-97760000D01*
X144212678Y-97760000D01*
X144250000Y-97763676D01*
X144287322Y-97760000D01*
X144287333Y-97760000D01*
X144398986Y-97749003D01*
X144542247Y-97705546D01*
X144674276Y-97634974D01*
X144790001Y-97540001D01*
X144813804Y-97510997D01*
X145436729Y-96888072D01*
X146275000Y-96888072D01*
X146399482Y-96875812D01*
X146519180Y-96839502D01*
X146583902Y-96804907D01*
X146792601Y-96868215D01*
X147020000Y-96890612D01*
X147247400Y-96868215D01*
X147466060Y-96801885D01*
X147654669Y-96701071D01*
X147713118Y-96742275D01*
X147922663Y-96835272D01*
X147984190Y-96843964D01*
X148163000Y-96718163D01*
X148163000Y-95953108D01*
X148163215Y-95952399D01*
X148180000Y-95781978D01*
X148180000Y-95627000D01*
X148417000Y-95627000D01*
X148417000Y-96718163D01*
X148595810Y-96843964D01*
X148657337Y-96835272D01*
X148866882Y-96742275D01*
X149054258Y-96610184D01*
X149212264Y-96444076D01*
X149334828Y-96250334D01*
X149417239Y-96036404D01*
X149456331Y-95810507D01*
X149296598Y-95627000D01*
X148417000Y-95627000D01*
X148180000Y-95627000D01*
X148180000Y-95218021D01*
X148163215Y-95047600D01*
X148163000Y-95046891D01*
X148163000Y-94281837D01*
X148417000Y-94281837D01*
X148417000Y-95373000D01*
X149296598Y-95373000D01*
X149456331Y-95189493D01*
X149417239Y-94963596D01*
X149334828Y-94749666D01*
X149212264Y-94555924D01*
X149054258Y-94389816D01*
X148866882Y-94257725D01*
X148657337Y-94164728D01*
X148595810Y-94156036D01*
X148417000Y-94281837D01*
X148163000Y-94281837D01*
X147984190Y-94156036D01*
X147922663Y-94164728D01*
X147780000Y-94228042D01*
X147780000Y-92834801D01*
X148216114Y-92398688D01*
X148398665Y-92435000D01*
X148681335Y-92435000D01*
X148958574Y-92379853D01*
X149219727Y-92271680D01*
X149454759Y-92114637D01*
X149654637Y-91914759D01*
X149811680Y-91679727D01*
X149917404Y-91424487D01*
X149927832Y-91476912D01*
X150051082Y-91774463D01*
X150230013Y-92042252D01*
X150457748Y-92269987D01*
X150615000Y-92375060D01*
X150615001Y-95161928D01*
X150390000Y-95161928D01*
X150265518Y-95174188D01*
X150145820Y-95210498D01*
X150035506Y-95269463D01*
X149938815Y-95348815D01*
X149859463Y-95445506D01*
X149800498Y-95555820D01*
X149764188Y-95675518D01*
X149751928Y-95800000D01*
X149751928Y-98200000D01*
X149764188Y-98324482D01*
X149800498Y-98444180D01*
X149859463Y-98554494D01*
X149938815Y-98651185D01*
X150035506Y-98730537D01*
X150145820Y-98789502D01*
X150265518Y-98825812D01*
X150390000Y-98838072D01*
X150705001Y-98838072D01*
X150705001Y-98939634D01*
X150667246Y-98919453D01*
X150523985Y-98875996D01*
X150412332Y-98864999D01*
X150412321Y-98864999D01*
X150374999Y-98861323D01*
X150337677Y-98864999D01*
X143952326Y-98864999D01*
X143915001Y-98861323D01*
X143877676Y-98864999D01*
X143877668Y-98864999D01*
X143766015Y-98875996D01*
X143622754Y-98919453D01*
X143490725Y-98990025D01*
X143375000Y-99084998D01*
X143351202Y-99113996D01*
X143113886Y-99351312D01*
X142931335Y-99315000D01*
X142648665Y-99315000D01*
X142371426Y-99370147D01*
X142110273Y-99478320D01*
X141875241Y-99635363D01*
X141675363Y-99835241D01*
X141520000Y-100067759D01*
X141364637Y-99835241D01*
X141164759Y-99635363D01*
X140929727Y-99478320D01*
X140668574Y-99370147D01*
X140391335Y-99315000D01*
X140108665Y-99315000D01*
X139831426Y-99370147D01*
X139570273Y-99478320D01*
X139335241Y-99635363D01*
X139135363Y-99835241D01*
X138978320Y-100070273D01*
X138870147Y-100331426D01*
X138815000Y-100608665D01*
X138815000Y-100891335D01*
X138870147Y-101168574D01*
X138978320Y-101429727D01*
X139135363Y-101664759D01*
X139335241Y-101864637D01*
X139490000Y-101968044D01*
X139490001Y-103049182D01*
X139307688Y-103231495D01*
X139139701Y-103482905D01*
X139023989Y-103762257D01*
X138965000Y-104058816D01*
X138965000Y-104361184D01*
X139023989Y-104657743D01*
X139139701Y-104937095D01*
X139307688Y-105188505D01*
X139374127Y-105254944D01*
X139355820Y-105260498D01*
X139245506Y-105319463D01*
X139148815Y-105398815D01*
X139069463Y-105495506D01*
X139010498Y-105605820D01*
X138974188Y-105725518D01*
X138961928Y-105850000D01*
X138961928Y-107650000D01*
X138974188Y-107774482D01*
X139010498Y-107894180D01*
X139069463Y-108004494D01*
X139148815Y-108101185D01*
X139245506Y-108180537D01*
X139355820Y-108239502D01*
X139475518Y-108275812D01*
X139600000Y-108288072D01*
X141400000Y-108288072D01*
X141524482Y-108275812D01*
X141644180Y-108239502D01*
X141754494Y-108180537D01*
X141851185Y-108101185D01*
X141930537Y-108004494D01*
X141989502Y-107894180D01*
X142025812Y-107774482D01*
X142038072Y-107650000D01*
X142038072Y-107510000D01*
X144212678Y-107510000D01*
X144250000Y-107513676D01*
X144287322Y-107510000D01*
X144287333Y-107510000D01*
X144398986Y-107499003D01*
X144542247Y-107455546D01*
X144674276Y-107384974D01*
X144790001Y-107290001D01*
X144813804Y-107260997D01*
X145436729Y-106638072D01*
X146275000Y-106638072D01*
X146399482Y-106625812D01*
X146519180Y-106589502D01*
X146583902Y-106554907D01*
X146792601Y-106618215D01*
X147020000Y-106640612D01*
X147247400Y-106618215D01*
X147466060Y-106551885D01*
X147654669Y-106451071D01*
X147713118Y-106492275D01*
X147922663Y-106585272D01*
X147984190Y-106593964D01*
X148163000Y-106468163D01*
X148163000Y-105703108D01*
X148163215Y-105702399D01*
X148180000Y-105531978D01*
X148180000Y-105377000D01*
X148417000Y-105377000D01*
X148417000Y-106468163D01*
X148595810Y-106593964D01*
X148657337Y-106585272D01*
X148866882Y-106492275D01*
X149054258Y-106360184D01*
X149212264Y-106194076D01*
X149334828Y-106000334D01*
X149417239Y-105786404D01*
X149456331Y-105560507D01*
X149296598Y-105377000D01*
X148417000Y-105377000D01*
X148180000Y-105377000D01*
X148180000Y-104968021D01*
X148163215Y-104797600D01*
X148163000Y-104796891D01*
X148163000Y-104031837D01*
X148417000Y-104031837D01*
X148417000Y-105123000D01*
X149296598Y-105123000D01*
X149456331Y-104939493D01*
X149417239Y-104713596D01*
X149334828Y-104499666D01*
X149212264Y-104305924D01*
X149054258Y-104139816D01*
X148866882Y-104007725D01*
X148657337Y-103914728D01*
X148595810Y-103906036D01*
X148417000Y-104031837D01*
X148163000Y-104031837D01*
X147984190Y-103906036D01*
X147922663Y-103914728D01*
X147780000Y-103978042D01*
X147780000Y-102584801D01*
X148216114Y-102148688D01*
X148398665Y-102185000D01*
X148681335Y-102185000D01*
X148958574Y-102129853D01*
X149219727Y-102021680D01*
X149454759Y-101864637D01*
X149654637Y-101664759D01*
X149811680Y-101429727D01*
X149917404Y-101174487D01*
X149927832Y-101226912D01*
X150051082Y-101524463D01*
X150230013Y-101792252D01*
X150457748Y-102019987D01*
X150615000Y-102125060D01*
X150615001Y-104911928D01*
X150390000Y-104911928D01*
X150265518Y-104924188D01*
X150145820Y-104960498D01*
X150035506Y-105019463D01*
X149938815Y-105098815D01*
X149859463Y-105195506D01*
X149800498Y-105305820D01*
X149764188Y-105425518D01*
X149751928Y-105550000D01*
X149751928Y-107950000D01*
X149764188Y-108074482D01*
X149800498Y-108194180D01*
X149859463Y-108304494D01*
X149938815Y-108401185D01*
X150035506Y-108480537D01*
X150145820Y-108539502D01*
X150265518Y-108575812D01*
X150390000Y-108588072D01*
X150705001Y-108588072D01*
X150705001Y-108689634D01*
X150667246Y-108669453D01*
X150523985Y-108625996D01*
X150412332Y-108614999D01*
X150412321Y-108614999D01*
X150374999Y-108611323D01*
X150337677Y-108614999D01*
X143952326Y-108614999D01*
X143915001Y-108611323D01*
X143877676Y-108614999D01*
X143877668Y-108614999D01*
X143766015Y-108625996D01*
X143622754Y-108669453D01*
X143490725Y-108740025D01*
X143375000Y-108834998D01*
X143351202Y-108863996D01*
X143113886Y-109101312D01*
X142931335Y-109065000D01*
X142648665Y-109065000D01*
X142371426Y-109120147D01*
X142110273Y-109228320D01*
X141875241Y-109385363D01*
X141675363Y-109585241D01*
X141520000Y-109817759D01*
X141364637Y-109585241D01*
X141164759Y-109385363D01*
X140929727Y-109228320D01*
X140668574Y-109120147D01*
X140391335Y-109065000D01*
X140108665Y-109065000D01*
X139831426Y-109120147D01*
X139570273Y-109228320D01*
X139335241Y-109385363D01*
X139135363Y-109585241D01*
X138978320Y-109820273D01*
X138870147Y-110081426D01*
X138815000Y-110358665D01*
X138815000Y-110641335D01*
X138870147Y-110918574D01*
X138978320Y-111179727D01*
X139135363Y-111414759D01*
X139335241Y-111614637D01*
X139490000Y-111718044D01*
X139490001Y-112799182D01*
X139307688Y-112981495D01*
X139139701Y-113232905D01*
X139023989Y-113512257D01*
X138965000Y-113808816D01*
X138965000Y-114111184D01*
X139023989Y-114407743D01*
X139139701Y-114687095D01*
X139307688Y-114938505D01*
X139374127Y-115004944D01*
X139355820Y-115010498D01*
X139245506Y-115069463D01*
X139148815Y-115148815D01*
X139069463Y-115245506D01*
X139010498Y-115355820D01*
X138974188Y-115475518D01*
X138961928Y-115600000D01*
X138961928Y-117400000D01*
X138974188Y-117524482D01*
X139010498Y-117644180D01*
X139069463Y-117754494D01*
X139148815Y-117851185D01*
X139245506Y-117930537D01*
X139355820Y-117989502D01*
X139475518Y-118025812D01*
X139600000Y-118038072D01*
X141400000Y-118038072D01*
X141524482Y-118025812D01*
X141644180Y-117989502D01*
X141754494Y-117930537D01*
X141851185Y-117851185D01*
X141930537Y-117754494D01*
X141989502Y-117644180D01*
X142025812Y-117524482D01*
X142038072Y-117400000D01*
X142038072Y-117260000D01*
X144212678Y-117260000D01*
X144250000Y-117263676D01*
X144287322Y-117260000D01*
X144287333Y-117260000D01*
X144398986Y-117249003D01*
X144542247Y-117205546D01*
X144674276Y-117134974D01*
X144790001Y-117040001D01*
X144813804Y-117010997D01*
X145436729Y-116388072D01*
X146275000Y-116388072D01*
X146399482Y-116375812D01*
X146519180Y-116339502D01*
X146583902Y-116304907D01*
X146792601Y-116368215D01*
X147020000Y-116390612D01*
X147247400Y-116368215D01*
X147466060Y-116301885D01*
X147654669Y-116201071D01*
X147713118Y-116242275D01*
X147922663Y-116335272D01*
X147984190Y-116343964D01*
X148163000Y-116218163D01*
X148163000Y-115453108D01*
X148163215Y-115452399D01*
X148180000Y-115281978D01*
X148180000Y-115127000D01*
X148417000Y-115127000D01*
X148417000Y-116218163D01*
X148595810Y-116343964D01*
X148657337Y-116335272D01*
X148866882Y-116242275D01*
X149054258Y-116110184D01*
X149212264Y-115944076D01*
X149334828Y-115750334D01*
X149417239Y-115536404D01*
X149456331Y-115310507D01*
X149296598Y-115127000D01*
X148417000Y-115127000D01*
X148180000Y-115127000D01*
X148180000Y-114718021D01*
X148163215Y-114547600D01*
X148163000Y-114546891D01*
X148163000Y-113781837D01*
X148417000Y-113781837D01*
X148417000Y-114873000D01*
X149296598Y-114873000D01*
X149456331Y-114689493D01*
X149417239Y-114463596D01*
X149334828Y-114249666D01*
X149212264Y-114055924D01*
X149054258Y-113889816D01*
X148866882Y-113757725D01*
X148657337Y-113664728D01*
X148595810Y-113656036D01*
X148417000Y-113781837D01*
X148163000Y-113781837D01*
X147984190Y-113656036D01*
X147922663Y-113664728D01*
X147780000Y-113728042D01*
X147780000Y-112334801D01*
X148216114Y-111898688D01*
X148398665Y-111935000D01*
X148681335Y-111935000D01*
X148958574Y-111879853D01*
X149219727Y-111771680D01*
X149454759Y-111614637D01*
X149654637Y-111414759D01*
X149811680Y-111179727D01*
X149917404Y-110924487D01*
X149927832Y-110976912D01*
X150051082Y-111274463D01*
X150230013Y-111542252D01*
X150457748Y-111769987D01*
X150615000Y-111875060D01*
X150615001Y-114661928D01*
X150390000Y-114661928D01*
X150265518Y-114674188D01*
X150145820Y-114710498D01*
X150035506Y-114769463D01*
X149938815Y-114848815D01*
X149859463Y-114945506D01*
X149800498Y-115055820D01*
X149764188Y-115175518D01*
X149751928Y-115300000D01*
X149751928Y-117700000D01*
X149764188Y-117824482D01*
X149800498Y-117944180D01*
X149859463Y-118054494D01*
X149938815Y-118151185D01*
X150035506Y-118230537D01*
X150145820Y-118289502D01*
X150265518Y-118325812D01*
X150390000Y-118338072D01*
X150705001Y-118338072D01*
X150705001Y-118439634D01*
X150667246Y-118419453D01*
X150523985Y-118375996D01*
X150412332Y-118364999D01*
X150412321Y-118364999D01*
X150374999Y-118361323D01*
X150337677Y-118364999D01*
X143952326Y-118364999D01*
X143915001Y-118361323D01*
X143877676Y-118364999D01*
X143877668Y-118364999D01*
X143766015Y-118375996D01*
X143622754Y-118419453D01*
X143490725Y-118490025D01*
X143375000Y-118584998D01*
X143351202Y-118613996D01*
X143113886Y-118851312D01*
X142931335Y-118815000D01*
X142648665Y-118815000D01*
X142371426Y-118870147D01*
X142110273Y-118978320D01*
X141875241Y-119135363D01*
X141675363Y-119335241D01*
X141520000Y-119567759D01*
X141364637Y-119335241D01*
X141164759Y-119135363D01*
X140929727Y-118978320D01*
X140668574Y-118870147D01*
X140391335Y-118815000D01*
X140108665Y-118815000D01*
X139831426Y-118870147D01*
X139570273Y-118978320D01*
X139335241Y-119135363D01*
X139135363Y-119335241D01*
X138978320Y-119570273D01*
X138870147Y-119831426D01*
X138815000Y-120108665D01*
X138815000Y-120391335D01*
X138870147Y-120668574D01*
X138978320Y-120929727D01*
X139135363Y-121164759D01*
X139335241Y-121364637D01*
X139490000Y-121468044D01*
X139490001Y-122549182D01*
X139307688Y-122731495D01*
X139139701Y-122982905D01*
X139023989Y-123262257D01*
X138965000Y-123558816D01*
X138965000Y-123861184D01*
X139023989Y-124157743D01*
X139139701Y-124437095D01*
X139307688Y-124688505D01*
X139374127Y-124754944D01*
X139355820Y-124760498D01*
X139245506Y-124819463D01*
X139148815Y-124898815D01*
X139069463Y-124995506D01*
X139010498Y-125105820D01*
X138974188Y-125225518D01*
X138961928Y-125350000D01*
X138961928Y-127150000D01*
X138974188Y-127274482D01*
X139010498Y-127394180D01*
X139069463Y-127504494D01*
X139148815Y-127601185D01*
X139245506Y-127680537D01*
X139355820Y-127739502D01*
X139475518Y-127775812D01*
X139600000Y-127788072D01*
X141400000Y-127788072D01*
X141524482Y-127775812D01*
X141644180Y-127739502D01*
X141754494Y-127680537D01*
X141851185Y-127601185D01*
X141930537Y-127504494D01*
X141989502Y-127394180D01*
X142025812Y-127274482D01*
X142038072Y-127150000D01*
X142038072Y-127010000D01*
X144212678Y-127010000D01*
X144250000Y-127013676D01*
X144287322Y-127010000D01*
X144287333Y-127010000D01*
X144398986Y-126999003D01*
X144542247Y-126955546D01*
X144674276Y-126884974D01*
X144790001Y-126790001D01*
X144813804Y-126760997D01*
X145436729Y-126138072D01*
X146275000Y-126138072D01*
X146399482Y-126125812D01*
X146519180Y-126089502D01*
X146583902Y-126054907D01*
X146792601Y-126118215D01*
X147020000Y-126140612D01*
X147247400Y-126118215D01*
X147466060Y-126051885D01*
X147654669Y-125951071D01*
X147713118Y-125992275D01*
X147922663Y-126085272D01*
X147984190Y-126093964D01*
X148163000Y-125968163D01*
X148163000Y-125203108D01*
X148163215Y-125202399D01*
X148180000Y-125031978D01*
X148180000Y-124877000D01*
X148417000Y-124877000D01*
X148417000Y-125968163D01*
X148595810Y-126093964D01*
X148657337Y-126085272D01*
X148866882Y-125992275D01*
X149054258Y-125860184D01*
X149212264Y-125694076D01*
X149334828Y-125500334D01*
X149417239Y-125286404D01*
X149456331Y-125060507D01*
X149296598Y-124877000D01*
X148417000Y-124877000D01*
X148180000Y-124877000D01*
X148180000Y-124468021D01*
X148163215Y-124297600D01*
X148163000Y-124296891D01*
X148163000Y-123531837D01*
X148417000Y-123531837D01*
X148417000Y-124623000D01*
X149296598Y-124623000D01*
X149456331Y-124439493D01*
X149417239Y-124213596D01*
X149334828Y-123999666D01*
X149212264Y-123805924D01*
X149054258Y-123639816D01*
X148866882Y-123507725D01*
X148657337Y-123414728D01*
X148595810Y-123406036D01*
X148417000Y-123531837D01*
X148163000Y-123531837D01*
X147984190Y-123406036D01*
X147922663Y-123414728D01*
X147780000Y-123478042D01*
X147780000Y-122044801D01*
X148176114Y-121648688D01*
X148358665Y-121685000D01*
X148641335Y-121685000D01*
X148918574Y-121629853D01*
X149179727Y-121521680D01*
X149414759Y-121364637D01*
X149614637Y-121164759D01*
X149771680Y-120929727D01*
X149879853Y-120668574D01*
X149898041Y-120577140D01*
X149927832Y-120726912D01*
X150051082Y-121024463D01*
X150230013Y-121292252D01*
X150457748Y-121519987D01*
X150725537Y-121698918D01*
X150740000Y-121704909D01*
X150740001Y-124661928D01*
X150300000Y-124661928D01*
X150175518Y-124674188D01*
X150055820Y-124710498D01*
X149945506Y-124769463D01*
X149848815Y-124848815D01*
X149769463Y-124945506D01*
X149710498Y-125055820D01*
X149674188Y-125175518D01*
X149661928Y-125300000D01*
X149661928Y-127700000D01*
X149674188Y-127824482D01*
X149710498Y-127944180D01*
X149769463Y-128054494D01*
X149848815Y-128151185D01*
X149945506Y-128230537D01*
X150055820Y-128289502D01*
X150175518Y-128325812D01*
X150300000Y-128338072D01*
X152700000Y-128338072D01*
X152824482Y-128325812D01*
X152944180Y-128289502D01*
X153054494Y-128230537D01*
X153151185Y-128151185D01*
X153230537Y-128054494D01*
X153289502Y-127944180D01*
X153325812Y-127824482D01*
X153338072Y-127700000D01*
X153338072Y-125300000D01*
X153325812Y-125175518D01*
X153289502Y-125055820D01*
X153230537Y-124945506D01*
X153151185Y-124848815D01*
X153054494Y-124769463D01*
X152944180Y-124710498D01*
X152824482Y-124674188D01*
X152700000Y-124661928D01*
X152260000Y-124661928D01*
X152260000Y-121704909D01*
X152274463Y-121698918D01*
X152542252Y-121519987D01*
X152769987Y-121292252D01*
X152948918Y-121024463D01*
X153072168Y-120726912D01*
X153135000Y-120411033D01*
X153135000Y-120088967D01*
X153072168Y-119773088D01*
X152948918Y-119475537D01*
X152798219Y-119250000D01*
X153611928Y-119250000D01*
X153611928Y-121250000D01*
X153624188Y-121374482D01*
X153660498Y-121494180D01*
X153719463Y-121604494D01*
X153798815Y-121701185D01*
X153895506Y-121780537D01*
X154005820Y-121839502D01*
X154125518Y-121875812D01*
X154250000Y-121888072D01*
X155973271Y-121888072D01*
X159940750Y-125855551D01*
X159895518Y-125964750D01*
X159825000Y-126319268D01*
X159825000Y-126680732D01*
X159895518Y-127035250D01*
X160033844Y-127369199D01*
X160234662Y-127669744D01*
X160490256Y-127925338D01*
X160790801Y-128126156D01*
X161124750Y-128264482D01*
X161479268Y-128335000D01*
X161840732Y-128335000D01*
X162195250Y-128264482D01*
X162529199Y-128126156D01*
X162829744Y-127925338D01*
X163085338Y-127669744D01*
X163286156Y-127369199D01*
X163424482Y-127035250D01*
X163495000Y-126680732D01*
X163495000Y-126319268D01*
X163424482Y-125964750D01*
X163286156Y-125630801D01*
X163085338Y-125330256D01*
X162829744Y-125074662D01*
X162529199Y-124873844D01*
X162195250Y-124735518D01*
X161840732Y-124665000D01*
X161479268Y-124665000D01*
X161124750Y-124735518D01*
X161015551Y-124780750D01*
X159381691Y-123146890D01*
X179308524Y-123146890D01*
X179353175Y-123294099D01*
X179478359Y-123556920D01*
X179652412Y-123790269D01*
X179868645Y-123985178D01*
X180118748Y-124134157D01*
X180393109Y-124231481D01*
X180623000Y-124110814D01*
X180623000Y-122917000D01*
X180877000Y-122917000D01*
X180877000Y-124110814D01*
X181106891Y-124231481D01*
X181381252Y-124134157D01*
X181631355Y-123985178D01*
X181847588Y-123790269D01*
X182021641Y-123556920D01*
X182146825Y-123294099D01*
X182191476Y-123146890D01*
X182070155Y-122917000D01*
X180877000Y-122917000D01*
X180623000Y-122917000D01*
X179429845Y-122917000D01*
X179308524Y-123146890D01*
X159381691Y-123146890D01*
X156888072Y-120653271D01*
X156888072Y-120069268D01*
X164665000Y-120069268D01*
X164665000Y-120430732D01*
X164735518Y-120785250D01*
X164873844Y-121119199D01*
X165074662Y-121419744D01*
X165330256Y-121675338D01*
X165630801Y-121876156D01*
X165964750Y-122014482D01*
X166319268Y-122085000D01*
X166680732Y-122085000D01*
X167035250Y-122014482D01*
X167369199Y-121876156D01*
X167669744Y-121675338D01*
X167925338Y-121419744D01*
X168126156Y-121119199D01*
X168264482Y-120785250D01*
X168335000Y-120430732D01*
X168335000Y-120069268D01*
X168264482Y-119714750D01*
X168126156Y-119380801D01*
X167925338Y-119080256D01*
X167669744Y-118824662D01*
X167369199Y-118623844D01*
X167035250Y-118485518D01*
X166680732Y-118415000D01*
X166319268Y-118415000D01*
X165964750Y-118485518D01*
X165630801Y-118623844D01*
X165330256Y-118824662D01*
X165074662Y-119080256D01*
X164873844Y-119380801D01*
X164735518Y-119714750D01*
X164665000Y-120069268D01*
X156888072Y-120069268D01*
X156888072Y-119250000D01*
X156875812Y-119125518D01*
X156839502Y-119005820D01*
X156780537Y-118895506D01*
X156701185Y-118798815D01*
X156604494Y-118719463D01*
X156494180Y-118660498D01*
X156374482Y-118624188D01*
X156250000Y-118611928D01*
X154250000Y-118611928D01*
X154125518Y-118624188D01*
X154005820Y-118660498D01*
X153895506Y-118719463D01*
X153798815Y-118798815D01*
X153719463Y-118895506D01*
X153660498Y-119005820D01*
X153624188Y-119125518D01*
X153611928Y-119250000D01*
X152798219Y-119250000D01*
X152769987Y-119207748D01*
X152542252Y-118980013D01*
X152475000Y-118935077D01*
X152475000Y-118338072D01*
X152790000Y-118338072D01*
X152914482Y-118325812D01*
X153034180Y-118289502D01*
X153144494Y-118230537D01*
X153241185Y-118151185D01*
X153320537Y-118054494D01*
X153379502Y-117944180D01*
X153415812Y-117824482D01*
X153428072Y-117700000D01*
X153428072Y-115300000D01*
X153415812Y-115175518D01*
X153379502Y-115055820D01*
X153320537Y-114945506D01*
X153241185Y-114848815D01*
X153144494Y-114769463D01*
X153034180Y-114710498D01*
X152914482Y-114674188D01*
X152790000Y-114661928D01*
X152385000Y-114661928D01*
X152385000Y-111875059D01*
X152542252Y-111769987D01*
X152769987Y-111542252D01*
X152948918Y-111274463D01*
X153072168Y-110976912D01*
X153135000Y-110661033D01*
X153135000Y-110338967D01*
X153072168Y-110023088D01*
X152948918Y-109725537D01*
X152798219Y-109500000D01*
X153611928Y-109500000D01*
X153611928Y-111500000D01*
X153624188Y-111624482D01*
X153660498Y-111744180D01*
X153719463Y-111854494D01*
X153798815Y-111951185D01*
X153895506Y-112030537D01*
X154005820Y-112089502D01*
X154125518Y-112125812D01*
X154250000Y-112138072D01*
X156250000Y-112138072D01*
X156307598Y-112132399D01*
X160030749Y-115855552D01*
X159985518Y-115964750D01*
X159915000Y-116319268D01*
X159915000Y-116680732D01*
X159985518Y-117035250D01*
X160123844Y-117369199D01*
X160324662Y-117669744D01*
X160580256Y-117925338D01*
X160880801Y-118126156D01*
X161214750Y-118264482D01*
X161569268Y-118335000D01*
X161930732Y-118335000D01*
X162285250Y-118264482D01*
X162619199Y-118126156D01*
X162919744Y-117925338D01*
X163175338Y-117669744D01*
X163376156Y-117369199D01*
X163514482Y-117035250D01*
X163585000Y-116680732D01*
X163585000Y-116319268D01*
X163514482Y-115964750D01*
X163376156Y-115630801D01*
X163175338Y-115330256D01*
X162919744Y-115074662D01*
X162619199Y-114873844D01*
X162285250Y-114735518D01*
X161930732Y-114665000D01*
X161569268Y-114665000D01*
X161214750Y-114735518D01*
X161105552Y-114780749D01*
X156888072Y-110563271D01*
X156888072Y-110319268D01*
X164665000Y-110319268D01*
X164665000Y-110680732D01*
X164735518Y-111035250D01*
X164873844Y-111369199D01*
X165074662Y-111669744D01*
X165330256Y-111925338D01*
X165630801Y-112126156D01*
X165964750Y-112264482D01*
X166319268Y-112335000D01*
X166680732Y-112335000D01*
X167035250Y-112264482D01*
X167369199Y-112126156D01*
X167669744Y-111925338D01*
X167925338Y-111669744D01*
X168126156Y-111369199D01*
X168264482Y-111035250D01*
X168335000Y-110680732D01*
X168335000Y-110319268D01*
X168264482Y-109964750D01*
X168126156Y-109630801D01*
X167925338Y-109330256D01*
X167669744Y-109074662D01*
X167369199Y-108873844D01*
X167035250Y-108735518D01*
X166680732Y-108665000D01*
X166319268Y-108665000D01*
X165964750Y-108735518D01*
X165630801Y-108873844D01*
X165330256Y-109074662D01*
X165074662Y-109330256D01*
X164873844Y-109630801D01*
X164735518Y-109964750D01*
X164665000Y-110319268D01*
X156888072Y-110319268D01*
X156888072Y-109500000D01*
X156875812Y-109375518D01*
X156839502Y-109255820D01*
X156780537Y-109145506D01*
X156701185Y-109048815D01*
X156604494Y-108969463D01*
X156494180Y-108910498D01*
X156374482Y-108874188D01*
X156250000Y-108861928D01*
X154250000Y-108861928D01*
X154125518Y-108874188D01*
X154005820Y-108910498D01*
X153895506Y-108969463D01*
X153798815Y-109048815D01*
X153719463Y-109145506D01*
X153660498Y-109255820D01*
X153624188Y-109375518D01*
X153611928Y-109500000D01*
X152798219Y-109500000D01*
X152769987Y-109457748D01*
X152542252Y-109230013D01*
X152475000Y-109185077D01*
X152475000Y-108588072D01*
X152790000Y-108588072D01*
X152914482Y-108575812D01*
X153034180Y-108539502D01*
X153144494Y-108480537D01*
X153241185Y-108401185D01*
X153320537Y-108304494D01*
X153379502Y-108194180D01*
X153415812Y-108074482D01*
X153428072Y-107950000D01*
X153428072Y-105550000D01*
X153415812Y-105425518D01*
X153379502Y-105305820D01*
X153320537Y-105195506D01*
X153241185Y-105098815D01*
X153144494Y-105019463D01*
X153034180Y-104960498D01*
X152914482Y-104924188D01*
X152790000Y-104911928D01*
X152385000Y-104911928D01*
X152385000Y-102125059D01*
X152542252Y-102019987D01*
X152769987Y-101792252D01*
X152948918Y-101524463D01*
X153072168Y-101226912D01*
X153135000Y-100911033D01*
X153135000Y-100588967D01*
X153072168Y-100273088D01*
X152948918Y-99975537D01*
X152798219Y-99750000D01*
X153611928Y-99750000D01*
X153611928Y-101750000D01*
X153624188Y-101874482D01*
X153660498Y-101994180D01*
X153719463Y-102104494D01*
X153798815Y-102201185D01*
X153895506Y-102280537D01*
X154005820Y-102339502D01*
X154125518Y-102375812D01*
X154250000Y-102388072D01*
X156250000Y-102388072D01*
X156307598Y-102382399D01*
X160030749Y-106105552D01*
X159985518Y-106214750D01*
X159915000Y-106569268D01*
X159915000Y-106930732D01*
X159985518Y-107285250D01*
X160123844Y-107619199D01*
X160324662Y-107919744D01*
X160580256Y-108175338D01*
X160880801Y-108376156D01*
X161214750Y-108514482D01*
X161569268Y-108585000D01*
X161930732Y-108585000D01*
X162285250Y-108514482D01*
X162619199Y-108376156D01*
X162919744Y-108175338D01*
X163175338Y-107919744D01*
X163376156Y-107619199D01*
X163514482Y-107285250D01*
X163585000Y-106930732D01*
X163585000Y-106569268D01*
X163514482Y-106214750D01*
X163376156Y-105880801D01*
X163175338Y-105580256D01*
X162919744Y-105324662D01*
X162619199Y-105123844D01*
X162285250Y-104985518D01*
X161930732Y-104915000D01*
X161569268Y-104915000D01*
X161214750Y-104985518D01*
X161105552Y-105030749D01*
X156888072Y-100813271D01*
X156888072Y-100569268D01*
X164665000Y-100569268D01*
X164665000Y-100930732D01*
X164735518Y-101285250D01*
X164873844Y-101619199D01*
X165074662Y-101919744D01*
X165330256Y-102175338D01*
X165630801Y-102376156D01*
X165964750Y-102514482D01*
X166319268Y-102585000D01*
X166680732Y-102585000D01*
X167035250Y-102514482D01*
X167369199Y-102376156D01*
X167669744Y-102175338D01*
X167925338Y-101919744D01*
X168126156Y-101619199D01*
X168264482Y-101285250D01*
X168335000Y-100930732D01*
X168335000Y-100569268D01*
X168264482Y-100214750D01*
X168126156Y-99880801D01*
X167925338Y-99580256D01*
X167669744Y-99324662D01*
X167369199Y-99123844D01*
X167035250Y-98985518D01*
X166680732Y-98915000D01*
X166319268Y-98915000D01*
X165964750Y-98985518D01*
X165630801Y-99123844D01*
X165330256Y-99324662D01*
X165074662Y-99580256D01*
X164873844Y-99880801D01*
X164735518Y-100214750D01*
X164665000Y-100569268D01*
X156888072Y-100569268D01*
X156888072Y-99750000D01*
X156875812Y-99625518D01*
X156839502Y-99505820D01*
X156780537Y-99395506D01*
X156701185Y-99298815D01*
X156604494Y-99219463D01*
X156494180Y-99160498D01*
X156374482Y-99124188D01*
X156250000Y-99111928D01*
X154250000Y-99111928D01*
X154125518Y-99124188D01*
X154005820Y-99160498D01*
X153895506Y-99219463D01*
X153798815Y-99298815D01*
X153719463Y-99395506D01*
X153660498Y-99505820D01*
X153624188Y-99625518D01*
X153611928Y-99750000D01*
X152798219Y-99750000D01*
X152769987Y-99707748D01*
X152542252Y-99480013D01*
X152475000Y-99435077D01*
X152475000Y-98838072D01*
X152790000Y-98838072D01*
X152914482Y-98825812D01*
X153034180Y-98789502D01*
X153144494Y-98730537D01*
X153241185Y-98651185D01*
X153320537Y-98554494D01*
X153379502Y-98444180D01*
X153415812Y-98324482D01*
X153428072Y-98200000D01*
X153428072Y-95800000D01*
X153415812Y-95675518D01*
X153379502Y-95555820D01*
X153320537Y-95445506D01*
X153241185Y-95348815D01*
X153144494Y-95269463D01*
X153034180Y-95210498D01*
X152914482Y-95174188D01*
X152790000Y-95161928D01*
X152385000Y-95161928D01*
X152385000Y-92375059D01*
X152542252Y-92269987D01*
X152769987Y-92042252D01*
X152948918Y-91774463D01*
X153072168Y-91476912D01*
X153135000Y-91161033D01*
X153135000Y-90838967D01*
X153072168Y-90523088D01*
X152948918Y-90225537D01*
X152798219Y-90000000D01*
X153611928Y-90000000D01*
X153611928Y-92000000D01*
X153624188Y-92124482D01*
X153660498Y-92244180D01*
X153719463Y-92354494D01*
X153798815Y-92451185D01*
X153895506Y-92530537D01*
X154005820Y-92589502D01*
X154125518Y-92625812D01*
X154250000Y-92638072D01*
X156250000Y-92638072D01*
X156307598Y-92632399D01*
X160030749Y-96355552D01*
X159985518Y-96464750D01*
X159915000Y-96819268D01*
X159915000Y-97180732D01*
X159985518Y-97535250D01*
X160123844Y-97869199D01*
X160324662Y-98169744D01*
X160580256Y-98425338D01*
X160880801Y-98626156D01*
X161214750Y-98764482D01*
X161569268Y-98835000D01*
X161930732Y-98835000D01*
X162285250Y-98764482D01*
X162619199Y-98626156D01*
X162919744Y-98425338D01*
X163175338Y-98169744D01*
X163376156Y-97869199D01*
X163514482Y-97535250D01*
X163585000Y-97180732D01*
X163585000Y-96819268D01*
X163514482Y-96464750D01*
X163376156Y-96130801D01*
X163175338Y-95830256D01*
X162919744Y-95574662D01*
X162619199Y-95373844D01*
X162285250Y-95235518D01*
X161930732Y-95165000D01*
X161569268Y-95165000D01*
X161214750Y-95235518D01*
X161105552Y-95280749D01*
X156888072Y-91063271D01*
X156888072Y-90819268D01*
X164665000Y-90819268D01*
X164665000Y-91180732D01*
X164735518Y-91535250D01*
X164873844Y-91869199D01*
X165074662Y-92169744D01*
X165330256Y-92425338D01*
X165630801Y-92626156D01*
X165964750Y-92764482D01*
X166319268Y-92835000D01*
X166680732Y-92835000D01*
X167035250Y-92764482D01*
X167369199Y-92626156D01*
X167669744Y-92425338D01*
X167925338Y-92169744D01*
X168126156Y-91869199D01*
X168264482Y-91535250D01*
X168335000Y-91180732D01*
X168335000Y-90819268D01*
X168264482Y-90464750D01*
X168126156Y-90130801D01*
X167925338Y-89830256D01*
X167669744Y-89574662D01*
X167369199Y-89373844D01*
X167035250Y-89235518D01*
X166680732Y-89165000D01*
X166319268Y-89165000D01*
X165964750Y-89235518D01*
X165630801Y-89373844D01*
X165330256Y-89574662D01*
X165074662Y-89830256D01*
X164873844Y-90130801D01*
X164735518Y-90464750D01*
X164665000Y-90819268D01*
X156888072Y-90819268D01*
X156888072Y-90000000D01*
X156875812Y-89875518D01*
X156839502Y-89755820D01*
X156780537Y-89645506D01*
X156701185Y-89548815D01*
X156604494Y-89469463D01*
X156494180Y-89410498D01*
X156374482Y-89374188D01*
X156250000Y-89361928D01*
X154250000Y-89361928D01*
X154125518Y-89374188D01*
X154005820Y-89410498D01*
X153895506Y-89469463D01*
X153798815Y-89548815D01*
X153719463Y-89645506D01*
X153660498Y-89755820D01*
X153624188Y-89875518D01*
X153611928Y-90000000D01*
X152798219Y-90000000D01*
X152769987Y-89957748D01*
X152542252Y-89730013D01*
X152385000Y-89624941D01*
X152385000Y-71116578D01*
X161713059Y-61788520D01*
X161711928Y-61800000D01*
X161711928Y-64300000D01*
X161724188Y-64424482D01*
X161760498Y-64544180D01*
X161819463Y-64654494D01*
X161898815Y-64751185D01*
X161995506Y-64830537D01*
X162105820Y-64889502D01*
X162225518Y-64925812D01*
X162350000Y-64938072D01*
X162715000Y-64938072D01*
X162715001Y-83056521D01*
X162710719Y-83100000D01*
X162727805Y-83273490D01*
X162778412Y-83440313D01*
X162860590Y-83594059D01*
X162943468Y-83695046D01*
X162943471Y-83695049D01*
X162971184Y-83728817D01*
X163004952Y-83756530D01*
X169731810Y-90483389D01*
X169665000Y-90819268D01*
X169665000Y-91180732D01*
X169735518Y-91535250D01*
X169873844Y-91869199D01*
X170074662Y-92169744D01*
X170330256Y-92425338D01*
X170615000Y-92615598D01*
X170615001Y-99134401D01*
X170330256Y-99324662D01*
X170074662Y-99580256D01*
X169873844Y-99880801D01*
X169735518Y-100214750D01*
X169665000Y-100569268D01*
X169665000Y-100930732D01*
X169735518Y-101285250D01*
X169873844Y-101619199D01*
X170074662Y-101919744D01*
X170330256Y-102175338D01*
X170615000Y-102365598D01*
X170615001Y-108884401D01*
X170330256Y-109074662D01*
X170074662Y-109330256D01*
X169873844Y-109630801D01*
X169735518Y-109964750D01*
X169665000Y-110319268D01*
X169665000Y-110680732D01*
X169735518Y-111035250D01*
X169873844Y-111369199D01*
X170074662Y-111669744D01*
X170330256Y-111925338D01*
X170615000Y-112115598D01*
X170615001Y-118634401D01*
X170330256Y-118824662D01*
X170074662Y-119080256D01*
X169873844Y-119380801D01*
X169735518Y-119714750D01*
X169665000Y-120069268D01*
X169665000Y-120430732D01*
X169735518Y-120785250D01*
X169873844Y-121119199D01*
X170074662Y-121419744D01*
X170330256Y-121675338D01*
X170630801Y-121876156D01*
X170964750Y-122014482D01*
X171319268Y-122085000D01*
X171680732Y-122085000D01*
X172035250Y-122014482D01*
X172369199Y-121876156D01*
X172669744Y-121675338D01*
X172925338Y-121419744D01*
X173126156Y-121119199D01*
X173264482Y-120785250D01*
X173335000Y-120430732D01*
X173335000Y-120069268D01*
X174665000Y-120069268D01*
X174665000Y-120430732D01*
X174735518Y-120785250D01*
X174873844Y-121119199D01*
X175074662Y-121419744D01*
X175330256Y-121675338D01*
X175630801Y-121876156D01*
X175964750Y-122014482D01*
X176319268Y-122085000D01*
X176680732Y-122085000D01*
X177035250Y-122014482D01*
X177369199Y-121876156D01*
X177669744Y-121675338D01*
X177925338Y-121419744D01*
X178115598Y-121135000D01*
X179265375Y-121135000D01*
X179274188Y-121224482D01*
X179310498Y-121344180D01*
X179369463Y-121454494D01*
X179448815Y-121551185D01*
X179545506Y-121630537D01*
X179655820Y-121689502D01*
X179736466Y-121713966D01*
X179652412Y-121789731D01*
X179478359Y-122023080D01*
X179353175Y-122285901D01*
X179308524Y-122433110D01*
X179429845Y-122663000D01*
X180623000Y-122663000D01*
X180623000Y-122643000D01*
X180877000Y-122643000D01*
X180877000Y-122663000D01*
X182070155Y-122663000D01*
X182191476Y-122433110D01*
X182146825Y-122285901D01*
X182021641Y-122023080D01*
X181847588Y-121789731D01*
X181763534Y-121713966D01*
X181844180Y-121689502D01*
X181954494Y-121630537D01*
X182051185Y-121551185D01*
X182130537Y-121454494D01*
X182189502Y-121344180D01*
X182225812Y-121224482D01*
X182238072Y-121100000D01*
X182238072Y-119400000D01*
X182225812Y-119275518D01*
X182189502Y-119155820D01*
X182130537Y-119045506D01*
X182051185Y-118948815D01*
X181954494Y-118869463D01*
X181844180Y-118810498D01*
X181724482Y-118774188D01*
X181600000Y-118761928D01*
X179900000Y-118761928D01*
X179775518Y-118774188D01*
X179655820Y-118810498D01*
X179545506Y-118869463D01*
X179448815Y-118948815D01*
X179369463Y-119045506D01*
X179310498Y-119155820D01*
X179274188Y-119275518D01*
X179265375Y-119365000D01*
X178115598Y-119365000D01*
X177925338Y-119080256D01*
X177669744Y-118824662D01*
X177369199Y-118623844D01*
X177035250Y-118485518D01*
X176680732Y-118415000D01*
X176319268Y-118415000D01*
X175964750Y-118485518D01*
X175630801Y-118623844D01*
X175330256Y-118824662D01*
X175074662Y-119080256D01*
X174873844Y-119380801D01*
X174735518Y-119714750D01*
X174665000Y-120069268D01*
X173335000Y-120069268D01*
X173264482Y-119714750D01*
X173126156Y-119380801D01*
X172925338Y-119080256D01*
X172669744Y-118824662D01*
X172385000Y-118634402D01*
X172385000Y-113356890D01*
X179558524Y-113356890D01*
X179603175Y-113504099D01*
X179728359Y-113766920D01*
X179902412Y-114000269D01*
X180118645Y-114195178D01*
X180368748Y-114344157D01*
X180643109Y-114441481D01*
X180873000Y-114320814D01*
X180873000Y-113127000D01*
X181127000Y-113127000D01*
X181127000Y-114320814D01*
X181356891Y-114441481D01*
X181631252Y-114344157D01*
X181881355Y-114195178D01*
X182097588Y-114000269D01*
X182271641Y-113766920D01*
X182396825Y-113504099D01*
X182441476Y-113356890D01*
X182320155Y-113127000D01*
X181127000Y-113127000D01*
X180873000Y-113127000D01*
X179679845Y-113127000D01*
X179558524Y-113356890D01*
X172385000Y-113356890D01*
X172385000Y-112115598D01*
X172669744Y-111925338D01*
X172925338Y-111669744D01*
X173126156Y-111369199D01*
X173264482Y-111035250D01*
X173335000Y-110680732D01*
X173335000Y-110319268D01*
X174665000Y-110319268D01*
X174665000Y-110680732D01*
X174735518Y-111035250D01*
X174873844Y-111369199D01*
X175074662Y-111669744D01*
X175330256Y-111925338D01*
X175630801Y-112126156D01*
X175964750Y-112264482D01*
X176319268Y-112335000D01*
X176680732Y-112335000D01*
X177035250Y-112264482D01*
X177369199Y-112126156D01*
X177669744Y-111925338D01*
X177925338Y-111669744D01*
X178115598Y-111385000D01*
X179519315Y-111385000D01*
X179524188Y-111434482D01*
X179560498Y-111554180D01*
X179619463Y-111664494D01*
X179698815Y-111761185D01*
X179795506Y-111840537D01*
X179905820Y-111899502D01*
X179986466Y-111923966D01*
X179902412Y-111999731D01*
X179728359Y-112233080D01*
X179603175Y-112495901D01*
X179558524Y-112643110D01*
X179679845Y-112873000D01*
X180873000Y-112873000D01*
X180873000Y-112853000D01*
X181127000Y-112853000D01*
X181127000Y-112873000D01*
X182320155Y-112873000D01*
X182441476Y-112643110D01*
X182396825Y-112495901D01*
X182271641Y-112233080D01*
X182097588Y-111999731D01*
X182013534Y-111923966D01*
X182094180Y-111899502D01*
X182204494Y-111840537D01*
X182301185Y-111761185D01*
X182380537Y-111664494D01*
X182439502Y-111554180D01*
X182475812Y-111434482D01*
X182488072Y-111310000D01*
X182488072Y-109610000D01*
X182475812Y-109485518D01*
X182439502Y-109365820D01*
X182380537Y-109255506D01*
X182301185Y-109158815D01*
X182204494Y-109079463D01*
X182094180Y-109020498D01*
X181974482Y-108984188D01*
X181850000Y-108971928D01*
X180150000Y-108971928D01*
X180025518Y-108984188D01*
X179905820Y-109020498D01*
X179795506Y-109079463D01*
X179698815Y-109158815D01*
X179619463Y-109255506D01*
X179560498Y-109365820D01*
X179524188Y-109485518D01*
X179511928Y-109610000D01*
X179511928Y-109615000D01*
X178115598Y-109615000D01*
X177925338Y-109330256D01*
X177669744Y-109074662D01*
X177369199Y-108873844D01*
X177035250Y-108735518D01*
X176680732Y-108665000D01*
X176319268Y-108665000D01*
X175964750Y-108735518D01*
X175630801Y-108873844D01*
X175330256Y-109074662D01*
X175074662Y-109330256D01*
X174873844Y-109630801D01*
X174735518Y-109964750D01*
X174665000Y-110319268D01*
X173335000Y-110319268D01*
X173264482Y-109964750D01*
X173126156Y-109630801D01*
X172925338Y-109330256D01*
X172669744Y-109074662D01*
X172385000Y-108884402D01*
X172385000Y-103646890D01*
X179558524Y-103646890D01*
X179603175Y-103794099D01*
X179728359Y-104056920D01*
X179902412Y-104290269D01*
X180118645Y-104485178D01*
X180368748Y-104634157D01*
X180643109Y-104731481D01*
X180873000Y-104610814D01*
X180873000Y-103417000D01*
X181127000Y-103417000D01*
X181127000Y-104610814D01*
X181356891Y-104731481D01*
X181631252Y-104634157D01*
X181881355Y-104485178D01*
X182097588Y-104290269D01*
X182271641Y-104056920D01*
X182396825Y-103794099D01*
X182441476Y-103646890D01*
X182320155Y-103417000D01*
X181127000Y-103417000D01*
X180873000Y-103417000D01*
X179679845Y-103417000D01*
X179558524Y-103646890D01*
X172385000Y-103646890D01*
X172385000Y-102365598D01*
X172669744Y-102175338D01*
X172925338Y-101919744D01*
X173126156Y-101619199D01*
X173264482Y-101285250D01*
X173335000Y-100930732D01*
X173335000Y-100569268D01*
X174665000Y-100569268D01*
X174665000Y-100930732D01*
X174735518Y-101285250D01*
X174873844Y-101619199D01*
X175074662Y-101919744D01*
X175330256Y-102175338D01*
X175630801Y-102376156D01*
X175964750Y-102514482D01*
X176319268Y-102585000D01*
X176680732Y-102585000D01*
X177035250Y-102514482D01*
X177369199Y-102376156D01*
X177669744Y-102175338D01*
X177925338Y-101919744D01*
X178115598Y-101635000D01*
X179515375Y-101635000D01*
X179524188Y-101724482D01*
X179560498Y-101844180D01*
X179619463Y-101954494D01*
X179698815Y-102051185D01*
X179795506Y-102130537D01*
X179905820Y-102189502D01*
X179986466Y-102213966D01*
X179902412Y-102289731D01*
X179728359Y-102523080D01*
X179603175Y-102785901D01*
X179558524Y-102933110D01*
X179679845Y-103163000D01*
X180873000Y-103163000D01*
X180873000Y-103143000D01*
X181127000Y-103143000D01*
X181127000Y-103163000D01*
X182320155Y-103163000D01*
X182441476Y-102933110D01*
X182396825Y-102785901D01*
X182271641Y-102523080D01*
X182097588Y-102289731D01*
X182013534Y-102213966D01*
X182094180Y-102189502D01*
X182204494Y-102130537D01*
X182301185Y-102051185D01*
X182380537Y-101954494D01*
X182439502Y-101844180D01*
X182475812Y-101724482D01*
X182488072Y-101600000D01*
X182488072Y-99900000D01*
X182475812Y-99775518D01*
X182439502Y-99655820D01*
X182380537Y-99545506D01*
X182301185Y-99448815D01*
X182204494Y-99369463D01*
X182094180Y-99310498D01*
X181974482Y-99274188D01*
X181850000Y-99261928D01*
X180150000Y-99261928D01*
X180025518Y-99274188D01*
X179905820Y-99310498D01*
X179795506Y-99369463D01*
X179698815Y-99448815D01*
X179619463Y-99545506D01*
X179560498Y-99655820D01*
X179524188Y-99775518D01*
X179515375Y-99865000D01*
X178115598Y-99865000D01*
X177925338Y-99580256D01*
X177669744Y-99324662D01*
X177369199Y-99123844D01*
X177035250Y-98985518D01*
X176680732Y-98915000D01*
X176319268Y-98915000D01*
X175964750Y-98985518D01*
X175630801Y-99123844D01*
X175330256Y-99324662D01*
X175074662Y-99580256D01*
X174873844Y-99880801D01*
X174735518Y-100214750D01*
X174665000Y-100569268D01*
X173335000Y-100569268D01*
X173264482Y-100214750D01*
X173126156Y-99880801D01*
X172925338Y-99580256D01*
X172669744Y-99324662D01*
X172385000Y-99134402D01*
X172385000Y-93896890D01*
X179308524Y-93896890D01*
X179353175Y-94044099D01*
X179478359Y-94306920D01*
X179652412Y-94540269D01*
X179868645Y-94735178D01*
X180118748Y-94884157D01*
X180393109Y-94981481D01*
X180623000Y-94860814D01*
X180623000Y-93667000D01*
X180877000Y-93667000D01*
X180877000Y-94860814D01*
X181106891Y-94981481D01*
X181381252Y-94884157D01*
X181631355Y-94735178D01*
X181847588Y-94540269D01*
X182021641Y-94306920D01*
X182146825Y-94044099D01*
X182191476Y-93896890D01*
X182070155Y-93667000D01*
X180877000Y-93667000D01*
X180623000Y-93667000D01*
X179429845Y-93667000D01*
X179308524Y-93896890D01*
X172385000Y-93896890D01*
X172385000Y-92615598D01*
X172669744Y-92425338D01*
X172925338Y-92169744D01*
X173126156Y-91869199D01*
X173264482Y-91535250D01*
X173335000Y-91180732D01*
X173335000Y-90819268D01*
X174665000Y-90819268D01*
X174665000Y-91180732D01*
X174735518Y-91535250D01*
X174873844Y-91869199D01*
X175074662Y-92169744D01*
X175330256Y-92425338D01*
X175630801Y-92626156D01*
X175964750Y-92764482D01*
X176319268Y-92835000D01*
X176680732Y-92835000D01*
X177035250Y-92764482D01*
X177369199Y-92626156D01*
X177669744Y-92425338D01*
X177925338Y-92169744D01*
X178115598Y-91885000D01*
X179265375Y-91885000D01*
X179274188Y-91974482D01*
X179310498Y-92094180D01*
X179369463Y-92204494D01*
X179448815Y-92301185D01*
X179545506Y-92380537D01*
X179655820Y-92439502D01*
X179736466Y-92463966D01*
X179652412Y-92539731D01*
X179478359Y-92773080D01*
X179353175Y-93035901D01*
X179308524Y-93183110D01*
X179429845Y-93413000D01*
X180623000Y-93413000D01*
X180623000Y-93393000D01*
X180877000Y-93393000D01*
X180877000Y-93413000D01*
X182070155Y-93413000D01*
X182191476Y-93183110D01*
X182146825Y-93035901D01*
X182021641Y-92773080D01*
X181847588Y-92539731D01*
X181763534Y-92463966D01*
X181844180Y-92439502D01*
X181954494Y-92380537D01*
X182051185Y-92301185D01*
X182130537Y-92204494D01*
X182189502Y-92094180D01*
X182225812Y-91974482D01*
X182238072Y-91850000D01*
X182238072Y-90150000D01*
X182225812Y-90025518D01*
X182189502Y-89905820D01*
X182130537Y-89795506D01*
X182051185Y-89698815D01*
X181954494Y-89619463D01*
X181844180Y-89560498D01*
X181724482Y-89524188D01*
X181600000Y-89511928D01*
X179900000Y-89511928D01*
X179775518Y-89524188D01*
X179655820Y-89560498D01*
X179545506Y-89619463D01*
X179448815Y-89698815D01*
X179369463Y-89795506D01*
X179310498Y-89905820D01*
X179274188Y-90025518D01*
X179265375Y-90115000D01*
X178115598Y-90115000D01*
X177925338Y-89830256D01*
X177669744Y-89574662D01*
X177369199Y-89373844D01*
X177035250Y-89235518D01*
X176680732Y-89165000D01*
X176319268Y-89165000D01*
X175964750Y-89235518D01*
X175630801Y-89373844D01*
X175330256Y-89574662D01*
X175074662Y-89830256D01*
X174873844Y-90130801D01*
X174735518Y-90464750D01*
X174665000Y-90819268D01*
X173335000Y-90819268D01*
X173264482Y-90464750D01*
X173126156Y-90130801D01*
X172925338Y-89830256D01*
X172669744Y-89574662D01*
X172369199Y-89373844D01*
X172035250Y-89235518D01*
X171680732Y-89165000D01*
X171319268Y-89165000D01*
X170983389Y-89231810D01*
X164485000Y-82733422D01*
X164485000Y-64938072D01*
X164850000Y-64938072D01*
X164974482Y-64925812D01*
X165094180Y-64889502D01*
X165204494Y-64830537D01*
X165301185Y-64751185D01*
X165380537Y-64654494D01*
X165439502Y-64544180D01*
X165475812Y-64424482D01*
X165488072Y-64300000D01*
X165488072Y-63935000D01*
X166486531Y-63935000D01*
X166530000Y-63939281D01*
X166573469Y-63935000D01*
X166573477Y-63935000D01*
X166703490Y-63922195D01*
X166870313Y-63871589D01*
X167024059Y-63789411D01*
X167158817Y-63678817D01*
X167186534Y-63645044D01*
X175343507Y-55488072D01*
X176430000Y-55488072D01*
X176554482Y-55475812D01*
X176674180Y-55439502D01*
X176784494Y-55380537D01*
X176881185Y-55301185D01*
X176960537Y-55204494D01*
X177019502Y-55094180D01*
X177041513Y-55021620D01*
X177173368Y-55153475D01*
X177416589Y-55315990D01*
X177686842Y-55427932D01*
X177973740Y-55485000D01*
X178266260Y-55485000D01*
X178553158Y-55427932D01*
X178823411Y-55315990D01*
X179066632Y-55153475D01*
X179273475Y-54946632D01*
X179435990Y-54703411D01*
X179547932Y-54433158D01*
X179605000Y-54146260D01*
X179605000Y-53853740D01*
X179547932Y-53566842D01*
X179435990Y-53296589D01*
X179273475Y-53053368D01*
X179066632Y-52846525D01*
X178823411Y-52684010D01*
X178553158Y-52572068D01*
X178266260Y-52515000D01*
X177973740Y-52515000D01*
X177686842Y-52572068D01*
X177416589Y-52684010D01*
X177173368Y-52846525D01*
X177041513Y-52978380D01*
X177019502Y-52905820D01*
X176960537Y-52795506D01*
X176881185Y-52698815D01*
X176784494Y-52619463D01*
X176674180Y-52560498D01*
X176554482Y-52524188D01*
X176430000Y-52511928D01*
X174730000Y-52511928D01*
X174605518Y-52524188D01*
X174485820Y-52560498D01*
X174375506Y-52619463D01*
X174278815Y-52698815D01*
X174199463Y-52795506D01*
X174140498Y-52905820D01*
X174116034Y-52986466D01*
X174040269Y-52902412D01*
X173806920Y-52728359D01*
X173544099Y-52603175D01*
X173396890Y-52558524D01*
X173167000Y-52679845D01*
X173167000Y-53873000D01*
X173187000Y-53873000D01*
X173187000Y-54127000D01*
X173167000Y-54127000D01*
X173167000Y-54147000D01*
X172913000Y-54147000D01*
X172913000Y-54127000D01*
X172893000Y-54127000D01*
X172893000Y-53873000D01*
X172913000Y-53873000D01*
X172913000Y-52679845D01*
X172683110Y-52558524D01*
X172535901Y-52603175D01*
X172273080Y-52728359D01*
X172039731Y-52902412D01*
X171963966Y-52986466D01*
X171939502Y-52905820D01*
X171880537Y-52795506D01*
X171801185Y-52698815D01*
X171704494Y-52619463D01*
X171594180Y-52560498D01*
X171474482Y-52524188D01*
X171350000Y-52511928D01*
X170086730Y-52511928D01*
X167563804Y-49989003D01*
X167540001Y-49959999D01*
X167479077Y-49910000D01*
X182590001Y-49910000D01*
X182590000Y-128340000D01*
%TA.AperFunction,Conductor*%
D36*
G36*
X182590000Y-128340000D02*
G01*
X81660000Y-128340000D01*
X81660000Y-119135413D01*
X83294192Y-119135413D01*
X83389956Y-119399814D01*
X83679571Y-119540704D01*
X83991108Y-119622384D01*
X84312595Y-119641718D01*
X84631675Y-119597961D01*
X84936088Y-119492795D01*
X85110044Y-119399814D01*
X85205808Y-119135413D01*
X89794192Y-119135413D01*
X89889956Y-119399814D01*
X90179571Y-119540704D01*
X90491108Y-119622384D01*
X90812595Y-119641718D01*
X91131675Y-119597961D01*
X91436088Y-119492795D01*
X91610044Y-119399814D01*
X91705808Y-119135413D01*
X90750000Y-118179605D01*
X89794192Y-119135413D01*
X85205808Y-119135413D01*
X84250000Y-118179605D01*
X83294192Y-119135413D01*
X81660000Y-119135413D01*
X81660000Y-118062595D01*
X82608282Y-118062595D01*
X82652039Y-118381675D01*
X82757205Y-118686088D01*
X82850186Y-118860044D01*
X83114587Y-118955808D01*
X84070395Y-118000000D01*
X84429605Y-118000000D01*
X85385413Y-118955808D01*
X85649814Y-118860044D01*
X85790704Y-118570429D01*
X85872384Y-118258892D01*
X85884189Y-118062595D01*
X89108282Y-118062595D01*
X89152039Y-118381675D01*
X89257205Y-118686088D01*
X89350186Y-118860044D01*
X89614587Y-118955808D01*
X90570395Y-118000000D01*
X90929605Y-118000000D01*
X91885413Y-118955808D01*
X92149814Y-118860044D01*
X92290704Y-118570429D01*
X92372384Y-118258892D01*
X92391718Y-117937405D01*
X92347961Y-117618325D01*
X92242795Y-117313912D01*
X92149814Y-117139956D01*
X91885413Y-117044192D01*
X90929605Y-118000000D01*
X90570395Y-118000000D01*
X89614587Y-117044192D01*
X89350186Y-117139956D01*
X89209296Y-117429571D01*
X89127616Y-117741108D01*
X89108282Y-118062595D01*
X85884189Y-118062595D01*
X85891718Y-117937405D01*
X85847961Y-117618325D01*
X85742795Y-117313912D01*
X85649814Y-117139956D01*
X85385413Y-117044192D01*
X84429605Y-118000000D01*
X84070395Y-118000000D01*
X83114587Y-117044192D01*
X82850186Y-117139956D01*
X82709296Y-117429571D01*
X82627616Y-117741108D01*
X82608282Y-118062595D01*
X81660000Y-118062595D01*
X81660000Y-116864587D01*
X83294192Y-116864587D01*
X84250000Y-117820395D01*
X85205808Y-116864587D01*
X89794192Y-116864587D01*
X90750000Y-117820395D01*
X91705808Y-116864587D01*
X91628087Y-116650000D01*
X93461928Y-116650000D01*
X93474188Y-116774482D01*
X93510498Y-116894180D01*
X93569463Y-117004494D01*
X93648815Y-117101185D01*
X93745506Y-117180537D01*
X93855820Y-117239502D01*
X93975518Y-117275812D01*
X94100000Y-117288072D01*
X94714250Y-117285000D01*
X94873000Y-117126250D01*
X94873000Y-115877000D01*
X93623750Y-115877000D01*
X93465000Y-116035750D01*
X93461928Y-116650000D01*
X91628087Y-116650000D01*
X91610044Y-116600186D01*
X91320429Y-116459296D01*
X91008892Y-116377616D01*
X90687405Y-116358282D01*
X90368325Y-116402039D01*
X90063912Y-116507205D01*
X89889956Y-116600186D01*
X89794192Y-116864587D01*
X85205808Y-116864587D01*
X85110044Y-116600186D01*
X84820429Y-116459296D01*
X84508892Y-116377616D01*
X84187405Y-116358282D01*
X83868325Y-116402039D01*
X83563912Y-116507205D01*
X83389956Y-116600186D01*
X83294192Y-116864587D01*
X81660000Y-116864587D01*
X81660000Y-113338967D01*
X82615000Y-113338967D01*
X82615000Y-113661033D01*
X82677832Y-113976912D01*
X82801082Y-114274463D01*
X82980013Y-114542252D01*
X83207748Y-114769987D01*
X83475537Y-114948918D01*
X83773088Y-115072168D01*
X84088967Y-115135000D01*
X84411033Y-115135000D01*
X84726912Y-115072168D01*
X85024463Y-114948918D01*
X85292252Y-114769987D01*
X85519987Y-114542252D01*
X85698918Y-114274463D01*
X85704909Y-114260000D01*
X89295091Y-114260000D01*
X89301082Y-114274463D01*
X89480013Y-114542252D01*
X89707748Y-114769987D01*
X89975537Y-114948918D01*
X90273088Y-115072168D01*
X90588967Y-115135000D01*
X90911033Y-115135000D01*
X91226912Y-115072168D01*
X91524463Y-114948918D01*
X91672504Y-114850000D01*
X93461928Y-114850000D01*
X93465000Y-115464250D01*
X93623750Y-115623000D01*
X94873000Y-115623000D01*
X94873000Y-114373750D01*
X94714250Y-114215000D01*
X94100000Y-114211928D01*
X93975518Y-114224188D01*
X93855820Y-114260498D01*
X93745506Y-114319463D01*
X93648815Y-114398815D01*
X93569463Y-114495506D01*
X93510498Y-114605820D01*
X93474188Y-114725518D01*
X93461928Y-114850000D01*
X91672504Y-114850000D01*
X91792252Y-114769987D01*
X92019987Y-114542252D01*
X92198918Y-114274463D01*
X92322168Y-113976912D01*
X92385000Y-113661033D01*
X92385000Y-113338967D01*
X92322168Y-113023088D01*
X92198918Y-112725537D01*
X92019987Y-112457748D01*
X91792252Y-112230013D01*
X91524463Y-112051082D01*
X91226912Y-111927832D01*
X90911033Y-111865000D01*
X90588967Y-111865000D01*
X90273088Y-111927832D01*
X89975537Y-112051082D01*
X89707748Y-112230013D01*
X89480013Y-112457748D01*
X89301082Y-112725537D01*
X89295091Y-112740000D01*
X85704909Y-112740000D01*
X85698918Y-112725537D01*
X85519987Y-112457748D01*
X85292252Y-112230013D01*
X85024463Y-112051082D01*
X85010000Y-112045091D01*
X85010000Y-110626039D01*
X86578945Y-109057095D01*
X86714880Y-109260535D01*
X86909465Y-109455120D01*
X87138273Y-109608005D01*
X87392510Y-109713314D01*
X87662408Y-109767000D01*
X87937592Y-109767000D01*
X88207490Y-109713314D01*
X88461727Y-109608005D01*
X88690535Y-109455120D01*
X88885120Y-109260535D01*
X89038005Y-109031727D01*
X89070000Y-108954485D01*
X89101995Y-109031727D01*
X89254880Y-109260535D01*
X89449465Y-109455120D01*
X89678273Y-109608005D01*
X89932510Y-109713314D01*
X90202408Y-109767000D01*
X90477592Y-109767000D01*
X90747490Y-109713314D01*
X91001727Y-109608005D01*
X91230535Y-109455120D01*
X91425120Y-109260535D01*
X91578005Y-109031727D01*
X91610000Y-108954485D01*
X91641995Y-109031727D01*
X91794880Y-109260535D01*
X91989465Y-109455120D01*
X92218273Y-109608005D01*
X92472510Y-109713314D01*
X92742408Y-109767000D01*
X93017592Y-109767000D01*
X93287490Y-109713314D01*
X93541727Y-109608005D01*
X93770535Y-109455120D01*
X93890090Y-109335565D01*
X94634040Y-109335565D01*
X94701020Y-109575656D01*
X94950048Y-109692756D01*
X95217135Y-109759023D01*
X95492017Y-109771910D01*
X95764133Y-109730922D01*
X96023023Y-109637636D01*
X96138980Y-109575656D01*
X96205960Y-109335565D01*
X95420000Y-108549605D01*
X94634040Y-109335565D01*
X93890090Y-109335565D01*
X93965120Y-109260535D01*
X94118005Y-109031727D01*
X94147692Y-108960057D01*
X94152364Y-108973023D01*
X94214344Y-109088980D01*
X94454435Y-109155960D01*
X95240395Y-108370000D01*
X95226253Y-108355858D01*
X95405858Y-108176253D01*
X95420000Y-108190395D01*
X95434143Y-108176253D01*
X95613748Y-108355858D01*
X95599605Y-108370000D01*
X96385565Y-109155960D01*
X96625656Y-109088980D01*
X96689485Y-108953240D01*
X96721995Y-109031727D01*
X96874880Y-109260535D01*
X97069465Y-109455120D01*
X97298273Y-109608005D01*
X97552510Y-109713314D01*
X97822408Y-109767000D01*
X98097592Y-109767000D01*
X98367490Y-109713314D01*
X98621727Y-109608005D01*
X98850535Y-109455120D01*
X99045120Y-109260535D01*
X99198005Y-109031727D01*
X99230000Y-108954485D01*
X99261995Y-109031727D01*
X99414880Y-109260535D01*
X99609465Y-109455120D01*
X99838273Y-109608005D01*
X100092510Y-109713314D01*
X100362408Y-109767000D01*
X100637592Y-109767000D01*
X100907490Y-109713314D01*
X101161727Y-109608005D01*
X101390535Y-109455120D01*
X101585120Y-109260535D01*
X101738005Y-109031727D01*
X101770000Y-108954485D01*
X101801995Y-109031727D01*
X101954880Y-109260535D01*
X102149465Y-109455120D01*
X102240001Y-109515614D01*
X102240000Y-111991956D01*
X102085241Y-112095363D01*
X101885363Y-112295241D01*
X101728320Y-112530273D01*
X101620147Y-112791426D01*
X101565000Y-113068665D01*
X101565000Y-113351335D01*
X101620147Y-113628574D01*
X101728320Y-113889727D01*
X101885363Y-114124759D01*
X102085241Y-114324637D01*
X102317759Y-114480000D01*
X102085241Y-114635363D01*
X101885363Y-114835241D01*
X101781957Y-114990000D01*
X98878313Y-114990000D01*
X98732312Y-114771495D01*
X98518505Y-114557688D01*
X98267095Y-114389701D01*
X97987743Y-114273989D01*
X97691184Y-114215000D01*
X97388816Y-114215000D01*
X97092257Y-114273989D01*
X96812905Y-114389701D01*
X96561495Y-114557688D01*
X96495056Y-114624127D01*
X96489502Y-114605820D01*
X96430537Y-114495506D01*
X96351185Y-114398815D01*
X96254494Y-114319463D01*
X96144180Y-114260498D01*
X96024482Y-114224188D01*
X95900000Y-114211928D01*
X95285750Y-114215000D01*
X95127000Y-114373750D01*
X95127000Y-115623000D01*
X95147000Y-115623000D01*
X95147000Y-115877000D01*
X95127000Y-115877000D01*
X95127000Y-117126250D01*
X95285750Y-117285000D01*
X95900000Y-117288072D01*
X96024482Y-117275812D01*
X96144180Y-117239502D01*
X96254494Y-117180537D01*
X96351185Y-117101185D01*
X96430537Y-117004494D01*
X96489502Y-116894180D01*
X96495056Y-116875873D01*
X96561495Y-116942312D01*
X96812905Y-117110299D01*
X97092257Y-117226011D01*
X97388816Y-117285000D01*
X97691184Y-117285000D01*
X97987743Y-117226011D01*
X98267095Y-117110299D01*
X98518505Y-116942312D01*
X98732312Y-116728505D01*
X98878313Y-116510000D01*
X101781957Y-116510000D01*
X101885363Y-116664759D01*
X102085241Y-116864637D01*
X102320273Y-117021680D01*
X102581426Y-117129853D01*
X102858665Y-117185000D01*
X103141335Y-117185000D01*
X103418574Y-117129853D01*
X103679727Y-117021680D01*
X103914759Y-116864637D01*
X104114637Y-116664759D01*
X104126575Y-116646891D01*
X106558519Y-116646891D01*
X106655843Y-116921252D01*
X106804822Y-117171355D01*
X106999731Y-117387588D01*
X107233080Y-117561641D01*
X107495901Y-117686825D01*
X107643110Y-117731476D01*
X107873000Y-117610155D01*
X107873000Y-116417000D01*
X108127000Y-116417000D01*
X108127000Y-117610155D01*
X108356890Y-117731476D01*
X108504099Y-117686825D01*
X108766920Y-117561641D01*
X109000269Y-117387588D01*
X109195178Y-117171355D01*
X109270000Y-117045745D01*
X109344822Y-117171355D01*
X109539731Y-117387588D01*
X109773080Y-117561641D01*
X110035901Y-117686825D01*
X110183110Y-117731476D01*
X110413000Y-117610155D01*
X110413000Y-116417000D01*
X110667000Y-116417000D01*
X110667000Y-117610155D01*
X110896890Y-117731476D01*
X111044099Y-117686825D01*
X111306920Y-117561641D01*
X111540269Y-117387588D01*
X111735178Y-117171355D01*
X111810000Y-117045745D01*
X111884822Y-117171355D01*
X112079731Y-117387588D01*
X112313080Y-117561641D01*
X112575901Y-117686825D01*
X112723110Y-117731476D01*
X112953000Y-117610155D01*
X112953000Y-116417000D01*
X113207000Y-116417000D01*
X113207000Y-117610155D01*
X113436890Y-117731476D01*
X113584099Y-117686825D01*
X113846920Y-117561641D01*
X114080269Y-117387588D01*
X114275178Y-117171355D01*
X114350000Y-117045745D01*
X114424822Y-117171355D01*
X114619731Y-117387588D01*
X114853080Y-117561641D01*
X115115901Y-117686825D01*
X115263110Y-117731476D01*
X115493000Y-117610155D01*
X115493000Y-116417000D01*
X115747000Y-116417000D01*
X115747000Y-117610155D01*
X115976890Y-117731476D01*
X116124099Y-117686825D01*
X116386920Y-117561641D01*
X116620269Y-117387588D01*
X116815178Y-117171355D01*
X116964157Y-116921252D01*
X117061481Y-116646891D01*
X116940814Y-116417000D01*
X115747000Y-116417000D01*
X115493000Y-116417000D01*
X113207000Y-116417000D01*
X112953000Y-116417000D01*
X110667000Y-116417000D01*
X110413000Y-116417000D01*
X108127000Y-116417000D01*
X107873000Y-116417000D01*
X106679186Y-116417000D01*
X106558519Y-116646891D01*
X104126575Y-116646891D01*
X104271680Y-116429727D01*
X104379853Y-116168574D01*
X104435000Y-115891335D01*
X104435000Y-115608665D01*
X104379853Y-115331426D01*
X104271680Y-115070273D01*
X104114637Y-114835241D01*
X103914759Y-114635363D01*
X103682241Y-114480000D01*
X103914759Y-114324637D01*
X104114637Y-114124759D01*
X104271680Y-113889727D01*
X104379853Y-113628574D01*
X104435000Y-113351335D01*
X104435000Y-113068665D01*
X104379853Y-112791426D01*
X104271680Y-112530273D01*
X104114637Y-112295241D01*
X103914759Y-112095363D01*
X103760000Y-111991957D01*
X103760000Y-109569068D01*
X103930535Y-109455120D01*
X104125120Y-109260535D01*
X104278005Y-109031727D01*
X104310000Y-108954485D01*
X104341995Y-109031727D01*
X104494880Y-109260535D01*
X104689465Y-109455120D01*
X104820000Y-109542341D01*
X104820001Y-111292668D01*
X104816324Y-111330000D01*
X104820001Y-111367333D01*
X104830998Y-111478986D01*
X104840102Y-111508998D01*
X104874454Y-111622246D01*
X104945026Y-111754276D01*
X105016201Y-111841002D01*
X105040000Y-111870001D01*
X105068998Y-111893799D01*
X106558790Y-113383592D01*
X106515000Y-113603740D01*
X106515000Y-113896260D01*
X106572068Y-114183158D01*
X106684010Y-114453411D01*
X106846525Y-114696632D01*
X107053368Y-114903475D01*
X107229406Y-115021100D01*
X106999731Y-115192412D01*
X106804822Y-115408645D01*
X106655843Y-115658748D01*
X106558519Y-115933109D01*
X106679186Y-116163000D01*
X107873000Y-116163000D01*
X107873000Y-116143000D01*
X108127000Y-116143000D01*
X108127000Y-116163000D01*
X110413000Y-116163000D01*
X110413000Y-116143000D01*
X110667000Y-116143000D01*
X110667000Y-116163000D01*
X112953000Y-116163000D01*
X112953000Y-116143000D01*
X113207000Y-116143000D01*
X113207000Y-116163000D01*
X115493000Y-116163000D01*
X115493000Y-116143000D01*
X115747000Y-116143000D01*
X115747000Y-116163000D01*
X116940814Y-116163000D01*
X117061481Y-115933109D01*
X116964157Y-115658748D01*
X116815178Y-115408645D01*
X116620269Y-115192412D01*
X116390594Y-115021100D01*
X116566632Y-114903475D01*
X116773475Y-114696632D01*
X116935990Y-114453411D01*
X117047932Y-114183158D01*
X117105000Y-113896260D01*
X117105000Y-113603740D01*
X117047932Y-113316842D01*
X116935990Y-113046589D01*
X116773475Y-112803368D01*
X116566632Y-112596525D01*
X116500000Y-112552003D01*
X116500000Y-110050947D01*
X124699000Y-110050947D01*
X124699000Y-110501053D01*
X124786811Y-110942510D01*
X124959059Y-111358353D01*
X125209125Y-111732603D01*
X125527397Y-112050875D01*
X125901647Y-112300941D01*
X126317490Y-112473189D01*
X126758947Y-112561000D01*
X127209053Y-112561000D01*
X127650510Y-112473189D01*
X128066353Y-112300941D01*
X128440603Y-112050875D01*
X128758875Y-111732603D01*
X129008941Y-111358353D01*
X129181189Y-110942510D01*
X129269000Y-110501053D01*
X129269000Y-110050947D01*
X129181189Y-109609490D01*
X129008941Y-109193647D01*
X128758875Y-108819397D01*
X128440603Y-108501125D01*
X128066353Y-108251059D01*
X127650510Y-108078811D01*
X127209053Y-107991000D01*
X126758947Y-107991000D01*
X126317490Y-108078811D01*
X125901647Y-108251059D01*
X125527397Y-108501125D01*
X125209125Y-108819397D01*
X124959059Y-109193647D01*
X124786811Y-109609490D01*
X124699000Y-110050947D01*
X116500000Y-110050947D01*
X116500000Y-109542341D01*
X116630535Y-109455120D01*
X116825120Y-109260535D01*
X116978005Y-109031727D01*
X117083314Y-108777490D01*
X117137000Y-108507592D01*
X117137000Y-108232408D01*
X117083314Y-107962510D01*
X116978005Y-107708273D01*
X116825120Y-107479465D01*
X116630535Y-107284880D01*
X116401727Y-107131995D01*
X116147490Y-107026686D01*
X115877592Y-106973000D01*
X115602408Y-106973000D01*
X115332510Y-107026686D01*
X115078273Y-107131995D01*
X114849465Y-107284880D01*
X114654880Y-107479465D01*
X114501995Y-107708273D01*
X114470000Y-107785515D01*
X114438005Y-107708273D01*
X114285120Y-107479465D01*
X114090535Y-107284880D01*
X113861727Y-107131995D01*
X113607490Y-107026686D01*
X113337592Y-106973000D01*
X113062408Y-106973000D01*
X112908429Y-107003628D01*
X112676803Y-106772001D01*
X112653000Y-106742998D01*
X112537275Y-106648025D01*
X112405246Y-106577453D01*
X112261985Y-106533996D01*
X112150332Y-106522999D01*
X112150321Y-106522999D01*
X112112999Y-106519323D01*
X112075677Y-106522999D01*
X87315564Y-106522999D01*
X87278239Y-106519323D01*
X87240914Y-106522999D01*
X87240906Y-106522999D01*
X87129253Y-106533996D01*
X86985992Y-106577453D01*
X86853963Y-106648025D01*
X86738238Y-106742998D01*
X86714440Y-106771996D01*
X83739003Y-109747434D01*
X83709999Y-109771237D01*
X83669757Y-109820273D01*
X83615026Y-109886962D01*
X83588707Y-109936201D01*
X83544454Y-110018992D01*
X83500997Y-110162253D01*
X83490000Y-110273906D01*
X83490000Y-110273916D01*
X83486324Y-110311238D01*
X83490000Y-110348561D01*
X83490001Y-112045091D01*
X83475537Y-112051082D01*
X83207748Y-112230013D01*
X82980013Y-112457748D01*
X82801082Y-112725537D01*
X82677832Y-113023088D01*
X82615000Y-113338967D01*
X81660000Y-113338967D01*
X81660000Y-90127000D01*
X89728199Y-90127000D01*
X88091571Y-91763628D01*
X87937592Y-91733000D01*
X87662408Y-91733000D01*
X87392510Y-91786686D01*
X87138273Y-91891995D01*
X86909465Y-92044880D01*
X86714880Y-92239465D01*
X86561995Y-92468273D01*
X86456686Y-92722510D01*
X86403000Y-92992408D01*
X86403000Y-93267592D01*
X86456686Y-93537490D01*
X86561995Y-93791727D01*
X86714880Y-94020535D01*
X86909465Y-94215120D01*
X87138273Y-94368005D01*
X87392510Y-94473314D01*
X87662408Y-94527000D01*
X87937592Y-94527000D01*
X88207490Y-94473314D01*
X88461727Y-94368005D01*
X88690535Y-94215120D01*
X88810090Y-94095565D01*
X89554040Y-94095565D01*
X89621020Y-94335656D01*
X89870048Y-94452756D01*
X90137135Y-94519023D01*
X90412017Y-94531910D01*
X90684133Y-94490922D01*
X90943023Y-94397636D01*
X91058980Y-94335656D01*
X91125960Y-94095565D01*
X90340000Y-93309605D01*
X89554040Y-94095565D01*
X88810090Y-94095565D01*
X88885120Y-94020535D01*
X89038005Y-93791727D01*
X89067692Y-93720057D01*
X89072364Y-93733023D01*
X89134344Y-93848980D01*
X89374435Y-93915960D01*
X90160395Y-93130000D01*
X90146253Y-93115858D01*
X90325858Y-92936253D01*
X90340000Y-92950395D01*
X91125960Y-92164435D01*
X91058980Y-91924344D01*
X90809952Y-91807244D01*
X90542865Y-91740977D01*
X90276320Y-91728481D01*
X91877801Y-90127000D01*
X97348198Y-90127000D01*
X95711570Y-91763628D01*
X95557592Y-91733000D01*
X95282408Y-91733000D01*
X95012510Y-91786686D01*
X94758273Y-91891995D01*
X94529465Y-92044880D01*
X94334880Y-92239465D01*
X94181995Y-92468273D01*
X94150000Y-92545515D01*
X94118005Y-92468273D01*
X93965120Y-92239465D01*
X93770535Y-92044880D01*
X93541727Y-91891995D01*
X93287490Y-91786686D01*
X93017592Y-91733000D01*
X92742408Y-91733000D01*
X92472510Y-91786686D01*
X92218273Y-91891995D01*
X91989465Y-92044880D01*
X91794880Y-92239465D01*
X91641995Y-92468273D01*
X91612308Y-92539943D01*
X91607636Y-92526977D01*
X91545656Y-92411020D01*
X91305565Y-92344040D01*
X90519605Y-93130000D01*
X91305565Y-93915960D01*
X91545656Y-93848980D01*
X91609485Y-93713240D01*
X91641995Y-93791727D01*
X91794880Y-94020535D01*
X91989465Y-94215120D01*
X92218273Y-94368005D01*
X92472510Y-94473314D01*
X92742408Y-94527000D01*
X93017592Y-94527000D01*
X93287490Y-94473314D01*
X93541727Y-94368005D01*
X93770535Y-94215120D01*
X93965120Y-94020535D01*
X94118005Y-93791727D01*
X94150000Y-93714485D01*
X94181995Y-93791727D01*
X94334880Y-94020535D01*
X94529465Y-94215120D01*
X94758273Y-94368005D01*
X95012510Y-94473314D01*
X95282408Y-94527000D01*
X95557592Y-94527000D01*
X95827490Y-94473314D01*
X96081727Y-94368005D01*
X96310535Y-94215120D01*
X96505120Y-94020535D01*
X96658005Y-93791727D01*
X96690000Y-93714485D01*
X96721995Y-93791727D01*
X96874880Y-94020535D01*
X97069465Y-94215120D01*
X97298273Y-94368005D01*
X97552510Y-94473314D01*
X97822408Y-94527000D01*
X98097592Y-94527000D01*
X98367490Y-94473314D01*
X98621727Y-94368005D01*
X98850535Y-94215120D01*
X99045120Y-94020535D01*
X99198005Y-93791727D01*
X99230000Y-93714485D01*
X99261995Y-93791727D01*
X99414880Y-94020535D01*
X99609465Y-94215120D01*
X99838273Y-94368005D01*
X100092510Y-94473314D01*
X100362408Y-94527000D01*
X100637592Y-94527000D01*
X100907490Y-94473314D01*
X101161727Y-94368005D01*
X101390535Y-94215120D01*
X101585120Y-94020535D01*
X101738005Y-93791727D01*
X101770000Y-93714485D01*
X101801995Y-93791727D01*
X101954880Y-94020535D01*
X102149465Y-94215120D01*
X102378273Y-94368005D01*
X102632510Y-94473314D01*
X102902408Y-94527000D01*
X103177592Y-94527000D01*
X103447490Y-94473314D01*
X103701727Y-94368005D01*
X103930535Y-94215120D01*
X104125120Y-94020535D01*
X104278005Y-93791727D01*
X104310000Y-93714485D01*
X104341995Y-93791727D01*
X104494880Y-94020535D01*
X104689465Y-94215120D01*
X104918273Y-94368005D01*
X105172510Y-94473314D01*
X105442408Y-94527000D01*
X105717592Y-94527000D01*
X105987490Y-94473314D01*
X106241727Y-94368005D01*
X106470535Y-94215120D01*
X106665120Y-94020535D01*
X106818005Y-93791727D01*
X106850000Y-93714485D01*
X106881995Y-93791727D01*
X107034880Y-94020535D01*
X107229465Y-94215120D01*
X107458273Y-94368005D01*
X107712510Y-94473314D01*
X107982408Y-94527000D01*
X108257592Y-94527000D01*
X108411570Y-94496372D01*
X109543220Y-95628022D01*
X109567018Y-95657020D01*
X109682743Y-95751993D01*
X109814772Y-95822565D01*
X109958033Y-95866022D01*
X110069686Y-95877019D01*
X110069695Y-95877019D01*
X110107018Y-95880695D01*
X110144341Y-95877019D01*
X128595659Y-95877019D01*
X128632981Y-95880695D01*
X128670303Y-95877019D01*
X128670314Y-95877019D01*
X128781967Y-95866022D01*
X128925228Y-95822565D01*
X129057257Y-95751993D01*
X129172982Y-95657020D01*
X129196785Y-95628016D01*
X130816434Y-94008367D01*
X130874916Y-94020000D01*
X131125084Y-94020000D01*
X131370445Y-93971195D01*
X131601571Y-93875459D01*
X131809578Y-93736473D01*
X131986473Y-93559578D01*
X132005323Y-93531368D01*
X132048982Y-93591712D01*
X132231465Y-93761073D01*
X132443483Y-93891579D01*
X132676887Y-93978215D01*
X132873000Y-93854890D01*
X132873000Y-91645110D01*
X132853000Y-91632533D01*
X132853000Y-91623000D01*
X132873000Y-91623000D01*
X132873000Y-91603000D01*
X133127000Y-91603000D01*
X133127000Y-91623000D01*
X133147000Y-91623000D01*
X133147000Y-91632533D01*
X133127000Y-91645110D01*
X133127000Y-93854890D01*
X133323113Y-93978215D01*
X133556517Y-93891579D01*
X133768535Y-93761073D01*
X133951018Y-93591712D01*
X133994677Y-93531368D01*
X134013527Y-93559578D01*
X134190422Y-93736473D01*
X134398429Y-93875459D01*
X134629555Y-93971195D01*
X134874916Y-94020000D01*
X135125084Y-94020000D01*
X135370445Y-93971195D01*
X135601571Y-93875459D01*
X135809578Y-93736473D01*
X135986473Y-93559578D01*
X136125459Y-93351571D01*
X136221195Y-93120445D01*
X136270000Y-92875084D01*
X136270000Y-92624916D01*
X136238072Y-92464402D01*
X136238072Y-90750000D01*
X136225812Y-90625518D01*
X136189502Y-90505820D01*
X136130537Y-90395506D01*
X136051185Y-90298815D01*
X135954494Y-90219463D01*
X135844180Y-90160498D01*
X135724482Y-90124188D01*
X135657345Y-90117576D01*
X135634974Y-90075724D01*
X135540001Y-89959999D01*
X135511001Y-89936199D01*
X135488801Y-89913999D01*
X135465000Y-89884998D01*
X135349275Y-89790025D01*
X135217246Y-89719453D01*
X135073985Y-89675996D01*
X134962332Y-89664999D01*
X134962321Y-89664999D01*
X134924999Y-89661323D01*
X134887677Y-89664999D01*
X117877000Y-89664999D01*
X117877000Y-64127802D01*
X126641197Y-55363605D01*
X162466000Y-55363605D01*
X162591914Y-55653577D01*
X162924126Y-55819433D01*
X163282312Y-55917290D01*
X163652706Y-55943389D01*
X164021075Y-55896725D01*
X164373262Y-55779094D01*
X164608086Y-55653577D01*
X164734000Y-55363605D01*
X163600000Y-54229605D01*
X162466000Y-55363605D01*
X126641197Y-55363605D01*
X127902096Y-54102706D01*
X161706611Y-54102706D01*
X161753275Y-54471075D01*
X161870906Y-54823262D01*
X161996423Y-55058086D01*
X162286395Y-55184000D01*
X163420395Y-54050000D01*
X163779605Y-54050000D01*
X164913605Y-55184000D01*
X165203577Y-55058086D01*
X165369433Y-54725874D01*
X165467290Y-54367688D01*
X165493389Y-53997294D01*
X165446725Y-53628925D01*
X165329094Y-53276738D01*
X165203577Y-53041914D01*
X164913605Y-52916000D01*
X163779605Y-54050000D01*
X163420395Y-54050000D01*
X162286395Y-52916000D01*
X161996423Y-53041914D01*
X161830567Y-53374126D01*
X161732710Y-53732312D01*
X161706611Y-54102706D01*
X127902096Y-54102706D01*
X129268407Y-52736395D01*
X162466000Y-52736395D01*
X163600000Y-53870395D01*
X164734000Y-52736395D01*
X164608086Y-52446423D01*
X164275874Y-52280567D01*
X163917688Y-52182710D01*
X163547294Y-52156611D01*
X163178925Y-52203275D01*
X162826738Y-52320906D01*
X162591914Y-52446423D01*
X162466000Y-52736395D01*
X129268407Y-52736395D01*
X129493799Y-52511003D01*
X129493803Y-52510998D01*
X130744802Y-51260000D01*
X166685199Y-51260000D01*
X168540198Y-53115000D01*
X168293465Y-53115000D01*
X168249999Y-53110719D01*
X168206533Y-53115000D01*
X168206523Y-53115000D01*
X168076510Y-53127805D01*
X167909687Y-53178411D01*
X167755941Y-53260589D01*
X167755939Y-53260590D01*
X167755940Y-53260590D01*
X167654953Y-53343468D01*
X167654951Y-53343470D01*
X167621183Y-53371183D01*
X167593470Y-53404951D01*
X150904956Y-70093466D01*
X150871183Y-70121183D01*
X150760589Y-70255942D01*
X150678411Y-70409688D01*
X150627805Y-70576511D01*
X150615000Y-70706524D01*
X150615000Y-70706531D01*
X150610719Y-70750000D01*
X150615000Y-70793470D01*
X150615001Y-72021521D01*
X150615000Y-89153605D01*
X150523985Y-89125996D01*
X150412332Y-89114999D01*
X150412321Y-89114999D01*
X150374999Y-89111323D01*
X150337677Y-89114999D01*
X143912326Y-89114999D01*
X143875001Y-89111323D01*
X143837676Y-89114999D01*
X143837668Y-89114999D01*
X143726015Y-89125996D01*
X143582754Y-89169453D01*
X143450725Y-89240025D01*
X143335000Y-89334998D01*
X143311202Y-89363996D01*
X143073886Y-89601312D01*
X142891335Y-89565000D01*
X142608665Y-89565000D01*
X142331426Y-89620147D01*
X142070273Y-89728320D01*
X141835241Y-89885363D01*
X141635363Y-90085241D01*
X141480000Y-90317759D01*
X141324637Y-90085241D01*
X141124759Y-89885363D01*
X140889727Y-89728320D01*
X140628574Y-89620147D01*
X140351335Y-89565000D01*
X140068665Y-89565000D01*
X139791426Y-89620147D01*
X139530273Y-89728320D01*
X139295241Y-89885363D01*
X139095363Y-90085241D01*
X138938320Y-90320273D01*
X138830147Y-90581426D01*
X138775000Y-90858665D01*
X138775000Y-91141335D01*
X138830147Y-91418574D01*
X138938320Y-91679727D01*
X139095363Y-91914759D01*
X139295241Y-92114637D01*
X139450000Y-92218044D01*
X139450001Y-93339182D01*
X139307688Y-93481495D01*
X139139701Y-93732905D01*
X139023989Y-94012257D01*
X138965000Y-94308816D01*
X138965000Y-94611184D01*
X139023989Y-94907743D01*
X139139701Y-95187095D01*
X139307688Y-95438505D01*
X139374127Y-95504944D01*
X139355820Y-95510498D01*
X139245506Y-95569463D01*
X139148815Y-95648815D01*
X139069463Y-95745506D01*
X139010498Y-95855820D01*
X138974188Y-95975518D01*
X138961928Y-96100000D01*
X138961928Y-97900000D01*
X138974188Y-98024482D01*
X139010498Y-98144180D01*
X139069463Y-98254494D01*
X139148815Y-98351185D01*
X139245506Y-98430537D01*
X139355820Y-98489502D01*
X139475518Y-98525812D01*
X139600000Y-98538072D01*
X141400000Y-98538072D01*
X141524482Y-98525812D01*
X141644180Y-98489502D01*
X141754494Y-98430537D01*
X141851185Y-98351185D01*
X141930537Y-98254494D01*
X141989502Y-98144180D01*
X142025812Y-98024482D01*
X142038072Y-97900000D01*
X142038072Y-97760000D01*
X144212678Y-97760000D01*
X144250000Y-97763676D01*
X144287322Y-97760000D01*
X144287333Y-97760000D01*
X144398986Y-97749003D01*
X144542247Y-97705546D01*
X144674276Y-97634974D01*
X144790001Y-97540001D01*
X144813804Y-97510997D01*
X145436729Y-96888072D01*
X146275000Y-96888072D01*
X146399482Y-96875812D01*
X146519180Y-96839502D01*
X146583902Y-96804907D01*
X146792601Y-96868215D01*
X147020000Y-96890612D01*
X147247400Y-96868215D01*
X147466060Y-96801885D01*
X147654669Y-96701071D01*
X147713118Y-96742275D01*
X147922663Y-96835272D01*
X147984190Y-96843964D01*
X148163000Y-96718163D01*
X148163000Y-95953108D01*
X148163215Y-95952399D01*
X148180000Y-95781978D01*
X148180000Y-95627000D01*
X148417000Y-95627000D01*
X148417000Y-96718163D01*
X148595810Y-96843964D01*
X148657337Y-96835272D01*
X148866882Y-96742275D01*
X149054258Y-96610184D01*
X149212264Y-96444076D01*
X149334828Y-96250334D01*
X149417239Y-96036404D01*
X149456331Y-95810507D01*
X149296598Y-95627000D01*
X148417000Y-95627000D01*
X148180000Y-95627000D01*
X148180000Y-95218021D01*
X148163215Y-95047600D01*
X148163000Y-95046891D01*
X148163000Y-94281837D01*
X148417000Y-94281837D01*
X148417000Y-95373000D01*
X149296598Y-95373000D01*
X149456331Y-95189493D01*
X149417239Y-94963596D01*
X149334828Y-94749666D01*
X149212264Y-94555924D01*
X149054258Y-94389816D01*
X148866882Y-94257725D01*
X148657337Y-94164728D01*
X148595810Y-94156036D01*
X148417000Y-94281837D01*
X148163000Y-94281837D01*
X147984190Y-94156036D01*
X147922663Y-94164728D01*
X147780000Y-94228042D01*
X147780000Y-92834801D01*
X148216114Y-92398688D01*
X148398665Y-92435000D01*
X148681335Y-92435000D01*
X148958574Y-92379853D01*
X149219727Y-92271680D01*
X149454759Y-92114637D01*
X149654637Y-91914759D01*
X149811680Y-91679727D01*
X149917404Y-91424487D01*
X149927832Y-91476912D01*
X150051082Y-91774463D01*
X150230013Y-92042252D01*
X150457748Y-92269987D01*
X150615000Y-92375060D01*
X150615001Y-95161928D01*
X150390000Y-95161928D01*
X150265518Y-95174188D01*
X150145820Y-95210498D01*
X150035506Y-95269463D01*
X149938815Y-95348815D01*
X149859463Y-95445506D01*
X149800498Y-95555820D01*
X149764188Y-95675518D01*
X149751928Y-95800000D01*
X149751928Y-98200000D01*
X149764188Y-98324482D01*
X149800498Y-98444180D01*
X149859463Y-98554494D01*
X149938815Y-98651185D01*
X150035506Y-98730537D01*
X150145820Y-98789502D01*
X150265518Y-98825812D01*
X150390000Y-98838072D01*
X150705001Y-98838072D01*
X150705001Y-98939634D01*
X150667246Y-98919453D01*
X150523985Y-98875996D01*
X150412332Y-98864999D01*
X150412321Y-98864999D01*
X150374999Y-98861323D01*
X150337677Y-98864999D01*
X143952326Y-98864999D01*
X143915001Y-98861323D01*
X143877676Y-98864999D01*
X143877668Y-98864999D01*
X143766015Y-98875996D01*
X143622754Y-98919453D01*
X143490725Y-98990025D01*
X143375000Y-99084998D01*
X143351202Y-99113996D01*
X143113886Y-99351312D01*
X142931335Y-99315000D01*
X142648665Y-99315000D01*
X142371426Y-99370147D01*
X142110273Y-99478320D01*
X141875241Y-99635363D01*
X141675363Y-99835241D01*
X141520000Y-100067759D01*
X141364637Y-99835241D01*
X141164759Y-99635363D01*
X140929727Y-99478320D01*
X140668574Y-99370147D01*
X140391335Y-99315000D01*
X140108665Y-99315000D01*
X139831426Y-99370147D01*
X139570273Y-99478320D01*
X139335241Y-99635363D01*
X139135363Y-99835241D01*
X138978320Y-100070273D01*
X138870147Y-100331426D01*
X138815000Y-100608665D01*
X138815000Y-100891335D01*
X138870147Y-101168574D01*
X138978320Y-101429727D01*
X139135363Y-101664759D01*
X139335241Y-101864637D01*
X139490000Y-101968044D01*
X139490001Y-103049182D01*
X139307688Y-103231495D01*
X139139701Y-103482905D01*
X139023989Y-103762257D01*
X138965000Y-104058816D01*
X138965000Y-104361184D01*
X139023989Y-104657743D01*
X139139701Y-104937095D01*
X139307688Y-105188505D01*
X139374127Y-105254944D01*
X139355820Y-105260498D01*
X139245506Y-105319463D01*
X139148815Y-105398815D01*
X139069463Y-105495506D01*
X139010498Y-105605820D01*
X138974188Y-105725518D01*
X138961928Y-105850000D01*
X138961928Y-107650000D01*
X138974188Y-107774482D01*
X139010498Y-107894180D01*
X139069463Y-108004494D01*
X139148815Y-108101185D01*
X139245506Y-108180537D01*
X139355820Y-108239502D01*
X139475518Y-108275812D01*
X139600000Y-108288072D01*
X141400000Y-108288072D01*
X141524482Y-108275812D01*
X141644180Y-108239502D01*
X141754494Y-108180537D01*
X141851185Y-108101185D01*
X141930537Y-108004494D01*
X141989502Y-107894180D01*
X142025812Y-107774482D01*
X142038072Y-107650000D01*
X142038072Y-107510000D01*
X144212678Y-107510000D01*
X144250000Y-107513676D01*
X144287322Y-107510000D01*
X144287333Y-107510000D01*
X144398986Y-107499003D01*
X144542247Y-107455546D01*
X144674276Y-107384974D01*
X144790001Y-107290001D01*
X144813804Y-107260997D01*
X145436729Y-106638072D01*
X146275000Y-106638072D01*
X146399482Y-106625812D01*
X146519180Y-106589502D01*
X146583902Y-106554907D01*
X146792601Y-106618215D01*
X147020000Y-106640612D01*
X147247400Y-106618215D01*
X147466060Y-106551885D01*
X147654669Y-106451071D01*
X147713118Y-106492275D01*
X147922663Y-106585272D01*
X147984190Y-106593964D01*
X148163000Y-106468163D01*
X148163000Y-105703108D01*
X148163215Y-105702399D01*
X148180000Y-105531978D01*
X148180000Y-105377000D01*
X148417000Y-105377000D01*
X148417000Y-106468163D01*
X148595810Y-106593964D01*
X148657337Y-106585272D01*
X148866882Y-106492275D01*
X149054258Y-106360184D01*
X149212264Y-106194076D01*
X149334828Y-106000334D01*
X149417239Y-105786404D01*
X149456331Y-105560507D01*
X149296598Y-105377000D01*
X148417000Y-105377000D01*
X148180000Y-105377000D01*
X148180000Y-104968021D01*
X148163215Y-104797600D01*
X148163000Y-104796891D01*
X148163000Y-104031837D01*
X148417000Y-104031837D01*
X148417000Y-105123000D01*
X149296598Y-105123000D01*
X149456331Y-104939493D01*
X149417239Y-104713596D01*
X149334828Y-104499666D01*
X149212264Y-104305924D01*
X149054258Y-104139816D01*
X148866882Y-104007725D01*
X148657337Y-103914728D01*
X148595810Y-103906036D01*
X148417000Y-104031837D01*
X148163000Y-104031837D01*
X147984190Y-103906036D01*
X147922663Y-103914728D01*
X147780000Y-103978042D01*
X147780000Y-102584801D01*
X148216114Y-102148688D01*
X148398665Y-102185000D01*
X148681335Y-102185000D01*
X148958574Y-102129853D01*
X149219727Y-102021680D01*
X149454759Y-101864637D01*
X149654637Y-101664759D01*
X149811680Y-101429727D01*
X149917404Y-101174487D01*
X149927832Y-101226912D01*
X150051082Y-101524463D01*
X150230013Y-101792252D01*
X150457748Y-102019987D01*
X150615000Y-102125060D01*
X150615001Y-104911928D01*
X150390000Y-104911928D01*
X150265518Y-104924188D01*
X150145820Y-104960498D01*
X150035506Y-105019463D01*
X149938815Y-105098815D01*
X149859463Y-105195506D01*
X149800498Y-105305820D01*
X149764188Y-105425518D01*
X149751928Y-105550000D01*
X149751928Y-107950000D01*
X149764188Y-108074482D01*
X149800498Y-108194180D01*
X149859463Y-108304494D01*
X149938815Y-108401185D01*
X150035506Y-108480537D01*
X150145820Y-108539502D01*
X150265518Y-108575812D01*
X150390000Y-108588072D01*
X150705001Y-108588072D01*
X150705001Y-108689634D01*
X150667246Y-108669453D01*
X150523985Y-108625996D01*
X150412332Y-108614999D01*
X150412321Y-108614999D01*
X150374999Y-108611323D01*
X150337677Y-108614999D01*
X143952326Y-108614999D01*
X143915001Y-108611323D01*
X143877676Y-108614999D01*
X143877668Y-108614999D01*
X143766015Y-108625996D01*
X143622754Y-108669453D01*
X143490725Y-108740025D01*
X143375000Y-108834998D01*
X143351202Y-108863996D01*
X143113886Y-109101312D01*
X142931335Y-109065000D01*
X142648665Y-109065000D01*
X142371426Y-109120147D01*
X142110273Y-109228320D01*
X141875241Y-109385363D01*
X141675363Y-109585241D01*
X141520000Y-109817759D01*
X141364637Y-109585241D01*
X141164759Y-109385363D01*
X140929727Y-109228320D01*
X140668574Y-109120147D01*
X140391335Y-109065000D01*
X140108665Y-109065000D01*
X139831426Y-109120147D01*
X139570273Y-109228320D01*
X139335241Y-109385363D01*
X139135363Y-109585241D01*
X138978320Y-109820273D01*
X138870147Y-110081426D01*
X138815000Y-110358665D01*
X138815000Y-110641335D01*
X138870147Y-110918574D01*
X138978320Y-111179727D01*
X139135363Y-111414759D01*
X139335241Y-111614637D01*
X139490000Y-111718044D01*
X139490001Y-112799182D01*
X139307688Y-112981495D01*
X139139701Y-113232905D01*
X139023989Y-113512257D01*
X138965000Y-113808816D01*
X138965000Y-114111184D01*
X139023989Y-114407743D01*
X139139701Y-114687095D01*
X139307688Y-114938505D01*
X139374127Y-115004944D01*
X139355820Y-115010498D01*
X139245506Y-115069463D01*
X139148815Y-115148815D01*
X139069463Y-115245506D01*
X139010498Y-115355820D01*
X138974188Y-115475518D01*
X138961928Y-115600000D01*
X138961928Y-117400000D01*
X138974188Y-117524482D01*
X139010498Y-117644180D01*
X139069463Y-117754494D01*
X139148815Y-117851185D01*
X139245506Y-117930537D01*
X139355820Y-117989502D01*
X139475518Y-118025812D01*
X139600000Y-118038072D01*
X141400000Y-118038072D01*
X141524482Y-118025812D01*
X141644180Y-117989502D01*
X141754494Y-117930537D01*
X141851185Y-117851185D01*
X141930537Y-117754494D01*
X141989502Y-117644180D01*
X142025812Y-117524482D01*
X142038072Y-117400000D01*
X142038072Y-117260000D01*
X144212678Y-117260000D01*
X144250000Y-117263676D01*
X144287322Y-117260000D01*
X144287333Y-117260000D01*
X144398986Y-117249003D01*
X144542247Y-117205546D01*
X144674276Y-117134974D01*
X144790001Y-117040001D01*
X144813804Y-117010997D01*
X145436729Y-116388072D01*
X146275000Y-116388072D01*
X146399482Y-116375812D01*
X146519180Y-116339502D01*
X146583902Y-116304907D01*
X146792601Y-116368215D01*
X147020000Y-116390612D01*
X147247400Y-116368215D01*
X147466060Y-116301885D01*
X147654669Y-116201071D01*
X147713118Y-116242275D01*
X147922663Y-116335272D01*
X147984190Y-116343964D01*
X148163000Y-116218163D01*
X148163000Y-115453108D01*
X148163215Y-115452399D01*
X148180000Y-115281978D01*
X148180000Y-115127000D01*
X148417000Y-115127000D01*
X148417000Y-116218163D01*
X148595810Y-116343964D01*
X148657337Y-116335272D01*
X148866882Y-116242275D01*
X149054258Y-116110184D01*
X149212264Y-115944076D01*
X149334828Y-115750334D01*
X149417239Y-115536404D01*
X149456331Y-115310507D01*
X149296598Y-115127000D01*
X148417000Y-115127000D01*
X148180000Y-115127000D01*
X148180000Y-114718021D01*
X148163215Y-114547600D01*
X148163000Y-114546891D01*
X148163000Y-113781837D01*
X148417000Y-113781837D01*
X148417000Y-114873000D01*
X149296598Y-114873000D01*
X149456331Y-114689493D01*
X149417239Y-114463596D01*
X149334828Y-114249666D01*
X149212264Y-114055924D01*
X149054258Y-113889816D01*
X148866882Y-113757725D01*
X148657337Y-113664728D01*
X148595810Y-113656036D01*
X148417000Y-113781837D01*
X148163000Y-113781837D01*
X147984190Y-113656036D01*
X147922663Y-113664728D01*
X147780000Y-113728042D01*
X147780000Y-112334801D01*
X148216114Y-111898688D01*
X148398665Y-111935000D01*
X148681335Y-111935000D01*
X148958574Y-111879853D01*
X149219727Y-111771680D01*
X149454759Y-111614637D01*
X149654637Y-111414759D01*
X149811680Y-111179727D01*
X149917404Y-110924487D01*
X149927832Y-110976912D01*
X150051082Y-111274463D01*
X150230013Y-111542252D01*
X150457748Y-111769987D01*
X150615000Y-111875060D01*
X150615001Y-114661928D01*
X150390000Y-114661928D01*
X150265518Y-114674188D01*
X150145820Y-114710498D01*
X150035506Y-114769463D01*
X149938815Y-114848815D01*
X149859463Y-114945506D01*
X149800498Y-115055820D01*
X149764188Y-115175518D01*
X149751928Y-115300000D01*
X149751928Y-117700000D01*
X149764188Y-117824482D01*
X149800498Y-117944180D01*
X149859463Y-118054494D01*
X149938815Y-118151185D01*
X150035506Y-118230537D01*
X150145820Y-118289502D01*
X150265518Y-118325812D01*
X150390000Y-118338072D01*
X150705001Y-118338072D01*
X150705001Y-118439634D01*
X150667246Y-118419453D01*
X150523985Y-118375996D01*
X150412332Y-118364999D01*
X150412321Y-118364999D01*
X150374999Y-118361323D01*
X150337677Y-118364999D01*
X143952326Y-118364999D01*
X143915001Y-118361323D01*
X143877676Y-118364999D01*
X143877668Y-118364999D01*
X143766015Y-118375996D01*
X143622754Y-118419453D01*
X143490725Y-118490025D01*
X143375000Y-118584998D01*
X143351202Y-118613996D01*
X143113886Y-118851312D01*
X142931335Y-118815000D01*
X142648665Y-118815000D01*
X142371426Y-118870147D01*
X142110273Y-118978320D01*
X141875241Y-119135363D01*
X141675363Y-119335241D01*
X141520000Y-119567759D01*
X141364637Y-119335241D01*
X141164759Y-119135363D01*
X140929727Y-118978320D01*
X140668574Y-118870147D01*
X140391335Y-118815000D01*
X140108665Y-118815000D01*
X139831426Y-118870147D01*
X139570273Y-118978320D01*
X139335241Y-119135363D01*
X139135363Y-119335241D01*
X138978320Y-119570273D01*
X138870147Y-119831426D01*
X138815000Y-120108665D01*
X138815000Y-120391335D01*
X138870147Y-120668574D01*
X138978320Y-120929727D01*
X139135363Y-121164759D01*
X139335241Y-121364637D01*
X139490000Y-121468044D01*
X139490001Y-122549182D01*
X139307688Y-122731495D01*
X139139701Y-122982905D01*
X139023989Y-123262257D01*
X138965000Y-123558816D01*
X138965000Y-123861184D01*
X139023989Y-124157743D01*
X139139701Y-124437095D01*
X139307688Y-124688505D01*
X139374127Y-124754944D01*
X139355820Y-124760498D01*
X139245506Y-124819463D01*
X139148815Y-124898815D01*
X139069463Y-124995506D01*
X139010498Y-125105820D01*
X138974188Y-125225518D01*
X138961928Y-125350000D01*
X138961928Y-127150000D01*
X138974188Y-127274482D01*
X139010498Y-127394180D01*
X139069463Y-127504494D01*
X139148815Y-127601185D01*
X139245506Y-127680537D01*
X139355820Y-127739502D01*
X139475518Y-127775812D01*
X139600000Y-127788072D01*
X141400000Y-127788072D01*
X141524482Y-127775812D01*
X141644180Y-127739502D01*
X141754494Y-127680537D01*
X141851185Y-127601185D01*
X141930537Y-127504494D01*
X141989502Y-127394180D01*
X142025812Y-127274482D01*
X142038072Y-127150000D01*
X142038072Y-127010000D01*
X144212678Y-127010000D01*
X144250000Y-127013676D01*
X144287322Y-127010000D01*
X144287333Y-127010000D01*
X144398986Y-126999003D01*
X144542247Y-126955546D01*
X144674276Y-126884974D01*
X144790001Y-126790001D01*
X144813804Y-126760997D01*
X145436729Y-126138072D01*
X146275000Y-126138072D01*
X146399482Y-126125812D01*
X146519180Y-126089502D01*
X146583902Y-126054907D01*
X146792601Y-126118215D01*
X147020000Y-126140612D01*
X147247400Y-126118215D01*
X147466060Y-126051885D01*
X147654669Y-125951071D01*
X147713118Y-125992275D01*
X147922663Y-126085272D01*
X147984190Y-126093964D01*
X148163000Y-125968163D01*
X148163000Y-125203108D01*
X148163215Y-125202399D01*
X148180000Y-125031978D01*
X148180000Y-124877000D01*
X148417000Y-124877000D01*
X148417000Y-125968163D01*
X148595810Y-126093964D01*
X148657337Y-126085272D01*
X148866882Y-125992275D01*
X149054258Y-125860184D01*
X149212264Y-125694076D01*
X149334828Y-125500334D01*
X149417239Y-125286404D01*
X149456331Y-125060507D01*
X149296598Y-124877000D01*
X148417000Y-124877000D01*
X148180000Y-124877000D01*
X148180000Y-124468021D01*
X148163215Y-124297600D01*
X148163000Y-124296891D01*
X148163000Y-123531837D01*
X148417000Y-123531837D01*
X148417000Y-124623000D01*
X149296598Y-124623000D01*
X149456331Y-124439493D01*
X149417239Y-124213596D01*
X149334828Y-123999666D01*
X149212264Y-123805924D01*
X149054258Y-123639816D01*
X148866882Y-123507725D01*
X148657337Y-123414728D01*
X148595810Y-123406036D01*
X148417000Y-123531837D01*
X148163000Y-123531837D01*
X147984190Y-123406036D01*
X147922663Y-123414728D01*
X147780000Y-123478042D01*
X147780000Y-122044801D01*
X148176114Y-121648688D01*
X148358665Y-121685000D01*
X148641335Y-121685000D01*
X148918574Y-121629853D01*
X149179727Y-121521680D01*
X149414759Y-121364637D01*
X149614637Y-121164759D01*
X149771680Y-120929727D01*
X149879853Y-120668574D01*
X149898041Y-120577140D01*
X149927832Y-120726912D01*
X150051082Y-121024463D01*
X150230013Y-121292252D01*
X150457748Y-121519987D01*
X150725537Y-121698918D01*
X150740000Y-121704909D01*
X150740001Y-124661928D01*
X150300000Y-124661928D01*
X150175518Y-124674188D01*
X150055820Y-124710498D01*
X149945506Y-124769463D01*
X149848815Y-124848815D01*
X149769463Y-124945506D01*
X149710498Y-125055820D01*
X149674188Y-125175518D01*
X149661928Y-125300000D01*
X149661928Y-127700000D01*
X149674188Y-127824482D01*
X149710498Y-127944180D01*
X149769463Y-128054494D01*
X149848815Y-128151185D01*
X149945506Y-128230537D01*
X150055820Y-128289502D01*
X150175518Y-128325812D01*
X150300000Y-128338072D01*
X152700000Y-128338072D01*
X152824482Y-128325812D01*
X152944180Y-128289502D01*
X153054494Y-128230537D01*
X153151185Y-128151185D01*
X153230537Y-128054494D01*
X153289502Y-127944180D01*
X153325812Y-127824482D01*
X153338072Y-127700000D01*
X153338072Y-125300000D01*
X153325812Y-125175518D01*
X153289502Y-125055820D01*
X153230537Y-124945506D01*
X153151185Y-124848815D01*
X153054494Y-124769463D01*
X152944180Y-124710498D01*
X152824482Y-124674188D01*
X152700000Y-124661928D01*
X152260000Y-124661928D01*
X152260000Y-121704909D01*
X152274463Y-121698918D01*
X152542252Y-121519987D01*
X152769987Y-121292252D01*
X152948918Y-121024463D01*
X153072168Y-120726912D01*
X153135000Y-120411033D01*
X153135000Y-120088967D01*
X153072168Y-119773088D01*
X152948918Y-119475537D01*
X152798219Y-119250000D01*
X153611928Y-119250000D01*
X153611928Y-121250000D01*
X153624188Y-121374482D01*
X153660498Y-121494180D01*
X153719463Y-121604494D01*
X153798815Y-121701185D01*
X153895506Y-121780537D01*
X154005820Y-121839502D01*
X154125518Y-121875812D01*
X154250000Y-121888072D01*
X155973271Y-121888072D01*
X159940750Y-125855551D01*
X159895518Y-125964750D01*
X159825000Y-126319268D01*
X159825000Y-126680732D01*
X159895518Y-127035250D01*
X160033844Y-127369199D01*
X160234662Y-127669744D01*
X160490256Y-127925338D01*
X160790801Y-128126156D01*
X161124750Y-128264482D01*
X161479268Y-128335000D01*
X161840732Y-128335000D01*
X162195250Y-128264482D01*
X162529199Y-128126156D01*
X162829744Y-127925338D01*
X163085338Y-127669744D01*
X163286156Y-127369199D01*
X163424482Y-127035250D01*
X163495000Y-126680732D01*
X163495000Y-126319268D01*
X163424482Y-125964750D01*
X163286156Y-125630801D01*
X163085338Y-125330256D01*
X162829744Y-125074662D01*
X162529199Y-124873844D01*
X162195250Y-124735518D01*
X161840732Y-124665000D01*
X161479268Y-124665000D01*
X161124750Y-124735518D01*
X161015551Y-124780750D01*
X159381691Y-123146890D01*
X179308524Y-123146890D01*
X179353175Y-123294099D01*
X179478359Y-123556920D01*
X179652412Y-123790269D01*
X179868645Y-123985178D01*
X180118748Y-124134157D01*
X180393109Y-124231481D01*
X180623000Y-124110814D01*
X180623000Y-122917000D01*
X180877000Y-122917000D01*
X180877000Y-124110814D01*
X181106891Y-124231481D01*
X181381252Y-124134157D01*
X181631355Y-123985178D01*
X181847588Y-123790269D01*
X182021641Y-123556920D01*
X182146825Y-123294099D01*
X182191476Y-123146890D01*
X182070155Y-122917000D01*
X180877000Y-122917000D01*
X180623000Y-122917000D01*
X179429845Y-122917000D01*
X179308524Y-123146890D01*
X159381691Y-123146890D01*
X156888072Y-120653271D01*
X156888072Y-120069268D01*
X164665000Y-120069268D01*
X164665000Y-120430732D01*
X164735518Y-120785250D01*
X164873844Y-121119199D01*
X165074662Y-121419744D01*
X165330256Y-121675338D01*
X165630801Y-121876156D01*
X165964750Y-122014482D01*
X166319268Y-122085000D01*
X166680732Y-122085000D01*
X167035250Y-122014482D01*
X167369199Y-121876156D01*
X167669744Y-121675338D01*
X167925338Y-121419744D01*
X168126156Y-121119199D01*
X168264482Y-120785250D01*
X168335000Y-120430732D01*
X168335000Y-120069268D01*
X168264482Y-119714750D01*
X168126156Y-119380801D01*
X167925338Y-119080256D01*
X167669744Y-118824662D01*
X167369199Y-118623844D01*
X167035250Y-118485518D01*
X166680732Y-118415000D01*
X166319268Y-118415000D01*
X165964750Y-118485518D01*
X165630801Y-118623844D01*
X165330256Y-118824662D01*
X165074662Y-119080256D01*
X164873844Y-119380801D01*
X164735518Y-119714750D01*
X164665000Y-120069268D01*
X156888072Y-120069268D01*
X156888072Y-119250000D01*
X156875812Y-119125518D01*
X156839502Y-119005820D01*
X156780537Y-118895506D01*
X156701185Y-118798815D01*
X156604494Y-118719463D01*
X156494180Y-118660498D01*
X156374482Y-118624188D01*
X156250000Y-118611928D01*
X154250000Y-118611928D01*
X154125518Y-118624188D01*
X154005820Y-118660498D01*
X153895506Y-118719463D01*
X153798815Y-118798815D01*
X153719463Y-118895506D01*
X153660498Y-119005820D01*
X153624188Y-119125518D01*
X153611928Y-119250000D01*
X152798219Y-119250000D01*
X152769987Y-119207748D01*
X152542252Y-118980013D01*
X152475000Y-118935077D01*
X152475000Y-118338072D01*
X152790000Y-118338072D01*
X152914482Y-118325812D01*
X153034180Y-118289502D01*
X153144494Y-118230537D01*
X153241185Y-118151185D01*
X153320537Y-118054494D01*
X153379502Y-117944180D01*
X153415812Y-117824482D01*
X153428072Y-117700000D01*
X153428072Y-115300000D01*
X153415812Y-115175518D01*
X153379502Y-115055820D01*
X153320537Y-114945506D01*
X153241185Y-114848815D01*
X153144494Y-114769463D01*
X153034180Y-114710498D01*
X152914482Y-114674188D01*
X152790000Y-114661928D01*
X152385000Y-114661928D01*
X152385000Y-111875059D01*
X152542252Y-111769987D01*
X152769987Y-111542252D01*
X152948918Y-111274463D01*
X153072168Y-110976912D01*
X153135000Y-110661033D01*
X153135000Y-110338967D01*
X153072168Y-110023088D01*
X152948918Y-109725537D01*
X152798219Y-109500000D01*
X153611928Y-109500000D01*
X153611928Y-111500000D01*
X153624188Y-111624482D01*
X153660498Y-111744180D01*
X153719463Y-111854494D01*
X153798815Y-111951185D01*
X153895506Y-112030537D01*
X154005820Y-112089502D01*
X154125518Y-112125812D01*
X154250000Y-112138072D01*
X156250000Y-112138072D01*
X156307598Y-112132399D01*
X160030749Y-115855552D01*
X159985518Y-115964750D01*
X159915000Y-116319268D01*
X159915000Y-116680732D01*
X159985518Y-117035250D01*
X160123844Y-117369199D01*
X160324662Y-117669744D01*
X160580256Y-117925338D01*
X160880801Y-118126156D01*
X161214750Y-118264482D01*
X161569268Y-118335000D01*
X161930732Y-118335000D01*
X162285250Y-118264482D01*
X162619199Y-118126156D01*
X162919744Y-117925338D01*
X163175338Y-117669744D01*
X163376156Y-117369199D01*
X163514482Y-117035250D01*
X163585000Y-116680732D01*
X163585000Y-116319268D01*
X163514482Y-115964750D01*
X163376156Y-115630801D01*
X163175338Y-115330256D01*
X162919744Y-115074662D01*
X162619199Y-114873844D01*
X162285250Y-114735518D01*
X161930732Y-114665000D01*
X161569268Y-114665000D01*
X161214750Y-114735518D01*
X161105552Y-114780749D01*
X156888072Y-110563271D01*
X156888072Y-110319268D01*
X164665000Y-110319268D01*
X164665000Y-110680732D01*
X164735518Y-111035250D01*
X164873844Y-111369199D01*
X165074662Y-111669744D01*
X165330256Y-111925338D01*
X165630801Y-112126156D01*
X165964750Y-112264482D01*
X166319268Y-112335000D01*
X166680732Y-112335000D01*
X167035250Y-112264482D01*
X167369199Y-112126156D01*
X167669744Y-111925338D01*
X167925338Y-111669744D01*
X168126156Y-111369199D01*
X168264482Y-111035250D01*
X168335000Y-110680732D01*
X168335000Y-110319268D01*
X168264482Y-109964750D01*
X168126156Y-109630801D01*
X167925338Y-109330256D01*
X167669744Y-109074662D01*
X167369199Y-108873844D01*
X167035250Y-108735518D01*
X166680732Y-108665000D01*
X166319268Y-108665000D01*
X165964750Y-108735518D01*
X165630801Y-108873844D01*
X165330256Y-109074662D01*
X165074662Y-109330256D01*
X164873844Y-109630801D01*
X164735518Y-109964750D01*
X164665000Y-110319268D01*
X156888072Y-110319268D01*
X156888072Y-109500000D01*
X156875812Y-109375518D01*
X156839502Y-109255820D01*
X156780537Y-109145506D01*
X156701185Y-109048815D01*
X156604494Y-108969463D01*
X156494180Y-108910498D01*
X156374482Y-108874188D01*
X156250000Y-108861928D01*
X154250000Y-108861928D01*
X154125518Y-108874188D01*
X154005820Y-108910498D01*
X153895506Y-108969463D01*
X153798815Y-109048815D01*
X153719463Y-109145506D01*
X153660498Y-109255820D01*
X153624188Y-109375518D01*
X153611928Y-109500000D01*
X152798219Y-109500000D01*
X152769987Y-109457748D01*
X152542252Y-109230013D01*
X152475000Y-109185077D01*
X152475000Y-108588072D01*
X152790000Y-108588072D01*
X152914482Y-108575812D01*
X153034180Y-108539502D01*
X153144494Y-108480537D01*
X153241185Y-108401185D01*
X153320537Y-108304494D01*
X153379502Y-108194180D01*
X153415812Y-108074482D01*
X153428072Y-107950000D01*
X153428072Y-105550000D01*
X153415812Y-105425518D01*
X153379502Y-105305820D01*
X153320537Y-105195506D01*
X153241185Y-105098815D01*
X153144494Y-105019463D01*
X153034180Y-104960498D01*
X152914482Y-104924188D01*
X152790000Y-104911928D01*
X152385000Y-104911928D01*
X152385000Y-102125059D01*
X152542252Y-102019987D01*
X152769987Y-101792252D01*
X152948918Y-101524463D01*
X153072168Y-101226912D01*
X153135000Y-100911033D01*
X153135000Y-100588967D01*
X153072168Y-100273088D01*
X152948918Y-99975537D01*
X152798219Y-99750000D01*
X153611928Y-99750000D01*
X153611928Y-101750000D01*
X153624188Y-101874482D01*
X153660498Y-101994180D01*
X153719463Y-102104494D01*
X153798815Y-102201185D01*
X153895506Y-102280537D01*
X154005820Y-102339502D01*
X154125518Y-102375812D01*
X154250000Y-102388072D01*
X156250000Y-102388072D01*
X156307598Y-102382399D01*
X160030749Y-106105552D01*
X159985518Y-106214750D01*
X159915000Y-106569268D01*
X159915000Y-106930732D01*
X159985518Y-107285250D01*
X160123844Y-107619199D01*
X160324662Y-107919744D01*
X160580256Y-108175338D01*
X160880801Y-108376156D01*
X161214750Y-108514482D01*
X161569268Y-108585000D01*
X161930732Y-108585000D01*
X162285250Y-108514482D01*
X162619199Y-108376156D01*
X162919744Y-108175338D01*
X163175338Y-107919744D01*
X163376156Y-107619199D01*
X163514482Y-107285250D01*
X163585000Y-106930732D01*
X163585000Y-106569268D01*
X163514482Y-106214750D01*
X163376156Y-105880801D01*
X163175338Y-105580256D01*
X162919744Y-105324662D01*
X162619199Y-105123844D01*
X162285250Y-104985518D01*
X161930732Y-104915000D01*
X161569268Y-104915000D01*
X161214750Y-104985518D01*
X161105552Y-105030749D01*
X156888072Y-100813271D01*
X156888072Y-100569268D01*
X164665000Y-100569268D01*
X164665000Y-100930732D01*
X164735518Y-101285250D01*
X164873844Y-101619199D01*
X165074662Y-101919744D01*
X165330256Y-102175338D01*
X165630801Y-102376156D01*
X165964750Y-102514482D01*
X166319268Y-102585000D01*
X166680732Y-102585000D01*
X167035250Y-102514482D01*
X167369199Y-102376156D01*
X167669744Y-102175338D01*
X167925338Y-101919744D01*
X168126156Y-101619199D01*
X168264482Y-101285250D01*
X168335000Y-100930732D01*
X168335000Y-100569268D01*
X168264482Y-100214750D01*
X168126156Y-99880801D01*
X167925338Y-99580256D01*
X167669744Y-99324662D01*
X167369199Y-99123844D01*
X167035250Y-98985518D01*
X166680732Y-98915000D01*
X166319268Y-98915000D01*
X165964750Y-98985518D01*
X165630801Y-99123844D01*
X165330256Y-99324662D01*
X165074662Y-99580256D01*
X164873844Y-99880801D01*
X164735518Y-100214750D01*
X164665000Y-100569268D01*
X156888072Y-100569268D01*
X156888072Y-99750000D01*
X156875812Y-99625518D01*
X156839502Y-99505820D01*
X156780537Y-99395506D01*
X156701185Y-99298815D01*
X156604494Y-99219463D01*
X156494180Y-99160498D01*
X156374482Y-99124188D01*
X156250000Y-99111928D01*
X154250000Y-99111928D01*
X154125518Y-99124188D01*
X154005820Y-99160498D01*
X153895506Y-99219463D01*
X153798815Y-99298815D01*
X153719463Y-99395506D01*
X153660498Y-99505820D01*
X153624188Y-99625518D01*
X153611928Y-99750000D01*
X152798219Y-99750000D01*
X152769987Y-99707748D01*
X152542252Y-99480013D01*
X152475000Y-99435077D01*
X152475000Y-98838072D01*
X152790000Y-98838072D01*
X152914482Y-98825812D01*
X153034180Y-98789502D01*
X153144494Y-98730537D01*
X153241185Y-98651185D01*
X153320537Y-98554494D01*
X153379502Y-98444180D01*
X153415812Y-98324482D01*
X153428072Y-98200000D01*
X153428072Y-95800000D01*
X153415812Y-95675518D01*
X153379502Y-95555820D01*
X153320537Y-95445506D01*
X153241185Y-95348815D01*
X153144494Y-95269463D01*
X153034180Y-95210498D01*
X152914482Y-95174188D01*
X152790000Y-95161928D01*
X152385000Y-95161928D01*
X152385000Y-92375059D01*
X152542252Y-92269987D01*
X152769987Y-92042252D01*
X152948918Y-91774463D01*
X153072168Y-91476912D01*
X153135000Y-91161033D01*
X153135000Y-90838967D01*
X153072168Y-90523088D01*
X152948918Y-90225537D01*
X152798219Y-90000000D01*
X153611928Y-90000000D01*
X153611928Y-92000000D01*
X153624188Y-92124482D01*
X153660498Y-92244180D01*
X153719463Y-92354494D01*
X153798815Y-92451185D01*
X153895506Y-92530537D01*
X154005820Y-92589502D01*
X154125518Y-92625812D01*
X154250000Y-92638072D01*
X156250000Y-92638072D01*
X156307598Y-92632399D01*
X160030749Y-96355552D01*
X159985518Y-96464750D01*
X159915000Y-96819268D01*
X159915000Y-97180732D01*
X159985518Y-97535250D01*
X160123844Y-97869199D01*
X160324662Y-98169744D01*
X160580256Y-98425338D01*
X160880801Y-98626156D01*
X161214750Y-98764482D01*
X161569268Y-98835000D01*
X161930732Y-98835000D01*
X162285250Y-98764482D01*
X162619199Y-98626156D01*
X162919744Y-98425338D01*
X163175338Y-98169744D01*
X163376156Y-97869199D01*
X163514482Y-97535250D01*
X163585000Y-97180732D01*
X163585000Y-96819268D01*
X163514482Y-96464750D01*
X163376156Y-96130801D01*
X163175338Y-95830256D01*
X162919744Y-95574662D01*
X162619199Y-95373844D01*
X162285250Y-95235518D01*
X161930732Y-95165000D01*
X161569268Y-95165000D01*
X161214750Y-95235518D01*
X161105552Y-95280749D01*
X156888072Y-91063271D01*
X156888072Y-90819268D01*
X164665000Y-90819268D01*
X164665000Y-91180732D01*
X164735518Y-91535250D01*
X164873844Y-91869199D01*
X165074662Y-92169744D01*
X165330256Y-92425338D01*
X165630801Y-92626156D01*
X165964750Y-92764482D01*
X166319268Y-92835000D01*
X166680732Y-92835000D01*
X167035250Y-92764482D01*
X167369199Y-92626156D01*
X167669744Y-92425338D01*
X167925338Y-92169744D01*
X168126156Y-91869199D01*
X168264482Y-91535250D01*
X168335000Y-91180732D01*
X168335000Y-90819268D01*
X168264482Y-90464750D01*
X168126156Y-90130801D01*
X167925338Y-89830256D01*
X167669744Y-89574662D01*
X167369199Y-89373844D01*
X167035250Y-89235518D01*
X166680732Y-89165000D01*
X166319268Y-89165000D01*
X165964750Y-89235518D01*
X165630801Y-89373844D01*
X165330256Y-89574662D01*
X165074662Y-89830256D01*
X164873844Y-90130801D01*
X164735518Y-90464750D01*
X164665000Y-90819268D01*
X156888072Y-90819268D01*
X156888072Y-90000000D01*
X156875812Y-89875518D01*
X156839502Y-89755820D01*
X156780537Y-89645506D01*
X156701185Y-89548815D01*
X156604494Y-89469463D01*
X156494180Y-89410498D01*
X156374482Y-89374188D01*
X156250000Y-89361928D01*
X154250000Y-89361928D01*
X154125518Y-89374188D01*
X154005820Y-89410498D01*
X153895506Y-89469463D01*
X153798815Y-89548815D01*
X153719463Y-89645506D01*
X153660498Y-89755820D01*
X153624188Y-89875518D01*
X153611928Y-90000000D01*
X152798219Y-90000000D01*
X152769987Y-89957748D01*
X152542252Y-89730013D01*
X152385000Y-89624941D01*
X152385000Y-71116578D01*
X161713059Y-61788520D01*
X161711928Y-61800000D01*
X161711928Y-64300000D01*
X161724188Y-64424482D01*
X161760498Y-64544180D01*
X161819463Y-64654494D01*
X161898815Y-64751185D01*
X161995506Y-64830537D01*
X162105820Y-64889502D01*
X162225518Y-64925812D01*
X162350000Y-64938072D01*
X162715000Y-64938072D01*
X162715001Y-83056521D01*
X162710719Y-83100000D01*
X162727805Y-83273490D01*
X162778412Y-83440313D01*
X162860590Y-83594059D01*
X162943468Y-83695046D01*
X162943471Y-83695049D01*
X162971184Y-83728817D01*
X163004952Y-83756530D01*
X169731810Y-90483389D01*
X169665000Y-90819268D01*
X169665000Y-91180732D01*
X169735518Y-91535250D01*
X169873844Y-91869199D01*
X170074662Y-92169744D01*
X170330256Y-92425338D01*
X170615000Y-92615598D01*
X170615001Y-99134401D01*
X170330256Y-99324662D01*
X170074662Y-99580256D01*
X169873844Y-99880801D01*
X169735518Y-100214750D01*
X169665000Y-100569268D01*
X169665000Y-100930732D01*
X169735518Y-101285250D01*
X169873844Y-101619199D01*
X170074662Y-101919744D01*
X170330256Y-102175338D01*
X170615000Y-102365598D01*
X170615001Y-108884401D01*
X170330256Y-109074662D01*
X170074662Y-109330256D01*
X169873844Y-109630801D01*
X169735518Y-109964750D01*
X169665000Y-110319268D01*
X169665000Y-110680732D01*
X169735518Y-111035250D01*
X169873844Y-111369199D01*
X170074662Y-111669744D01*
X170330256Y-111925338D01*
X170615000Y-112115598D01*
X170615001Y-118634401D01*
X170330256Y-118824662D01*
X170074662Y-119080256D01*
X169873844Y-119380801D01*
X169735518Y-119714750D01*
X169665000Y-120069268D01*
X169665000Y-120430732D01*
X169735518Y-120785250D01*
X169873844Y-121119199D01*
X170074662Y-121419744D01*
X170330256Y-121675338D01*
X170630801Y-121876156D01*
X170964750Y-122014482D01*
X171319268Y-122085000D01*
X171680732Y-122085000D01*
X172035250Y-122014482D01*
X172369199Y-121876156D01*
X172669744Y-121675338D01*
X172925338Y-121419744D01*
X173126156Y-121119199D01*
X173264482Y-120785250D01*
X173335000Y-120430732D01*
X173335000Y-120069268D01*
X174665000Y-120069268D01*
X174665000Y-120430732D01*
X174735518Y-120785250D01*
X174873844Y-121119199D01*
X175074662Y-121419744D01*
X175330256Y-121675338D01*
X175630801Y-121876156D01*
X175964750Y-122014482D01*
X176319268Y-122085000D01*
X176680732Y-122085000D01*
X177035250Y-122014482D01*
X177369199Y-121876156D01*
X177669744Y-121675338D01*
X177925338Y-121419744D01*
X178115598Y-121135000D01*
X179265375Y-121135000D01*
X179274188Y-121224482D01*
X179310498Y-121344180D01*
X179369463Y-121454494D01*
X179448815Y-121551185D01*
X179545506Y-121630537D01*
X179655820Y-121689502D01*
X179736466Y-121713966D01*
X179652412Y-121789731D01*
X179478359Y-122023080D01*
X179353175Y-122285901D01*
X179308524Y-122433110D01*
X179429845Y-122663000D01*
X180623000Y-122663000D01*
X180623000Y-122643000D01*
X180877000Y-122643000D01*
X180877000Y-122663000D01*
X182070155Y-122663000D01*
X182191476Y-122433110D01*
X182146825Y-122285901D01*
X182021641Y-122023080D01*
X181847588Y-121789731D01*
X181763534Y-121713966D01*
X181844180Y-121689502D01*
X181954494Y-121630537D01*
X182051185Y-121551185D01*
X182130537Y-121454494D01*
X182189502Y-121344180D01*
X182225812Y-121224482D01*
X182238072Y-121100000D01*
X182238072Y-119400000D01*
X182225812Y-119275518D01*
X182189502Y-119155820D01*
X182130537Y-119045506D01*
X182051185Y-118948815D01*
X181954494Y-118869463D01*
X181844180Y-118810498D01*
X181724482Y-118774188D01*
X181600000Y-118761928D01*
X179900000Y-118761928D01*
X179775518Y-118774188D01*
X179655820Y-118810498D01*
X179545506Y-118869463D01*
X179448815Y-118948815D01*
X179369463Y-119045506D01*
X179310498Y-119155820D01*
X179274188Y-119275518D01*
X179265375Y-119365000D01*
X178115598Y-119365000D01*
X177925338Y-119080256D01*
X177669744Y-118824662D01*
X177369199Y-118623844D01*
X177035250Y-118485518D01*
X176680732Y-118415000D01*
X176319268Y-118415000D01*
X175964750Y-118485518D01*
X175630801Y-118623844D01*
X175330256Y-118824662D01*
X175074662Y-119080256D01*
X174873844Y-119380801D01*
X174735518Y-119714750D01*
X174665000Y-120069268D01*
X173335000Y-120069268D01*
X173264482Y-119714750D01*
X173126156Y-119380801D01*
X172925338Y-119080256D01*
X172669744Y-118824662D01*
X172385000Y-118634402D01*
X172385000Y-113356890D01*
X179558524Y-113356890D01*
X179603175Y-113504099D01*
X179728359Y-113766920D01*
X179902412Y-114000269D01*
X180118645Y-114195178D01*
X180368748Y-114344157D01*
X180643109Y-114441481D01*
X180873000Y-114320814D01*
X180873000Y-113127000D01*
X181127000Y-113127000D01*
X181127000Y-114320814D01*
X181356891Y-114441481D01*
X181631252Y-114344157D01*
X181881355Y-114195178D01*
X182097588Y-114000269D01*
X182271641Y-113766920D01*
X182396825Y-113504099D01*
X182441476Y-113356890D01*
X182320155Y-113127000D01*
X181127000Y-113127000D01*
X180873000Y-113127000D01*
X179679845Y-113127000D01*
X179558524Y-113356890D01*
X172385000Y-113356890D01*
X172385000Y-112115598D01*
X172669744Y-111925338D01*
X172925338Y-111669744D01*
X173126156Y-111369199D01*
X173264482Y-111035250D01*
X173335000Y-110680732D01*
X173335000Y-110319268D01*
X174665000Y-110319268D01*
X174665000Y-110680732D01*
X174735518Y-111035250D01*
X174873844Y-111369199D01*
X175074662Y-111669744D01*
X175330256Y-111925338D01*
X175630801Y-112126156D01*
X175964750Y-112264482D01*
X176319268Y-112335000D01*
X176680732Y-112335000D01*
X177035250Y-112264482D01*
X177369199Y-112126156D01*
X177669744Y-111925338D01*
X177925338Y-111669744D01*
X178115598Y-111385000D01*
X179519315Y-111385000D01*
X179524188Y-111434482D01*
X179560498Y-111554180D01*
X179619463Y-111664494D01*
X179698815Y-111761185D01*
X179795506Y-111840537D01*
X179905820Y-111899502D01*
X179986466Y-111923966D01*
X179902412Y-111999731D01*
X179728359Y-112233080D01*
X179603175Y-112495901D01*
X179558524Y-112643110D01*
X179679845Y-112873000D01*
X180873000Y-112873000D01*
X180873000Y-112853000D01*
X181127000Y-112853000D01*
X181127000Y-112873000D01*
X182320155Y-112873000D01*
X182441476Y-112643110D01*
X182396825Y-112495901D01*
X182271641Y-112233080D01*
X182097588Y-111999731D01*
X182013534Y-111923966D01*
X182094180Y-111899502D01*
X182204494Y-111840537D01*
X182301185Y-111761185D01*
X182380537Y-111664494D01*
X182439502Y-111554180D01*
X182475812Y-111434482D01*
X182488072Y-111310000D01*
X182488072Y-109610000D01*
X182475812Y-109485518D01*
X182439502Y-109365820D01*
X182380537Y-109255506D01*
X182301185Y-109158815D01*
X182204494Y-109079463D01*
X182094180Y-109020498D01*
X181974482Y-108984188D01*
X181850000Y-108971928D01*
X180150000Y-108971928D01*
X180025518Y-108984188D01*
X179905820Y-109020498D01*
X179795506Y-109079463D01*
X179698815Y-109158815D01*
X179619463Y-109255506D01*
X179560498Y-109365820D01*
X179524188Y-109485518D01*
X179511928Y-109610000D01*
X179511928Y-109615000D01*
X178115598Y-109615000D01*
X177925338Y-109330256D01*
X177669744Y-109074662D01*
X177369199Y-108873844D01*
X177035250Y-108735518D01*
X176680732Y-108665000D01*
X176319268Y-108665000D01*
X175964750Y-108735518D01*
X175630801Y-108873844D01*
X175330256Y-109074662D01*
X175074662Y-109330256D01*
X174873844Y-109630801D01*
X174735518Y-109964750D01*
X174665000Y-110319268D01*
X173335000Y-110319268D01*
X173264482Y-109964750D01*
X173126156Y-109630801D01*
X172925338Y-109330256D01*
X172669744Y-109074662D01*
X172385000Y-108884402D01*
X172385000Y-103646890D01*
X179558524Y-103646890D01*
X179603175Y-103794099D01*
X179728359Y-104056920D01*
X179902412Y-104290269D01*
X180118645Y-104485178D01*
X180368748Y-104634157D01*
X180643109Y-104731481D01*
X180873000Y-104610814D01*
X180873000Y-103417000D01*
X181127000Y-103417000D01*
X181127000Y-104610814D01*
X181356891Y-104731481D01*
X181631252Y-104634157D01*
X181881355Y-104485178D01*
X182097588Y-104290269D01*
X182271641Y-104056920D01*
X182396825Y-103794099D01*
X182441476Y-103646890D01*
X182320155Y-103417000D01*
X181127000Y-103417000D01*
X180873000Y-103417000D01*
X179679845Y-103417000D01*
X179558524Y-103646890D01*
X172385000Y-103646890D01*
X172385000Y-102365598D01*
X172669744Y-102175338D01*
X172925338Y-101919744D01*
X173126156Y-101619199D01*
X173264482Y-101285250D01*
X173335000Y-100930732D01*
X173335000Y-100569268D01*
X174665000Y-100569268D01*
X174665000Y-100930732D01*
X174735518Y-101285250D01*
X174873844Y-101619199D01*
X175074662Y-101919744D01*
X175330256Y-102175338D01*
X175630801Y-102376156D01*
X175964750Y-102514482D01*
X176319268Y-102585000D01*
X176680732Y-102585000D01*
X177035250Y-102514482D01*
X177369199Y-102376156D01*
X177669744Y-102175338D01*
X177925338Y-101919744D01*
X178115598Y-101635000D01*
X179515375Y-101635000D01*
X179524188Y-101724482D01*
X179560498Y-101844180D01*
X179619463Y-101954494D01*
X179698815Y-102051185D01*
X179795506Y-102130537D01*
X179905820Y-102189502D01*
X179986466Y-102213966D01*
X179902412Y-102289731D01*
X179728359Y-102523080D01*
X179603175Y-102785901D01*
X179558524Y-102933110D01*
X179679845Y-103163000D01*
X180873000Y-103163000D01*
X180873000Y-103143000D01*
X181127000Y-103143000D01*
X181127000Y-103163000D01*
X182320155Y-103163000D01*
X182441476Y-102933110D01*
X182396825Y-102785901D01*
X182271641Y-102523080D01*
X182097588Y-102289731D01*
X182013534Y-102213966D01*
X182094180Y-102189502D01*
X182204494Y-102130537D01*
X182301185Y-102051185D01*
X182380537Y-101954494D01*
X182439502Y-101844180D01*
X182475812Y-101724482D01*
X182488072Y-101600000D01*
X182488072Y-99900000D01*
X182475812Y-99775518D01*
X182439502Y-99655820D01*
X182380537Y-99545506D01*
X182301185Y-99448815D01*
X182204494Y-99369463D01*
X182094180Y-99310498D01*
X181974482Y-99274188D01*
X181850000Y-99261928D01*
X180150000Y-99261928D01*
X180025518Y-99274188D01*
X179905820Y-99310498D01*
X179795506Y-99369463D01*
X179698815Y-99448815D01*
X179619463Y-99545506D01*
X179560498Y-99655820D01*
X179524188Y-99775518D01*
X179515375Y-99865000D01*
X178115598Y-99865000D01*
X177925338Y-99580256D01*
X177669744Y-99324662D01*
X177369199Y-99123844D01*
X177035250Y-98985518D01*
X176680732Y-98915000D01*
X176319268Y-98915000D01*
X175964750Y-98985518D01*
X175630801Y-99123844D01*
X175330256Y-99324662D01*
X175074662Y-99580256D01*
X174873844Y-99880801D01*
X174735518Y-100214750D01*
X174665000Y-100569268D01*
X173335000Y-100569268D01*
X173264482Y-100214750D01*
X173126156Y-99880801D01*
X172925338Y-99580256D01*
X172669744Y-99324662D01*
X172385000Y-99134402D01*
X172385000Y-93896890D01*
X179308524Y-93896890D01*
X179353175Y-94044099D01*
X179478359Y-94306920D01*
X179652412Y-94540269D01*
X179868645Y-94735178D01*
X180118748Y-94884157D01*
X180393109Y-94981481D01*
X180623000Y-94860814D01*
X180623000Y-93667000D01*
X180877000Y-93667000D01*
X180877000Y-94860814D01*
X181106891Y-94981481D01*
X181381252Y-94884157D01*
X181631355Y-94735178D01*
X181847588Y-94540269D01*
X182021641Y-94306920D01*
X182146825Y-94044099D01*
X182191476Y-93896890D01*
X182070155Y-93667000D01*
X180877000Y-93667000D01*
X180623000Y-93667000D01*
X179429845Y-93667000D01*
X179308524Y-93896890D01*
X172385000Y-93896890D01*
X172385000Y-92615598D01*
X172669744Y-92425338D01*
X172925338Y-92169744D01*
X173126156Y-91869199D01*
X173264482Y-91535250D01*
X173335000Y-91180732D01*
X173335000Y-90819268D01*
X174665000Y-90819268D01*
X174665000Y-91180732D01*
X174735518Y-91535250D01*
X174873844Y-91869199D01*
X175074662Y-92169744D01*
X175330256Y-92425338D01*
X175630801Y-92626156D01*
X175964750Y-92764482D01*
X176319268Y-92835000D01*
X176680732Y-92835000D01*
X177035250Y-92764482D01*
X177369199Y-92626156D01*
X177669744Y-92425338D01*
X177925338Y-92169744D01*
X178115598Y-91885000D01*
X179265375Y-91885000D01*
X179274188Y-91974482D01*
X179310498Y-92094180D01*
X179369463Y-92204494D01*
X179448815Y-92301185D01*
X179545506Y-92380537D01*
X179655820Y-92439502D01*
X179736466Y-92463966D01*
X179652412Y-92539731D01*
X179478359Y-92773080D01*
X179353175Y-93035901D01*
X179308524Y-93183110D01*
X179429845Y-93413000D01*
X180623000Y-93413000D01*
X180623000Y-93393000D01*
X180877000Y-93393000D01*
X180877000Y-93413000D01*
X182070155Y-93413000D01*
X182191476Y-93183110D01*
X182146825Y-93035901D01*
X182021641Y-92773080D01*
X181847588Y-92539731D01*
X181763534Y-92463966D01*
X181844180Y-92439502D01*
X181954494Y-92380537D01*
X182051185Y-92301185D01*
X182130537Y-92204494D01*
X182189502Y-92094180D01*
X182225812Y-91974482D01*
X182238072Y-91850000D01*
X182238072Y-90150000D01*
X182225812Y-90025518D01*
X182189502Y-89905820D01*
X182130537Y-89795506D01*
X182051185Y-89698815D01*
X181954494Y-89619463D01*
X181844180Y-89560498D01*
X181724482Y-89524188D01*
X181600000Y-89511928D01*
X179900000Y-89511928D01*
X179775518Y-89524188D01*
X179655820Y-89560498D01*
X179545506Y-89619463D01*
X179448815Y-89698815D01*
X179369463Y-89795506D01*
X179310498Y-89905820D01*
X179274188Y-90025518D01*
X179265375Y-90115000D01*
X178115598Y-90115000D01*
X177925338Y-89830256D01*
X177669744Y-89574662D01*
X177369199Y-89373844D01*
X177035250Y-89235518D01*
X176680732Y-89165000D01*
X176319268Y-89165000D01*
X175964750Y-89235518D01*
X175630801Y-89373844D01*
X175330256Y-89574662D01*
X175074662Y-89830256D01*
X174873844Y-90130801D01*
X174735518Y-90464750D01*
X174665000Y-90819268D01*
X173335000Y-90819268D01*
X173264482Y-90464750D01*
X173126156Y-90130801D01*
X172925338Y-89830256D01*
X172669744Y-89574662D01*
X172369199Y-89373844D01*
X172035250Y-89235518D01*
X171680732Y-89165000D01*
X171319268Y-89165000D01*
X170983389Y-89231810D01*
X164485000Y-82733422D01*
X164485000Y-64938072D01*
X164850000Y-64938072D01*
X164974482Y-64925812D01*
X165094180Y-64889502D01*
X165204494Y-64830537D01*
X165301185Y-64751185D01*
X165380537Y-64654494D01*
X165439502Y-64544180D01*
X165475812Y-64424482D01*
X165488072Y-64300000D01*
X165488072Y-63935000D01*
X166486531Y-63935000D01*
X166530000Y-63939281D01*
X166573469Y-63935000D01*
X166573477Y-63935000D01*
X166703490Y-63922195D01*
X166870313Y-63871589D01*
X167024059Y-63789411D01*
X167158817Y-63678817D01*
X167186534Y-63645044D01*
X175343507Y-55488072D01*
X176430000Y-55488072D01*
X176554482Y-55475812D01*
X176674180Y-55439502D01*
X176784494Y-55380537D01*
X176881185Y-55301185D01*
X176960537Y-55204494D01*
X177019502Y-55094180D01*
X177041513Y-55021620D01*
X177173368Y-55153475D01*
X177416589Y-55315990D01*
X177686842Y-55427932D01*
X177973740Y-55485000D01*
X178266260Y-55485000D01*
X178553158Y-55427932D01*
X178823411Y-55315990D01*
X179066632Y-55153475D01*
X179273475Y-54946632D01*
X179435990Y-54703411D01*
X179547932Y-54433158D01*
X179605000Y-54146260D01*
X179605000Y-53853740D01*
X179547932Y-53566842D01*
X179435990Y-53296589D01*
X179273475Y-53053368D01*
X179066632Y-52846525D01*
X178823411Y-52684010D01*
X178553158Y-52572068D01*
X178266260Y-52515000D01*
X177973740Y-52515000D01*
X177686842Y-52572068D01*
X177416589Y-52684010D01*
X177173368Y-52846525D01*
X177041513Y-52978380D01*
X177019502Y-52905820D01*
X176960537Y-52795506D01*
X176881185Y-52698815D01*
X176784494Y-52619463D01*
X176674180Y-52560498D01*
X176554482Y-52524188D01*
X176430000Y-52511928D01*
X174730000Y-52511928D01*
X174605518Y-52524188D01*
X174485820Y-52560498D01*
X174375506Y-52619463D01*
X174278815Y-52698815D01*
X174199463Y-52795506D01*
X174140498Y-52905820D01*
X174116034Y-52986466D01*
X174040269Y-52902412D01*
X173806920Y-52728359D01*
X173544099Y-52603175D01*
X173396890Y-52558524D01*
X173167000Y-52679845D01*
X173167000Y-53873000D01*
X173187000Y-53873000D01*
X173187000Y-54127000D01*
X173167000Y-54127000D01*
X173167000Y-54147000D01*
X172913000Y-54147000D01*
X172913000Y-54127000D01*
X172893000Y-54127000D01*
X172893000Y-53873000D01*
X172913000Y-53873000D01*
X172913000Y-52679845D01*
X172683110Y-52558524D01*
X172535901Y-52603175D01*
X172273080Y-52728359D01*
X172039731Y-52902412D01*
X171963966Y-52986466D01*
X171939502Y-52905820D01*
X171880537Y-52795506D01*
X171801185Y-52698815D01*
X171704494Y-52619463D01*
X171594180Y-52560498D01*
X171474482Y-52524188D01*
X171350000Y-52511928D01*
X170086730Y-52511928D01*
X167563804Y-49989003D01*
X167540001Y-49959999D01*
X167479077Y-49910000D01*
X182590001Y-49910000D01*
X182590000Y-128340000D01*
G37*
%TD.AperFunction*%
%TD*%
M02*
