%TF.GenerationSoftware,KiCad,Pcbnew,(5.1.9)-1*%
%TF.CreationDate,2021-03-16T20:09:15+01:00*%
%TF.ProjectId,HB-Uni-SenDose-4,48422d55-6e69-42d5-9365-6e446f73652d,rev?*%
%TF.SameCoordinates,Original*%
%TF.FileFunction,Copper,L2,Bot*%
%TF.FilePolarity,Positive*%
%FSLAX46Y46*%
G04 Gerber Fmt 4.6, Leading zero omitted, Abs format (unit mm)*
G04 Created by KiCad (PCBNEW (5.1.9)-1) date 2021-03-16 20:09:15*
%MOMM*%
%LPD*%
G01*
G04 APERTURE LIST*
%TA.AperFunction,ComponentPad*%
%ADD10C,1.800000*%
%TD*%
%TA.AperFunction,ComponentPad*%
%ADD11R,1.800000X1.800000*%
%TD*%
%TA.AperFunction,ComponentPad*%
%ADD12O,1.400000X1.400000*%
%TD*%
%TA.AperFunction,ComponentPad*%
%ADD13C,1.400000*%
%TD*%
%TA.AperFunction,ComponentPad*%
%ADD14C,1.600000*%
%TD*%
%TA.AperFunction,ComponentPad*%
%ADD15O,1.700000X1.700000*%
%TD*%
%TA.AperFunction,ComponentPad*%
%ADD16R,1.700000X1.700000*%
%TD*%
%TA.AperFunction,ComponentPad*%
%ADD17C,2.500000*%
%TD*%
%TA.AperFunction,ComponentPad*%
%ADD18R,2.500000X2.500000*%
%TD*%
%TA.AperFunction,ComponentPad*%
%ADD19O,1.600000X1.600000*%
%TD*%
%TA.AperFunction,ComponentPad*%
%ADD20R,1.600000X1.600000*%
%TD*%
%TA.AperFunction,ComponentPad*%
%ADD21O,3.000000X1.500000*%
%TD*%
%TA.AperFunction,ComponentPad*%
%ADD22O,1.270000X1.270000*%
%TD*%
%TA.AperFunction,ComponentPad*%
%ADD23C,1.270000*%
%TD*%
%TA.AperFunction,WasherPad*%
%ADD24C,3.300000*%
%TD*%
%TA.AperFunction,ComponentPad*%
%ADD25C,1.524000*%
%TD*%
%TA.AperFunction,ComponentPad*%
%ADD26C,2.000000*%
%TD*%
%TA.AperFunction,Conductor*%
%ADD27C,0.250000*%
%TD*%
%TA.AperFunction,Conductor*%
%ADD28C,2.000000*%
%TD*%
%TA.AperFunction,Conductor*%
%ADD29C,0.254000*%
%TD*%
%TA.AperFunction,Conductor*%
%ADD30C,0.100000*%
%TD*%
G04 APERTURE END LIST*
D10*
%TO.P,D4,2*%
%TO.N,Net-(D4-Pad2)*%
X152900000Y-111010000D03*
D11*
%TO.P,D4,1*%
%TO.N,/Pump4*%
X152900000Y-113550000D03*
%TD*%
D12*
%TO.P,SR1,2*%
%TO.N,Net-(RV1-Pad1)*%
X95600000Y-51810000D03*
D13*
%TO.P,SR1,1*%
%TO.N,Net-(PS1-Pad1)*%
X95600000Y-54350000D03*
%TD*%
D14*
%TO.P,RV1,2*%
%TO.N,Net-(PS1-Pad2)*%
X89500000Y-58400000D03*
%TO.P,RV1,1*%
%TO.N,Net-(RV1-Pad1)*%
X91400000Y-53400000D03*
%TD*%
%TO.P,C1,2*%
%TO.N,/+12V*%
X143600000Y-113000000D03*
%TO.P,C1,1*%
%TO.N,GND*%
X141100000Y-113000000D03*
%TD*%
D15*
%TO.P,Pump4,2*%
%TO.N,/Pump4*%
X164700000Y-110960000D03*
D16*
%TO.P,Pump4,1*%
%TO.N,/+12V*%
X164700000Y-113500000D03*
%TD*%
D15*
%TO.P,Pump3,2*%
%TO.N,/Pump3*%
X164700000Y-104460000D03*
D16*
%TO.P,Pump3,1*%
%TO.N,/+12V*%
X164700000Y-107000000D03*
%TD*%
D15*
%TO.P,Pump2,2*%
%TO.N,/Pump2*%
X164700000Y-98060000D03*
D16*
%TO.P,Pump2,1*%
%TO.N,/+12V*%
X164700000Y-100600000D03*
%TD*%
D15*
%TO.P,Pump1,2*%
%TO.N,/Pump1*%
X164700000Y-91560000D03*
D16*
%TO.P,Pump1,1*%
%TO.N,/+12V*%
X164700000Y-94100000D03*
%TD*%
D17*
%TO.P,PS1,4*%
%TO.N,Net-(PS1-Pad1)*%
X102100000Y-53950000D03*
D18*
%TO.P,PS1,1*%
%TO.N,/+12V*%
X163600000Y-63050000D03*
D17*
%TO.P,PS1,3*%
%TO.N,Net-(PS1-Pad2)*%
X102100000Y-59350000D03*
%TO.P,PS1,2*%
%TO.N,GND*%
X163600000Y-54050000D03*
%TD*%
D19*
%TO.P,U3,16*%
%TO.N,/Pump1*%
X146220000Y-92400000D03*
%TO.P,U3,8*%
%TO.N,GND*%
X138600000Y-110180000D03*
%TO.P,U3,15*%
%TO.N,/Pump2*%
X146220000Y-94940000D03*
%TO.P,U3,7*%
%TO.N,Net-(U3-Pad7)*%
X138600000Y-107640000D03*
%TO.P,U3,14*%
%TO.N,/Pump3*%
X146220000Y-97480000D03*
%TO.P,U3,6*%
%TO.N,Net-(U3-Pad6)*%
X138600000Y-105100000D03*
%TO.P,U3,13*%
%TO.N,/Pump4*%
X146220000Y-100020000D03*
%TO.P,U3,5*%
%TO.N,Net-(U3-Pad5)*%
X138600000Y-102560000D03*
%TO.P,U3,12*%
%TO.N,Net-(U3-Pad12)*%
X146220000Y-102560000D03*
%TO.P,U3,4*%
%TO.N,/A3*%
X138600000Y-100020000D03*
%TO.P,U3,11*%
%TO.N,Net-(U3-Pad11)*%
X146220000Y-105100000D03*
%TO.P,U3,3*%
%TO.N,/A2*%
X138600000Y-97480000D03*
%TO.P,U3,10*%
%TO.N,Net-(U3-Pad10)*%
X146220000Y-107640000D03*
%TO.P,U3,2*%
%TO.N,/A1*%
X138600000Y-94940000D03*
%TO.P,U3,9*%
%TO.N,/+12V*%
X146220000Y-110180000D03*
D20*
%TO.P,U3,1*%
%TO.N,/A0*%
X138600000Y-92400000D03*
%TD*%
D21*
%TO.P,WAGO_236_403,3*%
%TO.N,N/C*%
X87200000Y-75150000D03*
X92200000Y-75150000D03*
%TO.P,WAGO_236_403,2*%
%TO.N,Net-(PS1-Pad2)*%
X87200000Y-70150000D03*
X92200000Y-70150000D03*
%TO.P,WAGO_236_403,1*%
%TO.N,Net-(RV1-Pad1)*%
X87200000Y-65150000D03*
X92200000Y-65150000D03*
%TD*%
D22*
%TO.P,U2,1*%
%TO.N,/VCC*%
X100600000Y-106800000D03*
%TO.P,U2,2*%
%TO.N,GND*%
X100600000Y-104800000D03*
D23*
%TO.P,U2,3*%
%TO.N,/13*%
X100600000Y-102800000D03*
%TO.P,U2,4*%
%TO.N,/12*%
X100600000Y-100800000D03*
%TO.P,U2,5*%
%TO.N,/11*%
X100600000Y-98800000D03*
%TO.P,U2,6*%
%TO.N,Net-(U2-Pad6)*%
X100600000Y-96800000D03*
%TO.P,U2,7*%
%TO.N,/2*%
X100600000Y-94800000D03*
%TO.P,U2,8*%
%TO.N,/10*%
X100600000Y-92800000D03*
D24*
%TO.P,U2,*%
%TO.N,*%
X83074000Y-98784000D03*
%TD*%
D25*
%TO.P,U1,TXD*%
%TO.N,Net-(U1-PadTXD)*%
X121140000Y-121220000D03*
%TO.P,U1,RXD*%
%TO.N,Net-(U1-PadRXD)*%
X121140000Y-118680000D03*
%TO.P,U1,RST*%
%TO.N,Net-(U1-PadRST)*%
X121140000Y-116140000D03*
%TO.P,U1,GND*%
%TO.N,GND*%
X121140000Y-113600000D03*
%TO.P,U1,2*%
%TO.N,/2*%
X121140000Y-111060000D03*
%TO.P,U1,3*%
%TO.N,Net-(U1-Pad3)*%
X121140000Y-108520000D03*
%TO.P,U1,4*%
%TO.N,/4*%
X121140000Y-105980000D03*
%TO.P,U1,5*%
%TO.N,/5*%
X121140000Y-103440000D03*
%TO.P,U1,6*%
%TO.N,/6*%
X121140000Y-100900000D03*
%TO.P,U1,7*%
%TO.N,/7*%
X121140000Y-98360000D03*
%TO.P,U1,8*%
%TO.N,/8*%
X121140000Y-95820000D03*
%TO.P,U1,9*%
%TO.N,/9*%
X121140000Y-93280000D03*
%TO.P,U1,10*%
%TO.N,/10*%
X105900000Y-93280000D03*
%TO.P,U1,11*%
%TO.N,/11*%
X105900000Y-95820000D03*
%TO.P,U1,12*%
%TO.N,/12*%
X105900000Y-98360000D03*
%TO.P,U1,13*%
%TO.N,/13*%
X105900000Y-100900000D03*
%TO.P,U1,A0*%
%TO.N,/A0*%
X105900000Y-103440000D03*
%TO.P,U1,A1*%
%TO.N,/A1*%
X105900000Y-105980000D03*
%TO.P,U1,A2*%
%TO.N,/A2*%
X105900000Y-108520000D03*
%TO.P,U1,A3*%
%TO.N,/A3*%
X105900000Y-111060000D03*
%TO.P,U1,VCC*%
%TO.N,/VCC*%
X105900000Y-113600000D03*
%TO.P,U1,RST*%
%TO.N,Net-(U1-PadRST)*%
X105900000Y-116140000D03*
%TO.P,U1,GND*%
%TO.N,GND*%
X105900000Y-118680000D03*
%TO.P,U1,RAW*%
%TO.N,/+5V*%
X105900000Y-121220000D03*
%TD*%
D26*
%TO.P,SW1,1*%
%TO.N,/8*%
X159650000Y-124700000D03*
%TO.P,SW1,2*%
%TO.N,GND*%
X159650000Y-120200000D03*
%TO.P,SW1,1*%
%TO.N,/8*%
X166150000Y-124700000D03*
%TO.P,SW1,2*%
%TO.N,GND*%
X166150000Y-120200000D03*
%TD*%
D19*
%TO.P,R5,2*%
%TO.N,/4*%
X147400000Y-124990000D03*
D14*
%TO.P,R5,1*%
%TO.N,Net-(D5-Pad2)*%
X147400000Y-122450000D03*
%TD*%
D19*
%TO.P,R4,2*%
%TO.N,/+12V*%
X157900000Y-113840000D03*
D14*
%TO.P,R4,1*%
%TO.N,Net-(D4-Pad2)*%
X157900000Y-111300000D03*
%TD*%
D19*
%TO.P,R3,2*%
%TO.N,/+12V*%
X157900000Y-107340000D03*
D14*
%TO.P,R3,1*%
%TO.N,Net-(D3-Pad2)*%
X157900000Y-104800000D03*
%TD*%
D19*
%TO.P,R2,2*%
%TO.N,/+12V*%
X157900000Y-100840000D03*
D14*
%TO.P,R2,1*%
%TO.N,Net-(D2-Pad2)*%
X157900000Y-98300000D03*
%TD*%
D19*
%TO.P,R1,2*%
%TO.N,/+12V*%
X157900000Y-94240000D03*
D14*
%TO.P,R1,1*%
%TO.N,Net-(D1-Pad2)*%
X157900000Y-91700000D03*
%TD*%
D15*
%TO.P,J6,8*%
%TO.N,GND*%
X134520000Y-124540000D03*
%TO.P,J6,7*%
%TO.N,/9*%
X134520000Y-122000000D03*
%TO.P,J6,6*%
%TO.N,GND*%
X131980000Y-124540000D03*
%TO.P,J6,5*%
%TO.N,/7*%
X131980000Y-122000000D03*
%TO.P,J6,4*%
%TO.N,GND*%
X129440000Y-124540000D03*
%TO.P,J6,3*%
%TO.N,/6*%
X129440000Y-122000000D03*
%TO.P,J6,2*%
%TO.N,GND*%
X126900000Y-124540000D03*
%TO.P,J6,1*%
%TO.N,/5*%
X126900000Y-122000000D03*
%TD*%
%TO.P,J1,4*%
%TO.N,Net-(J1-Pad4)*%
X134120000Y-92600000D03*
D16*
%TO.P,J1,3*%
%TO.N,/+12V*%
X131580000Y-92600000D03*
D15*
%TO.P,J1,2*%
%TO.N,GND*%
X129040000Y-92600000D03*
D16*
%TO.P,J1,1*%
%TO.N,/+5V*%
X126500000Y-92600000D03*
%TD*%
D10*
%TO.P,D5,2*%
%TO.N,Net-(D5-Pad2)*%
X153800000Y-124040000D03*
D11*
%TO.P,D5,1*%
%TO.N,GND*%
X153800000Y-121500000D03*
%TD*%
D10*
%TO.P,D3,2*%
%TO.N,Net-(D3-Pad2)*%
X152900000Y-104560000D03*
D11*
%TO.P,D3,1*%
%TO.N,/Pump3*%
X152900000Y-107100000D03*
%TD*%
D10*
%TO.P,D2,2*%
%TO.N,Net-(D2-Pad2)*%
X152900000Y-98100000D03*
D11*
%TO.P,D2,1*%
%TO.N,/Pump2*%
X152900000Y-100640000D03*
%TD*%
D10*
%TO.P,D1,2*%
%TO.N,Net-(D1-Pad2)*%
X152900000Y-91660000D03*
D11*
%TO.P,D1,1*%
%TO.N,/Pump1*%
X152900000Y-94200000D03*
%TD*%
D27*
%TO.N,/9*%
X134520000Y-106660000D02*
X134520000Y-122000000D01*
X121140000Y-93280000D02*
X134520000Y-106660000D01*
%TO.N,/7*%
X131980000Y-109200000D02*
X131980000Y-122000000D01*
X121140000Y-98360000D02*
X131980000Y-109200000D01*
%TO.N,/6*%
X129440000Y-109200000D02*
X129440000Y-122000000D01*
X121140000Y-100900000D02*
X129440000Y-109200000D01*
%TO.N,/5*%
X126900000Y-109200000D02*
X126900000Y-122000000D01*
X121140000Y-103440000D02*
X126900000Y-109200000D01*
%TO.N,/8*%
X158234999Y-126115001D02*
X159650000Y-124700000D01*
X124426239Y-126115001D02*
X158234999Y-126115001D01*
X120052999Y-121741761D02*
X124426239Y-126115001D01*
X120052999Y-96907001D02*
X120052999Y-121741761D01*
X121140000Y-95820000D02*
X120052999Y-96907001D01*
X159650000Y-124700000D02*
X166150000Y-124700000D01*
%TO.N,/+12V*%
X145094999Y-109054999D02*
X146220000Y-110180000D01*
X138059999Y-109054999D02*
X145094999Y-109054999D01*
X131580000Y-102575000D02*
X138059999Y-109054999D01*
X131580000Y-92600000D02*
X131580000Y-102575000D01*
%TO.N,/+5V*%
X106987001Y-120132999D02*
X105900000Y-121220000D01*
X120618239Y-92192999D02*
X106987001Y-105824237D01*
X106987001Y-105824237D02*
X106987001Y-120132999D01*
X126092999Y-92192999D02*
X120618239Y-92192999D01*
X126500000Y-92600000D02*
X126092999Y-92192999D01*
D28*
%TO.N,Net-(RV1-Pad1)*%
X92199999Y-54199999D02*
X91400000Y-53400000D01*
X92200000Y-65150000D02*
X92199999Y-54199999D01*
%TD*%
D29*
%TO.N,GND*%
X167540000Y-119336401D02*
X167285413Y-119244192D01*
X166329605Y-120200000D01*
X167285413Y-121155808D01*
X167540000Y-121063599D01*
X167540000Y-123837360D01*
X167419987Y-123657748D01*
X167192252Y-123430013D01*
X166924463Y-123251082D01*
X166626912Y-123127832D01*
X166311033Y-123065000D01*
X165988967Y-123065000D01*
X165673088Y-123127832D01*
X165375537Y-123251082D01*
X165107748Y-123430013D01*
X164880013Y-123657748D01*
X164701082Y-123925537D01*
X164695091Y-123940000D01*
X161104909Y-123940000D01*
X161098918Y-123925537D01*
X160919987Y-123657748D01*
X160692252Y-123430013D01*
X160424463Y-123251082D01*
X160126912Y-123127832D01*
X159811033Y-123065000D01*
X159488967Y-123065000D01*
X159173088Y-123127832D01*
X158875537Y-123251082D01*
X158607748Y-123430013D01*
X158380013Y-123657748D01*
X158201082Y-123925537D01*
X158077832Y-124223088D01*
X158015000Y-124538967D01*
X158015000Y-124861033D01*
X158077832Y-125176912D01*
X158083823Y-125191376D01*
X157920198Y-125355001D01*
X154594888Y-125355001D01*
X154778505Y-125232312D01*
X154992312Y-125018505D01*
X155160299Y-124767095D01*
X155276011Y-124487743D01*
X155335000Y-124191184D01*
X155335000Y-123888816D01*
X155276011Y-123592257D01*
X155160299Y-123312905D01*
X154992312Y-123061495D01*
X154925873Y-122995056D01*
X154944180Y-122989502D01*
X155054494Y-122930537D01*
X155151185Y-122851185D01*
X155230537Y-122754494D01*
X155289502Y-122644180D01*
X155325812Y-122524482D01*
X155338072Y-122400000D01*
X155335000Y-121785750D01*
X155176250Y-121627000D01*
X153927000Y-121627000D01*
X153927000Y-121647000D01*
X153673000Y-121647000D01*
X153673000Y-121627000D01*
X152423750Y-121627000D01*
X152265000Y-121785750D01*
X152261928Y-122400000D01*
X152274188Y-122524482D01*
X152310498Y-122644180D01*
X152369463Y-122754494D01*
X152448815Y-122851185D01*
X152545506Y-122930537D01*
X152655820Y-122989502D01*
X152674127Y-122995056D01*
X152607688Y-123061495D01*
X152439701Y-123312905D01*
X152323989Y-123592257D01*
X152265000Y-123888816D01*
X152265000Y-124191184D01*
X152323989Y-124487743D01*
X152439701Y-124767095D01*
X152607688Y-125018505D01*
X152821495Y-125232312D01*
X153005112Y-125355001D01*
X148790509Y-125355001D01*
X148835000Y-125131335D01*
X148835000Y-124848665D01*
X148779853Y-124571426D01*
X148671680Y-124310273D01*
X148514637Y-124075241D01*
X148314759Y-123875363D01*
X148082241Y-123720000D01*
X148314759Y-123564637D01*
X148514637Y-123364759D01*
X148671680Y-123129727D01*
X148779853Y-122868574D01*
X148835000Y-122591335D01*
X148835000Y-122308665D01*
X148779853Y-122031426D01*
X148671680Y-121770273D01*
X148514637Y-121535241D01*
X148314759Y-121335363D01*
X148079727Y-121178320D01*
X147818574Y-121070147D01*
X147541335Y-121015000D01*
X147258665Y-121015000D01*
X146981426Y-121070147D01*
X146720273Y-121178320D01*
X146485241Y-121335363D01*
X146285363Y-121535241D01*
X146128320Y-121770273D01*
X146020147Y-122031426D01*
X145965000Y-122308665D01*
X145965000Y-122591335D01*
X146020147Y-122868574D01*
X146128320Y-123129727D01*
X146285363Y-123364759D01*
X146485241Y-123564637D01*
X146717759Y-123720000D01*
X146485241Y-123875363D01*
X146285363Y-124075241D01*
X146128320Y-124310273D01*
X146020147Y-124571426D01*
X145965000Y-124848665D01*
X145965000Y-125131335D01*
X146009491Y-125355001D01*
X135754703Y-125355001D01*
X135864157Y-125171252D01*
X135961481Y-124896891D01*
X135840814Y-124667000D01*
X134647000Y-124667000D01*
X134647000Y-124687000D01*
X134393000Y-124687000D01*
X134393000Y-124667000D01*
X132107000Y-124667000D01*
X132107000Y-124687000D01*
X131853000Y-124687000D01*
X131853000Y-124667000D01*
X129567000Y-124667000D01*
X129567000Y-124687000D01*
X129313000Y-124687000D01*
X129313000Y-124667000D01*
X127027000Y-124667000D01*
X127027000Y-124687000D01*
X126773000Y-124687000D01*
X126773000Y-124667000D01*
X125579186Y-124667000D01*
X125458519Y-124896891D01*
X125555843Y-125171252D01*
X125665297Y-125355001D01*
X124741041Y-125355001D01*
X121827094Y-122441055D01*
X122030535Y-122305120D01*
X122225120Y-122110535D01*
X122378005Y-121881727D01*
X122483314Y-121627490D01*
X122537000Y-121357592D01*
X122537000Y-121082408D01*
X122483314Y-120812510D01*
X122378005Y-120558273D01*
X122225120Y-120329465D01*
X122030535Y-120134880D01*
X121801727Y-119981995D01*
X121724485Y-119950000D01*
X121801727Y-119918005D01*
X122030535Y-119765120D01*
X122225120Y-119570535D01*
X122378005Y-119341727D01*
X122483314Y-119087490D01*
X122537000Y-118817592D01*
X122537000Y-118542408D01*
X122483314Y-118272510D01*
X122378005Y-118018273D01*
X122225120Y-117789465D01*
X122030535Y-117594880D01*
X121801727Y-117441995D01*
X121724485Y-117410000D01*
X121801727Y-117378005D01*
X122030535Y-117225120D01*
X122225120Y-117030535D01*
X122378005Y-116801727D01*
X122483314Y-116547490D01*
X122537000Y-116277592D01*
X122537000Y-116002408D01*
X122483314Y-115732510D01*
X122378005Y-115478273D01*
X122225120Y-115249465D01*
X122030535Y-115054880D01*
X121801727Y-114901995D01*
X121730057Y-114872308D01*
X121743023Y-114867636D01*
X121858980Y-114805656D01*
X121925960Y-114565565D01*
X121140000Y-113779605D01*
X121125858Y-113793748D01*
X120946253Y-113614143D01*
X120960395Y-113600000D01*
X121319605Y-113600000D01*
X122105565Y-114385960D01*
X122345656Y-114318980D01*
X122462756Y-114069952D01*
X122529023Y-113802865D01*
X122541910Y-113527983D01*
X122500922Y-113255867D01*
X122407636Y-112996977D01*
X122345656Y-112881020D01*
X122105565Y-112814040D01*
X121319605Y-113600000D01*
X120960395Y-113600000D01*
X120946253Y-113585858D01*
X121125858Y-113406253D01*
X121140000Y-113420395D01*
X121925960Y-112634435D01*
X121858980Y-112394344D01*
X121723240Y-112330515D01*
X121801727Y-112298005D01*
X122030535Y-112145120D01*
X122225120Y-111950535D01*
X122378005Y-111721727D01*
X122483314Y-111467490D01*
X122537000Y-111197592D01*
X122537000Y-110922408D01*
X122483314Y-110652510D01*
X122378005Y-110398273D01*
X122225120Y-110169465D01*
X122030535Y-109974880D01*
X121801727Y-109821995D01*
X121724485Y-109790000D01*
X121801727Y-109758005D01*
X122030535Y-109605120D01*
X122225120Y-109410535D01*
X122378005Y-109181727D01*
X122483314Y-108927490D01*
X122537000Y-108657592D01*
X122537000Y-108382408D01*
X122483314Y-108112510D01*
X122378005Y-107858273D01*
X122225120Y-107629465D01*
X122030535Y-107434880D01*
X121801727Y-107281995D01*
X121724485Y-107250000D01*
X121801727Y-107218005D01*
X122030535Y-107065120D01*
X122225120Y-106870535D01*
X122378005Y-106641727D01*
X122483314Y-106387490D01*
X122537000Y-106117592D01*
X122537000Y-105911801D01*
X126140000Y-109514802D01*
X126140001Y-120721821D01*
X125953368Y-120846525D01*
X125746525Y-121053368D01*
X125584010Y-121296589D01*
X125472068Y-121566842D01*
X125415000Y-121853740D01*
X125415000Y-122146260D01*
X125472068Y-122433158D01*
X125584010Y-122703411D01*
X125746525Y-122946632D01*
X125953368Y-123153475D01*
X126129406Y-123271100D01*
X125899731Y-123442412D01*
X125704822Y-123658645D01*
X125555843Y-123908748D01*
X125458519Y-124183109D01*
X125579186Y-124413000D01*
X126773000Y-124413000D01*
X126773000Y-124393000D01*
X127027000Y-124393000D01*
X127027000Y-124413000D01*
X129313000Y-124413000D01*
X129313000Y-124393000D01*
X129567000Y-124393000D01*
X129567000Y-124413000D01*
X131853000Y-124413000D01*
X131853000Y-124393000D01*
X132107000Y-124393000D01*
X132107000Y-124413000D01*
X134393000Y-124413000D01*
X134393000Y-124393000D01*
X134647000Y-124393000D01*
X134647000Y-124413000D01*
X135840814Y-124413000D01*
X135961481Y-124183109D01*
X135864157Y-123908748D01*
X135715178Y-123658645D01*
X135520269Y-123442412D01*
X135290594Y-123271100D01*
X135466632Y-123153475D01*
X135673475Y-122946632D01*
X135835990Y-122703411D01*
X135947932Y-122433158D01*
X136005000Y-122146260D01*
X136005000Y-121853740D01*
X135947932Y-121566842D01*
X135835990Y-121296589D01*
X135673475Y-121053368D01*
X135466632Y-120846525D01*
X135280000Y-120721822D01*
X135280000Y-120600000D01*
X152261928Y-120600000D01*
X152265000Y-121214250D01*
X152423750Y-121373000D01*
X153673000Y-121373000D01*
X153673000Y-120123750D01*
X153927000Y-120123750D01*
X153927000Y-121373000D01*
X155176250Y-121373000D01*
X155213837Y-121335413D01*
X158694192Y-121335413D01*
X158789956Y-121599814D01*
X159079571Y-121740704D01*
X159391108Y-121822384D01*
X159712595Y-121841718D01*
X160031675Y-121797961D01*
X160336088Y-121692795D01*
X160510044Y-121599814D01*
X160605808Y-121335413D01*
X165194192Y-121335413D01*
X165289956Y-121599814D01*
X165579571Y-121740704D01*
X165891108Y-121822384D01*
X166212595Y-121841718D01*
X166531675Y-121797961D01*
X166836088Y-121692795D01*
X167010044Y-121599814D01*
X167105808Y-121335413D01*
X166150000Y-120379605D01*
X165194192Y-121335413D01*
X160605808Y-121335413D01*
X159650000Y-120379605D01*
X158694192Y-121335413D01*
X155213837Y-121335413D01*
X155335000Y-121214250D01*
X155338072Y-120600000D01*
X155325812Y-120475518D01*
X155289502Y-120355820D01*
X155239672Y-120262595D01*
X158008282Y-120262595D01*
X158052039Y-120581675D01*
X158157205Y-120886088D01*
X158250186Y-121060044D01*
X158514587Y-121155808D01*
X159470395Y-120200000D01*
X159829605Y-120200000D01*
X160785413Y-121155808D01*
X161049814Y-121060044D01*
X161190704Y-120770429D01*
X161272384Y-120458892D01*
X161284189Y-120262595D01*
X164508282Y-120262595D01*
X164552039Y-120581675D01*
X164657205Y-120886088D01*
X164750186Y-121060044D01*
X165014587Y-121155808D01*
X165970395Y-120200000D01*
X165014587Y-119244192D01*
X164750186Y-119339956D01*
X164609296Y-119629571D01*
X164527616Y-119941108D01*
X164508282Y-120262595D01*
X161284189Y-120262595D01*
X161291718Y-120137405D01*
X161247961Y-119818325D01*
X161142795Y-119513912D01*
X161049814Y-119339956D01*
X160785413Y-119244192D01*
X159829605Y-120200000D01*
X159470395Y-120200000D01*
X158514587Y-119244192D01*
X158250186Y-119339956D01*
X158109296Y-119629571D01*
X158027616Y-119941108D01*
X158008282Y-120262595D01*
X155239672Y-120262595D01*
X155230537Y-120245506D01*
X155151185Y-120148815D01*
X155054494Y-120069463D01*
X154944180Y-120010498D01*
X154824482Y-119974188D01*
X154700000Y-119961928D01*
X154085750Y-119965000D01*
X153927000Y-120123750D01*
X153673000Y-120123750D01*
X153514250Y-119965000D01*
X152900000Y-119961928D01*
X152775518Y-119974188D01*
X152655820Y-120010498D01*
X152545506Y-120069463D01*
X152448815Y-120148815D01*
X152369463Y-120245506D01*
X152310498Y-120355820D01*
X152274188Y-120475518D01*
X152261928Y-120600000D01*
X135280000Y-120600000D01*
X135280000Y-119064587D01*
X158694192Y-119064587D01*
X159650000Y-120020395D01*
X160605808Y-119064587D01*
X165194192Y-119064587D01*
X166150000Y-120020395D01*
X167105808Y-119064587D01*
X167010044Y-118800186D01*
X166720429Y-118659296D01*
X166408892Y-118577616D01*
X166087405Y-118558282D01*
X165768325Y-118602039D01*
X165463912Y-118707205D01*
X165289956Y-118800186D01*
X165194192Y-119064587D01*
X160605808Y-119064587D01*
X160510044Y-118800186D01*
X160220429Y-118659296D01*
X159908892Y-118577616D01*
X159587405Y-118558282D01*
X159268325Y-118602039D01*
X158963912Y-118707205D01*
X158789956Y-118800186D01*
X158694192Y-119064587D01*
X135280000Y-119064587D01*
X135280000Y-113992702D01*
X140286903Y-113992702D01*
X140358486Y-114236671D01*
X140613996Y-114357571D01*
X140888184Y-114426300D01*
X141170512Y-114440217D01*
X141450130Y-114398787D01*
X141716292Y-114303603D01*
X141841514Y-114236671D01*
X141913097Y-113992702D01*
X141100000Y-113179605D01*
X140286903Y-113992702D01*
X135280000Y-113992702D01*
X135280000Y-113070512D01*
X139659783Y-113070512D01*
X139701213Y-113350130D01*
X139796397Y-113616292D01*
X139863329Y-113741514D01*
X140107298Y-113813097D01*
X140920395Y-113000000D01*
X141279605Y-113000000D01*
X142092702Y-113813097D01*
X142336671Y-113741514D01*
X142350324Y-113712659D01*
X142485363Y-113914759D01*
X142685241Y-114114637D01*
X142920273Y-114271680D01*
X143181426Y-114379853D01*
X143458665Y-114435000D01*
X143741335Y-114435000D01*
X144018574Y-114379853D01*
X144279727Y-114271680D01*
X144514759Y-114114637D01*
X144714637Y-113914759D01*
X144871680Y-113679727D01*
X144979853Y-113418574D01*
X145035000Y-113141335D01*
X145035000Y-112858665D01*
X144993494Y-112650000D01*
X151361928Y-112650000D01*
X151361928Y-114450000D01*
X151374188Y-114574482D01*
X151410498Y-114694180D01*
X151469463Y-114804494D01*
X151548815Y-114901185D01*
X151645506Y-114980537D01*
X151755820Y-115039502D01*
X151875518Y-115075812D01*
X152000000Y-115088072D01*
X153800000Y-115088072D01*
X153924482Y-115075812D01*
X154044180Y-115039502D01*
X154154494Y-114980537D01*
X154251185Y-114901185D01*
X154330537Y-114804494D01*
X154389502Y-114694180D01*
X154425812Y-114574482D01*
X154438072Y-114450000D01*
X154438072Y-112650000D01*
X154425812Y-112525518D01*
X154389502Y-112405820D01*
X154330537Y-112295506D01*
X154251185Y-112198815D01*
X154154494Y-112119463D01*
X154044180Y-112060498D01*
X154025873Y-112054944D01*
X154092312Y-111988505D01*
X154260299Y-111737095D01*
X154376011Y-111457743D01*
X154435000Y-111161184D01*
X154435000Y-111158665D01*
X156465000Y-111158665D01*
X156465000Y-111441335D01*
X156520147Y-111718574D01*
X156628320Y-111979727D01*
X156785363Y-112214759D01*
X156985241Y-112414637D01*
X157217759Y-112570000D01*
X156985241Y-112725363D01*
X156785363Y-112925241D01*
X156628320Y-113160273D01*
X156520147Y-113421426D01*
X156465000Y-113698665D01*
X156465000Y-113981335D01*
X156520147Y-114258574D01*
X156628320Y-114519727D01*
X156785363Y-114754759D01*
X156985241Y-114954637D01*
X157220273Y-115111680D01*
X157481426Y-115219853D01*
X157758665Y-115275000D01*
X158041335Y-115275000D01*
X158318574Y-115219853D01*
X158579727Y-115111680D01*
X158814759Y-114954637D01*
X159014637Y-114754759D01*
X159171680Y-114519727D01*
X159279853Y-114258574D01*
X159335000Y-113981335D01*
X159335000Y-113698665D01*
X159279853Y-113421426D01*
X159171680Y-113160273D01*
X159014637Y-112925241D01*
X158814759Y-112725363D01*
X158701970Y-112650000D01*
X163211928Y-112650000D01*
X163211928Y-114350000D01*
X163224188Y-114474482D01*
X163260498Y-114594180D01*
X163319463Y-114704494D01*
X163398815Y-114801185D01*
X163495506Y-114880537D01*
X163605820Y-114939502D01*
X163725518Y-114975812D01*
X163850000Y-114988072D01*
X165550000Y-114988072D01*
X165674482Y-114975812D01*
X165794180Y-114939502D01*
X165904494Y-114880537D01*
X166001185Y-114801185D01*
X166080537Y-114704494D01*
X166139502Y-114594180D01*
X166175812Y-114474482D01*
X166188072Y-114350000D01*
X166188072Y-112650000D01*
X166175812Y-112525518D01*
X166139502Y-112405820D01*
X166080537Y-112295506D01*
X166001185Y-112198815D01*
X165904494Y-112119463D01*
X165794180Y-112060498D01*
X165721620Y-112038487D01*
X165853475Y-111906632D01*
X166015990Y-111663411D01*
X166127932Y-111393158D01*
X166185000Y-111106260D01*
X166185000Y-110813740D01*
X166127932Y-110526842D01*
X166015990Y-110256589D01*
X165853475Y-110013368D01*
X165646632Y-109806525D01*
X165403411Y-109644010D01*
X165133158Y-109532068D01*
X164846260Y-109475000D01*
X164553740Y-109475000D01*
X164266842Y-109532068D01*
X163996589Y-109644010D01*
X163753368Y-109806525D01*
X163546525Y-110013368D01*
X163384010Y-110256589D01*
X163272068Y-110526842D01*
X163215000Y-110813740D01*
X163215000Y-111106260D01*
X163272068Y-111393158D01*
X163384010Y-111663411D01*
X163546525Y-111906632D01*
X163678380Y-112038487D01*
X163605820Y-112060498D01*
X163495506Y-112119463D01*
X163398815Y-112198815D01*
X163319463Y-112295506D01*
X163260498Y-112405820D01*
X163224188Y-112525518D01*
X163211928Y-112650000D01*
X158701970Y-112650000D01*
X158582241Y-112570000D01*
X158814759Y-112414637D01*
X159014637Y-112214759D01*
X159171680Y-111979727D01*
X159279853Y-111718574D01*
X159335000Y-111441335D01*
X159335000Y-111158665D01*
X159279853Y-110881426D01*
X159171680Y-110620273D01*
X159014637Y-110385241D01*
X158814759Y-110185363D01*
X158579727Y-110028320D01*
X158318574Y-109920147D01*
X158041335Y-109865000D01*
X157758665Y-109865000D01*
X157481426Y-109920147D01*
X157220273Y-110028320D01*
X156985241Y-110185363D01*
X156785363Y-110385241D01*
X156628320Y-110620273D01*
X156520147Y-110881426D01*
X156465000Y-111158665D01*
X154435000Y-111158665D01*
X154435000Y-110858816D01*
X154376011Y-110562257D01*
X154260299Y-110282905D01*
X154092312Y-110031495D01*
X153878505Y-109817688D01*
X153627095Y-109649701D01*
X153347743Y-109533989D01*
X153051184Y-109475000D01*
X152748816Y-109475000D01*
X152452257Y-109533989D01*
X152172905Y-109649701D01*
X151921495Y-109817688D01*
X151707688Y-110031495D01*
X151539701Y-110282905D01*
X151423989Y-110562257D01*
X151365000Y-110858816D01*
X151365000Y-111161184D01*
X151423989Y-111457743D01*
X151539701Y-111737095D01*
X151707688Y-111988505D01*
X151774127Y-112054944D01*
X151755820Y-112060498D01*
X151645506Y-112119463D01*
X151548815Y-112198815D01*
X151469463Y-112295506D01*
X151410498Y-112405820D01*
X151374188Y-112525518D01*
X151361928Y-112650000D01*
X144993494Y-112650000D01*
X144979853Y-112581426D01*
X144871680Y-112320273D01*
X144714637Y-112085241D01*
X144514759Y-111885363D01*
X144279727Y-111728320D01*
X144018574Y-111620147D01*
X143741335Y-111565000D01*
X143458665Y-111565000D01*
X143181426Y-111620147D01*
X142920273Y-111728320D01*
X142685241Y-111885363D01*
X142485363Y-112085241D01*
X142351308Y-112285869D01*
X142336671Y-112258486D01*
X142092702Y-112186903D01*
X141279605Y-113000000D01*
X140920395Y-113000000D01*
X140107298Y-112186903D01*
X139863329Y-112258486D01*
X139742429Y-112513996D01*
X139673700Y-112788184D01*
X139659783Y-113070512D01*
X135280000Y-113070512D01*
X135280000Y-112007298D01*
X140286903Y-112007298D01*
X141100000Y-112820395D01*
X141913097Y-112007298D01*
X141841514Y-111763329D01*
X141586004Y-111642429D01*
X141311816Y-111573700D01*
X141029488Y-111559783D01*
X140749870Y-111601213D01*
X140483708Y-111696397D01*
X140358486Y-111763329D01*
X140286903Y-112007298D01*
X135280000Y-112007298D01*
X135280000Y-110529039D01*
X137208096Y-110529039D01*
X137248754Y-110663087D01*
X137368963Y-110917420D01*
X137536481Y-111143414D01*
X137744869Y-111332385D01*
X137986119Y-111477070D01*
X138250960Y-111571909D01*
X138473000Y-111450624D01*
X138473000Y-110307000D01*
X138727000Y-110307000D01*
X138727000Y-111450624D01*
X138949040Y-111571909D01*
X139213881Y-111477070D01*
X139455131Y-111332385D01*
X139663519Y-111143414D01*
X139831037Y-110917420D01*
X139951246Y-110663087D01*
X139991904Y-110529039D01*
X139869915Y-110307000D01*
X138727000Y-110307000D01*
X138473000Y-110307000D01*
X137330085Y-110307000D01*
X137208096Y-110529039D01*
X135280000Y-110529039D01*
X135280000Y-107349802D01*
X137370587Y-109440390D01*
X137368963Y-109442580D01*
X137248754Y-109696913D01*
X137208096Y-109830961D01*
X137330085Y-110053000D01*
X138473000Y-110053000D01*
X138473000Y-110033000D01*
X138727000Y-110033000D01*
X138727000Y-110053000D01*
X139869915Y-110053000D01*
X139991904Y-109830961D01*
X139987063Y-109814999D01*
X144780198Y-109814999D01*
X144821312Y-109856113D01*
X144785000Y-110038665D01*
X144785000Y-110321335D01*
X144840147Y-110598574D01*
X144948320Y-110859727D01*
X145105363Y-111094759D01*
X145305241Y-111294637D01*
X145540273Y-111451680D01*
X145801426Y-111559853D01*
X146078665Y-111615000D01*
X146361335Y-111615000D01*
X146638574Y-111559853D01*
X146899727Y-111451680D01*
X147134759Y-111294637D01*
X147334637Y-111094759D01*
X147491680Y-110859727D01*
X147599853Y-110598574D01*
X147655000Y-110321335D01*
X147655000Y-110038665D01*
X147599853Y-109761426D01*
X147491680Y-109500273D01*
X147334637Y-109265241D01*
X147134759Y-109065363D01*
X146902241Y-108910000D01*
X147134759Y-108754637D01*
X147334637Y-108554759D01*
X147491680Y-108319727D01*
X147599853Y-108058574D01*
X147655000Y-107781335D01*
X147655000Y-107498665D01*
X147599853Y-107221426D01*
X147491680Y-106960273D01*
X147334637Y-106725241D01*
X147134759Y-106525363D01*
X146902241Y-106370000D01*
X147134759Y-106214637D01*
X147149396Y-106200000D01*
X151361928Y-106200000D01*
X151361928Y-108000000D01*
X151374188Y-108124482D01*
X151410498Y-108244180D01*
X151469463Y-108354494D01*
X151548815Y-108451185D01*
X151645506Y-108530537D01*
X151755820Y-108589502D01*
X151875518Y-108625812D01*
X152000000Y-108638072D01*
X153800000Y-108638072D01*
X153924482Y-108625812D01*
X154044180Y-108589502D01*
X154154494Y-108530537D01*
X154251185Y-108451185D01*
X154330537Y-108354494D01*
X154389502Y-108244180D01*
X154425812Y-108124482D01*
X154438072Y-108000000D01*
X154438072Y-106200000D01*
X154425812Y-106075518D01*
X154389502Y-105955820D01*
X154330537Y-105845506D01*
X154251185Y-105748815D01*
X154154494Y-105669463D01*
X154044180Y-105610498D01*
X154025873Y-105604944D01*
X154092312Y-105538505D01*
X154260299Y-105287095D01*
X154376011Y-105007743D01*
X154435000Y-104711184D01*
X154435000Y-104658665D01*
X156465000Y-104658665D01*
X156465000Y-104941335D01*
X156520147Y-105218574D01*
X156628320Y-105479727D01*
X156785363Y-105714759D01*
X156985241Y-105914637D01*
X157217759Y-106070000D01*
X156985241Y-106225363D01*
X156785363Y-106425241D01*
X156628320Y-106660273D01*
X156520147Y-106921426D01*
X156465000Y-107198665D01*
X156465000Y-107481335D01*
X156520147Y-107758574D01*
X156628320Y-108019727D01*
X156785363Y-108254759D01*
X156985241Y-108454637D01*
X157220273Y-108611680D01*
X157481426Y-108719853D01*
X157758665Y-108775000D01*
X158041335Y-108775000D01*
X158318574Y-108719853D01*
X158579727Y-108611680D01*
X158814759Y-108454637D01*
X159014637Y-108254759D01*
X159171680Y-108019727D01*
X159279853Y-107758574D01*
X159335000Y-107481335D01*
X159335000Y-107198665D01*
X159279853Y-106921426D01*
X159171680Y-106660273D01*
X159014637Y-106425241D01*
X158814759Y-106225363D01*
X158701970Y-106150000D01*
X163211928Y-106150000D01*
X163211928Y-107850000D01*
X163224188Y-107974482D01*
X163260498Y-108094180D01*
X163319463Y-108204494D01*
X163398815Y-108301185D01*
X163495506Y-108380537D01*
X163605820Y-108439502D01*
X163725518Y-108475812D01*
X163850000Y-108488072D01*
X165550000Y-108488072D01*
X165674482Y-108475812D01*
X165794180Y-108439502D01*
X165904494Y-108380537D01*
X166001185Y-108301185D01*
X166080537Y-108204494D01*
X166139502Y-108094180D01*
X166175812Y-107974482D01*
X166188072Y-107850000D01*
X166188072Y-106150000D01*
X166175812Y-106025518D01*
X166139502Y-105905820D01*
X166080537Y-105795506D01*
X166001185Y-105698815D01*
X165904494Y-105619463D01*
X165794180Y-105560498D01*
X165721620Y-105538487D01*
X165853475Y-105406632D01*
X166015990Y-105163411D01*
X166127932Y-104893158D01*
X166185000Y-104606260D01*
X166185000Y-104313740D01*
X166127932Y-104026842D01*
X166015990Y-103756589D01*
X165853475Y-103513368D01*
X165646632Y-103306525D01*
X165403411Y-103144010D01*
X165133158Y-103032068D01*
X164846260Y-102975000D01*
X164553740Y-102975000D01*
X164266842Y-103032068D01*
X163996589Y-103144010D01*
X163753368Y-103306525D01*
X163546525Y-103513368D01*
X163384010Y-103756589D01*
X163272068Y-104026842D01*
X163215000Y-104313740D01*
X163215000Y-104606260D01*
X163272068Y-104893158D01*
X163384010Y-105163411D01*
X163546525Y-105406632D01*
X163678380Y-105538487D01*
X163605820Y-105560498D01*
X163495506Y-105619463D01*
X163398815Y-105698815D01*
X163319463Y-105795506D01*
X163260498Y-105905820D01*
X163224188Y-106025518D01*
X163211928Y-106150000D01*
X158701970Y-106150000D01*
X158582241Y-106070000D01*
X158814759Y-105914637D01*
X159014637Y-105714759D01*
X159171680Y-105479727D01*
X159279853Y-105218574D01*
X159335000Y-104941335D01*
X159335000Y-104658665D01*
X159279853Y-104381426D01*
X159171680Y-104120273D01*
X159014637Y-103885241D01*
X158814759Y-103685363D01*
X158579727Y-103528320D01*
X158318574Y-103420147D01*
X158041335Y-103365000D01*
X157758665Y-103365000D01*
X157481426Y-103420147D01*
X157220273Y-103528320D01*
X156985241Y-103685363D01*
X156785363Y-103885241D01*
X156628320Y-104120273D01*
X156520147Y-104381426D01*
X156465000Y-104658665D01*
X154435000Y-104658665D01*
X154435000Y-104408816D01*
X154376011Y-104112257D01*
X154260299Y-103832905D01*
X154092312Y-103581495D01*
X153878505Y-103367688D01*
X153627095Y-103199701D01*
X153347743Y-103083989D01*
X153051184Y-103025000D01*
X152748816Y-103025000D01*
X152452257Y-103083989D01*
X152172905Y-103199701D01*
X151921495Y-103367688D01*
X151707688Y-103581495D01*
X151539701Y-103832905D01*
X151423989Y-104112257D01*
X151365000Y-104408816D01*
X151365000Y-104711184D01*
X151423989Y-105007743D01*
X151539701Y-105287095D01*
X151707688Y-105538505D01*
X151774127Y-105604944D01*
X151755820Y-105610498D01*
X151645506Y-105669463D01*
X151548815Y-105748815D01*
X151469463Y-105845506D01*
X151410498Y-105955820D01*
X151374188Y-106075518D01*
X151361928Y-106200000D01*
X147149396Y-106200000D01*
X147334637Y-106014759D01*
X147491680Y-105779727D01*
X147599853Y-105518574D01*
X147655000Y-105241335D01*
X147655000Y-104958665D01*
X147599853Y-104681426D01*
X147491680Y-104420273D01*
X147334637Y-104185241D01*
X147134759Y-103985363D01*
X146902241Y-103830000D01*
X147134759Y-103674637D01*
X147334637Y-103474759D01*
X147491680Y-103239727D01*
X147599853Y-102978574D01*
X147655000Y-102701335D01*
X147655000Y-102418665D01*
X147599853Y-102141426D01*
X147491680Y-101880273D01*
X147334637Y-101645241D01*
X147134759Y-101445363D01*
X146902241Y-101290000D01*
X147134759Y-101134637D01*
X147334637Y-100934759D01*
X147491680Y-100699727D01*
X147599853Y-100438574D01*
X147655000Y-100161335D01*
X147655000Y-99878665D01*
X147627418Y-99740000D01*
X151361928Y-99740000D01*
X151361928Y-101540000D01*
X151374188Y-101664482D01*
X151410498Y-101784180D01*
X151469463Y-101894494D01*
X151548815Y-101991185D01*
X151645506Y-102070537D01*
X151755820Y-102129502D01*
X151875518Y-102165812D01*
X152000000Y-102178072D01*
X153800000Y-102178072D01*
X153924482Y-102165812D01*
X154044180Y-102129502D01*
X154154494Y-102070537D01*
X154251185Y-101991185D01*
X154330537Y-101894494D01*
X154389502Y-101784180D01*
X154425812Y-101664482D01*
X154438072Y-101540000D01*
X154438072Y-99740000D01*
X154425812Y-99615518D01*
X154389502Y-99495820D01*
X154330537Y-99385506D01*
X154251185Y-99288815D01*
X154154494Y-99209463D01*
X154044180Y-99150498D01*
X154025873Y-99144944D01*
X154092312Y-99078505D01*
X154260299Y-98827095D01*
X154376011Y-98547743D01*
X154435000Y-98251184D01*
X154435000Y-98158665D01*
X156465000Y-98158665D01*
X156465000Y-98441335D01*
X156520147Y-98718574D01*
X156628320Y-98979727D01*
X156785363Y-99214759D01*
X156985241Y-99414637D01*
X157217759Y-99570000D01*
X156985241Y-99725363D01*
X156785363Y-99925241D01*
X156628320Y-100160273D01*
X156520147Y-100421426D01*
X156465000Y-100698665D01*
X156465000Y-100981335D01*
X156520147Y-101258574D01*
X156628320Y-101519727D01*
X156785363Y-101754759D01*
X156985241Y-101954637D01*
X157220273Y-102111680D01*
X157481426Y-102219853D01*
X157758665Y-102275000D01*
X158041335Y-102275000D01*
X158318574Y-102219853D01*
X158579727Y-102111680D01*
X158814759Y-101954637D01*
X159014637Y-101754759D01*
X159171680Y-101519727D01*
X159279853Y-101258574D01*
X159335000Y-100981335D01*
X159335000Y-100698665D01*
X159279853Y-100421426D01*
X159171680Y-100160273D01*
X159014637Y-99925241D01*
X158839396Y-99750000D01*
X163211928Y-99750000D01*
X163211928Y-101450000D01*
X163224188Y-101574482D01*
X163260498Y-101694180D01*
X163319463Y-101804494D01*
X163398815Y-101901185D01*
X163495506Y-101980537D01*
X163605820Y-102039502D01*
X163725518Y-102075812D01*
X163850000Y-102088072D01*
X165550000Y-102088072D01*
X165674482Y-102075812D01*
X165794180Y-102039502D01*
X165904494Y-101980537D01*
X166001185Y-101901185D01*
X166080537Y-101804494D01*
X166139502Y-101694180D01*
X166175812Y-101574482D01*
X166188072Y-101450000D01*
X166188072Y-99750000D01*
X166175812Y-99625518D01*
X166139502Y-99505820D01*
X166080537Y-99395506D01*
X166001185Y-99298815D01*
X165904494Y-99219463D01*
X165794180Y-99160498D01*
X165721620Y-99138487D01*
X165853475Y-99006632D01*
X166015990Y-98763411D01*
X166127932Y-98493158D01*
X166185000Y-98206260D01*
X166185000Y-97913740D01*
X166127932Y-97626842D01*
X166015990Y-97356589D01*
X165853475Y-97113368D01*
X165646632Y-96906525D01*
X165403411Y-96744010D01*
X165133158Y-96632068D01*
X164846260Y-96575000D01*
X164553740Y-96575000D01*
X164266842Y-96632068D01*
X163996589Y-96744010D01*
X163753368Y-96906525D01*
X163546525Y-97113368D01*
X163384010Y-97356589D01*
X163272068Y-97626842D01*
X163215000Y-97913740D01*
X163215000Y-98206260D01*
X163272068Y-98493158D01*
X163384010Y-98763411D01*
X163546525Y-99006632D01*
X163678380Y-99138487D01*
X163605820Y-99160498D01*
X163495506Y-99219463D01*
X163398815Y-99298815D01*
X163319463Y-99395506D01*
X163260498Y-99505820D01*
X163224188Y-99625518D01*
X163211928Y-99750000D01*
X158839396Y-99750000D01*
X158814759Y-99725363D01*
X158582241Y-99570000D01*
X158814759Y-99414637D01*
X159014637Y-99214759D01*
X159171680Y-98979727D01*
X159279853Y-98718574D01*
X159335000Y-98441335D01*
X159335000Y-98158665D01*
X159279853Y-97881426D01*
X159171680Y-97620273D01*
X159014637Y-97385241D01*
X158814759Y-97185363D01*
X158579727Y-97028320D01*
X158318574Y-96920147D01*
X158041335Y-96865000D01*
X157758665Y-96865000D01*
X157481426Y-96920147D01*
X157220273Y-97028320D01*
X156985241Y-97185363D01*
X156785363Y-97385241D01*
X156628320Y-97620273D01*
X156520147Y-97881426D01*
X156465000Y-98158665D01*
X154435000Y-98158665D01*
X154435000Y-97948816D01*
X154376011Y-97652257D01*
X154260299Y-97372905D01*
X154092312Y-97121495D01*
X153878505Y-96907688D01*
X153627095Y-96739701D01*
X153347743Y-96623989D01*
X153051184Y-96565000D01*
X152748816Y-96565000D01*
X152452257Y-96623989D01*
X152172905Y-96739701D01*
X151921495Y-96907688D01*
X151707688Y-97121495D01*
X151539701Y-97372905D01*
X151423989Y-97652257D01*
X151365000Y-97948816D01*
X151365000Y-98251184D01*
X151423989Y-98547743D01*
X151539701Y-98827095D01*
X151707688Y-99078505D01*
X151774127Y-99144944D01*
X151755820Y-99150498D01*
X151645506Y-99209463D01*
X151548815Y-99288815D01*
X151469463Y-99385506D01*
X151410498Y-99495820D01*
X151374188Y-99615518D01*
X151361928Y-99740000D01*
X147627418Y-99740000D01*
X147599853Y-99601426D01*
X147491680Y-99340273D01*
X147334637Y-99105241D01*
X147134759Y-98905363D01*
X146902241Y-98750000D01*
X147134759Y-98594637D01*
X147334637Y-98394759D01*
X147491680Y-98159727D01*
X147599853Y-97898574D01*
X147655000Y-97621335D01*
X147655000Y-97338665D01*
X147599853Y-97061426D01*
X147491680Y-96800273D01*
X147334637Y-96565241D01*
X147134759Y-96365363D01*
X146902241Y-96210000D01*
X147134759Y-96054637D01*
X147334637Y-95854759D01*
X147491680Y-95619727D01*
X147599853Y-95358574D01*
X147655000Y-95081335D01*
X147655000Y-94798665D01*
X147599853Y-94521426D01*
X147491680Y-94260273D01*
X147334637Y-94025241D01*
X147134759Y-93825363D01*
X146902241Y-93670000D01*
X147134759Y-93514637D01*
X147334637Y-93314759D01*
X147344498Y-93300000D01*
X151361928Y-93300000D01*
X151361928Y-95100000D01*
X151374188Y-95224482D01*
X151410498Y-95344180D01*
X151469463Y-95454494D01*
X151548815Y-95551185D01*
X151645506Y-95630537D01*
X151755820Y-95689502D01*
X151875518Y-95725812D01*
X152000000Y-95738072D01*
X153800000Y-95738072D01*
X153924482Y-95725812D01*
X154044180Y-95689502D01*
X154154494Y-95630537D01*
X154251185Y-95551185D01*
X154330537Y-95454494D01*
X154389502Y-95344180D01*
X154425812Y-95224482D01*
X154438072Y-95100000D01*
X154438072Y-93300000D01*
X154425812Y-93175518D01*
X154389502Y-93055820D01*
X154330537Y-92945506D01*
X154251185Y-92848815D01*
X154154494Y-92769463D01*
X154044180Y-92710498D01*
X154025873Y-92704944D01*
X154092312Y-92638505D01*
X154260299Y-92387095D01*
X154376011Y-92107743D01*
X154435000Y-91811184D01*
X154435000Y-91558665D01*
X156465000Y-91558665D01*
X156465000Y-91841335D01*
X156520147Y-92118574D01*
X156628320Y-92379727D01*
X156785363Y-92614759D01*
X156985241Y-92814637D01*
X157217759Y-92970000D01*
X156985241Y-93125363D01*
X156785363Y-93325241D01*
X156628320Y-93560273D01*
X156520147Y-93821426D01*
X156465000Y-94098665D01*
X156465000Y-94381335D01*
X156520147Y-94658574D01*
X156628320Y-94919727D01*
X156785363Y-95154759D01*
X156985241Y-95354637D01*
X157220273Y-95511680D01*
X157481426Y-95619853D01*
X157758665Y-95675000D01*
X158041335Y-95675000D01*
X158318574Y-95619853D01*
X158579727Y-95511680D01*
X158814759Y-95354637D01*
X159014637Y-95154759D01*
X159171680Y-94919727D01*
X159279853Y-94658574D01*
X159335000Y-94381335D01*
X159335000Y-94098665D01*
X159279853Y-93821426D01*
X159171680Y-93560273D01*
X159014637Y-93325241D01*
X158939396Y-93250000D01*
X163211928Y-93250000D01*
X163211928Y-94950000D01*
X163224188Y-95074482D01*
X163260498Y-95194180D01*
X163319463Y-95304494D01*
X163398815Y-95401185D01*
X163495506Y-95480537D01*
X163605820Y-95539502D01*
X163725518Y-95575812D01*
X163850000Y-95588072D01*
X165550000Y-95588072D01*
X165674482Y-95575812D01*
X165794180Y-95539502D01*
X165904494Y-95480537D01*
X166001185Y-95401185D01*
X166080537Y-95304494D01*
X166139502Y-95194180D01*
X166175812Y-95074482D01*
X166188072Y-94950000D01*
X166188072Y-93250000D01*
X166175812Y-93125518D01*
X166139502Y-93005820D01*
X166080537Y-92895506D01*
X166001185Y-92798815D01*
X165904494Y-92719463D01*
X165794180Y-92660498D01*
X165721620Y-92638487D01*
X165853475Y-92506632D01*
X166015990Y-92263411D01*
X166127932Y-91993158D01*
X166185000Y-91706260D01*
X166185000Y-91413740D01*
X166127932Y-91126842D01*
X166015990Y-90856589D01*
X165853475Y-90613368D01*
X165646632Y-90406525D01*
X165403411Y-90244010D01*
X165133158Y-90132068D01*
X164846260Y-90075000D01*
X164553740Y-90075000D01*
X164266842Y-90132068D01*
X163996589Y-90244010D01*
X163753368Y-90406525D01*
X163546525Y-90613368D01*
X163384010Y-90856589D01*
X163272068Y-91126842D01*
X163215000Y-91413740D01*
X163215000Y-91706260D01*
X163272068Y-91993158D01*
X163384010Y-92263411D01*
X163546525Y-92506632D01*
X163678380Y-92638487D01*
X163605820Y-92660498D01*
X163495506Y-92719463D01*
X163398815Y-92798815D01*
X163319463Y-92895506D01*
X163260498Y-93005820D01*
X163224188Y-93125518D01*
X163211928Y-93250000D01*
X158939396Y-93250000D01*
X158814759Y-93125363D01*
X158582241Y-92970000D01*
X158814759Y-92814637D01*
X159014637Y-92614759D01*
X159171680Y-92379727D01*
X159279853Y-92118574D01*
X159335000Y-91841335D01*
X159335000Y-91558665D01*
X159279853Y-91281426D01*
X159171680Y-91020273D01*
X159014637Y-90785241D01*
X158814759Y-90585363D01*
X158579727Y-90428320D01*
X158318574Y-90320147D01*
X158041335Y-90265000D01*
X157758665Y-90265000D01*
X157481426Y-90320147D01*
X157220273Y-90428320D01*
X156985241Y-90585363D01*
X156785363Y-90785241D01*
X156628320Y-91020273D01*
X156520147Y-91281426D01*
X156465000Y-91558665D01*
X154435000Y-91558665D01*
X154435000Y-91508816D01*
X154376011Y-91212257D01*
X154260299Y-90932905D01*
X154092312Y-90681495D01*
X153878505Y-90467688D01*
X153627095Y-90299701D01*
X153347743Y-90183989D01*
X153051184Y-90125000D01*
X152748816Y-90125000D01*
X152452257Y-90183989D01*
X152172905Y-90299701D01*
X151921495Y-90467688D01*
X151707688Y-90681495D01*
X151539701Y-90932905D01*
X151423989Y-91212257D01*
X151365000Y-91508816D01*
X151365000Y-91811184D01*
X151423989Y-92107743D01*
X151539701Y-92387095D01*
X151707688Y-92638505D01*
X151774127Y-92704944D01*
X151755820Y-92710498D01*
X151645506Y-92769463D01*
X151548815Y-92848815D01*
X151469463Y-92945506D01*
X151410498Y-93055820D01*
X151374188Y-93175518D01*
X151361928Y-93300000D01*
X147344498Y-93300000D01*
X147491680Y-93079727D01*
X147599853Y-92818574D01*
X147655000Y-92541335D01*
X147655000Y-92258665D01*
X147599853Y-91981426D01*
X147491680Y-91720273D01*
X147334637Y-91485241D01*
X147134759Y-91285363D01*
X146899727Y-91128320D01*
X146638574Y-91020147D01*
X146361335Y-90965000D01*
X146078665Y-90965000D01*
X145801426Y-91020147D01*
X145540273Y-91128320D01*
X145305241Y-91285363D01*
X145105363Y-91485241D01*
X144948320Y-91720273D01*
X144840147Y-91981426D01*
X144785000Y-92258665D01*
X144785000Y-92541335D01*
X144840147Y-92818574D01*
X144948320Y-93079727D01*
X145105363Y-93314759D01*
X145305241Y-93514637D01*
X145537759Y-93670000D01*
X145305241Y-93825363D01*
X145105363Y-94025241D01*
X144948320Y-94260273D01*
X144840147Y-94521426D01*
X144785000Y-94798665D01*
X144785000Y-95081335D01*
X144840147Y-95358574D01*
X144948320Y-95619727D01*
X145105363Y-95854759D01*
X145305241Y-96054637D01*
X145537759Y-96210000D01*
X145305241Y-96365363D01*
X145105363Y-96565241D01*
X144948320Y-96800273D01*
X144840147Y-97061426D01*
X144785000Y-97338665D01*
X144785000Y-97621335D01*
X144840147Y-97898574D01*
X144948320Y-98159727D01*
X145105363Y-98394759D01*
X145305241Y-98594637D01*
X145537759Y-98750000D01*
X145305241Y-98905363D01*
X145105363Y-99105241D01*
X144948320Y-99340273D01*
X144840147Y-99601426D01*
X144785000Y-99878665D01*
X144785000Y-100161335D01*
X144840147Y-100438574D01*
X144948320Y-100699727D01*
X145105363Y-100934759D01*
X145305241Y-101134637D01*
X145537759Y-101290000D01*
X145305241Y-101445363D01*
X145105363Y-101645241D01*
X144948320Y-101880273D01*
X144840147Y-102141426D01*
X144785000Y-102418665D01*
X144785000Y-102701335D01*
X144840147Y-102978574D01*
X144948320Y-103239727D01*
X145105363Y-103474759D01*
X145305241Y-103674637D01*
X145537759Y-103830000D01*
X145305241Y-103985363D01*
X145105363Y-104185241D01*
X144948320Y-104420273D01*
X144840147Y-104681426D01*
X144785000Y-104958665D01*
X144785000Y-105241335D01*
X144840147Y-105518574D01*
X144948320Y-105779727D01*
X145105363Y-106014759D01*
X145305241Y-106214637D01*
X145537759Y-106370000D01*
X145305241Y-106525363D01*
X145105363Y-106725241D01*
X144948320Y-106960273D01*
X144840147Y-107221426D01*
X144785000Y-107498665D01*
X144785000Y-107781335D01*
X144840147Y-108058574D01*
X144938077Y-108294999D01*
X139881923Y-108294999D01*
X139979853Y-108058574D01*
X140035000Y-107781335D01*
X140035000Y-107498665D01*
X139979853Y-107221426D01*
X139871680Y-106960273D01*
X139714637Y-106725241D01*
X139514759Y-106525363D01*
X139282241Y-106370000D01*
X139514759Y-106214637D01*
X139714637Y-106014759D01*
X139871680Y-105779727D01*
X139979853Y-105518574D01*
X140035000Y-105241335D01*
X140035000Y-104958665D01*
X139979853Y-104681426D01*
X139871680Y-104420273D01*
X139714637Y-104185241D01*
X139514759Y-103985363D01*
X139282241Y-103830000D01*
X139514759Y-103674637D01*
X139714637Y-103474759D01*
X139871680Y-103239727D01*
X139979853Y-102978574D01*
X140035000Y-102701335D01*
X140035000Y-102418665D01*
X139979853Y-102141426D01*
X139871680Y-101880273D01*
X139714637Y-101645241D01*
X139514759Y-101445363D01*
X139282241Y-101290000D01*
X139514759Y-101134637D01*
X139714637Y-100934759D01*
X139871680Y-100699727D01*
X139979853Y-100438574D01*
X140035000Y-100161335D01*
X140035000Y-99878665D01*
X139979853Y-99601426D01*
X139871680Y-99340273D01*
X139714637Y-99105241D01*
X139514759Y-98905363D01*
X139282241Y-98750000D01*
X139514759Y-98594637D01*
X139714637Y-98394759D01*
X139871680Y-98159727D01*
X139979853Y-97898574D01*
X140035000Y-97621335D01*
X140035000Y-97338665D01*
X139979853Y-97061426D01*
X139871680Y-96800273D01*
X139714637Y-96565241D01*
X139514759Y-96365363D01*
X139282241Y-96210000D01*
X139514759Y-96054637D01*
X139714637Y-95854759D01*
X139871680Y-95619727D01*
X139979853Y-95358574D01*
X140035000Y-95081335D01*
X140035000Y-94798665D01*
X139979853Y-94521426D01*
X139871680Y-94260273D01*
X139714637Y-94025241D01*
X139516039Y-93826643D01*
X139524482Y-93825812D01*
X139644180Y-93789502D01*
X139754494Y-93730537D01*
X139851185Y-93651185D01*
X139930537Y-93554494D01*
X139989502Y-93444180D01*
X140025812Y-93324482D01*
X140038072Y-93200000D01*
X140038072Y-91600000D01*
X140025812Y-91475518D01*
X139989502Y-91355820D01*
X139930537Y-91245506D01*
X139851185Y-91148815D01*
X139754494Y-91069463D01*
X139644180Y-91010498D01*
X139524482Y-90974188D01*
X139400000Y-90961928D01*
X137800000Y-90961928D01*
X137675518Y-90974188D01*
X137555820Y-91010498D01*
X137445506Y-91069463D01*
X137348815Y-91148815D01*
X137269463Y-91245506D01*
X137210498Y-91355820D01*
X137174188Y-91475518D01*
X137161928Y-91600000D01*
X137161928Y-93200000D01*
X137174188Y-93324482D01*
X137210498Y-93444180D01*
X137269463Y-93554494D01*
X137348815Y-93651185D01*
X137445506Y-93730537D01*
X137555820Y-93789502D01*
X137675518Y-93825812D01*
X137683961Y-93826643D01*
X137485363Y-94025241D01*
X137328320Y-94260273D01*
X137220147Y-94521426D01*
X137165000Y-94798665D01*
X137165000Y-95081335D01*
X137220147Y-95358574D01*
X137328320Y-95619727D01*
X137485363Y-95854759D01*
X137685241Y-96054637D01*
X137917759Y-96210000D01*
X137685241Y-96365363D01*
X137485363Y-96565241D01*
X137328320Y-96800273D01*
X137220147Y-97061426D01*
X137165000Y-97338665D01*
X137165000Y-97621335D01*
X137220147Y-97898574D01*
X137328320Y-98159727D01*
X137485363Y-98394759D01*
X137685241Y-98594637D01*
X137917759Y-98750000D01*
X137685241Y-98905363D01*
X137485363Y-99105241D01*
X137328320Y-99340273D01*
X137220147Y-99601426D01*
X137165000Y-99878665D01*
X137165000Y-100161335D01*
X137220147Y-100438574D01*
X137328320Y-100699727D01*
X137485363Y-100934759D01*
X137685241Y-101134637D01*
X137917759Y-101290000D01*
X137685241Y-101445363D01*
X137485363Y-101645241D01*
X137328320Y-101880273D01*
X137220147Y-102141426D01*
X137165000Y-102418665D01*
X137165000Y-102701335D01*
X137220147Y-102978574D01*
X137328320Y-103239727D01*
X137485363Y-103474759D01*
X137685241Y-103674637D01*
X137917759Y-103830000D01*
X137685241Y-103985363D01*
X137485363Y-104185241D01*
X137328320Y-104420273D01*
X137220147Y-104681426D01*
X137165000Y-104958665D01*
X137165000Y-105241335D01*
X137220147Y-105518574D01*
X137328320Y-105779727D01*
X137485363Y-106014759D01*
X137685241Y-106214637D01*
X137917759Y-106370000D01*
X137685241Y-106525363D01*
X137485363Y-106725241D01*
X137328320Y-106960273D01*
X137243895Y-107164093D01*
X132340000Y-102260199D01*
X132340000Y-94088072D01*
X132430000Y-94088072D01*
X132554482Y-94075812D01*
X132674180Y-94039502D01*
X132784494Y-93980537D01*
X132881185Y-93901185D01*
X132960537Y-93804494D01*
X133019502Y-93694180D01*
X133041513Y-93621620D01*
X133173368Y-93753475D01*
X133416589Y-93915990D01*
X133686842Y-94027932D01*
X133973740Y-94085000D01*
X134266260Y-94085000D01*
X134553158Y-94027932D01*
X134823411Y-93915990D01*
X135066632Y-93753475D01*
X135273475Y-93546632D01*
X135435990Y-93303411D01*
X135547932Y-93033158D01*
X135605000Y-92746260D01*
X135605000Y-92453740D01*
X135547932Y-92166842D01*
X135435990Y-91896589D01*
X135273475Y-91653368D01*
X135066632Y-91446525D01*
X134823411Y-91284010D01*
X134553158Y-91172068D01*
X134266260Y-91115000D01*
X133973740Y-91115000D01*
X133686842Y-91172068D01*
X133416589Y-91284010D01*
X133173368Y-91446525D01*
X133041513Y-91578380D01*
X133019502Y-91505820D01*
X132960537Y-91395506D01*
X132881185Y-91298815D01*
X132784494Y-91219463D01*
X132674180Y-91160498D01*
X132554482Y-91124188D01*
X132430000Y-91111928D01*
X130730000Y-91111928D01*
X130605518Y-91124188D01*
X130485820Y-91160498D01*
X130375506Y-91219463D01*
X130278815Y-91298815D01*
X130199463Y-91395506D01*
X130140498Y-91505820D01*
X130116034Y-91586466D01*
X130040269Y-91502412D01*
X129806920Y-91328359D01*
X129544099Y-91203175D01*
X129396890Y-91158524D01*
X129167000Y-91279845D01*
X129167000Y-92473000D01*
X129187000Y-92473000D01*
X129187000Y-92727000D01*
X129167000Y-92727000D01*
X129167000Y-93920155D01*
X129396890Y-94041476D01*
X129544099Y-93996825D01*
X129806920Y-93871641D01*
X130040269Y-93697588D01*
X130116034Y-93613534D01*
X130140498Y-93694180D01*
X130199463Y-93804494D01*
X130278815Y-93901185D01*
X130375506Y-93980537D01*
X130485820Y-94039502D01*
X130605518Y-94075812D01*
X130730000Y-94088072D01*
X130820000Y-94088072D01*
X130820001Y-101885199D01*
X122506372Y-93571571D01*
X122537000Y-93417592D01*
X122537000Y-93142408D01*
X122499324Y-92952999D01*
X125011928Y-92952999D01*
X125011928Y-93450000D01*
X125024188Y-93574482D01*
X125060498Y-93694180D01*
X125119463Y-93804494D01*
X125198815Y-93901185D01*
X125295506Y-93980537D01*
X125405820Y-94039502D01*
X125525518Y-94075812D01*
X125650000Y-94088072D01*
X127350000Y-94088072D01*
X127474482Y-94075812D01*
X127594180Y-94039502D01*
X127704494Y-93980537D01*
X127801185Y-93901185D01*
X127880537Y-93804494D01*
X127939502Y-93694180D01*
X127963966Y-93613534D01*
X128039731Y-93697588D01*
X128273080Y-93871641D01*
X128535901Y-93996825D01*
X128683110Y-94041476D01*
X128913000Y-93920155D01*
X128913000Y-92727000D01*
X128893000Y-92727000D01*
X128893000Y-92473000D01*
X128913000Y-92473000D01*
X128913000Y-91279845D01*
X128683110Y-91158524D01*
X128535901Y-91203175D01*
X128273080Y-91328359D01*
X128039731Y-91502412D01*
X127963966Y-91586466D01*
X127939502Y-91505820D01*
X127880537Y-91395506D01*
X127801185Y-91298815D01*
X127704494Y-91219463D01*
X127594180Y-91160498D01*
X127474482Y-91124188D01*
X127350000Y-91111928D01*
X125650000Y-91111928D01*
X125525518Y-91124188D01*
X125405820Y-91160498D01*
X125295506Y-91219463D01*
X125198815Y-91298815D01*
X125119463Y-91395506D01*
X125099422Y-91432999D01*
X120655564Y-91432999D01*
X120618239Y-91429323D01*
X120580914Y-91432999D01*
X120580906Y-91432999D01*
X120469253Y-91443996D01*
X120325992Y-91487453D01*
X120193963Y-91558025D01*
X120078238Y-91652998D01*
X120054440Y-91681996D01*
X106816046Y-104920391D01*
X106790535Y-104894880D01*
X106561727Y-104741995D01*
X106484485Y-104710000D01*
X106561727Y-104678005D01*
X106790535Y-104525120D01*
X106985120Y-104330535D01*
X107138005Y-104101727D01*
X107243314Y-103847490D01*
X107297000Y-103577592D01*
X107297000Y-103302408D01*
X107243314Y-103032510D01*
X107138005Y-102778273D01*
X106985120Y-102549465D01*
X106790535Y-102354880D01*
X106561727Y-102201995D01*
X106484485Y-102170000D01*
X106561727Y-102138005D01*
X106790535Y-101985120D01*
X106985120Y-101790535D01*
X107138005Y-101561727D01*
X107243314Y-101307490D01*
X107297000Y-101037592D01*
X107297000Y-100762408D01*
X107243314Y-100492510D01*
X107138005Y-100238273D01*
X106985120Y-100009465D01*
X106790535Y-99814880D01*
X106561727Y-99661995D01*
X106484485Y-99630000D01*
X106561727Y-99598005D01*
X106790535Y-99445120D01*
X106985120Y-99250535D01*
X107138005Y-99021727D01*
X107243314Y-98767490D01*
X107297000Y-98497592D01*
X107297000Y-98222408D01*
X107243314Y-97952510D01*
X107138005Y-97698273D01*
X106985120Y-97469465D01*
X106790535Y-97274880D01*
X106561727Y-97121995D01*
X106484485Y-97090000D01*
X106561727Y-97058005D01*
X106790535Y-96905120D01*
X106985120Y-96710535D01*
X107138005Y-96481727D01*
X107243314Y-96227490D01*
X107297000Y-95957592D01*
X107297000Y-95682408D01*
X107243314Y-95412510D01*
X107138005Y-95158273D01*
X106985120Y-94929465D01*
X106790535Y-94734880D01*
X106561727Y-94581995D01*
X106484485Y-94550000D01*
X106561727Y-94518005D01*
X106790535Y-94365120D01*
X106985120Y-94170535D01*
X107138005Y-93941727D01*
X107243314Y-93687490D01*
X107297000Y-93417592D01*
X107297000Y-93142408D01*
X107243314Y-92872510D01*
X107138005Y-92618273D01*
X106985120Y-92389465D01*
X106790535Y-92194880D01*
X106561727Y-92041995D01*
X106307490Y-91936686D01*
X106037592Y-91883000D01*
X105762408Y-91883000D01*
X105492510Y-91936686D01*
X105238273Y-92041995D01*
X105009465Y-92194880D01*
X104814880Y-92389465D01*
X104661995Y-92618273D01*
X104556686Y-92872510D01*
X104503000Y-93142408D01*
X104503000Y-93417592D01*
X104556686Y-93687490D01*
X104661995Y-93941727D01*
X104814880Y-94170535D01*
X105009465Y-94365120D01*
X105238273Y-94518005D01*
X105315515Y-94550000D01*
X105238273Y-94581995D01*
X105009465Y-94734880D01*
X104814880Y-94929465D01*
X104661995Y-95158273D01*
X104556686Y-95412510D01*
X104503000Y-95682408D01*
X104503000Y-95957592D01*
X104556686Y-96227490D01*
X104661995Y-96481727D01*
X104814880Y-96710535D01*
X105009465Y-96905120D01*
X105238273Y-97058005D01*
X105315515Y-97090000D01*
X105238273Y-97121995D01*
X105009465Y-97274880D01*
X104814880Y-97469465D01*
X104661995Y-97698273D01*
X104556686Y-97952510D01*
X104503000Y-98222408D01*
X104503000Y-98497592D01*
X104556686Y-98767490D01*
X104661995Y-99021727D01*
X104814880Y-99250535D01*
X105009465Y-99445120D01*
X105238273Y-99598005D01*
X105315515Y-99630000D01*
X105238273Y-99661995D01*
X105009465Y-99814880D01*
X104814880Y-100009465D01*
X104661995Y-100238273D01*
X104556686Y-100492510D01*
X104503000Y-100762408D01*
X104503000Y-101037592D01*
X104556686Y-101307490D01*
X104661995Y-101561727D01*
X104814880Y-101790535D01*
X105009465Y-101985120D01*
X105238273Y-102138005D01*
X105315515Y-102170000D01*
X105238273Y-102201995D01*
X105009465Y-102354880D01*
X104814880Y-102549465D01*
X104661995Y-102778273D01*
X104556686Y-103032510D01*
X104503000Y-103302408D01*
X104503000Y-103577592D01*
X104556686Y-103847490D01*
X104661995Y-104101727D01*
X104814880Y-104330535D01*
X105009465Y-104525120D01*
X105238273Y-104678005D01*
X105315515Y-104710000D01*
X105238273Y-104741995D01*
X105009465Y-104894880D01*
X104814880Y-105089465D01*
X104661995Y-105318273D01*
X104556686Y-105572510D01*
X104503000Y-105842408D01*
X104503000Y-106117592D01*
X104556686Y-106387490D01*
X104661995Y-106641727D01*
X104814880Y-106870535D01*
X105009465Y-107065120D01*
X105238273Y-107218005D01*
X105315515Y-107250000D01*
X105238273Y-107281995D01*
X105009465Y-107434880D01*
X104814880Y-107629465D01*
X104661995Y-107858273D01*
X104556686Y-108112510D01*
X104503000Y-108382408D01*
X104503000Y-108657592D01*
X104556686Y-108927490D01*
X104661995Y-109181727D01*
X104814880Y-109410535D01*
X105009465Y-109605120D01*
X105238273Y-109758005D01*
X105315515Y-109790000D01*
X105238273Y-109821995D01*
X105009465Y-109974880D01*
X104814880Y-110169465D01*
X104661995Y-110398273D01*
X104556686Y-110652510D01*
X104503000Y-110922408D01*
X104503000Y-111197592D01*
X104556686Y-111467490D01*
X104661995Y-111721727D01*
X104814880Y-111950535D01*
X105009465Y-112145120D01*
X105238273Y-112298005D01*
X105315515Y-112330000D01*
X105238273Y-112361995D01*
X105009465Y-112514880D01*
X104814880Y-112709465D01*
X104661995Y-112938273D01*
X104556686Y-113192510D01*
X104503000Y-113462408D01*
X104503000Y-113737592D01*
X104556686Y-114007490D01*
X104661995Y-114261727D01*
X104814880Y-114490535D01*
X105009465Y-114685120D01*
X105238273Y-114838005D01*
X105315515Y-114870000D01*
X105238273Y-114901995D01*
X105009465Y-115054880D01*
X104814880Y-115249465D01*
X104661995Y-115478273D01*
X104556686Y-115732510D01*
X104503000Y-116002408D01*
X104503000Y-116277592D01*
X104556686Y-116547490D01*
X104661995Y-116801727D01*
X104814880Y-117030535D01*
X105009465Y-117225120D01*
X105238273Y-117378005D01*
X105309943Y-117407692D01*
X105296977Y-117412364D01*
X105181020Y-117474344D01*
X105114040Y-117714435D01*
X105900000Y-118500395D01*
X105914143Y-118486253D01*
X106093748Y-118665858D01*
X106079605Y-118680000D01*
X106093748Y-118694143D01*
X105914143Y-118873748D01*
X105900000Y-118859605D01*
X105114040Y-119645565D01*
X105181020Y-119885656D01*
X105316760Y-119949485D01*
X105238273Y-119981995D01*
X105009465Y-120134880D01*
X104814880Y-120329465D01*
X104661995Y-120558273D01*
X104556686Y-120812510D01*
X104503000Y-121082408D01*
X104503000Y-121357592D01*
X104556686Y-121627490D01*
X104661995Y-121881727D01*
X104814880Y-122110535D01*
X105009465Y-122305120D01*
X105238273Y-122458005D01*
X105492510Y-122563314D01*
X105762408Y-122617000D01*
X106037592Y-122617000D01*
X106307490Y-122563314D01*
X106561727Y-122458005D01*
X106790535Y-122305120D01*
X106985120Y-122110535D01*
X107138005Y-121881727D01*
X107243314Y-121627490D01*
X107297000Y-121357592D01*
X107297000Y-121082408D01*
X107266372Y-120928430D01*
X107498004Y-120696798D01*
X107527002Y-120673000D01*
X107621975Y-120557275D01*
X107692547Y-120425246D01*
X107736004Y-120281985D01*
X107747001Y-120170332D01*
X107750678Y-120132999D01*
X107747001Y-120095666D01*
X107747001Y-106139038D01*
X119918945Y-93967095D01*
X120054880Y-94170535D01*
X120249465Y-94365120D01*
X120478273Y-94518005D01*
X120555515Y-94550000D01*
X120478273Y-94581995D01*
X120249465Y-94734880D01*
X120054880Y-94929465D01*
X119901995Y-95158273D01*
X119796686Y-95412510D01*
X119743000Y-95682408D01*
X119743000Y-95957592D01*
X119773628Y-96111571D01*
X119542001Y-96343197D01*
X119512998Y-96367000D01*
X119461661Y-96429555D01*
X119418025Y-96482725D01*
X119347454Y-96614754D01*
X119347453Y-96614755D01*
X119303996Y-96758016D01*
X119292999Y-96869669D01*
X119292999Y-96869679D01*
X119289323Y-96907001D01*
X119292999Y-96944323D01*
X119293000Y-121704428D01*
X119289323Y-121741761D01*
X119303997Y-121890746D01*
X119347453Y-122034007D01*
X119418025Y-122166037D01*
X119489200Y-122252763D01*
X119512999Y-122281762D01*
X119541997Y-122305560D01*
X123862440Y-126626004D01*
X123886238Y-126655002D01*
X124001963Y-126749975D01*
X124133992Y-126820547D01*
X124277253Y-126864004D01*
X124388906Y-126875001D01*
X124388915Y-126875001D01*
X124426238Y-126878677D01*
X124463561Y-126875001D01*
X158197677Y-126875001D01*
X158234999Y-126878677D01*
X158272321Y-126875001D01*
X158272332Y-126875001D01*
X158383985Y-126864004D01*
X158527246Y-126820547D01*
X158659275Y-126749975D01*
X158775000Y-126655002D01*
X158798803Y-126625998D01*
X159158624Y-126266177D01*
X159173088Y-126272168D01*
X159488967Y-126335000D01*
X159811033Y-126335000D01*
X160126912Y-126272168D01*
X160424463Y-126148918D01*
X160692252Y-125969987D01*
X160919987Y-125742252D01*
X161098918Y-125474463D01*
X161104909Y-125460000D01*
X164695091Y-125460000D01*
X164701082Y-125474463D01*
X164880013Y-125742252D01*
X165107748Y-125969987D01*
X165375537Y-126148918D01*
X165673088Y-126272168D01*
X165988967Y-126335000D01*
X166311033Y-126335000D01*
X166626912Y-126272168D01*
X166924463Y-126148918D01*
X167192252Y-125969987D01*
X167419987Y-125742252D01*
X167540000Y-125562640D01*
X167540000Y-128340000D01*
X81660000Y-128340000D01*
X81660000Y-118752017D01*
X104498090Y-118752017D01*
X104539078Y-119024133D01*
X104632364Y-119283023D01*
X104694344Y-119398980D01*
X104934435Y-119465960D01*
X105720395Y-118680000D01*
X104934435Y-117894040D01*
X104694344Y-117961020D01*
X104577244Y-118210048D01*
X104510977Y-118477135D01*
X104498090Y-118752017D01*
X81660000Y-118752017D01*
X81660000Y-106674916D01*
X99330000Y-106674916D01*
X99330000Y-106925084D01*
X99378805Y-107170445D01*
X99474541Y-107401571D01*
X99613527Y-107609578D01*
X99790422Y-107786473D01*
X99998429Y-107925459D01*
X100229555Y-108021195D01*
X100474916Y-108070000D01*
X100725084Y-108070000D01*
X100970445Y-108021195D01*
X101201571Y-107925459D01*
X101409578Y-107786473D01*
X101586473Y-107609578D01*
X101725459Y-107401571D01*
X101821195Y-107170445D01*
X101870000Y-106925084D01*
X101870000Y-106674916D01*
X101821195Y-106429555D01*
X101725459Y-106198429D01*
X101586473Y-105990422D01*
X101409578Y-105813527D01*
X101381368Y-105794677D01*
X101441712Y-105751018D01*
X101611073Y-105568535D01*
X101741579Y-105356517D01*
X101828215Y-105123113D01*
X101704890Y-104927000D01*
X100727000Y-104927000D01*
X100727000Y-104947000D01*
X100473000Y-104947000D01*
X100473000Y-104927000D01*
X99495110Y-104927000D01*
X99371785Y-105123113D01*
X99458421Y-105356517D01*
X99588927Y-105568535D01*
X99758288Y-105751018D01*
X99818632Y-105794677D01*
X99790422Y-105813527D01*
X99613527Y-105990422D01*
X99474541Y-106198429D01*
X99378805Y-106429555D01*
X99330000Y-106674916D01*
X81660000Y-106674916D01*
X81660000Y-100587341D01*
X81991647Y-100808941D01*
X82407490Y-100981189D01*
X82848947Y-101069000D01*
X83299053Y-101069000D01*
X83740510Y-100981189D01*
X84156353Y-100808941D01*
X84530603Y-100558875D01*
X84848875Y-100240603D01*
X85098941Y-99866353D01*
X85271189Y-99450510D01*
X85359000Y-99009053D01*
X85359000Y-98558947D01*
X85271189Y-98117490D01*
X85098941Y-97701647D01*
X84848875Y-97327397D01*
X84530603Y-97009125D01*
X84156353Y-96759059D01*
X83740510Y-96586811D01*
X83299053Y-96499000D01*
X82848947Y-96499000D01*
X82407490Y-96586811D01*
X81991647Y-96759059D01*
X81660000Y-96980659D01*
X81660000Y-92674916D01*
X99330000Y-92674916D01*
X99330000Y-92925084D01*
X99378805Y-93170445D01*
X99474541Y-93401571D01*
X99613527Y-93609578D01*
X99790422Y-93786473D01*
X99810667Y-93800000D01*
X99790422Y-93813527D01*
X99613527Y-93990422D01*
X99474541Y-94198429D01*
X99378805Y-94429555D01*
X99330000Y-94674916D01*
X99330000Y-94925084D01*
X99378805Y-95170445D01*
X99474541Y-95401571D01*
X99613527Y-95609578D01*
X99790422Y-95786473D01*
X99810667Y-95800000D01*
X99790422Y-95813527D01*
X99613527Y-95990422D01*
X99474541Y-96198429D01*
X99378805Y-96429555D01*
X99330000Y-96674916D01*
X99330000Y-96925084D01*
X99378805Y-97170445D01*
X99474541Y-97401571D01*
X99613527Y-97609578D01*
X99790422Y-97786473D01*
X99810667Y-97800000D01*
X99790422Y-97813527D01*
X99613527Y-97990422D01*
X99474541Y-98198429D01*
X99378805Y-98429555D01*
X99330000Y-98674916D01*
X99330000Y-98925084D01*
X99378805Y-99170445D01*
X99474541Y-99401571D01*
X99613527Y-99609578D01*
X99790422Y-99786473D01*
X99810667Y-99800000D01*
X99790422Y-99813527D01*
X99613527Y-99990422D01*
X99474541Y-100198429D01*
X99378805Y-100429555D01*
X99330000Y-100674916D01*
X99330000Y-100925084D01*
X99378805Y-101170445D01*
X99474541Y-101401571D01*
X99613527Y-101609578D01*
X99790422Y-101786473D01*
X99810667Y-101800000D01*
X99790422Y-101813527D01*
X99613527Y-101990422D01*
X99474541Y-102198429D01*
X99378805Y-102429555D01*
X99330000Y-102674916D01*
X99330000Y-102925084D01*
X99378805Y-103170445D01*
X99474541Y-103401571D01*
X99613527Y-103609578D01*
X99790422Y-103786473D01*
X99818632Y-103805323D01*
X99758288Y-103848982D01*
X99588927Y-104031465D01*
X99458421Y-104243483D01*
X99371785Y-104476887D01*
X99495110Y-104673000D01*
X100473000Y-104673000D01*
X100473000Y-104653000D01*
X100727000Y-104653000D01*
X100727000Y-104673000D01*
X101704890Y-104673000D01*
X101828215Y-104476887D01*
X101741579Y-104243483D01*
X101611073Y-104031465D01*
X101441712Y-103848982D01*
X101381368Y-103805323D01*
X101409578Y-103786473D01*
X101586473Y-103609578D01*
X101725459Y-103401571D01*
X101821195Y-103170445D01*
X101870000Y-102925084D01*
X101870000Y-102674916D01*
X101821195Y-102429555D01*
X101725459Y-102198429D01*
X101586473Y-101990422D01*
X101409578Y-101813527D01*
X101389333Y-101800000D01*
X101409578Y-101786473D01*
X101586473Y-101609578D01*
X101725459Y-101401571D01*
X101821195Y-101170445D01*
X101870000Y-100925084D01*
X101870000Y-100674916D01*
X101821195Y-100429555D01*
X101725459Y-100198429D01*
X101586473Y-99990422D01*
X101409578Y-99813527D01*
X101389333Y-99800000D01*
X101409578Y-99786473D01*
X101586473Y-99609578D01*
X101725459Y-99401571D01*
X101821195Y-99170445D01*
X101870000Y-98925084D01*
X101870000Y-98674916D01*
X101821195Y-98429555D01*
X101725459Y-98198429D01*
X101586473Y-97990422D01*
X101409578Y-97813527D01*
X101389333Y-97800000D01*
X101409578Y-97786473D01*
X101586473Y-97609578D01*
X101725459Y-97401571D01*
X101821195Y-97170445D01*
X101870000Y-96925084D01*
X101870000Y-96674916D01*
X101821195Y-96429555D01*
X101725459Y-96198429D01*
X101586473Y-95990422D01*
X101409578Y-95813527D01*
X101389333Y-95800000D01*
X101409578Y-95786473D01*
X101586473Y-95609578D01*
X101725459Y-95401571D01*
X101821195Y-95170445D01*
X101870000Y-94925084D01*
X101870000Y-94674916D01*
X101821195Y-94429555D01*
X101725459Y-94198429D01*
X101586473Y-93990422D01*
X101409578Y-93813527D01*
X101389333Y-93800000D01*
X101409578Y-93786473D01*
X101586473Y-93609578D01*
X101725459Y-93401571D01*
X101821195Y-93170445D01*
X101870000Y-92925084D01*
X101870000Y-92674916D01*
X101821195Y-92429555D01*
X101725459Y-92198429D01*
X101586473Y-91990422D01*
X101409578Y-91813527D01*
X101201571Y-91674541D01*
X100970445Y-91578805D01*
X100725084Y-91530000D01*
X100474916Y-91530000D01*
X100229555Y-91578805D01*
X99998429Y-91674541D01*
X99790422Y-91813527D01*
X99613527Y-91990422D01*
X99474541Y-92198429D01*
X99378805Y-92429555D01*
X99330000Y-92674916D01*
X81660000Y-92674916D01*
X81660000Y-90127000D01*
X117750000Y-90127000D01*
X117774776Y-90124560D01*
X117798601Y-90117333D01*
X117820557Y-90105597D01*
X117839803Y-90089803D01*
X117855597Y-90070557D01*
X117867333Y-90048601D01*
X117874560Y-90024776D01*
X117877000Y-90000000D01*
X117877000Y-61800000D01*
X161711928Y-61800000D01*
X161711928Y-64300000D01*
X161724188Y-64424482D01*
X161760498Y-64544180D01*
X161819463Y-64654494D01*
X161898815Y-64751185D01*
X161995506Y-64830537D01*
X162105820Y-64889502D01*
X162225518Y-64925812D01*
X162350000Y-64938072D01*
X164850000Y-64938072D01*
X164974482Y-64925812D01*
X165094180Y-64889502D01*
X165204494Y-64830537D01*
X165301185Y-64751185D01*
X165380537Y-64654494D01*
X165439502Y-64544180D01*
X165475812Y-64424482D01*
X165488072Y-64300000D01*
X165488072Y-61800000D01*
X165475812Y-61675518D01*
X165439502Y-61555820D01*
X165380537Y-61445506D01*
X165301185Y-61348815D01*
X165204494Y-61269463D01*
X165094180Y-61210498D01*
X164974482Y-61174188D01*
X164850000Y-61161928D01*
X162350000Y-61161928D01*
X162225518Y-61174188D01*
X162105820Y-61210498D01*
X161995506Y-61269463D01*
X161898815Y-61348815D01*
X161819463Y-61445506D01*
X161760498Y-61555820D01*
X161724188Y-61675518D01*
X161711928Y-61800000D01*
X117877000Y-61800000D01*
X117877000Y-55363605D01*
X162466000Y-55363605D01*
X162591914Y-55653577D01*
X162924126Y-55819433D01*
X163282312Y-55917290D01*
X163652706Y-55943389D01*
X164021075Y-55896725D01*
X164373262Y-55779094D01*
X164608086Y-55653577D01*
X164734000Y-55363605D01*
X163600000Y-54229605D01*
X162466000Y-55363605D01*
X117877000Y-55363605D01*
X117877000Y-54102706D01*
X161706611Y-54102706D01*
X161753275Y-54471075D01*
X161870906Y-54823262D01*
X161996423Y-55058086D01*
X162286395Y-55184000D01*
X163420395Y-54050000D01*
X163779605Y-54050000D01*
X164913605Y-55184000D01*
X165203577Y-55058086D01*
X165369433Y-54725874D01*
X165467290Y-54367688D01*
X165493389Y-53997294D01*
X165446725Y-53628925D01*
X165329094Y-53276738D01*
X165203577Y-53041914D01*
X164913605Y-52916000D01*
X163779605Y-54050000D01*
X163420395Y-54050000D01*
X162286395Y-52916000D01*
X161996423Y-53041914D01*
X161830567Y-53374126D01*
X161732710Y-53732312D01*
X161706611Y-54102706D01*
X117877000Y-54102706D01*
X117877000Y-52736395D01*
X162466000Y-52736395D01*
X163600000Y-53870395D01*
X164734000Y-52736395D01*
X164608086Y-52446423D01*
X164275874Y-52280567D01*
X163917688Y-52182710D01*
X163547294Y-52156611D01*
X163178925Y-52203275D01*
X162826738Y-52320906D01*
X162591914Y-52446423D01*
X162466000Y-52736395D01*
X117877000Y-52736395D01*
X117877000Y-49910000D01*
X167540001Y-49910000D01*
X167540000Y-119336401D01*
%TA.AperFunction,Conductor*%
D30*
G36*
X167540000Y-119336401D02*
G01*
X167285413Y-119244192D01*
X166329605Y-120200000D01*
X167285413Y-121155808D01*
X167540000Y-121063599D01*
X167540000Y-123837360D01*
X167419987Y-123657748D01*
X167192252Y-123430013D01*
X166924463Y-123251082D01*
X166626912Y-123127832D01*
X166311033Y-123065000D01*
X165988967Y-123065000D01*
X165673088Y-123127832D01*
X165375537Y-123251082D01*
X165107748Y-123430013D01*
X164880013Y-123657748D01*
X164701082Y-123925537D01*
X164695091Y-123940000D01*
X161104909Y-123940000D01*
X161098918Y-123925537D01*
X160919987Y-123657748D01*
X160692252Y-123430013D01*
X160424463Y-123251082D01*
X160126912Y-123127832D01*
X159811033Y-123065000D01*
X159488967Y-123065000D01*
X159173088Y-123127832D01*
X158875537Y-123251082D01*
X158607748Y-123430013D01*
X158380013Y-123657748D01*
X158201082Y-123925537D01*
X158077832Y-124223088D01*
X158015000Y-124538967D01*
X158015000Y-124861033D01*
X158077832Y-125176912D01*
X158083823Y-125191376D01*
X157920198Y-125355001D01*
X154594888Y-125355001D01*
X154778505Y-125232312D01*
X154992312Y-125018505D01*
X155160299Y-124767095D01*
X155276011Y-124487743D01*
X155335000Y-124191184D01*
X155335000Y-123888816D01*
X155276011Y-123592257D01*
X155160299Y-123312905D01*
X154992312Y-123061495D01*
X154925873Y-122995056D01*
X154944180Y-122989502D01*
X155054494Y-122930537D01*
X155151185Y-122851185D01*
X155230537Y-122754494D01*
X155289502Y-122644180D01*
X155325812Y-122524482D01*
X155338072Y-122400000D01*
X155335000Y-121785750D01*
X155176250Y-121627000D01*
X153927000Y-121627000D01*
X153927000Y-121647000D01*
X153673000Y-121647000D01*
X153673000Y-121627000D01*
X152423750Y-121627000D01*
X152265000Y-121785750D01*
X152261928Y-122400000D01*
X152274188Y-122524482D01*
X152310498Y-122644180D01*
X152369463Y-122754494D01*
X152448815Y-122851185D01*
X152545506Y-122930537D01*
X152655820Y-122989502D01*
X152674127Y-122995056D01*
X152607688Y-123061495D01*
X152439701Y-123312905D01*
X152323989Y-123592257D01*
X152265000Y-123888816D01*
X152265000Y-124191184D01*
X152323989Y-124487743D01*
X152439701Y-124767095D01*
X152607688Y-125018505D01*
X152821495Y-125232312D01*
X153005112Y-125355001D01*
X148790509Y-125355001D01*
X148835000Y-125131335D01*
X148835000Y-124848665D01*
X148779853Y-124571426D01*
X148671680Y-124310273D01*
X148514637Y-124075241D01*
X148314759Y-123875363D01*
X148082241Y-123720000D01*
X148314759Y-123564637D01*
X148514637Y-123364759D01*
X148671680Y-123129727D01*
X148779853Y-122868574D01*
X148835000Y-122591335D01*
X148835000Y-122308665D01*
X148779853Y-122031426D01*
X148671680Y-121770273D01*
X148514637Y-121535241D01*
X148314759Y-121335363D01*
X148079727Y-121178320D01*
X147818574Y-121070147D01*
X147541335Y-121015000D01*
X147258665Y-121015000D01*
X146981426Y-121070147D01*
X146720273Y-121178320D01*
X146485241Y-121335363D01*
X146285363Y-121535241D01*
X146128320Y-121770273D01*
X146020147Y-122031426D01*
X145965000Y-122308665D01*
X145965000Y-122591335D01*
X146020147Y-122868574D01*
X146128320Y-123129727D01*
X146285363Y-123364759D01*
X146485241Y-123564637D01*
X146717759Y-123720000D01*
X146485241Y-123875363D01*
X146285363Y-124075241D01*
X146128320Y-124310273D01*
X146020147Y-124571426D01*
X145965000Y-124848665D01*
X145965000Y-125131335D01*
X146009491Y-125355001D01*
X135754703Y-125355001D01*
X135864157Y-125171252D01*
X135961481Y-124896891D01*
X135840814Y-124667000D01*
X134647000Y-124667000D01*
X134647000Y-124687000D01*
X134393000Y-124687000D01*
X134393000Y-124667000D01*
X132107000Y-124667000D01*
X132107000Y-124687000D01*
X131853000Y-124687000D01*
X131853000Y-124667000D01*
X129567000Y-124667000D01*
X129567000Y-124687000D01*
X129313000Y-124687000D01*
X129313000Y-124667000D01*
X127027000Y-124667000D01*
X127027000Y-124687000D01*
X126773000Y-124687000D01*
X126773000Y-124667000D01*
X125579186Y-124667000D01*
X125458519Y-124896891D01*
X125555843Y-125171252D01*
X125665297Y-125355001D01*
X124741041Y-125355001D01*
X121827094Y-122441055D01*
X122030535Y-122305120D01*
X122225120Y-122110535D01*
X122378005Y-121881727D01*
X122483314Y-121627490D01*
X122537000Y-121357592D01*
X122537000Y-121082408D01*
X122483314Y-120812510D01*
X122378005Y-120558273D01*
X122225120Y-120329465D01*
X122030535Y-120134880D01*
X121801727Y-119981995D01*
X121724485Y-119950000D01*
X121801727Y-119918005D01*
X122030535Y-119765120D01*
X122225120Y-119570535D01*
X122378005Y-119341727D01*
X122483314Y-119087490D01*
X122537000Y-118817592D01*
X122537000Y-118542408D01*
X122483314Y-118272510D01*
X122378005Y-118018273D01*
X122225120Y-117789465D01*
X122030535Y-117594880D01*
X121801727Y-117441995D01*
X121724485Y-117410000D01*
X121801727Y-117378005D01*
X122030535Y-117225120D01*
X122225120Y-117030535D01*
X122378005Y-116801727D01*
X122483314Y-116547490D01*
X122537000Y-116277592D01*
X122537000Y-116002408D01*
X122483314Y-115732510D01*
X122378005Y-115478273D01*
X122225120Y-115249465D01*
X122030535Y-115054880D01*
X121801727Y-114901995D01*
X121730057Y-114872308D01*
X121743023Y-114867636D01*
X121858980Y-114805656D01*
X121925960Y-114565565D01*
X121140000Y-113779605D01*
X121125858Y-113793748D01*
X120946253Y-113614143D01*
X120960395Y-113600000D01*
X121319605Y-113600000D01*
X122105565Y-114385960D01*
X122345656Y-114318980D01*
X122462756Y-114069952D01*
X122529023Y-113802865D01*
X122541910Y-113527983D01*
X122500922Y-113255867D01*
X122407636Y-112996977D01*
X122345656Y-112881020D01*
X122105565Y-112814040D01*
X121319605Y-113600000D01*
X120960395Y-113600000D01*
X120946253Y-113585858D01*
X121125858Y-113406253D01*
X121140000Y-113420395D01*
X121925960Y-112634435D01*
X121858980Y-112394344D01*
X121723240Y-112330515D01*
X121801727Y-112298005D01*
X122030535Y-112145120D01*
X122225120Y-111950535D01*
X122378005Y-111721727D01*
X122483314Y-111467490D01*
X122537000Y-111197592D01*
X122537000Y-110922408D01*
X122483314Y-110652510D01*
X122378005Y-110398273D01*
X122225120Y-110169465D01*
X122030535Y-109974880D01*
X121801727Y-109821995D01*
X121724485Y-109790000D01*
X121801727Y-109758005D01*
X122030535Y-109605120D01*
X122225120Y-109410535D01*
X122378005Y-109181727D01*
X122483314Y-108927490D01*
X122537000Y-108657592D01*
X122537000Y-108382408D01*
X122483314Y-108112510D01*
X122378005Y-107858273D01*
X122225120Y-107629465D01*
X122030535Y-107434880D01*
X121801727Y-107281995D01*
X121724485Y-107250000D01*
X121801727Y-107218005D01*
X122030535Y-107065120D01*
X122225120Y-106870535D01*
X122378005Y-106641727D01*
X122483314Y-106387490D01*
X122537000Y-106117592D01*
X122537000Y-105911801D01*
X126140000Y-109514802D01*
X126140001Y-120721821D01*
X125953368Y-120846525D01*
X125746525Y-121053368D01*
X125584010Y-121296589D01*
X125472068Y-121566842D01*
X125415000Y-121853740D01*
X125415000Y-122146260D01*
X125472068Y-122433158D01*
X125584010Y-122703411D01*
X125746525Y-122946632D01*
X125953368Y-123153475D01*
X126129406Y-123271100D01*
X125899731Y-123442412D01*
X125704822Y-123658645D01*
X125555843Y-123908748D01*
X125458519Y-124183109D01*
X125579186Y-124413000D01*
X126773000Y-124413000D01*
X126773000Y-124393000D01*
X127027000Y-124393000D01*
X127027000Y-124413000D01*
X129313000Y-124413000D01*
X129313000Y-124393000D01*
X129567000Y-124393000D01*
X129567000Y-124413000D01*
X131853000Y-124413000D01*
X131853000Y-124393000D01*
X132107000Y-124393000D01*
X132107000Y-124413000D01*
X134393000Y-124413000D01*
X134393000Y-124393000D01*
X134647000Y-124393000D01*
X134647000Y-124413000D01*
X135840814Y-124413000D01*
X135961481Y-124183109D01*
X135864157Y-123908748D01*
X135715178Y-123658645D01*
X135520269Y-123442412D01*
X135290594Y-123271100D01*
X135466632Y-123153475D01*
X135673475Y-122946632D01*
X135835990Y-122703411D01*
X135947932Y-122433158D01*
X136005000Y-122146260D01*
X136005000Y-121853740D01*
X135947932Y-121566842D01*
X135835990Y-121296589D01*
X135673475Y-121053368D01*
X135466632Y-120846525D01*
X135280000Y-120721822D01*
X135280000Y-120600000D01*
X152261928Y-120600000D01*
X152265000Y-121214250D01*
X152423750Y-121373000D01*
X153673000Y-121373000D01*
X153673000Y-120123750D01*
X153927000Y-120123750D01*
X153927000Y-121373000D01*
X155176250Y-121373000D01*
X155213837Y-121335413D01*
X158694192Y-121335413D01*
X158789956Y-121599814D01*
X159079571Y-121740704D01*
X159391108Y-121822384D01*
X159712595Y-121841718D01*
X160031675Y-121797961D01*
X160336088Y-121692795D01*
X160510044Y-121599814D01*
X160605808Y-121335413D01*
X165194192Y-121335413D01*
X165289956Y-121599814D01*
X165579571Y-121740704D01*
X165891108Y-121822384D01*
X166212595Y-121841718D01*
X166531675Y-121797961D01*
X166836088Y-121692795D01*
X167010044Y-121599814D01*
X167105808Y-121335413D01*
X166150000Y-120379605D01*
X165194192Y-121335413D01*
X160605808Y-121335413D01*
X159650000Y-120379605D01*
X158694192Y-121335413D01*
X155213837Y-121335413D01*
X155335000Y-121214250D01*
X155338072Y-120600000D01*
X155325812Y-120475518D01*
X155289502Y-120355820D01*
X155239672Y-120262595D01*
X158008282Y-120262595D01*
X158052039Y-120581675D01*
X158157205Y-120886088D01*
X158250186Y-121060044D01*
X158514587Y-121155808D01*
X159470395Y-120200000D01*
X159829605Y-120200000D01*
X160785413Y-121155808D01*
X161049814Y-121060044D01*
X161190704Y-120770429D01*
X161272384Y-120458892D01*
X161284189Y-120262595D01*
X164508282Y-120262595D01*
X164552039Y-120581675D01*
X164657205Y-120886088D01*
X164750186Y-121060044D01*
X165014587Y-121155808D01*
X165970395Y-120200000D01*
X165014587Y-119244192D01*
X164750186Y-119339956D01*
X164609296Y-119629571D01*
X164527616Y-119941108D01*
X164508282Y-120262595D01*
X161284189Y-120262595D01*
X161291718Y-120137405D01*
X161247961Y-119818325D01*
X161142795Y-119513912D01*
X161049814Y-119339956D01*
X160785413Y-119244192D01*
X159829605Y-120200000D01*
X159470395Y-120200000D01*
X158514587Y-119244192D01*
X158250186Y-119339956D01*
X158109296Y-119629571D01*
X158027616Y-119941108D01*
X158008282Y-120262595D01*
X155239672Y-120262595D01*
X155230537Y-120245506D01*
X155151185Y-120148815D01*
X155054494Y-120069463D01*
X154944180Y-120010498D01*
X154824482Y-119974188D01*
X154700000Y-119961928D01*
X154085750Y-119965000D01*
X153927000Y-120123750D01*
X153673000Y-120123750D01*
X153514250Y-119965000D01*
X152900000Y-119961928D01*
X152775518Y-119974188D01*
X152655820Y-120010498D01*
X152545506Y-120069463D01*
X152448815Y-120148815D01*
X152369463Y-120245506D01*
X152310498Y-120355820D01*
X152274188Y-120475518D01*
X152261928Y-120600000D01*
X135280000Y-120600000D01*
X135280000Y-119064587D01*
X158694192Y-119064587D01*
X159650000Y-120020395D01*
X160605808Y-119064587D01*
X165194192Y-119064587D01*
X166150000Y-120020395D01*
X167105808Y-119064587D01*
X167010044Y-118800186D01*
X166720429Y-118659296D01*
X166408892Y-118577616D01*
X166087405Y-118558282D01*
X165768325Y-118602039D01*
X165463912Y-118707205D01*
X165289956Y-118800186D01*
X165194192Y-119064587D01*
X160605808Y-119064587D01*
X160510044Y-118800186D01*
X160220429Y-118659296D01*
X159908892Y-118577616D01*
X159587405Y-118558282D01*
X159268325Y-118602039D01*
X158963912Y-118707205D01*
X158789956Y-118800186D01*
X158694192Y-119064587D01*
X135280000Y-119064587D01*
X135280000Y-113992702D01*
X140286903Y-113992702D01*
X140358486Y-114236671D01*
X140613996Y-114357571D01*
X140888184Y-114426300D01*
X141170512Y-114440217D01*
X141450130Y-114398787D01*
X141716292Y-114303603D01*
X141841514Y-114236671D01*
X141913097Y-113992702D01*
X141100000Y-113179605D01*
X140286903Y-113992702D01*
X135280000Y-113992702D01*
X135280000Y-113070512D01*
X139659783Y-113070512D01*
X139701213Y-113350130D01*
X139796397Y-113616292D01*
X139863329Y-113741514D01*
X140107298Y-113813097D01*
X140920395Y-113000000D01*
X141279605Y-113000000D01*
X142092702Y-113813097D01*
X142336671Y-113741514D01*
X142350324Y-113712659D01*
X142485363Y-113914759D01*
X142685241Y-114114637D01*
X142920273Y-114271680D01*
X143181426Y-114379853D01*
X143458665Y-114435000D01*
X143741335Y-114435000D01*
X144018574Y-114379853D01*
X144279727Y-114271680D01*
X144514759Y-114114637D01*
X144714637Y-113914759D01*
X144871680Y-113679727D01*
X144979853Y-113418574D01*
X145035000Y-113141335D01*
X145035000Y-112858665D01*
X144993494Y-112650000D01*
X151361928Y-112650000D01*
X151361928Y-114450000D01*
X151374188Y-114574482D01*
X151410498Y-114694180D01*
X151469463Y-114804494D01*
X151548815Y-114901185D01*
X151645506Y-114980537D01*
X151755820Y-115039502D01*
X151875518Y-115075812D01*
X152000000Y-115088072D01*
X153800000Y-115088072D01*
X153924482Y-115075812D01*
X154044180Y-115039502D01*
X154154494Y-114980537D01*
X154251185Y-114901185D01*
X154330537Y-114804494D01*
X154389502Y-114694180D01*
X154425812Y-114574482D01*
X154438072Y-114450000D01*
X154438072Y-112650000D01*
X154425812Y-112525518D01*
X154389502Y-112405820D01*
X154330537Y-112295506D01*
X154251185Y-112198815D01*
X154154494Y-112119463D01*
X154044180Y-112060498D01*
X154025873Y-112054944D01*
X154092312Y-111988505D01*
X154260299Y-111737095D01*
X154376011Y-111457743D01*
X154435000Y-111161184D01*
X154435000Y-111158665D01*
X156465000Y-111158665D01*
X156465000Y-111441335D01*
X156520147Y-111718574D01*
X156628320Y-111979727D01*
X156785363Y-112214759D01*
X156985241Y-112414637D01*
X157217759Y-112570000D01*
X156985241Y-112725363D01*
X156785363Y-112925241D01*
X156628320Y-113160273D01*
X156520147Y-113421426D01*
X156465000Y-113698665D01*
X156465000Y-113981335D01*
X156520147Y-114258574D01*
X156628320Y-114519727D01*
X156785363Y-114754759D01*
X156985241Y-114954637D01*
X157220273Y-115111680D01*
X157481426Y-115219853D01*
X157758665Y-115275000D01*
X158041335Y-115275000D01*
X158318574Y-115219853D01*
X158579727Y-115111680D01*
X158814759Y-114954637D01*
X159014637Y-114754759D01*
X159171680Y-114519727D01*
X159279853Y-114258574D01*
X159335000Y-113981335D01*
X159335000Y-113698665D01*
X159279853Y-113421426D01*
X159171680Y-113160273D01*
X159014637Y-112925241D01*
X158814759Y-112725363D01*
X158701970Y-112650000D01*
X163211928Y-112650000D01*
X163211928Y-114350000D01*
X163224188Y-114474482D01*
X163260498Y-114594180D01*
X163319463Y-114704494D01*
X163398815Y-114801185D01*
X163495506Y-114880537D01*
X163605820Y-114939502D01*
X163725518Y-114975812D01*
X163850000Y-114988072D01*
X165550000Y-114988072D01*
X165674482Y-114975812D01*
X165794180Y-114939502D01*
X165904494Y-114880537D01*
X166001185Y-114801185D01*
X166080537Y-114704494D01*
X166139502Y-114594180D01*
X166175812Y-114474482D01*
X166188072Y-114350000D01*
X166188072Y-112650000D01*
X166175812Y-112525518D01*
X166139502Y-112405820D01*
X166080537Y-112295506D01*
X166001185Y-112198815D01*
X165904494Y-112119463D01*
X165794180Y-112060498D01*
X165721620Y-112038487D01*
X165853475Y-111906632D01*
X166015990Y-111663411D01*
X166127932Y-111393158D01*
X166185000Y-111106260D01*
X166185000Y-110813740D01*
X166127932Y-110526842D01*
X166015990Y-110256589D01*
X165853475Y-110013368D01*
X165646632Y-109806525D01*
X165403411Y-109644010D01*
X165133158Y-109532068D01*
X164846260Y-109475000D01*
X164553740Y-109475000D01*
X164266842Y-109532068D01*
X163996589Y-109644010D01*
X163753368Y-109806525D01*
X163546525Y-110013368D01*
X163384010Y-110256589D01*
X163272068Y-110526842D01*
X163215000Y-110813740D01*
X163215000Y-111106260D01*
X163272068Y-111393158D01*
X163384010Y-111663411D01*
X163546525Y-111906632D01*
X163678380Y-112038487D01*
X163605820Y-112060498D01*
X163495506Y-112119463D01*
X163398815Y-112198815D01*
X163319463Y-112295506D01*
X163260498Y-112405820D01*
X163224188Y-112525518D01*
X163211928Y-112650000D01*
X158701970Y-112650000D01*
X158582241Y-112570000D01*
X158814759Y-112414637D01*
X159014637Y-112214759D01*
X159171680Y-111979727D01*
X159279853Y-111718574D01*
X159335000Y-111441335D01*
X159335000Y-111158665D01*
X159279853Y-110881426D01*
X159171680Y-110620273D01*
X159014637Y-110385241D01*
X158814759Y-110185363D01*
X158579727Y-110028320D01*
X158318574Y-109920147D01*
X158041335Y-109865000D01*
X157758665Y-109865000D01*
X157481426Y-109920147D01*
X157220273Y-110028320D01*
X156985241Y-110185363D01*
X156785363Y-110385241D01*
X156628320Y-110620273D01*
X156520147Y-110881426D01*
X156465000Y-111158665D01*
X154435000Y-111158665D01*
X154435000Y-110858816D01*
X154376011Y-110562257D01*
X154260299Y-110282905D01*
X154092312Y-110031495D01*
X153878505Y-109817688D01*
X153627095Y-109649701D01*
X153347743Y-109533989D01*
X153051184Y-109475000D01*
X152748816Y-109475000D01*
X152452257Y-109533989D01*
X152172905Y-109649701D01*
X151921495Y-109817688D01*
X151707688Y-110031495D01*
X151539701Y-110282905D01*
X151423989Y-110562257D01*
X151365000Y-110858816D01*
X151365000Y-111161184D01*
X151423989Y-111457743D01*
X151539701Y-111737095D01*
X151707688Y-111988505D01*
X151774127Y-112054944D01*
X151755820Y-112060498D01*
X151645506Y-112119463D01*
X151548815Y-112198815D01*
X151469463Y-112295506D01*
X151410498Y-112405820D01*
X151374188Y-112525518D01*
X151361928Y-112650000D01*
X144993494Y-112650000D01*
X144979853Y-112581426D01*
X144871680Y-112320273D01*
X144714637Y-112085241D01*
X144514759Y-111885363D01*
X144279727Y-111728320D01*
X144018574Y-111620147D01*
X143741335Y-111565000D01*
X143458665Y-111565000D01*
X143181426Y-111620147D01*
X142920273Y-111728320D01*
X142685241Y-111885363D01*
X142485363Y-112085241D01*
X142351308Y-112285869D01*
X142336671Y-112258486D01*
X142092702Y-112186903D01*
X141279605Y-113000000D01*
X140920395Y-113000000D01*
X140107298Y-112186903D01*
X139863329Y-112258486D01*
X139742429Y-112513996D01*
X139673700Y-112788184D01*
X139659783Y-113070512D01*
X135280000Y-113070512D01*
X135280000Y-112007298D01*
X140286903Y-112007298D01*
X141100000Y-112820395D01*
X141913097Y-112007298D01*
X141841514Y-111763329D01*
X141586004Y-111642429D01*
X141311816Y-111573700D01*
X141029488Y-111559783D01*
X140749870Y-111601213D01*
X140483708Y-111696397D01*
X140358486Y-111763329D01*
X140286903Y-112007298D01*
X135280000Y-112007298D01*
X135280000Y-110529039D01*
X137208096Y-110529039D01*
X137248754Y-110663087D01*
X137368963Y-110917420D01*
X137536481Y-111143414D01*
X137744869Y-111332385D01*
X137986119Y-111477070D01*
X138250960Y-111571909D01*
X138473000Y-111450624D01*
X138473000Y-110307000D01*
X138727000Y-110307000D01*
X138727000Y-111450624D01*
X138949040Y-111571909D01*
X139213881Y-111477070D01*
X139455131Y-111332385D01*
X139663519Y-111143414D01*
X139831037Y-110917420D01*
X139951246Y-110663087D01*
X139991904Y-110529039D01*
X139869915Y-110307000D01*
X138727000Y-110307000D01*
X138473000Y-110307000D01*
X137330085Y-110307000D01*
X137208096Y-110529039D01*
X135280000Y-110529039D01*
X135280000Y-107349802D01*
X137370587Y-109440390D01*
X137368963Y-109442580D01*
X137248754Y-109696913D01*
X137208096Y-109830961D01*
X137330085Y-110053000D01*
X138473000Y-110053000D01*
X138473000Y-110033000D01*
X138727000Y-110033000D01*
X138727000Y-110053000D01*
X139869915Y-110053000D01*
X139991904Y-109830961D01*
X139987063Y-109814999D01*
X144780198Y-109814999D01*
X144821312Y-109856113D01*
X144785000Y-110038665D01*
X144785000Y-110321335D01*
X144840147Y-110598574D01*
X144948320Y-110859727D01*
X145105363Y-111094759D01*
X145305241Y-111294637D01*
X145540273Y-111451680D01*
X145801426Y-111559853D01*
X146078665Y-111615000D01*
X146361335Y-111615000D01*
X146638574Y-111559853D01*
X146899727Y-111451680D01*
X147134759Y-111294637D01*
X147334637Y-111094759D01*
X147491680Y-110859727D01*
X147599853Y-110598574D01*
X147655000Y-110321335D01*
X147655000Y-110038665D01*
X147599853Y-109761426D01*
X147491680Y-109500273D01*
X147334637Y-109265241D01*
X147134759Y-109065363D01*
X146902241Y-108910000D01*
X147134759Y-108754637D01*
X147334637Y-108554759D01*
X147491680Y-108319727D01*
X147599853Y-108058574D01*
X147655000Y-107781335D01*
X147655000Y-107498665D01*
X147599853Y-107221426D01*
X147491680Y-106960273D01*
X147334637Y-106725241D01*
X147134759Y-106525363D01*
X146902241Y-106370000D01*
X147134759Y-106214637D01*
X147149396Y-106200000D01*
X151361928Y-106200000D01*
X151361928Y-108000000D01*
X151374188Y-108124482D01*
X151410498Y-108244180D01*
X151469463Y-108354494D01*
X151548815Y-108451185D01*
X151645506Y-108530537D01*
X151755820Y-108589502D01*
X151875518Y-108625812D01*
X152000000Y-108638072D01*
X153800000Y-108638072D01*
X153924482Y-108625812D01*
X154044180Y-108589502D01*
X154154494Y-108530537D01*
X154251185Y-108451185D01*
X154330537Y-108354494D01*
X154389502Y-108244180D01*
X154425812Y-108124482D01*
X154438072Y-108000000D01*
X154438072Y-106200000D01*
X154425812Y-106075518D01*
X154389502Y-105955820D01*
X154330537Y-105845506D01*
X154251185Y-105748815D01*
X154154494Y-105669463D01*
X154044180Y-105610498D01*
X154025873Y-105604944D01*
X154092312Y-105538505D01*
X154260299Y-105287095D01*
X154376011Y-105007743D01*
X154435000Y-104711184D01*
X154435000Y-104658665D01*
X156465000Y-104658665D01*
X156465000Y-104941335D01*
X156520147Y-105218574D01*
X156628320Y-105479727D01*
X156785363Y-105714759D01*
X156985241Y-105914637D01*
X157217759Y-106070000D01*
X156985241Y-106225363D01*
X156785363Y-106425241D01*
X156628320Y-106660273D01*
X156520147Y-106921426D01*
X156465000Y-107198665D01*
X156465000Y-107481335D01*
X156520147Y-107758574D01*
X156628320Y-108019727D01*
X156785363Y-108254759D01*
X156985241Y-108454637D01*
X157220273Y-108611680D01*
X157481426Y-108719853D01*
X157758665Y-108775000D01*
X158041335Y-108775000D01*
X158318574Y-108719853D01*
X158579727Y-108611680D01*
X158814759Y-108454637D01*
X159014637Y-108254759D01*
X159171680Y-108019727D01*
X159279853Y-107758574D01*
X159335000Y-107481335D01*
X159335000Y-107198665D01*
X159279853Y-106921426D01*
X159171680Y-106660273D01*
X159014637Y-106425241D01*
X158814759Y-106225363D01*
X158701970Y-106150000D01*
X163211928Y-106150000D01*
X163211928Y-107850000D01*
X163224188Y-107974482D01*
X163260498Y-108094180D01*
X163319463Y-108204494D01*
X163398815Y-108301185D01*
X163495506Y-108380537D01*
X163605820Y-108439502D01*
X163725518Y-108475812D01*
X163850000Y-108488072D01*
X165550000Y-108488072D01*
X165674482Y-108475812D01*
X165794180Y-108439502D01*
X165904494Y-108380537D01*
X166001185Y-108301185D01*
X166080537Y-108204494D01*
X166139502Y-108094180D01*
X166175812Y-107974482D01*
X166188072Y-107850000D01*
X166188072Y-106150000D01*
X166175812Y-106025518D01*
X166139502Y-105905820D01*
X166080537Y-105795506D01*
X166001185Y-105698815D01*
X165904494Y-105619463D01*
X165794180Y-105560498D01*
X165721620Y-105538487D01*
X165853475Y-105406632D01*
X166015990Y-105163411D01*
X166127932Y-104893158D01*
X166185000Y-104606260D01*
X166185000Y-104313740D01*
X166127932Y-104026842D01*
X166015990Y-103756589D01*
X165853475Y-103513368D01*
X165646632Y-103306525D01*
X165403411Y-103144010D01*
X165133158Y-103032068D01*
X164846260Y-102975000D01*
X164553740Y-102975000D01*
X164266842Y-103032068D01*
X163996589Y-103144010D01*
X163753368Y-103306525D01*
X163546525Y-103513368D01*
X163384010Y-103756589D01*
X163272068Y-104026842D01*
X163215000Y-104313740D01*
X163215000Y-104606260D01*
X163272068Y-104893158D01*
X163384010Y-105163411D01*
X163546525Y-105406632D01*
X163678380Y-105538487D01*
X163605820Y-105560498D01*
X163495506Y-105619463D01*
X163398815Y-105698815D01*
X163319463Y-105795506D01*
X163260498Y-105905820D01*
X163224188Y-106025518D01*
X163211928Y-106150000D01*
X158701970Y-106150000D01*
X158582241Y-106070000D01*
X158814759Y-105914637D01*
X159014637Y-105714759D01*
X159171680Y-105479727D01*
X159279853Y-105218574D01*
X159335000Y-104941335D01*
X159335000Y-104658665D01*
X159279853Y-104381426D01*
X159171680Y-104120273D01*
X159014637Y-103885241D01*
X158814759Y-103685363D01*
X158579727Y-103528320D01*
X158318574Y-103420147D01*
X158041335Y-103365000D01*
X157758665Y-103365000D01*
X157481426Y-103420147D01*
X157220273Y-103528320D01*
X156985241Y-103685363D01*
X156785363Y-103885241D01*
X156628320Y-104120273D01*
X156520147Y-104381426D01*
X156465000Y-104658665D01*
X154435000Y-104658665D01*
X154435000Y-104408816D01*
X154376011Y-104112257D01*
X154260299Y-103832905D01*
X154092312Y-103581495D01*
X153878505Y-103367688D01*
X153627095Y-103199701D01*
X153347743Y-103083989D01*
X153051184Y-103025000D01*
X152748816Y-103025000D01*
X152452257Y-103083989D01*
X152172905Y-103199701D01*
X151921495Y-103367688D01*
X151707688Y-103581495D01*
X151539701Y-103832905D01*
X151423989Y-104112257D01*
X151365000Y-104408816D01*
X151365000Y-104711184D01*
X151423989Y-105007743D01*
X151539701Y-105287095D01*
X151707688Y-105538505D01*
X151774127Y-105604944D01*
X151755820Y-105610498D01*
X151645506Y-105669463D01*
X151548815Y-105748815D01*
X151469463Y-105845506D01*
X151410498Y-105955820D01*
X151374188Y-106075518D01*
X151361928Y-106200000D01*
X147149396Y-106200000D01*
X147334637Y-106014759D01*
X147491680Y-105779727D01*
X147599853Y-105518574D01*
X147655000Y-105241335D01*
X147655000Y-104958665D01*
X147599853Y-104681426D01*
X147491680Y-104420273D01*
X147334637Y-104185241D01*
X147134759Y-103985363D01*
X146902241Y-103830000D01*
X147134759Y-103674637D01*
X147334637Y-103474759D01*
X147491680Y-103239727D01*
X147599853Y-102978574D01*
X147655000Y-102701335D01*
X147655000Y-102418665D01*
X147599853Y-102141426D01*
X147491680Y-101880273D01*
X147334637Y-101645241D01*
X147134759Y-101445363D01*
X146902241Y-101290000D01*
X147134759Y-101134637D01*
X147334637Y-100934759D01*
X147491680Y-100699727D01*
X147599853Y-100438574D01*
X147655000Y-100161335D01*
X147655000Y-99878665D01*
X147627418Y-99740000D01*
X151361928Y-99740000D01*
X151361928Y-101540000D01*
X151374188Y-101664482D01*
X151410498Y-101784180D01*
X151469463Y-101894494D01*
X151548815Y-101991185D01*
X151645506Y-102070537D01*
X151755820Y-102129502D01*
X151875518Y-102165812D01*
X152000000Y-102178072D01*
X153800000Y-102178072D01*
X153924482Y-102165812D01*
X154044180Y-102129502D01*
X154154494Y-102070537D01*
X154251185Y-101991185D01*
X154330537Y-101894494D01*
X154389502Y-101784180D01*
X154425812Y-101664482D01*
X154438072Y-101540000D01*
X154438072Y-99740000D01*
X154425812Y-99615518D01*
X154389502Y-99495820D01*
X154330537Y-99385506D01*
X154251185Y-99288815D01*
X154154494Y-99209463D01*
X154044180Y-99150498D01*
X154025873Y-99144944D01*
X154092312Y-99078505D01*
X154260299Y-98827095D01*
X154376011Y-98547743D01*
X154435000Y-98251184D01*
X154435000Y-98158665D01*
X156465000Y-98158665D01*
X156465000Y-98441335D01*
X156520147Y-98718574D01*
X156628320Y-98979727D01*
X156785363Y-99214759D01*
X156985241Y-99414637D01*
X157217759Y-99570000D01*
X156985241Y-99725363D01*
X156785363Y-99925241D01*
X156628320Y-100160273D01*
X156520147Y-100421426D01*
X156465000Y-100698665D01*
X156465000Y-100981335D01*
X156520147Y-101258574D01*
X156628320Y-101519727D01*
X156785363Y-101754759D01*
X156985241Y-101954637D01*
X157220273Y-102111680D01*
X157481426Y-102219853D01*
X157758665Y-102275000D01*
X158041335Y-102275000D01*
X158318574Y-102219853D01*
X158579727Y-102111680D01*
X158814759Y-101954637D01*
X159014637Y-101754759D01*
X159171680Y-101519727D01*
X159279853Y-101258574D01*
X159335000Y-100981335D01*
X159335000Y-100698665D01*
X159279853Y-100421426D01*
X159171680Y-100160273D01*
X159014637Y-99925241D01*
X158839396Y-99750000D01*
X163211928Y-99750000D01*
X163211928Y-101450000D01*
X163224188Y-101574482D01*
X163260498Y-101694180D01*
X163319463Y-101804494D01*
X163398815Y-101901185D01*
X163495506Y-101980537D01*
X163605820Y-102039502D01*
X163725518Y-102075812D01*
X163850000Y-102088072D01*
X165550000Y-102088072D01*
X165674482Y-102075812D01*
X165794180Y-102039502D01*
X165904494Y-101980537D01*
X166001185Y-101901185D01*
X166080537Y-101804494D01*
X166139502Y-101694180D01*
X166175812Y-101574482D01*
X166188072Y-101450000D01*
X166188072Y-99750000D01*
X166175812Y-99625518D01*
X166139502Y-99505820D01*
X166080537Y-99395506D01*
X166001185Y-99298815D01*
X165904494Y-99219463D01*
X165794180Y-99160498D01*
X165721620Y-99138487D01*
X165853475Y-99006632D01*
X166015990Y-98763411D01*
X166127932Y-98493158D01*
X166185000Y-98206260D01*
X166185000Y-97913740D01*
X166127932Y-97626842D01*
X166015990Y-97356589D01*
X165853475Y-97113368D01*
X165646632Y-96906525D01*
X165403411Y-96744010D01*
X165133158Y-96632068D01*
X164846260Y-96575000D01*
X164553740Y-96575000D01*
X164266842Y-96632068D01*
X163996589Y-96744010D01*
X163753368Y-96906525D01*
X163546525Y-97113368D01*
X163384010Y-97356589D01*
X163272068Y-97626842D01*
X163215000Y-97913740D01*
X163215000Y-98206260D01*
X163272068Y-98493158D01*
X163384010Y-98763411D01*
X163546525Y-99006632D01*
X163678380Y-99138487D01*
X163605820Y-99160498D01*
X163495506Y-99219463D01*
X163398815Y-99298815D01*
X163319463Y-99395506D01*
X163260498Y-99505820D01*
X163224188Y-99625518D01*
X163211928Y-99750000D01*
X158839396Y-99750000D01*
X158814759Y-99725363D01*
X158582241Y-99570000D01*
X158814759Y-99414637D01*
X159014637Y-99214759D01*
X159171680Y-98979727D01*
X159279853Y-98718574D01*
X159335000Y-98441335D01*
X159335000Y-98158665D01*
X159279853Y-97881426D01*
X159171680Y-97620273D01*
X159014637Y-97385241D01*
X158814759Y-97185363D01*
X158579727Y-97028320D01*
X158318574Y-96920147D01*
X158041335Y-96865000D01*
X157758665Y-96865000D01*
X157481426Y-96920147D01*
X157220273Y-97028320D01*
X156985241Y-97185363D01*
X156785363Y-97385241D01*
X156628320Y-97620273D01*
X156520147Y-97881426D01*
X156465000Y-98158665D01*
X154435000Y-98158665D01*
X154435000Y-97948816D01*
X154376011Y-97652257D01*
X154260299Y-97372905D01*
X154092312Y-97121495D01*
X153878505Y-96907688D01*
X153627095Y-96739701D01*
X153347743Y-96623989D01*
X153051184Y-96565000D01*
X152748816Y-96565000D01*
X152452257Y-96623989D01*
X152172905Y-96739701D01*
X151921495Y-96907688D01*
X151707688Y-97121495D01*
X151539701Y-97372905D01*
X151423989Y-97652257D01*
X151365000Y-97948816D01*
X151365000Y-98251184D01*
X151423989Y-98547743D01*
X151539701Y-98827095D01*
X151707688Y-99078505D01*
X151774127Y-99144944D01*
X151755820Y-99150498D01*
X151645506Y-99209463D01*
X151548815Y-99288815D01*
X151469463Y-99385506D01*
X151410498Y-99495820D01*
X151374188Y-99615518D01*
X151361928Y-99740000D01*
X147627418Y-99740000D01*
X147599853Y-99601426D01*
X147491680Y-99340273D01*
X147334637Y-99105241D01*
X147134759Y-98905363D01*
X146902241Y-98750000D01*
X147134759Y-98594637D01*
X147334637Y-98394759D01*
X147491680Y-98159727D01*
X147599853Y-97898574D01*
X147655000Y-97621335D01*
X147655000Y-97338665D01*
X147599853Y-97061426D01*
X147491680Y-96800273D01*
X147334637Y-96565241D01*
X147134759Y-96365363D01*
X146902241Y-96210000D01*
X147134759Y-96054637D01*
X147334637Y-95854759D01*
X147491680Y-95619727D01*
X147599853Y-95358574D01*
X147655000Y-95081335D01*
X147655000Y-94798665D01*
X147599853Y-94521426D01*
X147491680Y-94260273D01*
X147334637Y-94025241D01*
X147134759Y-93825363D01*
X146902241Y-93670000D01*
X147134759Y-93514637D01*
X147334637Y-93314759D01*
X147344498Y-93300000D01*
X151361928Y-93300000D01*
X151361928Y-95100000D01*
X151374188Y-95224482D01*
X151410498Y-95344180D01*
X151469463Y-95454494D01*
X151548815Y-95551185D01*
X151645506Y-95630537D01*
X151755820Y-95689502D01*
X151875518Y-95725812D01*
X152000000Y-95738072D01*
X153800000Y-95738072D01*
X153924482Y-95725812D01*
X154044180Y-95689502D01*
X154154494Y-95630537D01*
X154251185Y-95551185D01*
X154330537Y-95454494D01*
X154389502Y-95344180D01*
X154425812Y-95224482D01*
X154438072Y-95100000D01*
X154438072Y-93300000D01*
X154425812Y-93175518D01*
X154389502Y-93055820D01*
X154330537Y-92945506D01*
X154251185Y-92848815D01*
X154154494Y-92769463D01*
X154044180Y-92710498D01*
X154025873Y-92704944D01*
X154092312Y-92638505D01*
X154260299Y-92387095D01*
X154376011Y-92107743D01*
X154435000Y-91811184D01*
X154435000Y-91558665D01*
X156465000Y-91558665D01*
X156465000Y-91841335D01*
X156520147Y-92118574D01*
X156628320Y-92379727D01*
X156785363Y-92614759D01*
X156985241Y-92814637D01*
X157217759Y-92970000D01*
X156985241Y-93125363D01*
X156785363Y-93325241D01*
X156628320Y-93560273D01*
X156520147Y-93821426D01*
X156465000Y-94098665D01*
X156465000Y-94381335D01*
X156520147Y-94658574D01*
X156628320Y-94919727D01*
X156785363Y-95154759D01*
X156985241Y-95354637D01*
X157220273Y-95511680D01*
X157481426Y-95619853D01*
X157758665Y-95675000D01*
X158041335Y-95675000D01*
X158318574Y-95619853D01*
X158579727Y-95511680D01*
X158814759Y-95354637D01*
X159014637Y-95154759D01*
X159171680Y-94919727D01*
X159279853Y-94658574D01*
X159335000Y-94381335D01*
X159335000Y-94098665D01*
X159279853Y-93821426D01*
X159171680Y-93560273D01*
X159014637Y-93325241D01*
X158939396Y-93250000D01*
X163211928Y-93250000D01*
X163211928Y-94950000D01*
X163224188Y-95074482D01*
X163260498Y-95194180D01*
X163319463Y-95304494D01*
X163398815Y-95401185D01*
X163495506Y-95480537D01*
X163605820Y-95539502D01*
X163725518Y-95575812D01*
X163850000Y-95588072D01*
X165550000Y-95588072D01*
X165674482Y-95575812D01*
X165794180Y-95539502D01*
X165904494Y-95480537D01*
X166001185Y-95401185D01*
X166080537Y-95304494D01*
X166139502Y-95194180D01*
X166175812Y-95074482D01*
X166188072Y-94950000D01*
X166188072Y-93250000D01*
X166175812Y-93125518D01*
X166139502Y-93005820D01*
X166080537Y-92895506D01*
X166001185Y-92798815D01*
X165904494Y-92719463D01*
X165794180Y-92660498D01*
X165721620Y-92638487D01*
X165853475Y-92506632D01*
X166015990Y-92263411D01*
X166127932Y-91993158D01*
X166185000Y-91706260D01*
X166185000Y-91413740D01*
X166127932Y-91126842D01*
X166015990Y-90856589D01*
X165853475Y-90613368D01*
X165646632Y-90406525D01*
X165403411Y-90244010D01*
X165133158Y-90132068D01*
X164846260Y-90075000D01*
X164553740Y-90075000D01*
X164266842Y-90132068D01*
X163996589Y-90244010D01*
X163753368Y-90406525D01*
X163546525Y-90613368D01*
X163384010Y-90856589D01*
X163272068Y-91126842D01*
X163215000Y-91413740D01*
X163215000Y-91706260D01*
X163272068Y-91993158D01*
X163384010Y-92263411D01*
X163546525Y-92506632D01*
X163678380Y-92638487D01*
X163605820Y-92660498D01*
X163495506Y-92719463D01*
X163398815Y-92798815D01*
X163319463Y-92895506D01*
X163260498Y-93005820D01*
X163224188Y-93125518D01*
X163211928Y-93250000D01*
X158939396Y-93250000D01*
X158814759Y-93125363D01*
X158582241Y-92970000D01*
X158814759Y-92814637D01*
X159014637Y-92614759D01*
X159171680Y-92379727D01*
X159279853Y-92118574D01*
X159335000Y-91841335D01*
X159335000Y-91558665D01*
X159279853Y-91281426D01*
X159171680Y-91020273D01*
X159014637Y-90785241D01*
X158814759Y-90585363D01*
X158579727Y-90428320D01*
X158318574Y-90320147D01*
X158041335Y-90265000D01*
X157758665Y-90265000D01*
X157481426Y-90320147D01*
X157220273Y-90428320D01*
X156985241Y-90585363D01*
X156785363Y-90785241D01*
X156628320Y-91020273D01*
X156520147Y-91281426D01*
X156465000Y-91558665D01*
X154435000Y-91558665D01*
X154435000Y-91508816D01*
X154376011Y-91212257D01*
X154260299Y-90932905D01*
X154092312Y-90681495D01*
X153878505Y-90467688D01*
X153627095Y-90299701D01*
X153347743Y-90183989D01*
X153051184Y-90125000D01*
X152748816Y-90125000D01*
X152452257Y-90183989D01*
X152172905Y-90299701D01*
X151921495Y-90467688D01*
X151707688Y-90681495D01*
X151539701Y-90932905D01*
X151423989Y-91212257D01*
X151365000Y-91508816D01*
X151365000Y-91811184D01*
X151423989Y-92107743D01*
X151539701Y-92387095D01*
X151707688Y-92638505D01*
X151774127Y-92704944D01*
X151755820Y-92710498D01*
X151645506Y-92769463D01*
X151548815Y-92848815D01*
X151469463Y-92945506D01*
X151410498Y-93055820D01*
X151374188Y-93175518D01*
X151361928Y-93300000D01*
X147344498Y-93300000D01*
X147491680Y-93079727D01*
X147599853Y-92818574D01*
X147655000Y-92541335D01*
X147655000Y-92258665D01*
X147599853Y-91981426D01*
X147491680Y-91720273D01*
X147334637Y-91485241D01*
X147134759Y-91285363D01*
X146899727Y-91128320D01*
X146638574Y-91020147D01*
X146361335Y-90965000D01*
X146078665Y-90965000D01*
X145801426Y-91020147D01*
X145540273Y-91128320D01*
X145305241Y-91285363D01*
X145105363Y-91485241D01*
X144948320Y-91720273D01*
X144840147Y-91981426D01*
X144785000Y-92258665D01*
X144785000Y-92541335D01*
X144840147Y-92818574D01*
X144948320Y-93079727D01*
X145105363Y-93314759D01*
X145305241Y-93514637D01*
X145537759Y-93670000D01*
X145305241Y-93825363D01*
X145105363Y-94025241D01*
X144948320Y-94260273D01*
X144840147Y-94521426D01*
X144785000Y-94798665D01*
X144785000Y-95081335D01*
X144840147Y-95358574D01*
X144948320Y-95619727D01*
X145105363Y-95854759D01*
X145305241Y-96054637D01*
X145537759Y-96210000D01*
X145305241Y-96365363D01*
X145105363Y-96565241D01*
X144948320Y-96800273D01*
X144840147Y-97061426D01*
X144785000Y-97338665D01*
X144785000Y-97621335D01*
X144840147Y-97898574D01*
X144948320Y-98159727D01*
X145105363Y-98394759D01*
X145305241Y-98594637D01*
X145537759Y-98750000D01*
X145305241Y-98905363D01*
X145105363Y-99105241D01*
X144948320Y-99340273D01*
X144840147Y-99601426D01*
X144785000Y-99878665D01*
X144785000Y-100161335D01*
X144840147Y-100438574D01*
X144948320Y-100699727D01*
X145105363Y-100934759D01*
X145305241Y-101134637D01*
X145537759Y-101290000D01*
X145305241Y-101445363D01*
X145105363Y-101645241D01*
X144948320Y-101880273D01*
X144840147Y-102141426D01*
X144785000Y-102418665D01*
X144785000Y-102701335D01*
X144840147Y-102978574D01*
X144948320Y-103239727D01*
X145105363Y-103474759D01*
X145305241Y-103674637D01*
X145537759Y-103830000D01*
X145305241Y-103985363D01*
X145105363Y-104185241D01*
X144948320Y-104420273D01*
X144840147Y-104681426D01*
X144785000Y-104958665D01*
X144785000Y-105241335D01*
X144840147Y-105518574D01*
X144948320Y-105779727D01*
X145105363Y-106014759D01*
X145305241Y-106214637D01*
X145537759Y-106370000D01*
X145305241Y-106525363D01*
X145105363Y-106725241D01*
X144948320Y-106960273D01*
X144840147Y-107221426D01*
X144785000Y-107498665D01*
X144785000Y-107781335D01*
X144840147Y-108058574D01*
X144938077Y-108294999D01*
X139881923Y-108294999D01*
X139979853Y-108058574D01*
X140035000Y-107781335D01*
X140035000Y-107498665D01*
X139979853Y-107221426D01*
X139871680Y-106960273D01*
X139714637Y-106725241D01*
X139514759Y-106525363D01*
X139282241Y-106370000D01*
X139514759Y-106214637D01*
X139714637Y-106014759D01*
X139871680Y-105779727D01*
X139979853Y-105518574D01*
X140035000Y-105241335D01*
X140035000Y-104958665D01*
X139979853Y-104681426D01*
X139871680Y-104420273D01*
X139714637Y-104185241D01*
X139514759Y-103985363D01*
X139282241Y-103830000D01*
X139514759Y-103674637D01*
X139714637Y-103474759D01*
X139871680Y-103239727D01*
X139979853Y-102978574D01*
X140035000Y-102701335D01*
X140035000Y-102418665D01*
X139979853Y-102141426D01*
X139871680Y-101880273D01*
X139714637Y-101645241D01*
X139514759Y-101445363D01*
X139282241Y-101290000D01*
X139514759Y-101134637D01*
X139714637Y-100934759D01*
X139871680Y-100699727D01*
X139979853Y-100438574D01*
X140035000Y-100161335D01*
X140035000Y-99878665D01*
X139979853Y-99601426D01*
X139871680Y-99340273D01*
X139714637Y-99105241D01*
X139514759Y-98905363D01*
X139282241Y-98750000D01*
X139514759Y-98594637D01*
X139714637Y-98394759D01*
X139871680Y-98159727D01*
X139979853Y-97898574D01*
X140035000Y-97621335D01*
X140035000Y-97338665D01*
X139979853Y-97061426D01*
X139871680Y-96800273D01*
X139714637Y-96565241D01*
X139514759Y-96365363D01*
X139282241Y-96210000D01*
X139514759Y-96054637D01*
X139714637Y-95854759D01*
X139871680Y-95619727D01*
X139979853Y-95358574D01*
X140035000Y-95081335D01*
X140035000Y-94798665D01*
X139979853Y-94521426D01*
X139871680Y-94260273D01*
X139714637Y-94025241D01*
X139516039Y-93826643D01*
X139524482Y-93825812D01*
X139644180Y-93789502D01*
X139754494Y-93730537D01*
X139851185Y-93651185D01*
X139930537Y-93554494D01*
X139989502Y-93444180D01*
X140025812Y-93324482D01*
X140038072Y-93200000D01*
X140038072Y-91600000D01*
X140025812Y-91475518D01*
X139989502Y-91355820D01*
X139930537Y-91245506D01*
X139851185Y-91148815D01*
X139754494Y-91069463D01*
X139644180Y-91010498D01*
X139524482Y-90974188D01*
X139400000Y-90961928D01*
X137800000Y-90961928D01*
X137675518Y-90974188D01*
X137555820Y-91010498D01*
X137445506Y-91069463D01*
X137348815Y-91148815D01*
X137269463Y-91245506D01*
X137210498Y-91355820D01*
X137174188Y-91475518D01*
X137161928Y-91600000D01*
X137161928Y-93200000D01*
X137174188Y-93324482D01*
X137210498Y-93444180D01*
X137269463Y-93554494D01*
X137348815Y-93651185D01*
X137445506Y-93730537D01*
X137555820Y-93789502D01*
X137675518Y-93825812D01*
X137683961Y-93826643D01*
X137485363Y-94025241D01*
X137328320Y-94260273D01*
X137220147Y-94521426D01*
X137165000Y-94798665D01*
X137165000Y-95081335D01*
X137220147Y-95358574D01*
X137328320Y-95619727D01*
X137485363Y-95854759D01*
X137685241Y-96054637D01*
X137917759Y-96210000D01*
X137685241Y-96365363D01*
X137485363Y-96565241D01*
X137328320Y-96800273D01*
X137220147Y-97061426D01*
X137165000Y-97338665D01*
X137165000Y-97621335D01*
X137220147Y-97898574D01*
X137328320Y-98159727D01*
X137485363Y-98394759D01*
X137685241Y-98594637D01*
X137917759Y-98750000D01*
X137685241Y-98905363D01*
X137485363Y-99105241D01*
X137328320Y-99340273D01*
X137220147Y-99601426D01*
X137165000Y-99878665D01*
X137165000Y-100161335D01*
X137220147Y-100438574D01*
X137328320Y-100699727D01*
X137485363Y-100934759D01*
X137685241Y-101134637D01*
X137917759Y-101290000D01*
X137685241Y-101445363D01*
X137485363Y-101645241D01*
X137328320Y-101880273D01*
X137220147Y-102141426D01*
X137165000Y-102418665D01*
X137165000Y-102701335D01*
X137220147Y-102978574D01*
X137328320Y-103239727D01*
X137485363Y-103474759D01*
X137685241Y-103674637D01*
X137917759Y-103830000D01*
X137685241Y-103985363D01*
X137485363Y-104185241D01*
X137328320Y-104420273D01*
X137220147Y-104681426D01*
X137165000Y-104958665D01*
X137165000Y-105241335D01*
X137220147Y-105518574D01*
X137328320Y-105779727D01*
X137485363Y-106014759D01*
X137685241Y-106214637D01*
X137917759Y-106370000D01*
X137685241Y-106525363D01*
X137485363Y-106725241D01*
X137328320Y-106960273D01*
X137243895Y-107164093D01*
X132340000Y-102260199D01*
X132340000Y-94088072D01*
X132430000Y-94088072D01*
X132554482Y-94075812D01*
X132674180Y-94039502D01*
X132784494Y-93980537D01*
X132881185Y-93901185D01*
X132960537Y-93804494D01*
X133019502Y-93694180D01*
X133041513Y-93621620D01*
X133173368Y-93753475D01*
X133416589Y-93915990D01*
X133686842Y-94027932D01*
X133973740Y-94085000D01*
X134266260Y-94085000D01*
X134553158Y-94027932D01*
X134823411Y-93915990D01*
X135066632Y-93753475D01*
X135273475Y-93546632D01*
X135435990Y-93303411D01*
X135547932Y-93033158D01*
X135605000Y-92746260D01*
X135605000Y-92453740D01*
X135547932Y-92166842D01*
X135435990Y-91896589D01*
X135273475Y-91653368D01*
X135066632Y-91446525D01*
X134823411Y-91284010D01*
X134553158Y-91172068D01*
X134266260Y-91115000D01*
X133973740Y-91115000D01*
X133686842Y-91172068D01*
X133416589Y-91284010D01*
X133173368Y-91446525D01*
X133041513Y-91578380D01*
X133019502Y-91505820D01*
X132960537Y-91395506D01*
X132881185Y-91298815D01*
X132784494Y-91219463D01*
X132674180Y-91160498D01*
X132554482Y-91124188D01*
X132430000Y-91111928D01*
X130730000Y-91111928D01*
X130605518Y-91124188D01*
X130485820Y-91160498D01*
X130375506Y-91219463D01*
X130278815Y-91298815D01*
X130199463Y-91395506D01*
X130140498Y-91505820D01*
X130116034Y-91586466D01*
X130040269Y-91502412D01*
X129806920Y-91328359D01*
X129544099Y-91203175D01*
X129396890Y-91158524D01*
X129167000Y-91279845D01*
X129167000Y-92473000D01*
X129187000Y-92473000D01*
X129187000Y-92727000D01*
X129167000Y-92727000D01*
X129167000Y-93920155D01*
X129396890Y-94041476D01*
X129544099Y-93996825D01*
X129806920Y-93871641D01*
X130040269Y-93697588D01*
X130116034Y-93613534D01*
X130140498Y-93694180D01*
X130199463Y-93804494D01*
X130278815Y-93901185D01*
X130375506Y-93980537D01*
X130485820Y-94039502D01*
X130605518Y-94075812D01*
X130730000Y-94088072D01*
X130820000Y-94088072D01*
X130820001Y-101885199D01*
X122506372Y-93571571D01*
X122537000Y-93417592D01*
X122537000Y-93142408D01*
X122499324Y-92952999D01*
X125011928Y-92952999D01*
X125011928Y-93450000D01*
X125024188Y-93574482D01*
X125060498Y-93694180D01*
X125119463Y-93804494D01*
X125198815Y-93901185D01*
X125295506Y-93980537D01*
X125405820Y-94039502D01*
X125525518Y-94075812D01*
X125650000Y-94088072D01*
X127350000Y-94088072D01*
X127474482Y-94075812D01*
X127594180Y-94039502D01*
X127704494Y-93980537D01*
X127801185Y-93901185D01*
X127880537Y-93804494D01*
X127939502Y-93694180D01*
X127963966Y-93613534D01*
X128039731Y-93697588D01*
X128273080Y-93871641D01*
X128535901Y-93996825D01*
X128683110Y-94041476D01*
X128913000Y-93920155D01*
X128913000Y-92727000D01*
X128893000Y-92727000D01*
X128893000Y-92473000D01*
X128913000Y-92473000D01*
X128913000Y-91279845D01*
X128683110Y-91158524D01*
X128535901Y-91203175D01*
X128273080Y-91328359D01*
X128039731Y-91502412D01*
X127963966Y-91586466D01*
X127939502Y-91505820D01*
X127880537Y-91395506D01*
X127801185Y-91298815D01*
X127704494Y-91219463D01*
X127594180Y-91160498D01*
X127474482Y-91124188D01*
X127350000Y-91111928D01*
X125650000Y-91111928D01*
X125525518Y-91124188D01*
X125405820Y-91160498D01*
X125295506Y-91219463D01*
X125198815Y-91298815D01*
X125119463Y-91395506D01*
X125099422Y-91432999D01*
X120655564Y-91432999D01*
X120618239Y-91429323D01*
X120580914Y-91432999D01*
X120580906Y-91432999D01*
X120469253Y-91443996D01*
X120325992Y-91487453D01*
X120193963Y-91558025D01*
X120078238Y-91652998D01*
X120054440Y-91681996D01*
X106816046Y-104920391D01*
X106790535Y-104894880D01*
X106561727Y-104741995D01*
X106484485Y-104710000D01*
X106561727Y-104678005D01*
X106790535Y-104525120D01*
X106985120Y-104330535D01*
X107138005Y-104101727D01*
X107243314Y-103847490D01*
X107297000Y-103577592D01*
X107297000Y-103302408D01*
X107243314Y-103032510D01*
X107138005Y-102778273D01*
X106985120Y-102549465D01*
X106790535Y-102354880D01*
X106561727Y-102201995D01*
X106484485Y-102170000D01*
X106561727Y-102138005D01*
X106790535Y-101985120D01*
X106985120Y-101790535D01*
X107138005Y-101561727D01*
X107243314Y-101307490D01*
X107297000Y-101037592D01*
X107297000Y-100762408D01*
X107243314Y-100492510D01*
X107138005Y-100238273D01*
X106985120Y-100009465D01*
X106790535Y-99814880D01*
X106561727Y-99661995D01*
X106484485Y-99630000D01*
X106561727Y-99598005D01*
X106790535Y-99445120D01*
X106985120Y-99250535D01*
X107138005Y-99021727D01*
X107243314Y-98767490D01*
X107297000Y-98497592D01*
X107297000Y-98222408D01*
X107243314Y-97952510D01*
X107138005Y-97698273D01*
X106985120Y-97469465D01*
X106790535Y-97274880D01*
X106561727Y-97121995D01*
X106484485Y-97090000D01*
X106561727Y-97058005D01*
X106790535Y-96905120D01*
X106985120Y-96710535D01*
X107138005Y-96481727D01*
X107243314Y-96227490D01*
X107297000Y-95957592D01*
X107297000Y-95682408D01*
X107243314Y-95412510D01*
X107138005Y-95158273D01*
X106985120Y-94929465D01*
X106790535Y-94734880D01*
X106561727Y-94581995D01*
X106484485Y-94550000D01*
X106561727Y-94518005D01*
X106790535Y-94365120D01*
X106985120Y-94170535D01*
X107138005Y-93941727D01*
X107243314Y-93687490D01*
X107297000Y-93417592D01*
X107297000Y-93142408D01*
X107243314Y-92872510D01*
X107138005Y-92618273D01*
X106985120Y-92389465D01*
X106790535Y-92194880D01*
X106561727Y-92041995D01*
X106307490Y-91936686D01*
X106037592Y-91883000D01*
X105762408Y-91883000D01*
X105492510Y-91936686D01*
X105238273Y-92041995D01*
X105009465Y-92194880D01*
X104814880Y-92389465D01*
X104661995Y-92618273D01*
X104556686Y-92872510D01*
X104503000Y-93142408D01*
X104503000Y-93417592D01*
X104556686Y-93687490D01*
X104661995Y-93941727D01*
X104814880Y-94170535D01*
X105009465Y-94365120D01*
X105238273Y-94518005D01*
X105315515Y-94550000D01*
X105238273Y-94581995D01*
X105009465Y-94734880D01*
X104814880Y-94929465D01*
X104661995Y-95158273D01*
X104556686Y-95412510D01*
X104503000Y-95682408D01*
X104503000Y-95957592D01*
X104556686Y-96227490D01*
X104661995Y-96481727D01*
X104814880Y-96710535D01*
X105009465Y-96905120D01*
X105238273Y-97058005D01*
X105315515Y-97090000D01*
X105238273Y-97121995D01*
X105009465Y-97274880D01*
X104814880Y-97469465D01*
X104661995Y-97698273D01*
X104556686Y-97952510D01*
X104503000Y-98222408D01*
X104503000Y-98497592D01*
X104556686Y-98767490D01*
X104661995Y-99021727D01*
X104814880Y-99250535D01*
X105009465Y-99445120D01*
X105238273Y-99598005D01*
X105315515Y-99630000D01*
X105238273Y-99661995D01*
X105009465Y-99814880D01*
X104814880Y-100009465D01*
X104661995Y-100238273D01*
X104556686Y-100492510D01*
X104503000Y-100762408D01*
X104503000Y-101037592D01*
X104556686Y-101307490D01*
X104661995Y-101561727D01*
X104814880Y-101790535D01*
X105009465Y-101985120D01*
X105238273Y-102138005D01*
X105315515Y-102170000D01*
X105238273Y-102201995D01*
X105009465Y-102354880D01*
X104814880Y-102549465D01*
X104661995Y-102778273D01*
X104556686Y-103032510D01*
X104503000Y-103302408D01*
X104503000Y-103577592D01*
X104556686Y-103847490D01*
X104661995Y-104101727D01*
X104814880Y-104330535D01*
X105009465Y-104525120D01*
X105238273Y-104678005D01*
X105315515Y-104710000D01*
X105238273Y-104741995D01*
X105009465Y-104894880D01*
X104814880Y-105089465D01*
X104661995Y-105318273D01*
X104556686Y-105572510D01*
X104503000Y-105842408D01*
X104503000Y-106117592D01*
X104556686Y-106387490D01*
X104661995Y-106641727D01*
X104814880Y-106870535D01*
X105009465Y-107065120D01*
X105238273Y-107218005D01*
X105315515Y-107250000D01*
X105238273Y-107281995D01*
X105009465Y-107434880D01*
X104814880Y-107629465D01*
X104661995Y-107858273D01*
X104556686Y-108112510D01*
X104503000Y-108382408D01*
X104503000Y-108657592D01*
X104556686Y-108927490D01*
X104661995Y-109181727D01*
X104814880Y-109410535D01*
X105009465Y-109605120D01*
X105238273Y-109758005D01*
X105315515Y-109790000D01*
X105238273Y-109821995D01*
X105009465Y-109974880D01*
X104814880Y-110169465D01*
X104661995Y-110398273D01*
X104556686Y-110652510D01*
X104503000Y-110922408D01*
X104503000Y-111197592D01*
X104556686Y-111467490D01*
X104661995Y-111721727D01*
X104814880Y-111950535D01*
X105009465Y-112145120D01*
X105238273Y-112298005D01*
X105315515Y-112330000D01*
X105238273Y-112361995D01*
X105009465Y-112514880D01*
X104814880Y-112709465D01*
X104661995Y-112938273D01*
X104556686Y-113192510D01*
X104503000Y-113462408D01*
X104503000Y-113737592D01*
X104556686Y-114007490D01*
X104661995Y-114261727D01*
X104814880Y-114490535D01*
X105009465Y-114685120D01*
X105238273Y-114838005D01*
X105315515Y-114870000D01*
X105238273Y-114901995D01*
X105009465Y-115054880D01*
X104814880Y-115249465D01*
X104661995Y-115478273D01*
X104556686Y-115732510D01*
X104503000Y-116002408D01*
X104503000Y-116277592D01*
X104556686Y-116547490D01*
X104661995Y-116801727D01*
X104814880Y-117030535D01*
X105009465Y-117225120D01*
X105238273Y-117378005D01*
X105309943Y-117407692D01*
X105296977Y-117412364D01*
X105181020Y-117474344D01*
X105114040Y-117714435D01*
X105900000Y-118500395D01*
X105914143Y-118486253D01*
X106093748Y-118665858D01*
X106079605Y-118680000D01*
X106093748Y-118694143D01*
X105914143Y-118873748D01*
X105900000Y-118859605D01*
X105114040Y-119645565D01*
X105181020Y-119885656D01*
X105316760Y-119949485D01*
X105238273Y-119981995D01*
X105009465Y-120134880D01*
X104814880Y-120329465D01*
X104661995Y-120558273D01*
X104556686Y-120812510D01*
X104503000Y-121082408D01*
X104503000Y-121357592D01*
X104556686Y-121627490D01*
X104661995Y-121881727D01*
X104814880Y-122110535D01*
X105009465Y-122305120D01*
X105238273Y-122458005D01*
X105492510Y-122563314D01*
X105762408Y-122617000D01*
X106037592Y-122617000D01*
X106307490Y-122563314D01*
X106561727Y-122458005D01*
X106790535Y-122305120D01*
X106985120Y-122110535D01*
X107138005Y-121881727D01*
X107243314Y-121627490D01*
X107297000Y-121357592D01*
X107297000Y-121082408D01*
X107266372Y-120928430D01*
X107498004Y-120696798D01*
X107527002Y-120673000D01*
X107621975Y-120557275D01*
X107692547Y-120425246D01*
X107736004Y-120281985D01*
X107747001Y-120170332D01*
X107750678Y-120132999D01*
X107747001Y-120095666D01*
X107747001Y-106139038D01*
X119918945Y-93967095D01*
X120054880Y-94170535D01*
X120249465Y-94365120D01*
X120478273Y-94518005D01*
X120555515Y-94550000D01*
X120478273Y-94581995D01*
X120249465Y-94734880D01*
X120054880Y-94929465D01*
X119901995Y-95158273D01*
X119796686Y-95412510D01*
X119743000Y-95682408D01*
X119743000Y-95957592D01*
X119773628Y-96111571D01*
X119542001Y-96343197D01*
X119512998Y-96367000D01*
X119461661Y-96429555D01*
X119418025Y-96482725D01*
X119347454Y-96614754D01*
X119347453Y-96614755D01*
X119303996Y-96758016D01*
X119292999Y-96869669D01*
X119292999Y-96869679D01*
X119289323Y-96907001D01*
X119292999Y-96944323D01*
X119293000Y-121704428D01*
X119289323Y-121741761D01*
X119303997Y-121890746D01*
X119347453Y-122034007D01*
X119418025Y-122166037D01*
X119489200Y-122252763D01*
X119512999Y-122281762D01*
X119541997Y-122305560D01*
X123862440Y-126626004D01*
X123886238Y-126655002D01*
X124001963Y-126749975D01*
X124133992Y-126820547D01*
X124277253Y-126864004D01*
X124388906Y-126875001D01*
X124388915Y-126875001D01*
X124426238Y-126878677D01*
X124463561Y-126875001D01*
X158197677Y-126875001D01*
X158234999Y-126878677D01*
X158272321Y-126875001D01*
X158272332Y-126875001D01*
X158383985Y-126864004D01*
X158527246Y-126820547D01*
X158659275Y-126749975D01*
X158775000Y-126655002D01*
X158798803Y-126625998D01*
X159158624Y-126266177D01*
X159173088Y-126272168D01*
X159488967Y-126335000D01*
X159811033Y-126335000D01*
X160126912Y-126272168D01*
X160424463Y-126148918D01*
X160692252Y-125969987D01*
X160919987Y-125742252D01*
X161098918Y-125474463D01*
X161104909Y-125460000D01*
X164695091Y-125460000D01*
X164701082Y-125474463D01*
X164880013Y-125742252D01*
X165107748Y-125969987D01*
X165375537Y-126148918D01*
X165673088Y-126272168D01*
X165988967Y-126335000D01*
X166311033Y-126335000D01*
X166626912Y-126272168D01*
X166924463Y-126148918D01*
X167192252Y-125969987D01*
X167419987Y-125742252D01*
X167540000Y-125562640D01*
X167540000Y-128340000D01*
X81660000Y-128340000D01*
X81660000Y-118752017D01*
X104498090Y-118752017D01*
X104539078Y-119024133D01*
X104632364Y-119283023D01*
X104694344Y-119398980D01*
X104934435Y-119465960D01*
X105720395Y-118680000D01*
X104934435Y-117894040D01*
X104694344Y-117961020D01*
X104577244Y-118210048D01*
X104510977Y-118477135D01*
X104498090Y-118752017D01*
X81660000Y-118752017D01*
X81660000Y-106674916D01*
X99330000Y-106674916D01*
X99330000Y-106925084D01*
X99378805Y-107170445D01*
X99474541Y-107401571D01*
X99613527Y-107609578D01*
X99790422Y-107786473D01*
X99998429Y-107925459D01*
X100229555Y-108021195D01*
X100474916Y-108070000D01*
X100725084Y-108070000D01*
X100970445Y-108021195D01*
X101201571Y-107925459D01*
X101409578Y-107786473D01*
X101586473Y-107609578D01*
X101725459Y-107401571D01*
X101821195Y-107170445D01*
X101870000Y-106925084D01*
X101870000Y-106674916D01*
X101821195Y-106429555D01*
X101725459Y-106198429D01*
X101586473Y-105990422D01*
X101409578Y-105813527D01*
X101381368Y-105794677D01*
X101441712Y-105751018D01*
X101611073Y-105568535D01*
X101741579Y-105356517D01*
X101828215Y-105123113D01*
X101704890Y-104927000D01*
X100727000Y-104927000D01*
X100727000Y-104947000D01*
X100473000Y-104947000D01*
X100473000Y-104927000D01*
X99495110Y-104927000D01*
X99371785Y-105123113D01*
X99458421Y-105356517D01*
X99588927Y-105568535D01*
X99758288Y-105751018D01*
X99818632Y-105794677D01*
X99790422Y-105813527D01*
X99613527Y-105990422D01*
X99474541Y-106198429D01*
X99378805Y-106429555D01*
X99330000Y-106674916D01*
X81660000Y-106674916D01*
X81660000Y-100587341D01*
X81991647Y-100808941D01*
X82407490Y-100981189D01*
X82848947Y-101069000D01*
X83299053Y-101069000D01*
X83740510Y-100981189D01*
X84156353Y-100808941D01*
X84530603Y-100558875D01*
X84848875Y-100240603D01*
X85098941Y-99866353D01*
X85271189Y-99450510D01*
X85359000Y-99009053D01*
X85359000Y-98558947D01*
X85271189Y-98117490D01*
X85098941Y-97701647D01*
X84848875Y-97327397D01*
X84530603Y-97009125D01*
X84156353Y-96759059D01*
X83740510Y-96586811D01*
X83299053Y-96499000D01*
X82848947Y-96499000D01*
X82407490Y-96586811D01*
X81991647Y-96759059D01*
X81660000Y-96980659D01*
X81660000Y-92674916D01*
X99330000Y-92674916D01*
X99330000Y-92925084D01*
X99378805Y-93170445D01*
X99474541Y-93401571D01*
X99613527Y-93609578D01*
X99790422Y-93786473D01*
X99810667Y-93800000D01*
X99790422Y-93813527D01*
X99613527Y-93990422D01*
X99474541Y-94198429D01*
X99378805Y-94429555D01*
X99330000Y-94674916D01*
X99330000Y-94925084D01*
X99378805Y-95170445D01*
X99474541Y-95401571D01*
X99613527Y-95609578D01*
X99790422Y-95786473D01*
X99810667Y-95800000D01*
X99790422Y-95813527D01*
X99613527Y-95990422D01*
X99474541Y-96198429D01*
X99378805Y-96429555D01*
X99330000Y-96674916D01*
X99330000Y-96925084D01*
X99378805Y-97170445D01*
X99474541Y-97401571D01*
X99613527Y-97609578D01*
X99790422Y-97786473D01*
X99810667Y-97800000D01*
X99790422Y-97813527D01*
X99613527Y-97990422D01*
X99474541Y-98198429D01*
X99378805Y-98429555D01*
X99330000Y-98674916D01*
X99330000Y-98925084D01*
X99378805Y-99170445D01*
X99474541Y-99401571D01*
X99613527Y-99609578D01*
X99790422Y-99786473D01*
X99810667Y-99800000D01*
X99790422Y-99813527D01*
X99613527Y-99990422D01*
X99474541Y-100198429D01*
X99378805Y-100429555D01*
X99330000Y-100674916D01*
X99330000Y-100925084D01*
X99378805Y-101170445D01*
X99474541Y-101401571D01*
X99613527Y-101609578D01*
X99790422Y-101786473D01*
X99810667Y-101800000D01*
X99790422Y-101813527D01*
X99613527Y-101990422D01*
X99474541Y-102198429D01*
X99378805Y-102429555D01*
X99330000Y-102674916D01*
X99330000Y-102925084D01*
X99378805Y-103170445D01*
X99474541Y-103401571D01*
X99613527Y-103609578D01*
X99790422Y-103786473D01*
X99818632Y-103805323D01*
X99758288Y-103848982D01*
X99588927Y-104031465D01*
X99458421Y-104243483D01*
X99371785Y-104476887D01*
X99495110Y-104673000D01*
X100473000Y-104673000D01*
X100473000Y-104653000D01*
X100727000Y-104653000D01*
X100727000Y-104673000D01*
X101704890Y-104673000D01*
X101828215Y-104476887D01*
X101741579Y-104243483D01*
X101611073Y-104031465D01*
X101441712Y-103848982D01*
X101381368Y-103805323D01*
X101409578Y-103786473D01*
X101586473Y-103609578D01*
X101725459Y-103401571D01*
X101821195Y-103170445D01*
X101870000Y-102925084D01*
X101870000Y-102674916D01*
X101821195Y-102429555D01*
X101725459Y-102198429D01*
X101586473Y-101990422D01*
X101409578Y-101813527D01*
X101389333Y-101800000D01*
X101409578Y-101786473D01*
X101586473Y-101609578D01*
X101725459Y-101401571D01*
X101821195Y-101170445D01*
X101870000Y-100925084D01*
X101870000Y-100674916D01*
X101821195Y-100429555D01*
X101725459Y-100198429D01*
X101586473Y-99990422D01*
X101409578Y-99813527D01*
X101389333Y-99800000D01*
X101409578Y-99786473D01*
X101586473Y-99609578D01*
X101725459Y-99401571D01*
X101821195Y-99170445D01*
X101870000Y-98925084D01*
X101870000Y-98674916D01*
X101821195Y-98429555D01*
X101725459Y-98198429D01*
X101586473Y-97990422D01*
X101409578Y-97813527D01*
X101389333Y-97800000D01*
X101409578Y-97786473D01*
X101586473Y-97609578D01*
X101725459Y-97401571D01*
X101821195Y-97170445D01*
X101870000Y-96925084D01*
X101870000Y-96674916D01*
X101821195Y-96429555D01*
X101725459Y-96198429D01*
X101586473Y-95990422D01*
X101409578Y-95813527D01*
X101389333Y-95800000D01*
X101409578Y-95786473D01*
X101586473Y-95609578D01*
X101725459Y-95401571D01*
X101821195Y-95170445D01*
X101870000Y-94925084D01*
X101870000Y-94674916D01*
X101821195Y-94429555D01*
X101725459Y-94198429D01*
X101586473Y-93990422D01*
X101409578Y-93813527D01*
X101389333Y-93800000D01*
X101409578Y-93786473D01*
X101586473Y-93609578D01*
X101725459Y-93401571D01*
X101821195Y-93170445D01*
X101870000Y-92925084D01*
X101870000Y-92674916D01*
X101821195Y-92429555D01*
X101725459Y-92198429D01*
X101586473Y-91990422D01*
X101409578Y-91813527D01*
X101201571Y-91674541D01*
X100970445Y-91578805D01*
X100725084Y-91530000D01*
X100474916Y-91530000D01*
X100229555Y-91578805D01*
X99998429Y-91674541D01*
X99790422Y-91813527D01*
X99613527Y-91990422D01*
X99474541Y-92198429D01*
X99378805Y-92429555D01*
X99330000Y-92674916D01*
X81660000Y-92674916D01*
X81660000Y-90127000D01*
X117750000Y-90127000D01*
X117774776Y-90124560D01*
X117798601Y-90117333D01*
X117820557Y-90105597D01*
X117839803Y-90089803D01*
X117855597Y-90070557D01*
X117867333Y-90048601D01*
X117874560Y-90024776D01*
X117877000Y-90000000D01*
X117877000Y-61800000D01*
X161711928Y-61800000D01*
X161711928Y-64300000D01*
X161724188Y-64424482D01*
X161760498Y-64544180D01*
X161819463Y-64654494D01*
X161898815Y-64751185D01*
X161995506Y-64830537D01*
X162105820Y-64889502D01*
X162225518Y-64925812D01*
X162350000Y-64938072D01*
X164850000Y-64938072D01*
X164974482Y-64925812D01*
X165094180Y-64889502D01*
X165204494Y-64830537D01*
X165301185Y-64751185D01*
X165380537Y-64654494D01*
X165439502Y-64544180D01*
X165475812Y-64424482D01*
X165488072Y-64300000D01*
X165488072Y-61800000D01*
X165475812Y-61675518D01*
X165439502Y-61555820D01*
X165380537Y-61445506D01*
X165301185Y-61348815D01*
X165204494Y-61269463D01*
X165094180Y-61210498D01*
X164974482Y-61174188D01*
X164850000Y-61161928D01*
X162350000Y-61161928D01*
X162225518Y-61174188D01*
X162105820Y-61210498D01*
X161995506Y-61269463D01*
X161898815Y-61348815D01*
X161819463Y-61445506D01*
X161760498Y-61555820D01*
X161724188Y-61675518D01*
X161711928Y-61800000D01*
X117877000Y-61800000D01*
X117877000Y-55363605D01*
X162466000Y-55363605D01*
X162591914Y-55653577D01*
X162924126Y-55819433D01*
X163282312Y-55917290D01*
X163652706Y-55943389D01*
X164021075Y-55896725D01*
X164373262Y-55779094D01*
X164608086Y-55653577D01*
X164734000Y-55363605D01*
X163600000Y-54229605D01*
X162466000Y-55363605D01*
X117877000Y-55363605D01*
X117877000Y-54102706D01*
X161706611Y-54102706D01*
X161753275Y-54471075D01*
X161870906Y-54823262D01*
X161996423Y-55058086D01*
X162286395Y-55184000D01*
X163420395Y-54050000D01*
X163779605Y-54050000D01*
X164913605Y-55184000D01*
X165203577Y-55058086D01*
X165369433Y-54725874D01*
X165467290Y-54367688D01*
X165493389Y-53997294D01*
X165446725Y-53628925D01*
X165329094Y-53276738D01*
X165203577Y-53041914D01*
X164913605Y-52916000D01*
X163779605Y-54050000D01*
X163420395Y-54050000D01*
X162286395Y-52916000D01*
X161996423Y-53041914D01*
X161830567Y-53374126D01*
X161732710Y-53732312D01*
X161706611Y-54102706D01*
X117877000Y-54102706D01*
X117877000Y-52736395D01*
X162466000Y-52736395D01*
X163600000Y-53870395D01*
X164734000Y-52736395D01*
X164608086Y-52446423D01*
X164275874Y-52280567D01*
X163917688Y-52182710D01*
X163547294Y-52156611D01*
X163178925Y-52203275D01*
X162826738Y-52320906D01*
X162591914Y-52446423D01*
X162466000Y-52736395D01*
X117877000Y-52736395D01*
X117877000Y-49910000D01*
X167540001Y-49910000D01*
X167540000Y-119336401D01*
G37*
%TD.AperFunction*%
%TD*%
M02*
