%TF.GenerationSoftware,KiCad,Pcbnew,(5.1.9)-1*%
%TF.CreationDate,2021-03-16T20:09:15+01:00*%
%TF.ProjectId,HB-Uni-SenDose-4,48422d55-6e69-42d5-9365-6e446f73652d,rev?*%
%TF.SameCoordinates,Original*%
%TF.FileFunction,Soldermask,Top*%
%TF.FilePolarity,Negative*%
%FSLAX46Y46*%
G04 Gerber Fmt 4.6, Leading zero omitted, Abs format (unit mm)*
G04 Created by KiCad (PCBNEW (5.1.9)-1) date 2021-03-16 20:09:15*
%MOMM*%
%LPD*%
G01*
G04 APERTURE LIST*
%ADD10C,1.800000*%
%ADD11R,1.800000X1.800000*%
%ADD12O,1.400000X1.400000*%
%ADD13C,1.400000*%
%ADD14C,1.600000*%
%ADD15O,1.700000X1.700000*%
%ADD16R,1.700000X1.700000*%
%ADD17C,2.500000*%
%ADD18R,2.500000X2.500000*%
%ADD19O,1.600000X1.600000*%
%ADD20R,1.600000X1.600000*%
%ADD21O,3.000000X1.500000*%
%ADD22O,1.270000X1.270000*%
%ADD23C,1.270000*%
%ADD24C,3.300000*%
%ADD25R,2.000000X1.200000*%
%ADD26C,1.524000*%
%ADD27C,2.000000*%
G04 APERTURE END LIST*
D10*
%TO.C,D4*%
X152900000Y-111010000D03*
D11*
X152900000Y-113550000D03*
%TD*%
D12*
%TO.C,SR1*%
X95600000Y-51810000D03*
D13*
X95600000Y-54350000D03*
%TD*%
D14*
%TO.C,RV1*%
X89500000Y-58400000D03*
X91400000Y-53400000D03*
%TD*%
%TO.C,C1*%
X143600000Y-113000000D03*
X141100000Y-113000000D03*
%TD*%
D15*
%TO.C,Pump4*%
X164700000Y-110960000D03*
D16*
X164700000Y-113500000D03*
%TD*%
D15*
%TO.C,Pump3*%
X164700000Y-104460000D03*
D16*
X164700000Y-107000000D03*
%TD*%
D15*
%TO.C,Pump2*%
X164700000Y-98060000D03*
D16*
X164700000Y-100600000D03*
%TD*%
D15*
%TO.C,Pump1*%
X164700000Y-91560000D03*
D16*
X164700000Y-94100000D03*
%TD*%
D17*
%TO.C,PS1*%
X102100000Y-53950000D03*
D18*
X163600000Y-63050000D03*
D17*
X102100000Y-59350000D03*
X163600000Y-54050000D03*
%TD*%
D19*
%TO.C,U3*%
X146220000Y-92400000D03*
X138600000Y-110180000D03*
X146220000Y-94940000D03*
X138600000Y-107640000D03*
X146220000Y-97480000D03*
X138600000Y-105100000D03*
X146220000Y-100020000D03*
X138600000Y-102560000D03*
X146220000Y-102560000D03*
X138600000Y-100020000D03*
X146220000Y-105100000D03*
X138600000Y-97480000D03*
X146220000Y-107640000D03*
X138600000Y-94940000D03*
X146220000Y-110180000D03*
D20*
X138600000Y-92400000D03*
%TD*%
D21*
%TO.C,WAGO_236_403*%
X87200000Y-75150000D03*
X92200000Y-75150000D03*
X87200000Y-70150000D03*
X92200000Y-70150000D03*
X87200000Y-65150000D03*
X92200000Y-65150000D03*
%TD*%
D22*
%TO.C,U2*%
X100600000Y-106800000D03*
X100600000Y-104800000D03*
D23*
X100600000Y-102800000D03*
X100600000Y-100800000D03*
X100600000Y-98800000D03*
X100600000Y-96800000D03*
X100600000Y-94800000D03*
X100600000Y-92800000D03*
D24*
X83074000Y-98784000D03*
D25*
X101600000Y-106800000D03*
X101600000Y-104800000D03*
X101600000Y-102800000D03*
X101600000Y-100800000D03*
X101600000Y-98800000D03*
X101600000Y-96800000D03*
X101600000Y-94800000D03*
X101600000Y-92800000D03*
%TD*%
D26*
%TO.C,U1*%
X121140000Y-121220000D03*
X121140000Y-118680000D03*
X121140000Y-116140000D03*
X121140000Y-113600000D03*
X121140000Y-111060000D03*
X121140000Y-108520000D03*
X121140000Y-105980000D03*
X121140000Y-103440000D03*
X121140000Y-100900000D03*
X121140000Y-98360000D03*
X121140000Y-95820000D03*
X121140000Y-93280000D03*
X105900000Y-93280000D03*
X105900000Y-95820000D03*
X105900000Y-98360000D03*
X105900000Y-100900000D03*
X105900000Y-103440000D03*
X105900000Y-105980000D03*
X105900000Y-108520000D03*
X105900000Y-111060000D03*
X105900000Y-113600000D03*
X105900000Y-116140000D03*
X105900000Y-118680000D03*
X105900000Y-121220000D03*
%TD*%
D27*
%TO.C,SW1*%
X159650000Y-124700000D03*
X159650000Y-120200000D03*
X166150000Y-124700000D03*
X166150000Y-120200000D03*
%TD*%
D19*
%TO.C,R5*%
X147400000Y-124990000D03*
D14*
X147400000Y-122450000D03*
%TD*%
D19*
%TO.C,R4*%
X157900000Y-113840000D03*
D14*
X157900000Y-111300000D03*
%TD*%
D19*
%TO.C,R3*%
X157900000Y-107340000D03*
D14*
X157900000Y-104800000D03*
%TD*%
D19*
%TO.C,R2*%
X157900000Y-100840000D03*
D14*
X157900000Y-98300000D03*
%TD*%
D19*
%TO.C,R1*%
X157900000Y-94240000D03*
D14*
X157900000Y-91700000D03*
%TD*%
D15*
%TO.C,J6*%
X134520000Y-124540000D03*
X134520000Y-122000000D03*
X131980000Y-124540000D03*
X131980000Y-122000000D03*
X129440000Y-124540000D03*
X129440000Y-122000000D03*
X126900000Y-124540000D03*
X126900000Y-122000000D03*
%TD*%
%TO.C,J1*%
X134120000Y-92600000D03*
D16*
X131580000Y-92600000D03*
D15*
X129040000Y-92600000D03*
D16*
X126500000Y-92600000D03*
%TD*%
D10*
%TO.C,D5*%
X153800000Y-124040000D03*
D11*
X153800000Y-121500000D03*
%TD*%
D10*
%TO.C,D3*%
X152900000Y-104560000D03*
D11*
X152900000Y-107100000D03*
%TD*%
D10*
%TO.C,D2*%
X152900000Y-98100000D03*
D11*
X152900000Y-100640000D03*
%TD*%
D10*
%TO.C,D1*%
X152900000Y-91660000D03*
D11*
X152900000Y-94200000D03*
%TD*%
M02*
