M48
; DRILL file {KiCad (5.1.9)-1} date 03/16/21 20:09:17
; FORMAT={-:-/ absolute / inch / decimal}
; #@! TF.CreationDate,2021-03-16T20:09:17+01:00
; #@! TF.GenerationSoftware,Kicad,Pcbnew,(5.1.9)-1
; #@! TF.FileFunction,Plated,1,2,PTH
FMAT,2
INCH
T1C0.0236
T2C0.0276
T3C0.0300
T4C0.0315
T5C0.0354
T6C0.0394
T7C0.0433
T8C0.0453
T9C0.0472
%
G90
G05
T1
X3.5236Y-2.2992
X3.5984Y-2.1024
T2
X3.7638Y-2.0398
X3.7638Y-2.1398
T3
X3.9606Y-3.6535
X3.9606Y-3.7323
X3.9606Y-3.811
X3.9606Y-3.8898
X3.9606Y-3.9685
X3.9606Y-4.0472
X3.9606Y-4.126
X3.9606Y-4.2047
X4.1693Y-3.6724
X4.1693Y-3.7724
X4.1693Y-3.8724
X4.1693Y-3.9724
X4.1693Y-4.0724
X4.1693Y-4.1724
X4.1693Y-4.2724
X4.1693Y-4.3724
X4.1693Y-4.4724
X4.1693Y-4.5724
X4.1693Y-4.6724
X4.1693Y-4.7724
X4.7693Y-3.6724
X4.7693Y-3.7724
X4.7693Y-3.8724
X4.7693Y-3.9724
X4.7693Y-4.0724
X4.7693Y-4.1724
X4.7693Y-4.2724
X4.7693Y-4.3724
X4.7693Y-4.4724
X4.7693Y-4.5724
X4.7693Y-4.6724
X4.7693Y-4.7724
T4
X5.4567Y-3.6378
X5.4567Y-3.7378
X5.4567Y-3.8378
X5.4567Y-3.9378
X5.4567Y-4.0378
X5.4567Y-4.1378
X5.4567Y-4.2378
X5.4567Y-4.3378
X5.5551Y-4.4488
X5.6535Y-4.4488
X5.7567Y-3.6378
X5.7567Y-3.7378
X5.7567Y-3.8378
X5.7567Y-3.9378
X5.7567Y-4.0378
X5.7567Y-4.1378
X5.7567Y-4.2378
X5.7567Y-4.3378
X5.8031Y-4.8209
X5.8031Y-4.9209
X6.2165Y-3.6102
X6.2165Y-3.7102
X6.2165Y-3.8701
X6.2165Y-3.9701
X6.2165Y-4.126
X6.2165Y-4.226
X6.2165Y-4.3819
X6.2165Y-4.4819
T5
X6.0197Y-3.6087
X6.0197Y-3.7087
X6.0197Y-3.8622
X6.0197Y-3.9622
X6.0197Y-4.1165
X6.0197Y-4.2165
X6.0197Y-4.3705
X6.0197Y-4.4705
X6.0551Y-4.7835
X6.0551Y-4.8835
T6
X4.9803Y-3.6457
X4.9961Y-4.8031
X4.9961Y-4.9031
X5.0803Y-3.6457
X5.0961Y-4.8031
X5.0961Y-4.9031
X5.1803Y-3.6457
X5.1961Y-4.8031
X5.1961Y-4.9031
X5.2803Y-3.6457
X5.2961Y-4.8031
X5.2961Y-4.9031
X6.4843Y-3.6047
X6.4843Y-3.7047
X6.4843Y-3.8606
X6.4843Y-3.9606
X6.4843Y-4.1126
X6.4843Y-4.2126
X6.4843Y-4.3685
X6.4843Y-4.4685
T7
X6.2854Y-4.7323
X6.2854Y-4.9094
X6.5413Y-4.7323
X6.5413Y-4.9094
T8
X3.4331Y-2.565
X3.4331Y-2.7618
X3.4331Y-2.9587
X3.6299Y-2.565
X3.6299Y-2.7618
X3.6299Y-2.9587
T9
X4.0197Y-2.124
X4.0197Y-2.3366
X6.4409Y-2.128
X6.4409Y-2.4823
T0
M30
