%TF.GenerationSoftware,KiCad,Pcbnew,(5.1.9)-1*%
%TF.CreationDate,2021-03-16T20:09:15+01:00*%
%TF.ProjectId,HB-Uni-SenDose-4,48422d55-6e69-42d5-9365-6e446f73652d,rev?*%
%TF.SameCoordinates,Original*%
%TF.FileFunction,Legend,Bot*%
%TF.FilePolarity,Positive*%
%FSLAX46Y46*%
G04 Gerber Fmt 4.6, Leading zero omitted, Abs format (unit mm)*
G04 Created by KiCad (PCBNEW (5.1.9)-1) date 2021-03-16 20:09:15*
%MOMM*%
%LPD*%
G01*
G04 APERTURE LIST*
%ADD10C,0.120000*%
%ADD11C,0.150000*%
G04 APERTURE END LIST*
D10*
%TO.C,J6*%
X125570000Y-120670000D02*
X125570000Y-122000000D01*
X126900000Y-120670000D02*
X125570000Y-120670000D01*
X125570000Y-123270000D02*
X125570000Y-125870000D01*
X128170000Y-123270000D02*
X125570000Y-123270000D01*
X128170000Y-120670000D02*
X128170000Y-123270000D01*
X125570000Y-125870000D02*
X135850000Y-125870000D01*
X128170000Y-120670000D02*
X135850000Y-120670000D01*
X135850000Y-120670000D02*
X135850000Y-125870000D01*
D11*
X124022380Y-122936666D02*
X124736666Y-122936666D01*
X124879523Y-122889047D01*
X124974761Y-122793809D01*
X125022380Y-122650952D01*
X125022380Y-122555714D01*
X124022380Y-123841428D02*
X124022380Y-123650952D01*
X124070000Y-123555714D01*
X124117619Y-123508095D01*
X124260476Y-123412857D01*
X124450952Y-123365238D01*
X124831904Y-123365238D01*
X124927142Y-123412857D01*
X124974761Y-123460476D01*
X125022380Y-123555714D01*
X125022380Y-123746190D01*
X124974761Y-123841428D01*
X124927142Y-123889047D01*
X124831904Y-123936666D01*
X124593809Y-123936666D01*
X124498571Y-123889047D01*
X124450952Y-123841428D01*
X124403333Y-123746190D01*
X124403333Y-123555714D01*
X124450952Y-123460476D01*
X124498571Y-123412857D01*
X124593809Y-123365238D01*
%TD*%
M02*
